<svg width="31" height="31" viewBox="0 0 31 31" fill="none" xmlns="http://www.w3.org/2000/svg">
<g clip-path="url(#clip0_940_776)">
<path d="M28.645 28.79C28.023 30.0339 27.383 30.8249 26.8879 31H20.5598C20.0647 30.8249 19.4186 30.0339 18.8027 28.79H28.645Z" fill="#C4E1E8"/>
<path d="M29.8699 11.1706H17.5762C18.0834 8.8942 18.6268 7.4873 18.6268 7.4873H28.8193C28.8193 7.4873 29.3627 8.8942 29.8699 11.1706Z" fill="#C4E1E8"/>
<path d="M30.7465 19.0022C30.7224 23.0961 29.72 26.6284 28.6452 28.7901H18.803C17.7282 26.6284 16.7259 23.0961 16.7017 19.0022C16.6836 15.9529 17.1184 13.2176 17.5773 11.1707H29.871C30.3299 13.2176 30.7646 15.9529 30.7465 19.0022Z" fill="#A3C539"/>
<path d="M24.0117 16.1711L27.8202 0.418459L28.5245 0.588735L24.716 16.3414L24.0117 16.1711Z" fill="#66A438"/>
<path d="M23.3208 25.6803C25.9519 25.6803 28.0849 23.5474 28.0849 20.9162C28.0849 18.2851 25.9519 16.1521 23.3208 16.1521C20.6896 16.1521 18.5566 18.2851 18.5566 20.9162C18.5566 23.5474 20.6896 25.6803 23.3208 25.6803Z" fill="#66A438"/>
<path d="M23.3203 22.7519C24.7776 22.7519 25.959 21.9301 25.959 20.9163C25.959 19.9025 24.7776 19.0807 23.3203 19.0807C21.863 19.0807 20.6816 19.9025 20.6816 20.9163C20.6816 21.9301 21.863 22.7519 23.3203 22.7519Z" fill="#C9C15C"/>
<path d="M26.0859 20.554H26.8951V21.2785H26.0859V20.554Z" fill="#A3C539"/>
<path d="M22.9512 22.8967H23.6758V23.8689H22.9512V22.8967Z" fill="#A3C539"/>
<path d="M24.2324 22.812L24.8795 22.4852L25.3179 23.3534L24.6709 23.6801L24.2324 22.812Z" fill="#A3C539"/>
<path d="M25.4727 19.8429L26.2086 19.2081L26.6817 19.7566L25.9458 20.3914L25.4727 19.8429Z" fill="#A3C539"/>
<path d="M24.6348 19.062L25.2132 18.2804L25.7958 18.7115L25.2173 19.4931L24.6348 19.062Z" fill="#A3C539"/>
<path d="M23.5059 17.9938H24.2304V18.9659H23.5059V17.9938Z" fill="#A3C539"/>
<path d="M25.3145 22.2102L25.7405 21.624L26.527 22.1956L26.1009 22.7818L25.3145 22.2102Z" fill="#A3C539"/>
<path d="M12.1977 28.79C11.5818 30.0339 10.9357 30.8249 10.4406 31H4.11258C3.61745 30.8249 2.9774 30.0339 2.35547 28.79H12.1977Z" fill="#C4E1E8"/>
<path d="M13.4226 11.1706H1.12891C1.63611 8.8942 2.17955 7.4873 2.17955 7.4873H12.372C12.372 7.4873 12.9154 8.8942 13.4226 11.1706Z" fill="#C4E1E8"/>
<path d="M14.2973 19.0022C14.2731 23.0961 13.2708 26.6284 12.196 28.7901H2.35379C1.27899 26.6284 0.276653 23.0961 0.2525 19.0022C0.234386 15.9529 0.669134 13.2176 1.12804 11.1707H13.4218C13.8807 13.2176 14.3154 15.9529 14.2973 19.0022Z" fill="#DB3644"/>
<path d="M2.17383 0.591675L2.87812 0.421398L7.8133 20.8342L7.10901 21.0044L2.17383 0.591675Z" fill="#BE1E2D"/>
<path d="M9.74468 25.0765C10.0285 26.0366 9.7628 27.0812 9.52127 28.0473C9.20125 29.3214 8.71819 30.4384 7.61925 30.7645C6.5203 31.0906 5.65684 30.2754 4.69677 29.3938C3.95407 28.7175 3.02419 28.1318 2.7404 27.1537C2.0762 24.9195 3.28383 23.2409 5.21605 22.6673C7.14827 22.0937 9.08048 22.8424 9.74468 25.0765Z" fill="#BE1E2D"/>
<path d="M3.44201 21.8763C4.11225 21.5623 4.84287 21.7133 5.07232 22.2024C5.30177 22.6915 4.94552 23.3496 4.27528 23.6636C3.60504 23.9776 2.23438 23.5247 2.23438 23.5247C2.23438 23.5247 2.77177 22.1903 3.44201 21.8763Z" fill="#66A438"/>
<path d="M6.62459 20.9283C5.89397 21.0491 5.38072 21.5865 5.4713 22.1179C5.56187 22.6492 6.22607 22.9934 6.95065 22.8666C7.67523 22.7398 8.5568 21.5986 8.5568 21.5986C8.5568 21.5986 7.35521 20.8015 6.62459 20.9283Z" fill="#66A438"/>
<path d="M3.93753 23.5127C4.3119 22.8726 4.99421 22.5768 5.46519 22.8545C5.93617 23.1323 6.00862 23.8689 5.63426 24.5029C5.25989 25.1369 3.87715 25.5536 3.87715 25.5536C3.87715 25.5536 3.56316 24.1467 3.93753 23.5127Z" fill="#66A438"/>
<path d="M7.24619 22.5285C6.58199 22.1964 5.85137 22.3232 5.6038 22.8123C5.35624 23.3014 5.70041 23.9595 6.36461 24.2916C7.02881 24.6237 8.40552 24.2071 8.40552 24.2071C8.40552 24.2071 7.90435 22.8606 7.24619 22.5285Z" fill="#66A438"/>
<path d="M4.99261 22.2869C4.97449 22.2446 4.46125 21.2483 4.64843 20.2339C4.73297 19.769 4.98053 19.3523 5.34886 19.0625L5.77153 19.6542C5.55416 19.8354 5.40924 20.083 5.36094 20.3607C5.22206 21.1215 5.63266 21.9487 5.63869 21.9548L4.99261 22.2869Z" fill="#BE1E2D"/>
<path d="M4.46484 26.6306L4.90684 26.0567L5.60505 26.5945L5.16305 27.1684L4.46484 26.6306Z" fill="#DB3644"/>
<path d="M7.30859 28.5526L7.75059 27.9787L8.44879 28.5165L8.0068 29.0904L7.30859 28.5526Z" fill="#DB3644"/>
<path d="M7.26562 25.6301L7.98948 25.5946L8.03268 26.4753L7.30882 26.5108L7.26562 25.6301Z" fill="#DB3644"/>
<path d="M5.93164 27.4963L6.6555 27.4608L6.69869 28.3415L5.97484 28.377L5.93164 27.4963Z" fill="#DB3644"/>
<path d="M20.3246 28.79C19.7088 30.0339 19.0627 30.8249 18.5736 31H12.2395C11.7444 30.8249 11.1044 30.0339 10.4824 28.79H20.3246Z" fill="#D7EEF2"/>
<path d="M21.5556 11.1706H9.25586C9.76307 8.8942 10.3125 7.4873 10.3125 7.4873H20.4989C20.4989 7.4873 21.0424 8.8942 21.5556 11.1706Z" fill="#D7EEF2"/>
<path d="M22.4259 19.0022C22.4078 23.0961 21.4055 26.6284 20.3246 28.7901H10.4824C9.4076 26.6284 8.40526 23.0961 8.38111 19.0022C8.36903 15.9529 8.79774 13.2176 9.25664 11.1707H21.5564C22.0153 13.2176 22.444 15.9529 22.4259 19.0022Z" fill="#FCE148"/>
<path d="M10.3301 0.172729L11.0344 0.0024529L16.513 22.6631L15.8087 22.8334L10.3301 0.172729Z" fill="#EA9903"/>
<path d="M14.1293 5.39812L20.258 10.4098L21.1879 11.1706C23.0235 8.42928 22.4136 5.56719 20.4271 3.94896C18.4405 2.33073 15.2282 2.13147 13.2598 4.67354L14.1293 5.39812Z" fill="#EA9903"/>
<path d="M20.2577 10.4098C21.58 8.66482 21.2419 6.18312 19.4968 4.86076C17.8424 3.60482 15.4996 3.84031 14.1289 5.39816L20.2577 10.4098Z" fill="#F0CF31"/>
<path d="M16.9082 7.67273L19.4155 4.60688L19.9764 5.06554L17.469 8.13139L16.9082 7.67273Z" fill="#FCE148"/>
<path d="M16.4336 4.01184L17.1546 3.94011L17.5467 7.88135L16.8257 7.95308L16.4336 4.01184Z" fill="#FCE148"/>
<path d="M17.1445 7.55823L21.0858 7.16608L21.1575 7.88704L17.2163 8.27919L17.1445 7.55823Z" fill="#FCE148"/>
<path d="M22.7559 13.4426L23.3428 13.018L23.8594 13.7321L23.2725 14.1567L22.7559 13.4426Z" fill="#66A438"/>
<path d="M28.3457 17.1935L28.9326 16.7689L29.4492 17.483L28.8623 17.9076L28.3457 17.1935Z" fill="#66A438"/>
<path d="M27.5195 13.9823L27.7285 13.1254L28.4328 13.2971L28.2238 14.154L27.5195 13.9823Z" fill="#66A438"/>
<path d="M23.9922 27.2046L24.2011 26.3477L24.9054 26.5194L24.6965 27.3763L23.9922 27.2046Z" fill="#66A438"/>
<path d="M27.7207 25.5746L27.9296 24.7177L28.6339 24.8894L28.425 25.7463L27.7207 25.5746Z" fill="#66A438"/>
<path d="M17.8887 17.5544L18.4756 17.1298L18.9922 17.8439L18.4053 18.2685L17.8887 17.5544Z" fill="#EA9903"/>
<path d="M12.623 19.0649L13.21 18.6403L13.7266 19.3544L13.1396 19.779L12.623 19.0649Z" fill="#EA9903"/>
<path d="M17.2656 15.3365L17.4746 14.4797L18.1789 14.6514L17.9699 15.5083L17.2656 15.3365Z" fill="#EA9903"/>
<path d="M11.3242 23.222L11.5332 22.3652L12.2374 22.5369L12.0285 23.3938L11.3242 23.222Z" fill="#EA9903"/>
<path d="M17.998 23.0747L18.207 22.2178L18.9113 22.3895L18.7023 23.2464L17.998 23.0747Z" fill="#EA9903"/>
<path d="M14.4316 26.3744L14.6406 25.5175L15.3449 25.6892L15.1359 26.5461L14.4316 26.3744Z" fill="#EA9903"/>
<path d="M2.13281 13.4469L2.71972 13.0223L3.23633 13.7364L2.64941 14.161L2.13281 13.4469Z" fill="#BE1E2D"/>
<path d="M4.16406 15.7413L4.75097 15.3167L5.26758 16.0308L4.68066 16.4554L4.16406 15.7413Z" fill="#BE1E2D"/>
<path d="M6.70703 13.0164L6.91596 12.1595L7.62026 12.3312L7.41132 13.1881L6.70703 13.0164Z" fill="#BE1E2D"/>
<path d="M2.85547 18.4707L3.0644 17.6138L3.76869 17.7855L3.55976 18.6424L2.85547 18.4707Z" fill="#BE1E2D"/>
<path d="M1.68359 21.2511L1.89253 20.3942L2.59682 20.5659L2.38789 21.4228L1.68359 21.2511Z" fill="#BE1E2D"/>
</g>
<defs>
<clipPath id="clip0_940_776">
<rect width="31" height="31" fill="white"/>
</clipPath>
</defs>
</svg>
