<svg width="25" height="25" viewBox="0 0 25 25" fill="none" xmlns="http://www.w3.org/2000/svg">
<path d="M7.56836 21.875H17.4307C17.8619 21.875 18.2119 22.2251 18.2119 22.6562V23.8281H6.78711V22.6562C6.78711 22.2251 7.13718 21.875 7.56836 21.875Z" fill="#9CCC65"/>
<path d="M19.9219 8.59375C19.9219 15.799 12.5 20.3125 12.5 20.3125C12.5 20.3125 5.07812 15.9615 5.07812 8.59375C5.07812 4.49476 8.40101 1.17188 12.5 1.17188C16.599 1.17188 19.9219 4.49476 19.9219 8.59375Z" fill="#E53A35"/>
<path d="M12.5 14.4531C15.736 14.4531 18.3594 11.8298 18.3594 8.59375C18.3594 5.35771 15.736 2.73438 12.5 2.73438C9.26396 2.73438 6.64062 5.35771 6.64062 8.59375C6.64062 11.8298 9.26396 14.4531 12.5 14.4531Z" fill="#FAFBFB"/>
<path d="M12.5 12.0319C12.2843 12.0319 12.1094 12.2068 12.1094 12.4225V14.4531C12.1094 14.6688 12.2843 14.8437 12.5 14.8437C12.7157 14.8437 12.8906 14.6688 12.8906 14.4531V12.4225C12.8906 12.2068 12.7157 12.0319 12.5 12.0319Z" fill="#BDBDBD"/>
<path d="M10.1562 6.64062H14.8438V10.1562C14.8438 10.5874 14.4937 10.9375 14.0625 10.9375H10.9375C10.5063 10.9375 10.1562 10.5874 10.1562 10.1562V6.64062Z" fill="#9CCC65"/>
<path d="M13.3565 8.60292C13.2882 8.47685 13.1564 8.39845 13.0132 8.39845H12.7065L13.0273 7.90559C13.1448 7.72478 13.0937 7.48273 12.9129 7.36505C12.7321 7.24756 12.4902 7.29887 12.3723 7.47949L11.6588 8.57603C11.5808 8.69619 11.5747 8.84935 11.643 8.97523C11.7112 9.10131 11.843 9.1797 11.9863 9.1797H12.293L11.9722 9.67256C11.8547 9.85338 11.9058 10.0954 12.0866 10.2131C12.1524 10.2558 12.2262 10.2762 12.2993 10.2762C12.4271 10.2762 12.5522 10.2137 12.6272 10.0987L13.3407 9.00213C13.4187 8.88196 13.4248 8.7288 13.3565 8.60292Z" fill="#FFD740"/>
<path d="M15.6069 6.25H14.4534V4.52118C14.4534 4.30546 14.2785 4.13055 14.0627 4.13055C13.847 4.13055 13.6721 4.30546 13.6721 4.52118V6.25H11.3284V4.52118C11.3284 4.30546 11.1535 4.13055 10.9377 4.13055C10.722 4.13055 10.5471 4.30546 10.5471 4.52118V6.25H9.39355C9.17783 6.25 9.00293 6.4249 9.00293 6.64062C9.00293 6.85635 9.17783 7.03125 9.39355 7.03125H15.6069C15.8227 7.03125 15.9976 6.85635 15.9976 6.64062C15.9976 6.4249 15.8227 6.25 15.6069 6.25Z" fill="#BDBDBD"/>
<path d="M11.4053 10.9375H13.5943V12.032C13.5943 12.2476 13.4193 12.4226 13.2037 12.4226H11.7959C11.5803 12.4226 11.4053 12.2476 11.4053 12.032V10.9375Z" fill="#7CB342"/>
</svg>
