<svg width="20" height="20" viewBox="0 0 20 20" fill="none" xmlns="http://www.w3.org/2000/svg">
<path d="M3.725 18.6957H2.07917C1.62083 18.6957 1.25 18.3249 1.25 17.8665V11.929C1.25 11.4707 1.62083 11.0999 2.07917 11.0999H3.725C4.18333 11.0999 4.55417 11.4707 4.55417 11.929V17.8707C4.55 18.329 4.17917 18.6957 3.725 18.6957Z" fill="#048CF2"/>
<path d="M7.96191 18.6955H6.63691C6.09108 18.6955 5.64941 18.2538 5.64941 17.708V8.84132C5.64941 8.29549 6.09108 7.85382 6.63691 7.85382H7.96191C8.50775 7.85382 8.94941 8.29549 8.94941 8.84132V17.708C8.95358 18.2538 8.50775 18.6955 7.96191 18.6955Z" fill="#048CF2"/>
<path d="M12.7499 18.6955H11.7041C11.0833 18.6955 10.5791 18.1914 10.5791 17.5705V5.72888C10.5791 5.10805 11.0833 4.60388 11.7041 4.60388H12.7499C13.3708 4.60388 13.8749 5.10805 13.8749 5.72888V17.5705C13.8791 18.1914 13.3708 18.6955 12.7499 18.6955Z" fill="#048CF2"/>
<path d="M17.499 18.6956H16.7031C16.0115 18.6956 15.4531 18.1373 15.4531 17.4456V2.55396C15.4531 1.86229 16.0115 1.30396 16.7031 1.30396H17.499C18.1906 1.30396 18.749 1.86229 18.749 2.55396V17.4456C18.749 18.1373 18.1906 18.6956 17.499 18.6956Z" fill="#048CF2"/>
</svg>
