<svg width="20" height="20" viewBox="0 0 20 20" fill="none" xmlns="http://www.w3.org/2000/svg">
<path d="M14.9727 17.9252L14.8845 18.9729C14.8161 19.3433 14.4931 19.612 14.1161 19.612L13.1124 19.707H5.68144C5.30449 19.707 4.98145 19.4382 4.91309 19.0679L4.58105 17.2753C4.76426 17.6941 5.38902 17.6935 5.86246 17.6935L14.322 17.5832C14.795 17.5833 14.9727 17.9252 14.9727 17.9252Z" fill="#F5F8F9"/>
<path d="M16.9529 6.51526C16.5132 6.89951 16.0651 11.9735 15.5573 14.7157L15.1271 17.1201C14.9439 17.5385 14.8197 17.9774 14.3467 17.9774H5.65449C5.18105 17.9774 4.76426 17.6942 4.58105 17.2754L4.12285 14.8016C3.59043 11.9258 3.22207 9.02307 3.01855 6.10823C4.64094 4.7892 7.8041 4.91272 9.89004 6.06584C9.95332 6.101 10.0174 6.13498 10.0814 6.1678C11.1799 6.73498 12.2063 6.98037 13.4036 6.98037C14.6141 6.98037 15.742 6.90319 16.9494 6.51717C16.9506 6.51643 16.9518 6.51604 16.9529 6.51526Z" fill="#B5DBFD"/>
<path d="M15.4196 17.2762L15.088 19.068C15.0196 19.4383 14.6966 19.707 14.3196 19.707H13.1123V17.9774L13.2913 17.9742L14.388 17.848C14.8611 17.848 14.934 17.6605 15.4196 17.2762Z" fill="#E8EDF2"/>
<path d="M16.9523 6.5152C16.9512 6.51599 16.95 6.51638 16.9488 6.51716C15.8492 7.08981 14.6406 7.37771 13.4301 7.37771C12.2328 7.37771 11.0336 7.09606 9.93516 6.52888C9.87109 6.49606 9.80703 6.46208 9.74375 6.42692C9.58594 6.33981 9.42578 6.25856 9.26367 6.18317C11.2773 4.41419 15.3141 4.12739 16.9523 6.5152Z" fill="#8DCAFC"/>
<path d="M16.8809 0.862734C16.8809 2.79828 16.8255 4.70098 16.9527 6.51523C14.7445 5.08203 11.6426 4.97773 9.26406 6.1832C7.28359 5.26406 5.00859 5.24219 3.01836 6.1082C2.89297 4.31484 2.83008 2.5168 2.83008 0.717578C2.83008 0.600391 2.87773 0.494141 2.9543 0.417188C3.03125 0.340625 3.13711 0.292969 3.25469 0.292969H15.8973L16.4562 0.438125C16.691 0.438125 16.8809 0.628359 16.8809 0.862734Z" fill="#F5F8F9"/>
<path d="M16.9529 6.51526C16.7443 9.29338 16.3857 12.0594 15.8779 14.8016L15.4197 17.2762C15.2365 17.6946 14.8197 17.9774 14.3467 17.9774H13.0967C13.5697 17.9774 13.9865 17.6946 14.1697 17.2762L14.6279 14.8016C15.1033 12.2336 15.4482 9.64456 15.6611 7.04417C16.0941 6.59803 16.4564 6.51526 16.9494 6.51721C16.9506 6.51643 16.9518 6.51604 16.9529 6.51526Z" fill="#8DCAFC"/>
<path d="M16.9529 6.51523C16.9518 6.51601 16.9506 6.51641 16.9494 6.51719C16.5338 6.73359 16.1021 6.90977 15.6611 7.04414C15.676 6.86797 15.6896 6.6918 15.7029 6.51523C15.7166 6.33398 15.7295 6.125 15.742 5.89375C16.3604 5.70227 16.9114 5.64133 16.9529 6.51523Z" fill="#64B9FC"/>
<path d="M17.1711 0.717578C17.1711 2.65313 17.0984 4.58711 16.9531 6.51523C16.573 6.26875 16.1668 6.06133 15.7422 5.89375C15.8184 4.47266 15.8699 2.20469 15.8977 0.292969H16.7465C16.9812 0.292969 17.1711 0.483203 17.1711 0.717578Z" fill="#E8EDF2"/>
<path d="M9.08988 16.5528C9.65082 16.5528 10.1055 16.0981 10.1055 15.5371C10.1055 14.9762 9.65082 14.5215 9.08988 14.5215C8.52895 14.5215 8.07422 14.9762 8.07422 15.5371C8.07422 16.0981 8.52895 16.5528 9.08988 16.5528Z" fill="#8DCAFC"/>
<path d="M12.6416 13.0955C13.0623 13.0955 13.4033 12.7544 13.4033 12.3337C13.4033 11.9131 13.0623 11.572 12.6416 11.572C12.2209 11.572 11.8799 11.9131 11.8799 12.3337C11.8799 12.7544 12.2209 13.0955 12.6416 13.0955Z" fill="#8DCAFC"/>
<path d="M9.00684 10.9323C9.33044 10.9323 9.59277 10.6699 9.59277 10.3463C9.59277 10.0227 9.33044 9.76038 9.00684 9.76038C8.68323 9.76038 8.4209 10.0227 8.4209 10.3463C8.4209 10.6699 8.68323 10.9323 9.00684 10.9323Z" fill="#8DCAFC"/>
<path d="M6.30176 8.54962C6.62536 8.54962 6.8877 8.28729 6.8877 7.96368C6.8877 7.64008 6.62536 7.37775 6.30176 7.37775C5.97815 7.37775 5.71582 7.64008 5.71582 7.96368C5.71582 8.28729 5.97815 8.54962 6.30176 8.54962Z" fill="#8DCAFC"/>
<path d="M17.1471 2.62262C17.3084 2.625 17.4429 2.49789 17.4464 2.33609C17.4579 1.81043 17.4637 1.2659 17.4637 0.717578C17.4637 0.321914 17.1418 0 16.7461 0H3.25473C3.06352 0 2.88344 0.074375 2.7466 0.210586C2.61148 0.346445 2.53711 0.526484 2.53711 0.717578C2.53711 2.51434 2.6007 4.33492 2.72613 6.12855C2.81238 7.36727 2.93035 8.62047 3.07672 9.85324C3.09437 10.0022 3.22086 10.1117 3.36727 10.1117C3.37879 10.1117 3.39047 10.111 3.40219 10.1096C3.56285 10.0905 3.67766 9.94484 3.65855 9.78418C3.52156 8.63016 3.41004 7.45828 3.3259 6.29715C4.29418 5.90844 5.35012 5.72867 6.39313 5.77637C7.51199 5.82758 8.6218 6.14117 9.60195 6.68305C10.7671 7.32742 12.0982 7.67109 13.4305 7.67066C14.5264 7.67066 15.6189 7.43934 16.6201 6.99914C16.4072 9.59855 16.0628 12.1935 15.5897 14.7482L15.1386 17.1846C14.9933 17.4889 14.6858 17.6843 14.3465 17.6843H8.07422C7.91238 17.6843 7.78125 17.8154 7.78125 17.9773C7.78125 18.1391 7.91238 18.2702 8.07422 18.2702H14.3465C14.5638 18.2702 14.7733 18.2221 14.9628 18.1342L14.7998 19.0147C14.7571 19.2461 14.5551 19.4141 14.3195 19.4141H5.68125C5.4457 19.4141 5.24371 19.2461 5.20098 19.0146L5.03789 18.1342C5.22742 18.2222 5.43699 18.2703 5.6543 18.2703H6.70703C6.86887 18.2703 7 18.1392 7 17.9773C7 17.8155 6.86887 17.6844 6.70703 17.6844H5.6543C5.31496 17.6844 5.00742 17.4888 4.86195 17.1843C4.51043 15.2945 4.07801 13.0337 3.83211 11.1464C3.81023 10.9861 3.66254 10.8738 3.50227 10.8956C3.34195 10.9175 3.22969 11.0652 3.25152 11.2255C3.53215 13.4222 4.2209 16.9041 4.6248 19.1212C4.71879 19.6304 5.16309 20 5.68125 20H14.3195C14.8377 20 15.282 19.6304 15.376 19.1213L16.1658 14.8549C16.845 11.187 17.2621 7.43664 17.4056 3.70816C17.4118 3.54648 17.2859 3.41039 17.1241 3.40418C17.1203 3.40402 17.1165 3.40395 17.1127 3.40395C16.9561 3.40395 16.8262 3.52781 16.8202 3.68566C16.7902 4.46379 16.7475 5.24289 16.6937 6.02203C15.7163 5.47699 14.5961 5.14707 13.4246 5.06254C13.2634 5.05035 13.123 5.17227 13.1113 5.33363C13.0996 5.49504 13.2211 5.63531 13.3824 5.64695C14.4352 5.72297 15.4412 6.01246 16.3242 6.48859C15.4135 6.87934 14.4236 7.08484 13.4304 7.08484C12.2151 7.08504 11.0014 6.77688 9.93332 6.19645C10.6013 5.91621 11.3162 5.7373 12.0651 5.66352C12.2261 5.64766 12.3438 5.50426 12.3279 5.3432C12.312 5.18219 12.1693 5.06473 12.0076 5.08039C11.0314 5.17664 10.1076 5.43941 9.26055 5.86086C8.36559 5.46562 7.39598 5.23582 6.41988 5.19117C5.35641 5.14254 4.28105 5.31324 3.2843 5.68551C3.17773 4.03574 3.12309 2.36676 3.12309 0.717656C3.12309 0.670156 3.14754 0.638516 3.16102 0.624922C3.17887 0.607188 3.20961 0.586016 3.25477 0.586016H16.7461C16.8187 0.586016 16.8778 0.645078 16.8778 0.717656C16.8778 1.26172 16.8721 1.80195 16.8607 2.3234C16.8571 2.48508 16.9854 2.6191 17.1471 2.62262Z" fill="black"/>
<path d="M9.08984 16.8457C9.81133 16.8457 10.3984 16.2586 10.3984 15.5371C10.3984 14.8156 9.81133 14.2285 9.08984 14.2285C8.36836 14.2285 7.78125 14.8156 7.78125 15.5371C7.78125 16.2586 8.36836 16.8457 9.08984 16.8457ZM9.08984 14.8145C9.48828 14.8145 9.8125 15.1387 9.8125 15.5371C9.8125 15.9355 9.48828 16.2598 9.08984 16.2598C8.69141 16.2598 8.36719 15.9355 8.36719 15.5371C8.36719 15.1387 8.69141 14.8145 9.08984 14.8145Z" fill="black"/>
<path d="M13.6963 12.3336C13.6963 11.7524 13.2229 11.2789 12.6416 11.2789C12.06 11.2789 11.5869 11.7524 11.5869 12.3336C11.5869 12.9153 12.06 13.3883 12.6416 13.3883C13.2229 13.3883 13.6963 12.9153 13.6963 12.3336ZM12.1729 12.3336C12.1729 12.0754 12.383 11.8649 12.6416 11.8649C12.8998 11.8649 13.1104 12.0754 13.1104 12.3336C13.1104 12.5922 12.8998 12.8024 12.6416 12.8024C12.383 12.8024 12.1729 12.5922 12.1729 12.3336Z" fill="black"/>
<path d="M9.00781 11.2254C9.49219 11.2254 9.88672 10.8309 9.88672 10.3465C9.88672 9.86173 9.49219 9.46759 9.00781 9.46759C8.52305 9.46759 8.12891 9.86173 8.12891 10.3465C8.12891 10.8309 8.52305 11.2254 9.00781 11.2254ZM9.00781 10.0535C9.16914 10.0535 9.30078 10.1848 9.30078 10.3465C9.30078 10.5078 9.16914 10.6395 9.00781 10.6395C8.84609 10.6395 8.71484 10.5078 8.71484 10.3465C8.71484 10.1848 8.84609 10.0535 9.00781 10.0535Z" fill="black"/>
<path d="M6.30176 8.84259C6.78652 8.84259 7.18066 8.44845 7.18066 7.96368C7.18066 7.47892 6.78652 7.08478 6.30176 7.08478C5.81738 7.08478 5.42285 7.47892 5.42285 7.96368C5.42285 8.44845 5.81738 8.84259 6.30176 8.84259ZM6.30176 7.67072C6.46348 7.67072 6.59473 7.80197 6.59473 7.96368C6.59473 8.1254 6.46348 8.25665 6.30176 8.25665C6.14043 8.25665 6.00879 8.1254 6.00879 7.96368C6.00879 7.80197 6.14043 7.67072 6.30176 7.67072Z" fill="black"/>
</svg>
