<svg width="25" height="25" viewBox="0 0 25 25" fill="none" xmlns="http://www.w3.org/2000/svg">
<path d="M21.3707 8.60217H20.2246V22.6929H21.3707V8.60217Z" fill="#E1EFFB"/>
<path d="M21.3768 8.60217H20.8037V22.6929H21.3768V8.60217Z" fill="#CCDFED"/>
<path d="M24.113 10.3071H17.1769C16.8829 10.3071 16.6445 10.0688 16.6445 9.77475V2.83865C16.6445 2.54465 16.8829 2.30627 17.1769 2.30627H24.113C24.407 2.30627 24.6453 2.5446 24.6453 2.83865V9.77475C24.6453 10.0687 24.407 10.3071 24.113 10.3071Z" fill="#2DE8E8"/>
<path d="M24.1129 2.30627H17.1769C16.8829 2.30627 16.6445 2.5446 16.6445 2.8386V9.7747C16.6445 10.0687 16.8829 10.3071 17.1769 10.3071H24.113C24.407 10.3071 24.6453 10.0687 24.6453 9.7747V2.8386C24.6453 2.5446 24.407 2.30627 24.1129 2.30627Z" fill="#2DE8E8"/>
<path d="M24.1011 2.30756H22.7285H22.542C22.5431 2.32142 22.5441 2.33534 22.5441 2.3495V9.2856C22.5441 9.5796 22.3058 9.81798 22.0118 9.81798H16.6348C16.6392 9.87506 16.6531 9.92935 16.6741 9.97994H16.6733C16.6898 10.0198 16.7113 10.0571 16.7366 10.0914C16.738 10.0933 16.7395 10.0951 16.7409 10.097C16.7488 10.1075 16.7571 10.1176 16.7658 10.1275C16.7676 10.1295 16.7694 10.1316 16.7712 10.1336C16.7813 10.1447 16.7917 10.1554 16.8026 10.1656C16.8028 10.1657 16.8029 10.1659 16.8031 10.1661C16.8145 10.1767 16.8265 10.1868 16.8388 10.1964C16.8407 10.1979 16.8427 10.1992 16.8446 10.2007C16.8546 10.2082 16.8648 10.2154 16.8752 10.2222C16.8789 10.2246 16.8825 10.2268 16.8862 10.2291C16.8957 10.2349 16.9053 10.2404 16.9151 10.2457C16.9188 10.2477 16.9226 10.2498 16.9264 10.2517C16.9386 10.2579 16.9511 10.2636 16.9638 10.2688C16.9651 10.2693 16.9664 10.27 16.9677 10.2705C16.9817 10.2761 16.996 10.2811 17.0106 10.2855C17.0147 10.2867 17.0189 10.2877 17.0231 10.2888C17.0337 10.2918 17.0445 10.2944 17.0554 10.2967C17.0605 10.2978 17.0657 10.2988 17.0708 10.2997C17.0815 10.3016 17.0923 10.3032 17.1032 10.3044C17.1081 10.3049 17.1128 10.3056 17.1177 10.3061C17.1333 10.3074 17.149 10.3084 17.165 10.3084H24.1011C24.3951 10.3084 24.6334 10.07 24.6334 9.77598V2.83988C24.6335 2.54589 24.3951 2.30756 24.1011 2.30756Z" fill="#11B9C1"/>
<path d="M19.376 4.22572C19.376 4.09823 19.4914 3.98285 19.6735 3.98285H20.8938C21.6648 3.98285 22.272 4.35321 22.272 5.34891V5.38529C22.272 6.38094 21.6466 6.76345 20.8453 6.76345H20.1652V8.17194C20.1652 8.33591 19.9649 8.42087 19.7706 8.42087C19.5703 8.42087 19.376 8.33586 19.376 8.17194V4.22572H19.376ZM20.1652 4.67494V6.14422H20.8452C21.2398 6.14422 21.4827 5.91956 21.4827 5.44603V5.37318C21.4827 4.89964 21.2398 4.67499 20.8452 4.67499L20.1652 4.67494Z" fill="black"/>
<path d="M0.357422 16.101V19.5503C0.357422 19.8214 0.517089 20.0671 0.764842 20.1772L2.34682 20.8804C2.48114 20.9401 2.62655 20.9709 2.77357 20.9709H23.6806C24.2132 20.9709 24.6451 20.5391 24.6451 20.0064V18.1592C24.6451 17.8346 24.5565 17.5161 24.389 17.2381L24.2765 17.0514C23.9033 16.432 23.2864 15.9987 22.5773 15.8577L19.3268 15.2113C18.6685 15.0804 18.043 14.7245 17.4869 14.3488L15.1313 12.7575C14.2974 12.1941 13.3139 11.893 12.3075 11.893H7.98381C6.64924 11.893 5.36907 12.4219 4.42362 13.3638C3.73143 14.0534 2.8539 14.5271 1.89755 14.7274L1.38623 14.8345C0.786766 14.96 0.357422 15.4886 0.357422 16.101Z" fill="#61AFF7"/>
<path d="M24.3855 17.2386L24.273 17.0519C23.8998 16.4325 23.2829 15.9992 22.5737 15.8582L21.6214 15.6688C21.8151 15.8401 21.9841 16.041 22.1203 16.267L22.2328 16.4537C22.4003 16.7317 22.4888 17.0502 22.4888 17.3748V19.2221C22.4888 19.7547 22.057 20.1866 21.5244 20.1866H0.78125L2.34335 20.8809C2.47768 20.9406 2.62309 20.9714 2.77011 20.9714H23.6771C24.2098 20.9714 24.6416 20.5396 24.6416 20.0069V18.1597C24.6416 17.8351 24.553 17.5166 24.3855 17.2386Z" fill="#55A2F0"/>
<path d="M3.3877 15.8839C3.3877 15.6709 3.5064 15.476 3.69536 15.3778C4.2458 15.0921 4.75229 14.7226 5.19784 14.2787C5.94379 13.5356 6.93441 13.1263 7.98724 13.1263H12.311C13.0995 13.1263 13.87 13.3622 14.5233 13.8036L16.879 15.395C17.0351 15.5004 17.1951 15.5981 17.3586 15.688C17.5753 15.8071 17.7122 16.0324 17.7122 16.2797C17.7122 16.3762 17.6339 16.4545 17.5374 16.4545H3.95835C3.64316 16.4545 3.3877 16.199 3.3877 15.8839Z" fill="#21D8DE"/>
<path d="M20.7231 22.6917C21.8312 22.6917 22.7295 21.7934 22.7295 20.6854C22.7295 19.5773 21.8312 18.679 20.7231 18.679C19.6151 18.679 18.7168 19.5773 18.7168 20.6854C18.7168 21.7934 19.6151 22.6917 20.7231 22.6917Z" fill="#2C5871"/>
<path d="M4.35009 22.6917C5.45816 22.6917 6.35643 21.7934 6.35643 20.6854C6.35643 19.5773 5.45816 18.679 4.35009 18.679C3.24202 18.679 2.34375 19.5773 2.34375 20.6854C2.34375 21.7934 3.24202 22.6917 4.35009 22.6917Z" fill="#2C5871"/>
<path d="M5.77426 22.1046C6.55785 21.321 6.55785 20.0505 5.77426 19.2669L2.93652 22.1046C3.72016 22.8883 4.99067 22.8883 5.77426 22.1046Z" fill="#1D4859"/>
<path d="M4.35498 21.4108C4.75544 21.4108 5.08007 21.0861 5.08007 20.6857C5.08007 20.2852 4.75544 19.9606 4.35498 19.9606C3.95452 19.9606 3.62988 20.2852 3.62988 20.6857C3.62988 21.0861 3.95452 21.4108 4.35498 21.4108Z" fill="#E1EFFB"/>
<path d="M22.1463 22.1046C22.9299 21.321 22.93 20.0505 22.1463 19.2669L19.3086 22.1046C20.0922 22.8883 21.3627 22.8883 22.1463 22.1046Z" fill="#1D4859"/>
<path d="M20.728 21.4108C21.1285 21.4108 21.4531 21.0861 21.4531 20.6857C21.4531 20.2852 21.1285 19.9606 20.728 19.9606C20.3276 19.9606 20.0029 20.2852 20.0029 20.6857C20.0029 21.0861 20.3276 21.4108 20.728 21.4108Z" fill="#E1EFFB"/>
<path d="M6.18412 6.02797C7.20213 5.01 8.55559 4.44936 9.99523 4.44936C11.4349 4.44936 12.7884 5.01 13.8064 6.02797C13.8759 6.0975 13.9671 6.13227 14.0582 6.13227C14.1493 6.13227 14.2405 6.0975 14.3101 6.02797C14.4491 5.88891 14.4491 5.66337 14.3101 5.52431C13.1575 4.37177 11.6252 3.73706 9.99528 3.73706C8.36536 3.73706 6.83304 4.37177 5.6805 5.52431C5.54139 5.66337 5.54139 5.88886 5.6805 6.02797C5.81957 6.16703 6.04505 6.16703 6.18412 6.02797Z" fill="black"/>
<path d="M12.5884 7.6037C12.6795 7.6037 12.7707 7.56894 12.8402 7.49941C12.9793 7.36035 12.9793 7.13481 12.8402 6.99575C11.2712 5.42671 8.71824 5.42671 7.14925 6.99575C7.01014 7.13481 7.01014 7.36035 7.14925 7.49941C7.28832 7.63847 7.51385 7.63847 7.65292 7.49941C8.94422 6.20815 11.0453 6.20815 12.3366 7.49941C12.4061 7.56894 12.4972 7.6037 12.5884 7.6037Z" fill="black"/>
<path d="M8.5975 8.44009C8.45839 8.57915 8.45839 8.80464 8.5975 8.94375C8.73656 9.08286 8.9621 9.08281 9.10116 8.94375C9.59515 8.4498 10.3989 8.4498 10.8928 8.94375C10.9624 9.01333 11.0535 9.04804 11.1447 9.04804C11.2358 9.04804 11.3269 9.01328 11.3965 8.94375C11.5356 8.80464 11.5356 8.5792 11.3965 8.44009C10.6248 7.66841 9.36917 7.66841 8.5975 8.44009Z" fill="black"/>
<path d="M17.5231 15.3761C17.369 15.2913 17.217 15.1984 17.0713 15.0999L14.7156 13.5085C14.0006 13.0255 13.1667 12.7703 12.3039 12.7703H7.98011C6.83241 12.7703 5.75253 13.2164 4.93935 14.0265C4.52138 14.4429 4.04521 14.7913 3.52407 15.0619C3.21587 15.2219 3.02441 15.5369 3.02441 15.8839C3.02441 16.395 3.44014 16.8107 3.95117 16.8107H5.42528C5.62196 16.8107 5.78143 16.6512 5.78143 16.4545C5.78143 16.2578 5.62196 16.0984 5.42528 16.0984H3.95117C3.83291 16.0984 3.73667 16.0021 3.73667 15.8839C3.73667 15.8037 3.78095 15.731 3.85229 15.694C4.43779 15.39 4.9727 14.9987 5.44203 14.531C6.12074 13.8549 7.0221 13.4825 7.98006 13.4825H8.94807V16.0984H7.76487C7.5682 16.0984 7.40872 16.2578 7.40872 16.4545C7.40872 16.6512 7.5682 16.8107 7.76487 16.8107H17.5304C17.8231 16.8107 18.0613 16.5725 18.0613 16.2797C18.0613 15.9048 17.8551 15.5585 17.5231 15.3761ZM9.66047 16.0984V13.4826H12.3039C13.0241 13.4826 13.7202 13.6957 14.3169 14.0988L16.6726 15.6902C16.8362 15.8007 17.0068 15.905 17.18 16.0002C17.2248 16.0248 17.2623 16.0587 17.2906 16.0984H9.66047Z" fill="black"/>
<path d="M10.548 17.3533H9.44795C9.25127 17.3533 9.0918 17.5128 9.0918 17.7095C9.0918 17.9062 9.25127 18.0656 9.44795 18.0656H10.548C10.7447 18.0656 10.9042 17.9062 10.9042 17.7095C10.9042 17.5128 10.7447 17.3533 10.548 17.3533Z" fill="black"/>
<path d="M24.6927 17.0546L24.5802 16.8678C24.1563 16.1643 23.451 15.6689 22.6454 15.5086L21.7259 15.3258V10.6653H24.1054C24.5954 10.6653 24.9939 10.2667 24.9939 9.7768V2.84074C24.9939 2.3508 24.5953 1.95227 24.1054 1.95227H17.1694C16.6794 1.95227 16.2809 2.35085 16.2809 2.84074V5.47184C16.2809 5.66852 16.4403 5.82799 16.637 5.82799C16.8338 5.82799 16.9932 5.66852 16.9932 5.47184V2.84074C16.9932 2.74358 17.0722 2.66452 17.1694 2.66452H24.1055C24.2027 2.66452 24.2817 2.74358 24.2817 2.84074V9.77685C24.2817 9.87402 24.2027 9.95307 24.1055 9.95307H21.3699H20.2238H17.1694C17.0722 9.95307 16.9931 9.87402 16.9931 9.77685V7.78716C16.9931 7.59048 16.8337 7.43101 16.637 7.43101C16.4403 7.43101 16.2808 7.59048 16.2808 7.78716V9.77685C16.2808 10.2668 16.6794 10.6653 17.1693 10.6653H19.8676V14.9563L19.3949 14.8623C18.7426 14.7325 18.1066 14.3388 17.6849 14.0539L15.3293 12.4626C14.433 11.8572 13.3877 11.5371 12.3062 11.5371H7.98244C6.54372 11.5371 5.19007 12.0964 4.17088 13.1117C3.52596 13.7543 2.71415 14.1925 1.82319 14.3791L1.31186 14.4862C0.551707 14.6454 0 15.3247 0 16.1013V19.5505C0 19.962 0.242919 20.3358 0.618943 20.5029L2.03749 21.1334C2.12328 21.582 2.3394 22.0103 2.68598 22.3569C3.14657 22.8175 3.7516 23.0478 4.35667 23.0478C4.96175 23.0478 5.56673 22.8175 6.02737 22.3569C6.32361 22.0607 6.524 21.7046 6.62971 21.3273H18.4576C18.5633 21.7046 18.7637 22.0607 19.06 22.3569C19.5063 22.8032 20.0995 23.049 20.7307 23.049C21.3618 23.049 21.9551 22.8032 22.4014 22.3569C22.6977 22.0607 22.8981 21.7046 23.0038 21.3273H23.6794C24.4076 21.3273 25 20.7349 25 20.0067V18.1594C24.9999 17.7701 24.8937 17.3881 24.6927 17.0546ZM20.5799 10.6653H21.0137V15.1841L20.5799 15.0978V10.6653ZM5.52366 21.8533C5.21194 22.165 4.79749 22.3367 4.35662 22.3367C3.91576 22.3367 3.5013 22.165 3.18959 21.8533C2.68954 21.3533 2.57831 20.6097 2.85536 20.001C2.85761 19.9961 2.85975 19.9912 2.862 19.9863C2.87045 19.9682 2.87938 19.9503 2.88851 19.9326C2.89281 19.9242 2.89711 19.9158 2.9016 19.9075C2.90985 19.8921 2.91845 19.8768 2.92723 19.8615C2.93329 19.851 2.93949 19.8406 2.94579 19.8303C2.95394 19.8169 2.9622 19.8035 2.97079 19.7902C2.97855 19.7783 2.98656 19.7665 2.99467 19.7547C3.00267 19.743 3.01063 19.7313 3.01893 19.7198C3.02845 19.7067 3.03837 19.6938 3.04833 19.6809C3.05609 19.6709 3.06366 19.6607 3.07167 19.6508C3.08339 19.6363 3.09564 19.6221 3.10785 19.608C3.11483 19.5999 3.12152 19.5917 3.12865 19.5837C3.14681 19.5635 3.16551 19.5438 3.18475 19.5244C3.18641 19.5227 3.18793 19.521 3.18959 19.5193C3.19325 19.5156 3.19711 19.5122 3.20082 19.5086C3.21713 19.4926 3.23353 19.4768 3.25028 19.4616C3.25463 19.4576 3.25922 19.454 3.26361 19.4501C3.28031 19.4353 3.29711 19.4206 3.31429 19.4065C3.3159 19.4052 3.31761 19.404 3.31923 19.4027C3.92288 18.9142 4.79354 18.9148 5.39646 19.4046C5.39715 19.4052 5.39788 19.4057 5.39861 19.4063C5.41702 19.4213 5.43504 19.437 5.45296 19.4529C5.45618 19.4558 5.4595 19.4585 5.46267 19.4613C5.48338 19.48 5.50369 19.4993 5.52361 19.5192C5.5451 19.5407 5.5658 19.5628 5.58592 19.5853C5.59475 19.5951 5.6031 19.6052 5.61165 19.6152C5.6221 19.6274 5.63259 19.6397 5.64265 19.6522C5.65393 19.6662 5.66482 19.6804 5.67556 19.6947C5.68162 19.7026 5.68762 19.7106 5.69348 19.7187C5.70652 19.7367 5.71922 19.7548 5.73147 19.7732C5.73357 19.7764 5.73562 19.7795 5.73767 19.7827C6.15662 20.4226 6.08533 21.2916 5.52366 21.8533ZM21.8977 21.8533C21.5859 22.165 21.1714 22.3367 20.7306 22.3367C20.2897 22.3367 19.8753 22.165 19.5636 21.8533C19.0018 21.2916 18.9305 20.4224 19.3495 19.7826C19.3515 19.7795 19.3535 19.7764 19.3556 19.7734C19.3678 19.7549 19.3806 19.7367 19.3937 19.7187C19.3995 19.7106 19.4054 19.7027 19.4114 19.6949C19.4222 19.6805 19.4332 19.6662 19.4446 19.6521C19.4546 19.6398 19.4649 19.6276 19.4753 19.6155C19.484 19.6054 19.4924 19.5952 19.5013 19.5853C19.5215 19.5628 19.5422 19.5408 19.5636 19.5193C19.8754 19.2076 20.2898 19.0359 20.7306 19.0359C21.1715 19.0359 21.5859 19.2076 21.8977 19.5193C21.9192 19.5408 21.9399 19.5629 21.96 19.5853C21.9689 19.5952 21.9772 19.6053 21.9858 19.6154C21.9963 19.6275 22.0067 19.6398 22.0167 19.6522C22.028 19.6662 22.0389 19.6805 22.0497 19.6948C22.0557 19.7027 22.0617 19.7107 22.0676 19.7188C22.0806 19.7368 22.0934 19.7549 22.1056 19.7733C22.1077 19.7764 22.1097 19.7795 22.1118 19.7827C22.5306 20.4225 22.4593 21.2917 21.8977 21.8533ZM24.2876 20.0067C24.2876 20.3421 24.0147 20.615 23.6793 20.615H23.093C23.079 20.0985 22.8967 19.6057 22.5686 19.2016C22.5664 19.1989 22.5643 19.1961 22.562 19.1933C22.5417 19.1686 22.5207 19.1443 22.4993 19.1202C22.4938 19.114 22.4886 19.1077 22.4831 19.1015C22.4605 19.0766 22.437 19.0521 22.4132 19.028C22.4091 19.0239 22.4054 19.0196 22.4013 19.0155C22.0945 18.7087 21.7182 18.4967 21.3079 18.3941C21.1214 18.3475 20.9278 18.3235 20.7306 18.3235C20.5728 18.3235 20.4174 18.3389 20.266 18.3689C19.812 18.4589 19.3946 18.6809 19.0599 19.0155C19.0559 19.0195 19.0522 19.0237 19.0483 19.0278C19.0243 19.0521 19.0008 19.0766 18.9781 19.1016C18.9727 19.1075 18.9677 19.1137 18.9625 19.1196C18.9409 19.144 18.9196 19.1685 18.8991 19.1935C18.8971 19.196 18.8952 19.1985 18.8931 19.2011C18.5648 19.6052 18.3823 20.0983 18.3682 20.6151H6.71897C6.70495 20.0977 6.52204 19.604 6.19285 19.1995C6.19133 19.1976 6.18987 19.1957 6.18835 19.1938C6.16687 19.1675 6.14456 19.1418 6.12185 19.1163C6.11765 19.1116 6.11375 19.1068 6.1095 19.1021C6.08289 19.0728 6.05554 19.0439 6.02727 19.0156C5.91214 18.9004 5.78792 18.7997 5.65701 18.7133C5.26414 18.4542 4.81038 18.3247 4.35662 18.3247C3.7516 18.3247 3.14652 18.555 2.68593 19.0156C2.65961 19.0419 2.63417 19.0689 2.60927 19.0962C2.60189 19.1044 2.59481 19.1126 2.58754 19.1208C2.56996 19.1406 2.55268 19.1607 2.53583 19.181C2.52836 19.19 2.52089 19.1991 2.51356 19.2083C2.49613 19.23 2.47914 19.252 2.46254 19.2742C2.45736 19.2812 2.45204 19.2879 2.44701 19.2949C2.40238 19.356 2.36098 19.419 2.3227 19.4836C2.32162 19.4854 2.3206 19.4873 2.31952 19.4891C2.30082 19.5209 2.2829 19.5531 2.26576 19.5856C2.26527 19.5866 2.26479 19.5876 2.26425 19.5885C2.14008 19.8248 2.05658 20.0803 2.0183 20.3454L0.908297 19.8521C0.789255 19.7991 0.712351 19.6808 0.712351 19.5505V16.1013C0.712351 15.6599 1.02597 15.2738 1.45805 15.1833L1.96938 15.0762C2.99574 14.8612 3.93089 14.3564 4.67376 13.6163C5.55852 12.7348 6.73362 12.2494 7.98259 12.2494H12.3063C13.2452 12.2494 14.1527 12.5272 14.9307 13.0527L17.2864 14.6441C17.7591 14.9635 18.4776 15.4059 19.2561 15.5608L22.5066 16.2072C23.1161 16.3284 23.6495 16.7032 23.9703 17.2354L24.0828 17.4221C24.2169 17.6446 24.2877 17.8996 24.2877 18.1594V20.0067H24.2876Z" fill="black"/>
<path d="M4.36152 19.6045C4.0727 19.6045 3.80117 19.717 3.59697 19.9212C3.39277 20.1254 3.28027 20.3969 3.28027 20.6857C3.28027 20.9746 3.39277 21.2461 3.59697 21.4503C3.80117 21.6545 4.0727 21.767 4.36157 21.767C4.65039 21.767 4.92192 21.6545 5.12612 21.4503C5.5477 21.0287 5.5477 20.3428 5.12612 19.9212C4.92182 19.7169 4.65034 19.6045 4.36152 19.6045ZM4.62241 20.9466C4.55273 21.0163 4.46005 21.0547 4.36152 21.0547C4.26294 21.0547 4.17031 21.0163 4.10063 20.9466C4.03095 20.8769 3.99253 20.7843 3.99253 20.6857C3.99253 20.5871 4.0309 20.4945 4.10063 20.4248C4.17031 20.3551 4.26294 20.3167 4.36152 20.3167C4.46005 20.3167 4.55273 20.3551 4.62241 20.4248C4.76625 20.5687 4.76625 20.8028 4.62241 20.9466Z" fill="black"/>
<path d="M20.7263 19.6045C20.4374 19.6045 20.166 19.7169 19.9617 19.9212C19.5401 20.3428 19.5401 21.0287 19.9617 21.4503C20.1659 21.6545 20.4374 21.767 20.7263 21.767C21.0151 21.767 21.2866 21.6545 21.4908 21.4503C21.695 21.2461 21.8075 20.9746 21.8075 20.6858C21.8075 20.397 21.695 20.1254 21.4908 19.9212C21.2867 19.717 21.0151 19.6045 20.7263 19.6045ZM20.9871 20.9467C20.9175 21.0164 20.8248 21.0547 20.7263 21.0547C20.6277 21.0547 20.535 21.0164 20.4654 20.9467C20.3215 20.8028 20.3215 20.5687 20.4654 20.4249C20.535 20.3552 20.6277 20.3168 20.7263 20.3168C20.8248 20.3168 20.9175 20.3552 20.9872 20.4249C21.0569 20.4946 21.0952 20.5872 21.0952 20.6858C21.0952 20.7843 21.0569 20.8769 20.9871 20.9467Z" fill="black"/>
</svg>
