<svg width="20" height="20" viewBox="0 0 20 20" fill="none" xmlns="http://www.w3.org/2000/svg">
<g clip-path="url(#clip0_791_33839)">
<path d="M9.31055 2.06897V0.689655C9.31055 0.308769 9.61932 0 10.0002 0C10.3811 0 10.6899 0.308769 10.6899 0.689655V2.06897H9.31055Z" fill="#95A5A5"/>
<path d="M9.31055 6.5517H10.6899V12.7586H9.31055V6.5517Z" fill="#7F8C8D"/>
<path d="M10.3072 1.37933C10.2899 1.43795 10.3313 1.37933 10.0003 1.37933H9.87613C5.74165 1.41726 2.41406 3.2552 2.41406 5.51726V6.20692C2.41406 6.78491 2.88262 7.25347 3.46061 7.25347C4.03861 7.25347 4.50717 6.78491 4.50717 6.20692C4.50717 5.59657 4.42096 6.27933 4.9382 6.79657C5.3833 7.24114 6.05276 7.37298 6.63318 7.13038C7.21361 6.88778 7.59013 6.31875 7.58648 5.68968V5.51726C7.58648 6.46948 8.3584 7.2414 9.31061 7.2414H10.6899C11.6421 7.2414 12.4141 6.46948 12.4141 5.51726V5.68968C12.4129 6.10139 12.5769 6.49637 12.8692 6.78623C13.2784 7.19466 13.8808 7.34173 14.4322 7.16784C14.9835 6.99395 15.3925 6.52793 15.4934 5.95864V6.20692C15.4934 6.78491 15.9619 7.25347 16.5399 7.25347C17.1179 7.25347 17.5865 6.78491 17.5865 6.20692V5.51726C17.5865 3.28623 14.3554 1.47244 10.3072 1.37933Z" fill="#E64C3C"/>
<path d="M9.31055 12.4138H10.6899V15.4242H9.31055V12.4138Z" fill="#7F8C8D"/>
<path d="M17.5863 5.51721V6.20687C17.5863 6.78486 17.1177 7.25342 16.5397 7.25342C15.9617 7.25342 15.4932 6.78486 15.4932 6.20687C15.4932 5.77583 15.5173 6.02066 15.5173 5.51721H17.5863Z" fill="#C03A2B"/>
<path d="M15.5168 5.51726C15.5258 5.66482 15.5177 5.81294 15.4927 5.95864C15.4927 5.45519 15.4823 5.51726 15.5168 5.51726Z" fill="#E64C3C"/>
<path d="M4.50717 5.95859V6.20687C4.50717 6.78486 4.03861 7.25342 3.46061 7.25342C2.88262 7.25342 2.41406 6.78486 2.41406 6.20687V5.51721H4.48303C4.474 5.66478 4.4821 5.81289 4.50717 5.95859Z" fill="#C03A2B"/>
<path d="M4.50677 5.95864C4.48424 5.81266 4.47616 5.66482 4.48263 5.51726C4.51711 5.51726 4.50677 5.45519 4.50677 5.95864Z" fill="#E64C3C"/>
<path d="M15.4934 5.51721V5.95859C15.3523 6.74936 14.631 7.30172 13.8308 7.23182C13.0305 7.16193 12.4159 6.49289 12.4141 5.68963V5.51721H15.4934Z" fill="#F0C419"/>
<path d="M15.5168 5.51726C15.5258 5.66482 15.5177 5.81294 15.4927 5.95864C15.4927 5.45519 15.4823 5.51726 15.5168 5.51726Z" fill="#E64C3C"/>
<path d="M7.58615 5.51721V5.68963C7.58426 6.49289 6.96967 7.16193 6.16945 7.23182C5.36923 7.30172 4.64795 6.74936 4.50684 5.95859V5.51721H7.58615Z" fill="#F0C419"/>
<path d="M4.50677 5.95864C4.48424 5.81266 4.47616 5.66482 4.48263 5.51726C4.51711 5.51726 4.50677 5.45519 4.50677 5.95864Z" fill="#E64C3C"/>
<path d="M12.4135 5.51721C12.4135 6.46943 11.6416 7.24135 10.6894 7.24135H9.31008C8.35786 7.24135 7.58594 6.46943 7.58594 5.51721H12.4135Z" fill="#C03A2B"/>
<path d="M9.99966 1.37933C8.66518 1.37933 7.58587 3.23106 7.58587 5.51726H4.48242C4.48242 3.01726 7.24104 1.37933 9.99966 1.37933Z" fill="#F3D55B"/>
<path d="M15.517 5.51726H12.4136C12.4136 3.40347 11.4929 1.66209 10.2998 1.41037V1.38623C13.2136 1.50692 15.517 3.30692 15.517 5.51726Z" fill="#F3D55B"/>
<path d="M16.207 13.1034H3.79317C3.41228 13.1034 3.10352 12.7947 3.10352 12.4138C3.10352 12.0329 3.41228 11.7241 3.79317 11.7241H16.207C16.5879 11.7241 16.8966 12.0329 16.8966 12.4138C16.8966 12.7947 16.5879 13.1034 16.207 13.1034Z" fill="#CF976A"/>
<path d="M4.48256 14.4828H1.37911C0.998222 14.4828 0.689453 14.7916 0.689453 15.1724V15.5173C0.689453 15.8982 0.998222 16.2069 1.37911 16.2069H4.48256C4.86344 16.2069 5.17221 15.8982 5.17221 15.5173V15.1724C5.17221 14.7916 4.86344 14.4828 4.48256 14.4828Z" fill="#CB8252"/>
<path d="M18.6203 14.4828H15.5168C15.1359 14.4828 14.8271 14.7916 14.8271 15.1724V15.5173C14.8271 15.8982 15.1359 16.2069 15.5168 16.2069H18.6203C19.0011 16.2069 19.3099 15.8982 19.3099 15.5173V15.1724C19.3099 14.7916 19.0011 14.4828 18.6203 14.4828Z" fill="#CB8252"/>
<path d="M15.8271 17.5862C16.2957 17.586 16.7504 17.4268 17.1167 17.1345L18.2754 16.2069H1.72363L2.88225 17.1345C3.24857 17.4268 3.70327 17.586 4.17191 17.5862H15.8271Z" fill="#A56A43"/>
<path d="M12.4135 13.1035L5.48246 19.7035C5.4317 19.7524 5.41584 19.8273 5.44241 19.8926C5.46899 19.9579 5.53265 20.0004 5.60315 20H7.10315C7.19193 19.9997 7.27716 19.9651 7.34108 19.9035L14.4825 13.1035H12.4135Z" fill="#603E26"/>
<path d="M5.53418 13.1035C13.2756 20.4897 12.6928 20 12.8962 20H14.3962C14.4668 20.0004 14.5304 19.9579 14.557 19.8926C14.5836 19.8273 14.5677 19.7524 14.5169 19.7035C9.86521 15.2621 11.5169 16.8448 7.62039 13.1035H5.53418Z" fill="#805333"/>
</g>
<defs>
<clipPath id="clip0_791_33839">
<rect width="20" height="20" fill="white"/>
</clipPath>
</defs>
</svg>
