<svg width="20" height="20" viewBox="0 0 20 20" fill="none" xmlns="http://www.w3.org/2000/svg">
<g clip-path="url(#clip0_791_33817)">
<path d="M13.9263 0.292969C12.4086 0.292969 11.0279 0.931289 9.99688 1.97473C8.9659 0.931289 7.58516 0.292969 6.06746 0.292969C2.87668 0.292969 0.290039 3.11297 0.290039 6.59164C0.290039 15.1718 9.99688 19.707 9.99688 19.707C9.99688 19.707 19.6091 15.2357 19.7037 6.59164C19.7418 3.11324 17.1171 0.292969 13.9263 0.292969Z" fill="#FA7592"/>
<path d="M13.9268 0.292969C13.6619 0.292969 13.4014 0.312852 13.146 0.350469C15.9724 0.76625 18.1766 3.40203 18.1416 6.59164C18.0636 13.7219 11.51 18.0127 9.2168 19.297C9.70285 19.5694 9.9973 19.707 9.9973 19.707C9.9973 19.707 19.6096 15.2357 19.7042 6.59164C19.7422 3.11324 17.1175 0.292969 13.9268 0.292969Z" fill="#F55577"/>
<path d="M12.0466 11.2204C11.8537 11.1483 11.7256 10.9646 11.7258 10.7587V10.7549C11.7258 9.79076 10.9442 9.00916 9.98007 9.00916C9.01593 9.00916 8.23433 9.79076 8.23433 10.7549C8.23433 10.7651 8.23441 10.7754 8.2346 10.7856C8.23812 10.9833 8.12066 11.1639 7.93749 11.2383C7.27964 11.5056 6.82156 12.1622 6.84988 12.9224C6.88382 13.8339 7.62784 14.5727 8.53952 14.6006C8.80792 14.6089 9.06312 14.5565 9.29261 14.4561C9.75156 14.2553 10.2778 14.2553 10.7368 14.4561C10.966 14.5564 11.221 14.6088 11.4892 14.6007C12.4042 14.5729 13.1499 13.829 13.1797 12.914C13.2049 12.1401 12.7261 11.4747 12.0466 11.2204Z" fill="#F9F2D7"/>
<path d="M8.60879 8.3579C9.392 8.12057 9.77917 7.11062 9.47356 6.10213C9.16796 5.09364 8.28531 4.46849 7.5021 4.70583C6.7189 4.94316 6.33173 5.9531 6.63733 6.9616C6.94293 7.97009 7.82559 8.59524 8.60879 8.3579Z" fill="#F9F2D7"/>
<path d="M6.55894 10.955C7.17364 10.6428 7.34608 9.74805 6.94411 8.95652C6.54213 8.16499 5.71795 7.77639 5.10325 8.08857C4.48855 8.40074 4.3161 9.29547 4.71808 10.087C5.12005 10.8785 5.94424 11.2671 6.55894 10.955Z" fill="#F9F2D7"/>
<path d="M13.2968 6.92552C13.6024 5.91702 13.2152 4.90708 12.432 4.66975C11.6488 4.43241 10.7662 5.05756 10.4606 6.06605C10.155 7.07454 10.5421 8.08449 11.3253 8.32182C12.1085 8.55916 12.9912 7.93401 13.2968 6.92552Z" fill="#F9F2D7"/>
<path d="M15.2459 10.0477C15.6478 9.25616 15.4754 8.36143 14.8607 8.04926C14.246 7.73708 13.4218 8.12568 13.0198 8.91721C12.6179 9.70874 12.7903 10.6035 13.405 10.9156C14.0197 11.2278 14.8439 10.8392 15.2459 10.0477Z" fill="#F9F2D7"/>
<path d="M18.0886 1.77641C16.9555 0.630859 15.4784 0 13.9292 0C12.4813 0 11.0966 0.554414 9.9998 1.56734C8.90297 0.554414 7.51832 0 6.07035 0C5.49102 0 4.91781 0.0885547 4.36656 0.263164C4.00547 0.377578 4.1825 0.936563 4.54352 0.821719C5.03746 0.665273 5.55117 0.585938 6.07035 0.585938C7.45379 0.585938 8.77527 1.1523 9.79137 2.18066C9.93031 2.29672 10.0693 2.29672 10.2082 2.18066C11.2243 1.1523 12.5458 0.585938 13.9292 0.585938C15.3207 0.585938 16.6498 1.15504 17.672 2.18844C18.797 3.32578 19.4318 4.92953 19.4136 6.58844C19.3927 8.50762 18.883 10.3742 17.8989 12.1364C17.1073 13.5539 16.0084 14.9087 14.6327 16.1631C12.5848 18.0305 10.5189 19.1212 10 19.3808C9.47805 19.1189 7.39141 18.0151 5.33156 16.1393C3.9491 14.8804 2.84875 13.5247 2.06109 12.1101C1.08227 10.352 0.585938 8.49531 0.585938 6.59164C0.585938 4.50024 1.55605 2.59168 3.18102 1.48625C3.49418 1.27316 3.16457 0.788594 2.85145 1.0018C1.06598 2.21641 0 4.30606 0 6.59164C0 8.5993 0.522774 10.5546 1.55379 12.4034C2.37441 13.8748 3.5168 15.2813 4.9493 16.5837C7.3809 18.7945 9.77504 19.9254 9.87578 19.9725C9.95828 20.0091 10.0408 20.0092 10.1234 19.9727C10.2231 19.9263 12.5948 18.8107 15.015 16.6075C16.4404 15.3099 17.5812 13.9046 18.4057 12.4307C19.4412 10.5795 19.9775 8.61609 19.9996 6.59488C20.0194 4.78055 19.3229 3.0243 18.0886 1.77641Z" fill="black"/>
<path d="M7.94817 10.7548C7.95547 10.8387 7.91742 10.9094 7.83399 10.9668C7.0425 11.2884 6.53207 12.0787 6.56391 12.9332C6.60364 13.9996 7.47047 14.8607 8.53735 14.8934C8.84309 14.9032 9.13907 14.8459 9.41684 14.7244C9.80098 14.5563 10.2418 14.5563 10.6261 14.7244C10.8842 14.8373 11.1579 14.8944 11.4407 14.8944C11.8293 14.8944 11.908 14.292 11.4871 14.3078C11.2693 14.3143 11.0584 14.2739 10.861 14.1876C10.3274 13.9542 9.71543 13.9542 9.182 14.1876C8.98446 14.274 8.77352 14.3139 8.55535 14.3077C7.79531 14.2844 7.17778 13.671 7.14946 12.9114C7.12676 12.3022 7.49051 11.7389 8.05461 11.5096C8.36016 11.3855 8.53414 11.0748 8.53414 10.7548C8.53414 9.95374 9.18586 9.30206 9.98692 9.30206C10.788 9.30206 11.4397 9.95378 11.4397 10.7584C11.4393 11.0843 11.6447 11.3803 11.9507 11.4948C12.5351 11.7134 12.914 12.2799 12.8937 12.9044C12.8838 13.2093 12.7789 13.4989 12.5903 13.7421C12.3582 14.0415 12.8211 14.4004 13.0533 14.1012C13.3181 13.7598 13.4654 13.3525 13.4793 12.9235C13.5079 12.0475 12.9761 11.2528 12.1561 10.946C12.0833 10.9188 12.0256 10.8335 12.0256 10.7548C12.0256 9.63069 11.1111 8.71613 9.98692 8.71613C8.86274 8.71609 7.94817 9.63066 7.94817 10.7548Z" fill="black"/>
<path d="M8.86994 4.69934C8.42212 4.38208 7.91814 4.28524 7.45084 4.42681C6.3699 4.75415 6.09955 6.08817 6.39017 7.04778C6.68146 8.00966 7.64388 8.96786 8.72673 8.63997C9.66334 8.35634 10.1392 7.18059 9.7874 6.01899C9.62091 5.46927 9.29509 5.00059 8.86994 4.69934ZM8.55693 8.07919C7.78755 8.3122 7.14673 7.52446 6.95099 6.87794C6.75556 6.23266 6.85525 5.21942 7.62068 4.98755C8.38287 4.75704 9.0313 5.54384 9.22662 6.1888C9.4847 7.04118 9.18431 7.88919 8.55693 8.07919Z" fill="black"/>
<path d="M4.99012 7.828C4.23254 8.21249 4.00184 9.28523 4.47586 10.2193C4.86922 10.9945 5.83922 11.6578 6.7095 11.2161C7.46707 10.8316 7.69774 9.75886 7.22375 8.82484C6.74973 7.89077 5.74778 7.44359 4.99012 7.828ZM6.70125 9.08999C7.02907 9.73593 6.91379 10.4553 6.44434 10.6936C5.86668 10.9869 5.24094 10.4321 4.9984 9.95417C4.67059 9.30816 4.78582 8.58878 5.25532 8.35054C5.83789 8.05487 6.45828 8.61124 6.70125 9.08999Z" fill="black"/>
<path d="M12.5569 4.38635C11.6205 4.10276 10.5722 4.81694 10.2204 5.97854C9.86866 7.1401 10.3445 8.31588 11.2811 8.59952C12.3593 8.92612 13.3278 7.96452 13.6176 7.00733C13.9694 5.84577 13.4935 4.66999 12.5569 4.38635ZM13.0568 6.83749C12.7987 7.68983 12.0781 8.2287 11.4509 8.03874C10.8235 7.84874 10.523 7.00073 10.7811 6.14835C11.0392 5.29608 11.7595 4.7571 12.3871 4.9471C13.0145 5.13713 13.3149 5.98514 13.0568 6.83749Z" fill="black"/>
<path d="M12.7717 8.78436C12.3778 9.5605 12.4143 10.7333 13.286 11.1757C14.1563 11.6172 15.1257 10.9549 15.5196 10.1789C15.9134 9.40272 15.8769 8.22991 15.0053 7.78757C14.1348 7.34585 13.1655 8.00843 12.7717 8.78436ZM13.2942 9.04952C13.5358 8.57347 14.1606 8.01581 14.7401 8.31011C15.3118 8.60011 15.2374 9.44011 14.9971 9.9137C14.7545 10.3917 14.1289 10.9463 13.5511 10.6531C12.9781 10.3624 13.0506 9.5237 13.2942 9.04952Z" fill="black"/>
</g>
<defs>
<clipPath id="clip0_791_33817">
<rect width="20" height="20" fill="white"/>
</clipPath>
</defs>
</svg>
