<svg width="47" height="47" viewBox="0 0 47 47" fill="none" xmlns="http://www.w3.org/2000/svg">
<path d="M47 9.5084V19.301C47 21.2593 45.3978 22.8615 43.4395 22.8615H3.56053C1.60222 22.8615 0 21.2593 0 19.301V9.5084C0 7.55101 1.60222 5.94879 3.56053 5.94879H43.4395C45.3978 5.94879 47 7.55101 47 9.5084Z" fill="#B3D8F4"/>
<path d="M46.9993 9.5084V19.301C46.9993 21.2593 45.3971 22.8615 43.4388 22.8615H6.47263C4.51433 22.8615 2.91211 21.2593 2.91211 19.301V9.5084C2.91211 7.55101 4.51433 5.94879 6.47263 5.94879H43.4388C45.3971 5.94879 46.9993 7.55101 46.9993 9.5084Z" fill="#D1E7F8"/>
<path d="M47 18.055V19.301C47 19.4207 46.9943 19.5394 46.9829 19.6562C46.9307 20.1709 46.7683 20.6534 46.5194 21.0808C45.9021 22.1435 44.7502 22.8616 43.4395 22.8616H3.56053C2.24994 22.8616 1.09789 22.1435 0.480557 21.0808C0.231695 20.6534 0.0693066 20.171 0.0170742 19.6562C0.00569141 19.5394 0 19.4207 0 19.301V18.055H47Z" fill="#78B9EB"/>
<path d="M41.4017 14.9389C41.4017 15.3074 41.1984 15.6284 40.8983 15.7956C40.7578 15.8734 40.5954 15.9181 40.4226 15.9181C39.8822 15.9181 39.4434 15.4803 39.4434 14.9389C39.4434 14.3985 39.8822 13.9597 40.4226 13.9597C40.5954 13.9597 40.7578 14.0043 40.8983 14.0832C41.1984 14.2503 41.4017 14.5714 41.4017 14.9389Z" fill="#6DC82A"/>
<path d="M45.1752 14.9389C45.1752 15.3074 44.972 15.6284 44.6709 15.7956C44.5303 15.8734 44.3679 15.9181 44.196 15.9181C43.6547 15.9181 43.2168 15.4803 43.2168 14.9389C43.2168 14.3985 43.6546 13.9597 44.196 13.9597C44.3679 13.9597 44.5303 14.0043 44.6709 14.0832C44.972 14.2503 45.1752 14.5714 45.1752 14.9389Z" fill="#FF0C38"/>
<path d="M41.4031 14.9389C41.4031 15.3074 41.1999 15.6284 40.8998 15.7956C40.5987 15.6284 40.3945 15.3084 40.3945 14.9389C40.3945 14.5704 40.5987 14.2494 40.8998 14.0832C41.1999 14.2504 41.4031 14.5714 41.4031 14.9389Z" fill="#91DC5A"/>
<path d="M45.1747 14.9389C45.1747 15.3074 44.9714 15.6284 44.6703 15.7956C44.3693 15.6284 44.166 15.3084 44.166 14.9389C44.166 14.5704 44.3693 14.2494 44.6703 14.0832C44.9714 14.2504 45.1747 14.5714 45.1747 14.9389Z" fill="#FF3F62"/>
<path d="M44.2981 34.1619L41.8025 32.6111L44.2981 31.0603C44.6323 30.8526 44.7349 30.4134 44.5271 30.0793C44.3195 29.7451 43.88 29.6427 43.5463 29.8503L41.1653 31.3298V28.5266C41.1653 28.1332 40.8465 27.8143 40.4531 27.8143C40.0596 27.8143 39.7408 28.1332 39.7408 28.5266V31.3299L37.3598 29.8503C37.0258 29.6425 36.5864 29.7452 36.379 30.0793C36.1712 30.4135 36.2739 30.8527 36.608 31.0603L39.1036 32.6111L36.608 34.1619C36.2738 34.3695 36.1712 34.8088 36.379 35.1428C36.5138 35.3599 36.7465 35.4793 36.9846 35.4793C37.1131 35.4793 37.2429 35.4446 37.3599 35.3719L39.7409 33.8923V36.6956C39.7409 37.0889 40.0597 37.4078 40.4532 37.4078C40.8466 37.4078 41.1654 37.0889 41.1654 36.6956V33.8924L43.5464 35.3719C43.6633 35.4446 43.7933 35.4793 43.9216 35.4793C44.1597 35.4793 44.3924 35.3599 44.5273 35.1428C44.7349 34.8087 44.6322 34.3695 44.2981 34.1619Z" fill="#78B9EB"/>
<path d="M17.8435 27.9505C17.6359 27.6162 17.1964 27.5139 16.8627 27.7214L14.4816 29.201V26.3977C14.4816 26.0044 14.1628 25.6855 13.7694 25.6855C13.376 25.6855 13.0571 26.0044 13.0571 26.3977V29.2009L10.6762 27.7214C10.3422 27.5137 9.90282 27.6164 9.69536 27.9505C9.48762 28.2846 9.59034 28.7239 9.92439 28.9314L12.42 30.4822L9.92439 32.0331C9.59016 32.2407 9.48762 32.6799 9.69536 33.014C9.83021 33.2311 10.0629 33.3504 10.301 33.3504C10.4295 33.3504 10.5593 33.3157 10.6763 33.243L13.0572 31.7635V34.5667C13.0572 34.9601 13.376 35.279 13.7695 35.279C14.1629 35.279 14.4817 34.9601 14.4817 34.5667V31.7634L16.8628 33.243C16.9797 33.3158 17.1097 33.3504 17.238 33.3504C17.4762 33.3504 17.7088 33.2311 17.8437 33.014C18.0514 32.6799 17.9487 32.2406 17.6147 32.0331L15.1191 30.4822L17.6147 28.9314C17.9486 28.7238 18.0512 28.2845 17.8435 27.9505Z" fill="#78B9EB"/>
<path d="M26.5545 36.1802C26.3467 35.8461 25.9076 35.7435 25.5735 35.9512L24.5588 36.5817V35.3872C24.5588 34.9938 24.24 34.6749 23.8465 34.6749C23.4531 34.6749 23.1343 34.9938 23.1343 35.3872V36.5817L22.1197 35.9513C21.7854 35.7434 21.3462 35.8463 21.1387 36.1803C20.931 36.5144 21.0337 36.9537 21.3677 37.1612L22.4969 37.863L21.3677 38.5648C21.0335 38.7725 20.931 39.2117 21.1387 39.5458C21.2737 39.7629 21.5063 39.8822 21.7444 39.8822C21.8728 39.8822 22.0027 39.8475 22.1198 39.7748L23.1344 39.1443V40.3389C23.1344 40.7322 23.4532 41.0511 23.8466 41.0511C24.2401 41.0511 24.5589 40.7322 24.5589 40.3389V39.1442L25.5736 39.7748C25.6907 39.8475 25.8206 39.8822 25.949 39.8822C26.1871 39.8822 26.4197 39.7629 26.5546 39.5458C26.7624 39.2116 26.6597 38.7724 26.3257 38.5648L25.1964 37.863L26.3257 37.1612C26.6597 36.9535 26.7622 36.5144 26.5545 36.1802Z" fill="#3D9AE2"/>
<path d="M5.50909 31.317C5.50909 31.7947 5.28309 32.2202 4.93169 32.4909C4.68191 32.6827 4.36944 32.7977 4.02942 32.7977C3.21169 32.7977 2.54883 32.1348 2.54883 31.3171C2.54883 30.4994 3.21169 29.8365 4.02942 29.8365C4.36944 29.8365 4.68191 29.9514 4.93169 30.1433C5.283 30.4138 5.50909 30.8393 5.50909 31.317Z" fill="#1E81CE"/>
<path d="M31.1312 28.0632C31.1312 28.5409 30.9042 28.9664 30.5528 29.2371C30.303 29.429 29.9905 29.5439 29.6505 29.5439C28.8328 29.5439 28.1699 28.881 28.1699 28.0633C28.1699 27.2456 28.8328 26.5827 29.6505 26.5827C29.9905 26.5827 30.303 26.6976 30.5528 26.8895C30.9042 27.16 31.1312 27.5855 31.1312 28.0632Z" fill="#1E81CE"/>
<path d="M5.50933 31.317C5.50933 31.7947 5.28333 32.2202 4.93193 32.4909C4.58053 32.2202 4.35352 31.7947 4.35352 31.317C4.35352 30.8393 4.58053 30.4138 4.93193 30.1431C5.28323 30.4138 5.50933 30.8393 5.50933 31.317Z" fill="#3D9AE2"/>
<path d="M31.1314 28.0632C31.1314 28.541 30.9044 28.9664 30.553 29.2371C30.2016 28.9664 29.9746 28.541 29.9746 28.0632C29.9746 27.5855 30.2016 27.1601 30.553 26.8893C30.9044 27.1601 31.1314 27.5855 31.1314 28.0632Z" fill="#3D9AE2"/>
<path d="M26.4028 9.94724C26.4028 10.3404 26.0838 10.6595 25.6906 10.6595H21.433C21.0398 10.6595 20.7207 10.3404 20.7207 9.94724C20.7207 9.55407 21.0398 9.23499 21.433 9.23499H25.6906C26.0837 9.23489 26.4028 9.55407 26.4028 9.94724Z" fill="#165C92"/>
<path d="M26.4027 9.94724C26.4027 10.3404 26.0836 10.6595 25.6904 10.6595H24.1869C23.7937 10.6595 23.4746 10.3404 23.4746 9.94724C23.4746 9.55407 23.7937 9.23499 24.1869 9.23499H25.6903C26.0835 9.23489 26.4027 9.55407 26.4027 9.94724Z" fill="#1A6FB0"/>
<path d="M6.47333 22.8616H3.56053C2.24994 22.8616 1.09789 22.1435 0.480557 21.0808C0.231695 20.6534 0.0693066 20.171 0.0170742 19.6562C0.00569141 19.5394 0 19.4207 0 19.301V18.055H2.91281V19.301C2.91281 21.2593 4.51503 22.8616 6.47333 22.8616Z" fill="#5AAAE7"/>
<path d="M15.9749 20.3685C15.9749 20.7627 15.6558 21.0808 15.2627 21.0808H0.481061C0.232199 20.6534 0.0698105 20.171 0.0175781 19.6562H15.2626C15.6557 19.6562 15.9749 19.9754 15.9749 20.3685Z" fill="#3D9AE2"/>
<path d="M46.9824 19.6562C46.9301 20.1709 46.7677 20.6534 46.5189 21.0808H18.1107C17.7175 21.0808 17.3984 20.7626 17.3984 20.3685C17.3984 19.9754 17.7175 19.6563 18.1107 19.6563H46.9824V19.6562Z" fill="#3D9AE2"/>
</svg>
