<svg width="49" height="49" viewBox="0 0 49 49" fill="none" xmlns="http://www.w3.org/2000/svg">
<path fill-rule="evenodd" clip-rule="evenodd" d="M46.1298 43.6608H25.2897C23.7396 43.6608 22.4766 42.3978 22.4766 40.8477V26.9543C22.4766 26.5524 22.7923 26.2367 23.1942 26.2367L40.5322 16.3907C40.5322 15.9889 40.848 15.6731 41.2498 15.6731H46.1585C47.7085 15.6731 48.9716 16.9648 48.9716 18.5149V40.7903C48.9429 42.3978 47.6798 43.6608 46.1298 43.6608Z" fill="#2F4054"/>
<path fill-rule="evenodd" clip-rule="evenodd" d="M44.4359 41.5079H26.9257C25.5765 41.5079 24.457 40.3884 24.457 39.0392V25.9496C24.457 25.5477 24.7728 25.232 25.1747 25.232C26.6386 24.5431 40.0153 17.7973 40.0727 17.7973H44.4934C45.8425 17.7973 46.962 18.8881 46.962 20.266V39.0105C46.962 40.3884 45.8425 41.5079 44.4359 41.5079Z" fill="#222F3D"/>
<path fill-rule="evenodd" clip-rule="evenodd" d="M31.5169 35.3937C30.2252 35.3937 28.876 35.2501 27.9575 34.389C27.4121 33.8723 27.125 33.126 27.125 32.2074V24.7153C27.125 24.3134 27.4408 23.9977 27.8426 23.9977L32.7799 21.7012C33.1818 21.7012 33.4976 22.017 33.4976 22.4189V28.8489L39.0951 27.6145C39.2961 27.5858 39.5544 27.6145 39.6979 27.7294C39.8702 27.8729 39.985 28.0451 39.985 28.3035V33.2695C39.985 33.5852 39.7553 33.8723 39.4396 33.9584L32.9809 35.3363C32.9235 35.3363 32.8948 35.3363 32.8087 35.3363C32.6077 35.3363 32.4068 35.3363 32.2058 35.3363C31.9762 35.3937 31.7466 35.3937 31.5169 35.3937Z" fill="#C9D9E5"/>
<path fill-rule="evenodd" clip-rule="evenodd" d="M20.1233 27.1839C19.9224 26.8682 20.152 27.7293 20.5252 27.5284C20.64 27.471 20.1233 26.983 20.2668 26.9256L20.2094 20.0076V19.9502L20.9845 19.6344L40.6189 12.2859C40.6189 11.9414 40.8486 11.6543 41.2217 11.5682C41.6236 11.5395 41.9394 11.7692 42.0255 12.171C42.2838 14.2378 42.4274 17.9408 39.9874 19.4622C37.2891 21.1271 33.787 22.7346 30.0841 24.4282C27.0126 25.8348 23.0225 27.3275 20.353 28.8201C19.9511 28.5905 20.3242 27.5571 20.1233 27.1839Z" fill="#ABB7C1"/>
<path fill-rule="evenodd" clip-rule="evenodd" d="M19.9216 21.041C19.6345 21.041 19.3762 20.8975 19.2901 20.6104C19.1752 20.2659 19.3188 19.8641 19.6919 19.6918L2.52616 10.908C2.12428 10.9654 1.77982 10.7071 1.72241 10.3339C1.63629 9.93203 1.92335 9.58756 2.29652 9.55886L28.1887 5.33917H28.3323H38.0634C39.1829 5.33917 40.1014 5.71234 40.7904 6.51609C42.3117 8.7264 41.996 12.2859 42.0247 12.3433L20.8402 19.9789C20.754 20.0076 20.0077 21.041 19.9216 21.041Z" fill="#D8E6EE"/>
<path fill-rule="evenodd" clip-rule="evenodd" d="M6.74506 21.3568H5.10885C4.87921 21.3568 4.62086 21.2419 4.50604 21.0123L0.286358 13.836C0.257653 13.8072 0.257653 13.7785 0.257653 13.7211C0.200242 13.635 -0.431275 11.884 0.544706 10.5923C1.11881 9.73109 2.1235 9.38663 3.55877 9.38663H3.64488L14.9835 10.621H15.0122C16.4188 10.621 18.2846 13.8072 20.6384 20.0937C20.7533 20.4669 20.6097 20.8401 20.2366 21.0123C19.8921 21.1271 8.78314 21.3568 6.74506 21.3568Z" fill="#091331"/>
<path fill-rule="evenodd" clip-rule="evenodd" d="M20.0935 28.8488C20.0361 28.8488 20.0361 28.8488 20.0074 28.8488L6.65945 27.1839C6.31499 27.1552 6.05664 26.8108 6.05664 26.495V13.1183C6.05664 12.9174 6.14276 12.7451 6.31499 12.6016C6.45852 12.4868 6.65945 12.4007 6.86039 12.4581L17.9119 13.8072L20.8399 19.9789V28.1312C20.8399 28.3321 20.7538 28.5331 20.6102 28.6479C20.438 28.8201 20.2945 28.8488 20.0935 28.8488Z" fill="#262D43"/>
<path fill-rule="evenodd" clip-rule="evenodd" d="M18.1417 25.9496C18.0843 25.9496 18.0843 25.9496 18.0556 25.9496L9.41531 24.9449C9.04214 24.9162 8.8125 24.6292 8.8125 24.2847V16.0463C8.8125 15.8453 8.89862 15.6444 9.04214 15.5296C9.21437 15.386 9.41531 15.3286 9.61625 15.3573L18.2566 16.3907C18.601 16.4194 18.8594 16.7639 18.8594 17.0797V25.232C18.8594 25.4329 18.7733 25.6338 18.601 25.7487C18.4575 25.8635 18.2853 25.9496 18.1417 25.9496Z" fill="#2F4054"/>
<path fill-rule="evenodd" clip-rule="evenodd" d="M13.7787 23.1078C12.5443 23.1078 11.5684 22.017 11.5684 20.6391C11.5684 19.29 12.5443 18.1992 13.7787 18.1992C15.013 18.1992 16.0177 19.29 16.0177 20.6391C16.0464 22.017 15.013 23.1078 13.7787 23.1078Z" fill="#37A3C8"/>
<path fill-rule="evenodd" clip-rule="evenodd" d="M13.7797 19.577C13.3204 19.577 12.9473 20.065 12.9473 20.6391C12.9473 21.2419 13.3491 21.7299 13.7797 21.7299C14.239 21.7299 14.6122 21.2419 14.6122 20.6391C14.6122 20.065 14.2677 19.577 13.7797 19.577Z" fill="#2D80B8"/>
<path fill-rule="evenodd" clip-rule="evenodd" d="M13.2056 19.577C13.0621 19.577 12.9473 19.7206 12.9473 19.8928C12.9473 20.065 13.0621 20.2085 13.2056 20.2085C13.3491 20.2085 13.464 20.065 13.464 19.8928C13.464 19.7206 13.3491 19.577 13.2056 19.577Z" fill="#BCD7E9"/>
</svg>
