<svg width="46" height="46" viewBox="0 0 46 46" fill="none" xmlns="http://www.w3.org/2000/svg">
<path d="M38.3332 23.2449V26.8334C38.3332 33.6863 33.8142 39.5036 27.5997 41.462H18.3996C12.1851 39.5035 7.66625 33.6862 7.66625 26.8334V23.2449L4.59961 23.2359V26.8334C4.59961 35.3939 10.4759 42.6078 18.4066 44.6531L27.5996 44.6513C35.5269 42.6035 41.3998 35.3913 41.3998 26.8334V23.2359L38.3332 23.2449Z" fill="#E9F1FF"/>
<path d="M23.0005 41.4C21.575 41.4 20.197 41.1937 18.894 40.8101C18.6476 40.7376 18.4004 40.9198 18.4004 41.1767V44.8301C18.4004 45.19 18.6501 45.5041 19.002 45.5791C20.2921 45.8543 21.6295 45.9999 23.0005 45.9999C24.3714 45.9999 25.7087 45.8543 26.9988 45.5791C27.3507 45.504 27.6004 45.19 27.6004 44.8301V41.1767C27.6004 40.9198 27.3532 40.7375 27.1068 40.8101C25.8039 41.1937 24.4259 41.4 23.0005 41.4Z" fill="#596C76"/>
<path d="M39.2904 23.242V26.8333C39.2904 35.3913 33.4175 42.6035 25.4902 44.6512H27.6007C35.5279 42.6035 41.4008 35.3912 41.4008 26.8333V23.2358L39.2904 23.242Z" fill="#D7E4F7"/>
<path d="M5.55582 23.2449V26.8334C5.55582 32.4184 8.55732 37.3155 13.032 39.9966C14.6515 40.967 16.5116 41.4619 18.3996 41.4619C12.1852 39.5035 7.66625 33.6862 7.66625 26.8334V23.2449L4.59961 23.2359V23.2421L5.55582 23.2449Z" fill="#D7E4F7"/>
<path d="M7.66625 26.8334V26.1391H4.59961V26.8334C4.59961 27.0658 4.60473 27.2971 4.61336 27.5275H7.66625C7.67164 27.5275 7.67685 27.5268 7.68215 27.5267C7.67191 27.2968 7.66625 27.0657 7.66625 26.8334Z" fill="#BED2EE"/>
<path d="M41.4009 26.1391H38.3343V26.8334C38.3343 27.0658 38.3286 27.2968 38.3184 27.5267C38.3237 27.5268 38.3289 27.5275 38.3343 27.5275H41.3872C41.3959 27.2971 41.401 27.0658 41.401 26.8334V26.1391H41.4009Z" fill="#BED2EE"/>
<path d="M27.1076 40.8102C26.5747 40.967 26.0287 41.0926 25.4724 41.1881V45.1672C25.4724 45.5094 25.2466 45.8096 24.9219 45.903C25.6262 45.8323 26.3196 45.7243 26.9996 45.5793C27.3515 45.5042 27.6012 45.1901 27.6012 44.8303V41.1769C27.6012 40.9199 27.354 40.7376 27.1076 40.8102Z" fill="#3E4F55"/>
<path d="M27.6004 42.3715C27.538 42.3715 27.4745 42.3794 27.4115 42.3972C25.9835 42.801 24.4994 43.0059 23.0005 43.0059C21.5014 43.0059 20.0173 42.801 18.5892 42.3972C18.5263 42.3794 18.4628 42.3715 18.4004 42.3715V43.7835C19.6716 44.1275 20.9815 44.3277 22.3063 44.3794V45.986C22.5369 45.9943 22.7681 46 23.0005 46C23.233 46 23.4642 45.9943 23.6946 45.986V44.3794C25.0194 44.3277 26.3292 44.1275 27.6004 43.7835V42.3715Z" fill="#3E4F55"/>
<path d="M42.1664 19.9334H39.8664L38.3331 18.4L39.8665 16.8666C39.8665 10.2446 35.2023 4.71194 28.9798 3.37471H17.0199C10.7974 4.71194 6.13313 10.2446 6.13313 16.8666L7.66641 18.4L6.13304 19.9334H3.83304C3.40961 19.9334 3.06641 20.2766 3.06641 20.7V22.3423C3.06641 22.7207 3.3425 23.0425 3.71652 23.1L22.0671 25.9232C22.6852 26.0183 23.3142 26.0183 23.9323 25.9232L42.2829 23.1C42.657 23.0424 42.933 22.7207 42.933 22.3423V20.7C42.9331 20.2766 42.5898 19.9334 42.1664 19.9334Z" fill="#FFDA2D"/>
<path d="M37.7383 16.8666V19.9333H39.867V16.8666C39.867 10.2446 35.2028 4.71194 28.9803 3.37471H26.8516C33.0741 4.71194 37.7383 10.2446 37.7383 16.8666Z" fill="#FDBF00"/>
<path d="M42.1659 19.9334H40.0371C40.4605 19.9334 40.8037 20.2766 40.8037 20.7V22.6922C40.8037 23.0085 40.6104 23.2847 40.3287 23.4006L42.2825 23.1C42.6565 23.0424 42.9326 22.7207 42.9326 22.3423V20.7C42.9326 20.2766 42.5893 19.9334 42.1659 19.9334Z" fill="#FDBF00"/>
<path d="M6.13281 19.9334H8.4807C8.87763 19.9334 9.19945 19.6115 9.19945 19.2146V17.5855C9.19945 17.1886 8.87763 16.8667 8.4807 16.8667H6.13281V19.9334Z" fill="#FF7038"/>
<path d="M39.8674 19.9334H37.5195C37.1226 19.9334 36.8008 19.6115 36.8008 19.2146V17.5855C36.8008 17.1886 37.1226 16.8667 37.5195 16.8667H39.8674V19.9334Z" fill="#FF7038"/>
<path d="M27.4672 1.53336H26.4005C26.2247 1.53336 26.0722 1.40974 26.0384 1.23715C25.9003 0.532055 25.279 0 24.5336 0H21.467C20.7214 0 20.1002 0.532055 19.9622 1.23715C19.9285 1.40974 19.7759 1.53336 19.6001 1.53336H18.5335C17.6364 1.53336 16.9309 2.30009 17.0054 3.19404L18.017 15.3334V16.4671H27.9837V15.3334L28.9953 3.19404C29.0697 2.30009 28.3642 1.53336 27.4672 1.53336Z" fill="#FFDA2D"/>
<path d="M27.4675 1.53336H26.4009C26.225 1.53336 26.0725 1.40974 26.0387 1.23715C25.9006 0.532055 25.2794 0 24.5339 0H22.3848C23.1303 0 23.7515 0.532055 23.8895 1.23715C23.9233 1.40974 24.0758 1.53336 24.2516 1.53336H25.3183C26.2153 1.53336 26.9208 2.30009 26.8463 3.19404L25.8347 15.3334V16.4671H27.9838V15.3334L28.9955 3.19404C29.07 2.30009 28.3645 1.53336 27.4675 1.53336Z" fill="#FDBF00"/>
<path d="M16.8672 19.9334V16.1C16.8672 15.6766 17.2104 15.3334 17.6338 15.3334H28.3672C28.7906 15.3334 29.1338 15.6766 29.1338 16.1V19.9334H16.8672Z" fill="#FF7038"/>
<path d="M28.367 15.3334H26.2383C26.6617 15.3334 27.0049 15.6766 27.0049 16.1V19.9334H29.1337V16.1C29.1338 15.6766 28.7905 15.3334 28.367 15.3334Z" fill="#FF405C"/>
<path d="M30.6661 20.6275H15.3328C14.9494 20.6275 14.6387 20.3167 14.6387 19.9334C14.6387 19.55 14.9494 19.2392 15.3328 19.2392H30.6662C31.0495 19.2392 31.3603 19.55 31.3603 19.9334C31.3603 20.3167 31.0495 20.6275 30.6661 20.6275Z" fill="#FDBF00"/>
<path d="M19.2352 8.36086C19.6186 8.36086 19.9294 8.05009 19.9294 7.66673V1.32915C19.8682 1.4516 19.7423 1.53336 19.5999 1.53336H18.541V7.66673C18.5411 8.05009 18.8519 8.36086 19.2352 8.36086Z" fill="#FDBF00"/>
</svg>
