<svg width="53" height="53" viewBox="0 0 53 53" fill="none" xmlns="http://www.w3.org/2000/svg">
<path d="M8.44727 14.5909L10.5823 26.1L21.7605 30.0563L19.5976 18.3975L8.44727 14.5909Z" fill="#E5E5E5"/>
<path d="M28.6411 10.8448L28.6134 10.6951L17.4352 6.73877L8.41992 14.4412L8.44769 14.5909L19.5981 18.3975L28.6411 10.8448Z" fill="#ADADAD"/>
<path d="M19.5977 18.3975L21.7605 30.0562L30.7758 22.3538L28.6407 10.8447L19.5977 18.3975Z" fill="#BCBCBC"/>
<path d="M27.5882 15.7173C27.71 16.3739 27.3564 16.9873 26.7986 17.0908C26.2408 17.1942 25.6907 16.7485 25.5689 16.0919C25.4471 15.4353 25.8008 14.822 26.3585 14.7185C26.9163 14.6151 27.4664 15.0608 27.5882 15.7173Z" fill="#545454"/>
<path d="M26.2112 20.2631C26.333 20.9197 25.9794 21.5331 25.4217 21.6365C24.8639 21.74 24.3138 21.2943 24.192 20.6377C24.0702 19.9811 24.4238 19.3678 24.9816 19.2643C25.5393 19.1608 26.0894 19.6065 26.2112 20.2631Z" fill="#545454"/>
<path d="M24.8323 24.8089C24.9541 25.4655 24.6005 26.0788 24.0428 26.1823C23.485 26.2858 22.9349 25.8401 22.8131 25.1835C22.6913 24.5269 23.0449 23.9136 23.6027 23.8101C24.1604 23.7066 24.7105 24.1523 24.8323 24.8089Z" fill="#545454"/>
<path d="M20.9222 12.1217C21.0422 12.7681 20.0624 13.4948 18.7295 13.7421C17.4047 13.9879 16.2295 13.661 16.1095 13.0145C15.9896 12.368 16.9694 11.6414 18.2942 11.3956C19.6271 11.1483 20.8023 11.4752 20.9222 12.1217Z" fill="#3E3E3F"/>
<path d="M16.0391 22.3226C16.0397 22.9297 15.6224 23.4198 15.1067 23.4204C14.5909 23.421 14.1725 22.9318 14.1719 22.3246C14.1712 21.7175 14.5885 21.2274 15.1043 21.2268C15.62 21.2262 16.0384 21.7154 16.0391 22.3226Z" fill="#545454"/>
<path d="M18.5352 19.6676C18.5358 20.2747 18.1185 20.7648 17.6028 20.7654C17.087 20.7659 16.6686 20.2768 16.668 19.6696C16.6673 19.0624 17.0846 18.5723 17.6004 18.5718C18.1161 18.5712 18.5345 19.0604 18.5352 19.6676Z" fill="#545454"/>
<path d="M13.5352 18.5762C13.5358 19.1834 13.1185 19.6735 12.6028 19.6741C12.087 19.6746 11.6686 19.1854 11.668 18.5783C11.6673 17.9711 12.0846 17.481 12.6004 17.4805C13.1161 17.4799 13.5345 17.9691 13.5352 18.5762Z" fill="#545454"/>
<path d="M18.541 26.0689C18.5417 26.6761 18.1244 27.1662 17.6087 27.1667C17.0929 27.1673 16.6745 26.6781 16.6738 26.071C16.6732 25.4638 17.0905 24.9737 17.6063 24.9731C18.122 24.9726 18.5404 25.4618 18.541 26.0689Z" fill="#545454"/>
<path d="M13.543 24.9775C13.5437 25.5846 13.1263 26.0747 12.6106 26.0753C12.0948 26.0759 11.6764 25.5867 11.6758 24.9795C11.6751 24.3724 12.0924 23.8823 12.6082 23.8817C13.124 23.8811 13.5423 24.3703 13.543 24.9775Z" fill="#545454"/>
<path d="M30.1968 9.35486L27.707 20.7924L36.4799 28.7698L39.0021 17.1835L30.1968 9.35486Z" fill="#21BDD6"/>
<path d="M50.2653 13.7234L50.2977 13.5746L41.5248 5.59717L30.2297 9.20603L30.1973 9.3548L39.0026 17.1835L50.2653 13.7234Z" fill="#1099A0"/>
<path d="M39.0027 17.1835L36.4805 28.7698L47.7756 25.1609L50.2654 13.7234L39.0027 17.1835Z" fill="#10A3B2"/>
<path d="M47.4066 17.8079C47.2645 18.4604 46.7009 18.8889 46.1466 18.7682C45.5923 18.6475 45.2578 18.0236 45.3998 17.371C45.5419 16.7185 46.1055 16.2901 46.6598 16.4107C47.2141 16.5314 47.5486 17.1554 47.4066 17.8079Z" fill="#E5E5E5"/>
<path d="M44.3753 21.465C44.2333 22.1175 43.6697 22.546 43.1154 22.4253C42.5611 22.3046 42.2266 21.6807 42.3686 21.0281C42.5106 20.3756 43.0743 19.9472 43.6286 20.0678C44.1828 20.1885 44.5174 20.8125 44.3753 21.465Z" fill="#E5E5E5"/>
<path d="M41.3441 25.1221C41.202 25.7746 40.6384 26.2031 40.0841 26.0824C39.5298 25.9617 39.1953 25.3378 39.3373 24.6852C39.4794 24.0327 40.043 23.6043 40.5973 23.7249C41.1516 23.8456 41.4861 24.4696 41.3441 25.1221Z" fill="#E5E5E5"/>
<path d="M34.2002 19.423C33.9656 19.983 33.3911 20.2732 32.9154 20.0739C32.4396 19.8746 32.2434 19.2616 32.478 18.7016C32.7126 18.1415 33.2872 17.8514 33.7629 18.0506C34.2386 18.2499 34.4348 18.863 34.2002 19.423Z" fill="#E5E5E5"/>
<path d="M37.5303 17.9424C37.2957 18.5024 36.7211 18.7926 36.2454 18.5933C35.7697 18.394 35.5735 17.781 35.8081 17.221C36.0427 16.661 36.6172 16.3708 37.093 16.57C37.5687 16.7693 37.7649 17.3824 37.5303 17.9424Z" fill="#E5E5E5"/>
<path d="M33.3428 14.9995C33.1082 15.5595 32.5337 15.8497 32.058 15.6504C31.5822 15.4512 31.386 14.8381 31.6206 14.2781C31.8552 13.7181 32.4297 13.4279 32.9055 13.6272C33.3812 13.8264 33.5774 14.4395 33.3428 14.9995Z" fill="#E5E5E5"/>
<path d="M35.0576 23.8465C34.8231 24.4066 34.2485 24.6967 33.7728 24.4975C33.2971 24.2982 33.1008 23.6851 33.3354 23.1251C33.57 22.5651 34.1446 22.2749 34.6203 22.4742C35.096 22.6735 35.2922 23.2865 35.0576 23.8465Z" fill="#E5E5E5"/>
<path d="M30.8701 20.9037C30.6356 21.4637 30.061 21.7539 29.5853 21.5546C29.1096 21.3553 28.9133 20.7423 29.1479 20.1823C29.3825 19.6223 29.9571 19.3321 30.4328 19.5313C30.9085 19.7306 31.1047 20.3437 30.8701 20.9037Z" fill="#E5E5E5"/>
<path d="M48.7598 37.4478L26.7256 45.5428C23.3644 47.067 20.9722 46.32 18.358 46.0879C14.7849 45.775 6.488 45.4621 6.488 45.4621L5.11523 33.481C5.11523 33.481 13.8361 28.8582 22.1431 33.481C22.1431 33.481 26.7659 32.8451 30.8538 31.4321C34.8912 30.0391 37.8083 32.8653 35.2748 35.9742L47.0742 32.4212C47.3366 32.3404 47.599 32.3001 47.8514 32.3001C49.0525 32.3001 50.1527 33.1278 50.4353 34.3693C50.728 35.6714 50.0114 36.9936 48.7598 37.4478Z" fill="#FFDCB6"/>
<path d="M35.2907 35.9703C33.9934 36.3537 32.6793 36.6323 31.3698 36.8798C30.0635 37.1665 28.7457 37.1524 27.3479 37.5811C25.9881 38.0698 24.9257 38.9881 23.8251 39.6798C22.7205 40.3851 21.4692 40.8583 20.1504 41.172C21.4996 41.1373 22.8851 40.8424 24.1123 40.183C25.3457 39.5446 26.3742 38.6619 27.5952 38.2917C28.7608 37.8589 30.1944 37.8512 31.4961 37.4426C32.8125 37.0908 34.0945 36.6108 35.2907 35.9703Z" fill="#D8A782"/>
<path d="M2.5 32.0984L7.90555 31.9391L8.323 46.0873L2.5 46.259V32.0984Z" fill="#FA5655"/>
<path d="M32.8407 31.62C31.6257 31.8066 31.6632 32.8452 31.8499 34.0604C32.0364 35.2754 32.3123 36.2778 33.5273 36.0913C34.7422 35.9047 35.6064 34.7271 35.4197 33.5121C35.2331 32.2971 34.0556 31.4333 32.8407 31.62Z" fill="white"/>
<path d="M2.5 31.2306L6.62183 31.109L7.09853 47.2672L2.5 47.4027V31.2306Z" fill="#545454"/>
<path d="M40.1221 14.6153C40.0221 15.0753 39.3521 15.3353 38.6021 15.1853C37.8621 15.0353 37.3321 14.5453 37.4221 14.0753C37.5221 13.6153 38.1921 13.3553 38.9421 13.5053C39.6821 13.6553 40.2121 14.1453 40.1221 14.6153Z" fill="#E5E5E5"/>
<path d="M43.5322 13.4453C43.4422 13.9153 42.7622 14.1753 42.0222 14.0253C41.2722 13.8753 40.7422 13.3853 40.8422 12.9153C40.9322 12.4553 41.6022 12.1953 42.3522 12.3453C43.0922 12.4953 43.6222 12.9853 43.5322 13.4453Z" fill="#E5E5E5"/>
<path d="M46.9423 12.2852C46.8523 12.7553 46.1723 13.0053 45.4323 12.8652C44.6823 12.7152 44.1623 12.2252 44.2523 11.7553C44.3423 11.2952 45.0223 11.0352 45.7623 11.1853C46.5023 11.3253 47.0323 11.8253 46.9423 12.2852Z" fill="#E5E5E5"/>
<path d="M36.2429 11.0252C36.153 11.4852 35.4829 11.7452 34.7329 11.5952C33.9929 11.4552 33.463 10.9552 33.5529 10.4952C33.643 10.0252 34.3229 9.77519 35.0629 9.91521C35.8129 10.0652 36.343 10.5552 36.2429 11.0252Z" fill="#E5E5E5"/>
<path d="M41.5532 9.27525C40.8132 9.12529 40.2833 8.6353 40.3732 8.16527C40.4733 7.70531 41.1433 7.4453 41.8933 7.59526C42.6332 7.74528 43.1633 8.23527 43.0732 8.70531C42.9832 9.16527 42.3032 9.42528 41.5532 9.27525Z" fill="#E5E5E5"/>
<path d="M38.1431 10.4352C37.4031 10.2852 36.8731 9.79523 36.9631 9.33521C37.0531 8.86524 37.733 8.60523 38.4731 8.75525C39.2231 8.90522 39.7531 9.39527 39.6631 9.86524C39.5631 10.3253 38.8931 10.5852 38.1431 10.4352Z" fill="#E5E5E5"/>
</svg>
