<svg width="44" height="44" viewBox="0 0 44 44" fill="none" xmlns="http://www.w3.org/2000/svg">
<path d="M23.375 39.875H10.3125V42.625H5.5V28.875H8.9375L9.19669 29.6127L10.3125 35.75H23.375V39.875Z" fill="#43986D"/>
<path d="M5.5 37.8125V42.625H10.3125V39.875H23.375V37.8125H5.5Z" fill="#2B6744"/>
<path d="M23.375 15.8125V42.625H42.625C42.6251 37.6525 41.5719 32.7364 39.535 28.2003C37.498 23.6642 34.5233 19.611 30.8069 16.3075L30.25 15.8125H23.375Z" fill="#4AAEE3"/>
<path d="M29.4319 16.3075L28.875 15.8125H23.375V42.625H41.25C41.2501 37.6525 40.1969 32.7364 38.16 28.2003C36.123 23.6642 33.1483 19.611 29.4319 16.3075Z" fill="#7FCDF2"/>
<path d="M6.875 42.625L6.1875 33V30.25C9.50194 29.8357 12.6386 28.5179 15.2545 26.4409C17.8705 24.3638 19.8649 21.6074 21.0196 18.4731L22 15.8125H13.75L13.1931 16.3075C9.47665 19.611 6.50201 23.6642 4.46504 28.2003C2.42806 32.7364 1.37494 37.6525 1.375 42.625H6.875Z" fill="#4AAEE3"/>
<path d="M22 15.8125H15.125L14.5681 16.3075C10.8517 19.611 7.87701 23.6642 5.84004 28.2003C3.80306 32.7364 2.74994 37.6525 2.75 42.625H6.875L6.1875 33V30.25C9.50194 29.8357 12.6386 28.5179 15.2545 26.4409C17.8705 24.3638 19.8649 21.6074 21.0196 18.4731L22 15.8125Z" fill="#7FCDF2"/>
<path d="M30.25 13.0625H13.75C12.9906 13.0625 12.375 13.6781 12.375 14.4375C12.375 15.1969 12.9906 15.8125 13.75 15.8125H30.25C31.0094 15.8125 31.625 15.1969 31.625 14.4375C31.625 13.6781 31.0094 13.0625 30.25 13.0625Z" fill="#419BD7"/>
<path d="M30.25 13.0625H13.75C13.75 13.4272 13.8949 13.7769 14.1527 14.0348C14.4106 14.2926 14.7603 14.4375 15.125 14.4375H31.625C31.625 14.0728 31.4801 13.7231 31.2223 13.4652C30.9644 13.2074 30.6147 13.0625 30.25 13.0625Z" fill="#7FCDF2"/>
<path d="M17.875 35.75V34.375C17.875 33.281 17.4404 32.2318 16.6668 31.4582C15.8932 30.6846 14.844 30.25 13.75 30.25H12.375V31.625C12.375 32.719 12.8096 33.7682 13.5832 34.5418C14.3568 35.3154 15.406 35.75 16.5 35.75" fill="#307ABE"/>
<path d="M3.4375 33H4.8125V42.625H3.4375V33Z" fill="#4AAEE3"/>
<path d="M20.625 4.125H23.375V13.0625H20.625V4.125Z" fill="#26669E"/>
<path d="M20.625 5.5H23.375V11.6875H20.625V5.5Z" fill="#419BD7"/>
<path d="M12.375 1.375H31.625V4.125H12.375V1.375Z" fill="#419BD7"/>
<path d="M15.125 2.75H31.625V1.375H13.75C13.75 1.73967 13.8949 2.08941 14.1527 2.34727C14.4106 2.60513 14.7603 2.75 15.125 2.75Z" fill="#7FCDF2"/>
<path d="M7.56172 31.625C7.55902 31.9888 7.41329 32.337 7.15601 32.5943C6.89873 32.8516 6.55056 32.9973 6.18672 33H2.71484C2.97609 32.0719 3.27859 31.1506 3.62234 30.25H6.18672C6.55106 30.2511 6.90016 30.3963 7.15779 30.6539C7.41542 30.9116 7.56063 31.2607 7.56172 31.625Z" fill="#77787C"/>
<path d="M6.18727 30.25H3.62289C3.44964 30.7038 3.28693 31.1621 3.13477 31.625H6.18727C6.42752 31.6246 6.66342 31.5608 6.87115 31.4401C7.07889 31.3194 7.25111 31.146 7.37045 30.9375C7.25042 30.7296 7.07804 30.5567 6.87046 30.4361C6.66288 30.3155 6.42734 30.2513 6.18727 30.25Z" fill="#9A9B9F"/>
<path d="M21.2436 17.875H19.2499V15.8125H17.8749V17.875H16.4999V15.8125H15.1249V17.875H13.7499V15.8125L13.193 16.3075C12.9132 16.5564 12.643 16.8176 12.3749 17.0748V17.875H11.5499C10.8761 18.5561 10.2344 19.2615 9.62486 19.9911V20.625H9.10236C8.05681 21.9306 7.10565 23.3091 6.25611 24.75H6.87486V26.125H5.49023C5.25007 26.5783 5.0209 27.0366 4.80273 27.5H6.87486V30.14C7.33915 30.0635 7.79748 29.9704 8.24986 29.8609V27.5H9.62486V29.4704C10.0903 29.3171 10.5509 29.1507 10.9999 28.9616V27.5H12.3749V28.3064C12.8458 28.0596 13.303 27.7901 13.7499 27.5034V27.5H13.7554C14.7372 26.8707 15.6563 26.1485 16.4999 25.3433V24.75H17.1049C17.9055 23.9094 18.6238 22.994 19.2499 22.0165V22H19.2609C19.5464 21.5554 19.8125 21.0971 20.059 20.625H19.2499V19.25H20.7025C20.8112 18.9922 20.9225 18.7371 21.0195 18.4731L21.2436 17.875ZM9.62486 26.125H8.24986V24.75H9.62486V26.125ZM9.62486 23.375H8.24986V22H9.62486V23.375ZM12.3749 26.125H10.9999V24.75H12.3749V26.125ZM12.3749 23.375H10.9999V22H12.3749V23.375ZM12.3749 20.625H10.9999V19.25H12.3749V20.625ZM15.1249 26.125H13.7499V24.75H15.1249V26.125ZM15.1249 23.375H13.7499V22H15.1249V23.375ZM15.1249 20.625H13.7499V19.25H15.1249V20.625ZM17.8749 23.375H16.4999V22H17.8749V23.375ZM17.8749 20.625H16.4999V19.25H17.8749V20.625Z" fill="#4AAEE3"/>
<path d="M40.5625 39.875V38.5H42.3748C42.3342 38.1562 42.2881 37.8214 42.2373 37.4839C42.2201 37.3643 42.2084 37.2439 42.1891 37.125H40.5625V35.75H41.9375C41.8461 35.2887 41.7429 34.8308 41.6329 34.375H40.5625V33H41.2754C41.1441 32.5394 41.0121 32.0794 40.8629 31.625H40.5625V30.7862C40.1498 29.6317 39.6773 28.4995 39.1469 27.3941C39.1105 27.3178 39.0748 27.2415 39.0376 27.1659C38.8671 26.8166 38.6939 26.4688 38.5096 26.125H37.8125V24.8586C37.5849 24.4688 37.3443 24.0866 37.1016 23.7057C36.8853 23.3716 36.6644 23.0397 36.4389 22.7102V23.375H35.0625V22H35.9466C35.7761 21.7642 35.5981 21.5346 35.4214 21.3029C35.2777 21.1138 35.1333 20.9254 34.9855 20.7384C34.788 20.4909 34.5879 20.246 34.3853 20.0035C34.2677 19.8626 34.1461 19.7251 34.0264 19.5862C33.5191 19.0018 32.9952 18.4291 32.4452 17.8757H32.3125V17.7341C31.867 17.2886 31.4087 16.8531 30.9375 16.4278V17.875H29.5625V15.8125H28.1875V17.875H26.8125V15.8125H25.4375V17.875H23.375V19.25H25.4375V20.625H23.375V22H25.4375V23.375H23.375V24.75H25.4375V26.125H23.375V27.5H25.4375V28.875H23.375V30.25H25.4375V31.625H23.375V33H25.4375V34.375H23.375V35.75H25.4375V37.125H23.375V38.5H25.4375V39.875H23.375V41.25H25.4375V42.625H26.8125V41.25H28.1875V42.625H29.5625V41.25H30.9375V42.625H32.3125V41.25H33.6875V42.625H35.0625V41.25H36.4375V42.625H37.8125V41.25H39.1875V42.625H40.5625V41.25H42.5886C42.5707 40.7901 42.5411 40.3322 42.5054 39.875H40.5625ZM28.1875 39.875H26.8125V38.5H28.1875V39.875ZM28.1875 37.125H26.8125V35.75H28.1875V37.125ZM28.1875 34.375H26.8125V33H28.1875V34.375ZM28.1875 31.625H26.8125V30.25H28.1875V31.625ZM28.1875 28.875H26.8125V27.5H28.1875V28.875ZM28.1875 26.125H26.8125V24.75H28.1875V26.125ZM28.1875 23.375H26.8125V22H28.1875V23.375ZM28.1875 20.625H26.8125V19.25H28.1875V20.625ZM30.9375 39.875H29.5625V38.5H30.9375V39.875ZM30.9375 37.125H29.5625V35.75H30.9375V37.125ZM30.9375 34.375H29.5625V33H30.9375V34.375ZM30.9375 31.625H29.5625V30.25H30.9375V31.625ZM30.9375 28.875H29.5625V27.5H30.9375V28.875ZM30.9375 26.125H29.5625V24.75H30.9375V26.125ZM30.9375 23.375H29.5625V22H30.9375V23.375ZM30.9375 20.625H29.5625V19.25H30.9375V20.625ZM33.6875 39.875H32.3125V38.5H33.6875V39.875ZM33.6875 37.125H32.3125V35.75H33.6875V37.125ZM33.6875 34.375H32.3125V33H33.6875V34.375ZM33.6875 31.625H32.3125V30.25H33.6875V31.625ZM33.6875 28.875H32.3125V27.5H33.6875V28.875ZM33.6875 26.125H32.3125V24.75H33.6875V26.125ZM33.6875 23.375H32.3125V22H33.6875V23.375ZM33.6875 20.625H32.3125V19.25H33.6875V20.625ZM36.4375 39.875H35.0625V38.5H36.4375V39.875ZM36.4375 37.125H35.0625V35.75H36.4375V37.125ZM36.4375 34.375H35.0625V33H36.4375V34.375ZM36.4375 31.625H35.0625V30.25H36.4375V31.625ZM36.4375 28.875H35.0625V27.5H36.4375V28.875ZM36.4375 26.125H35.0625V24.75H36.4375V26.125ZM39.1875 39.875H37.8125V38.5H39.1875V39.875ZM39.1875 37.125H37.8125V35.75H39.1875V37.125ZM39.1875 34.375H37.8125V33H39.1875V34.375ZM39.1875 31.625H37.8125V30.25H39.1875V31.625ZM39.1875 28.875H37.8125V27.5H39.1875V28.875Z" fill="#4AAEE3"/>
</svg>
