<svg width="27" height="27" viewBox="0 0 27 27" fill="none" xmlns="http://www.w3.org/2000/svg">
<path d="M13.7188 5.03271C13.7188 5.03271 19.0197 2.61059 18.5827 8.60448L15.9123 9.67144L13.7188 5.03271Z" fill="#423E4F"/>
<path d="M9.15302 4.09413C9.15302 4.09413 6.36908 1.11022 2.8461 4.33126C-0.676883 7.5523 1.88806 9.85279 3.17233 8.99194L9.15302 4.09413Z" fill="#423E4F"/>
<path d="M16.9628 14.5442L16.7589 10.2622C16.6511 7.99786 15.3822 5.9495 13.4028 4.84451C10.8251 3.40558 7.5976 3.8585 5.53126 5.96689C3.33329 8.20963 0.970814 11.904 0.190476 17.7565C-0.0235138 19.3612 -0.0476888 20.8339 0.0705245 22.1811C0.226386 23.9567 1.71704 25.3169 3.49952 25.3169H15.2828L15.6589 21.6186L17.3401 19.7334L16.9628 14.5442Z" fill="#A4E6FF"/>
<path d="M1.7003 22.181C1.58209 20.8339 1.60626 19.3612 1.82025 17.7564C2.60059 11.9039 4.96307 8.20957 7.16109 5.96683C8.22132 4.88499 9.58745 4.24025 11.0145 4.06206C9.033 3.81444 6.99209 4.47635 5.53132 5.96683C3.33329 8.20957 0.970814 11.9039 0.190476 17.7564C-0.0235138 19.3612 -0.0476888 20.8339 0.0705245 22.181C0.226386 23.9567 1.71704 25.3168 3.49952 25.3168H5.1293C3.34681 25.3168 1.85616 23.9567 1.7003 22.181Z" fill="#2ECDF9"/>
<path d="M10.7624 25.3168C12.6192 22.5511 12.344 18.4459 12.3303 18.2591C12.3139 18.0347 12.1183 17.8663 11.8942 17.8826C11.6698 17.899 11.5012 18.0943 11.5177 18.3187C11.521 18.3641 11.8217 22.8304 9.74609 25.3168H10.7624Z" fill="#2ECDF9"/>
<path d="M19.1628 9.33463C18.5913 8.28147 17.3861 7.74212 16.0536 7.80384C15.8749 7.81209 15.7111 7.90103 15.6068 8.04629C14.8288 9.12982 14.6242 10.4343 15.1957 11.4875C15.8066 12.6134 17.1418 13.152 18.5825 12.9969C19.4978 11.8736 19.7738 10.4605 19.1628 9.33463Z" fill="#FF97C0"/>
<path d="M26.9946 11.4221C26.9864 11.2435 26.8974 11.0796 26.7522 10.9753C25.6686 10.1974 24.3642 9.99271 23.311 10.5642C22.1851 11.1752 21.6464 12.5103 21.8015 13.951C22.9249 14.8662 24.3379 15.1423 25.4638 14.5313C26.517 13.9598 27.0563 12.7546 26.9946 11.4221Z" fill="#FF97C0"/>
<path d="M24.6379 23.6057C24.5319 19.4087 21.8022 17.9203 21.8022 17.9203H16.4456C16.4456 17.9203 13.7159 19.4087 13.6099 23.6057C13.5862 24.5444 14.3447 25.3168 15.2836 25.3168H22.9641C23.9031 25.3169 24.6616 24.5444 24.6379 23.6057Z" fill="#FF97C0"/>
<path d="M15.2397 23.6057C15.3457 19.4087 18.0754 17.9203 18.0754 17.9203H16.4456C16.4456 17.9203 13.7159 19.4087 13.6099 23.6057C13.5862 24.5444 14.3447 25.3168 15.2836 25.3168H16.9134C15.9745 25.3168 15.216 24.5443 15.2397 23.6057Z" fill="#FF82B3"/>
<path d="M19.962 19.3165C22.7607 19.3165 25.0295 17.0477 25.0295 14.249C25.0295 11.4503 22.7607 9.18152 19.962 9.18152C17.1633 9.18152 14.8945 11.4503 14.8945 14.249C14.8945 17.0477 17.1633 19.3165 19.962 19.3165Z" fill="#FFBDD7"/>
<path d="M17.6845 25.2263C16.6902 24.0318 17.0828 21.7204 17.0881 21.69C17.1275 21.4685 16.9801 21.257 16.7586 21.2175C16.5371 21.1779 16.3254 21.3254 16.2859 21.5469C16.268 21.6469 15.8967 23.8063 16.7607 25.3169H17.7412C17.7265 25.2851 17.708 25.2545 17.6845 25.2263Z" fill="#FF82B3"/>
<path d="M20.5059 25.3169H21.4863C22.3503 23.8064 21.9791 21.647 21.9611 21.5469C21.9216 21.3256 21.7104 21.1783 21.4888 21.2176C21.2675 21.2569 21.1198 21.4684 21.1589 21.6898C21.163 21.7131 21.5584 24.0299 20.5625 25.2263C20.5391 25.2545 20.5205 25.2851 20.5059 25.3169Z" fill="#FF82B3"/>
<path d="M19.5317 25.3169V21.6186C19.5317 21.3935 19.3493 21.2111 19.1242 21.2111C18.8992 21.2111 18.7168 21.3935 18.7168 21.6186V25.3169H19.5317Z" fill="#FF82B3"/>
<path d="M7.84561 25.2999C7.67475 21.1955 8.12474 19.033 8.3867 18.4625C8.48204 18.2601 8.39631 18.0183 8.19427 17.9215C7.99148 17.8242 7.74804 17.9097 7.65069 18.1127C7.61619 18.1846 6.80869 19.9359 7.03078 25.3168H7.84545C7.84545 25.3112 7.84583 25.3056 7.84561 25.2999Z" fill="#2ECDF9"/>
<path d="M5.59895 25.3169C3.52066 22.8675 4.34131 18.4197 4.35152 18.366C4.39411 18.1451 4.24961 17.9315 4.02872 17.8888C3.8075 17.8461 3.59406 17.9907 3.55141 18.2116C3.54174 18.2618 3.31493 19.4579 3.3755 20.9975C3.4439 22.7355 3.85906 24.2113 4.58404 25.3169H5.59895Z" fill="#2ECDF9"/>
<path d="M23.5441 3.12258C22.542 0.165349 17.5278 1.86754 21.3052 7.28618C21.3496 7.34985 21.4232 7.38722 21.5008 7.38554C28.1046 7.24244 26.5235 2.18861 23.5441 3.12258Z" fill="#FF97C0"/>
<path d="M7.021 7.3812C6.80332 7.32497 6.58085 7.45589 6.52457 7.67374L6.36463 8.29251C6.3083 8.51036 6.43928 8.73266 6.65713 8.78894C6.8741 8.84495 7.09706 8.71522 7.15356 8.49645L7.31349 7.87768C7.36983 7.65978 7.2389 7.43753 7.021 7.3812Z" fill="#423E4F"/>
<path d="M13.4606 9.04575C13.2429 8.98952 13.0204 9.12045 12.9641 9.33829L12.8042 9.95701C12.7373 10.2158 12.9333 10.4665 13.199 10.4665C13.3803 10.4665 13.5457 10.3446 13.5932 10.1609L13.7531 9.54218C13.8094 9.32433 13.6785 9.10208 13.4606 9.04575Z" fill="#423E4F"/>
<path d="M11.3432 10.1367C11.1255 10.0804 10.9031 10.2114 10.8468 10.4292C10.8226 10.5229 10.7633 10.6016 10.6799 10.6507C10.4024 10.8142 10.0648 10.5582 10.1451 10.2478L10.24 9.88078L10.425 9.92859C10.6422 9.98471 10.8649 9.8546 10.9214 9.6361C10.9777 9.41825 10.8467 9.19595 10.6289 9.13961L9.47001 8.84006C9.25233 8.78383 9.02986 8.9147 8.97358 9.13261C8.91725 9.35045 9.04823 9.57276 9.26607 9.62904L9.45105 9.67684L9.35615 10.0439C9.33192 10.1376 9.27265 10.2163 9.18926 10.2654C8.91355 10.4279 8.57347 10.1758 8.65442 9.86248C8.71075 9.64463 8.57977 9.42233 8.36193 9.36605C8.14397 9.30971 7.92178 9.44063 7.86544 9.65854C7.61206 10.6388 8.63361 11.4534 9.52841 11.0077C10.1005 11.836 11.3839 11.6073 11.6358 10.6331C11.6921 10.4152 11.5611 10.193 11.3432 10.1367Z" fill="#423E4F"/>
<path d="M17.4445 12.204C17.2269 12.1477 17.0045 12.2786 16.9481 12.4965L16.8042 13.0532C16.7373 13.3119 16.9333 13.5627 17.199 13.5627C17.3803 13.5627 17.5457 13.4408 17.5932 13.2572L17.7371 12.7004C17.7934 12.4826 17.6624 12.2603 17.4445 12.204Z" fill="#423E4F"/>
<path d="M23.2395 13.7018C23.0216 13.6456 22.7993 13.7765 22.743 13.9944L22.5991 14.5511C22.5323 14.8099 22.7283 15.0606 22.9939 15.0606C23.1752 15.0606 23.3406 14.9387 23.3881 14.755L23.532 14.1982C23.5883 13.9804 23.4573 13.7581 23.2395 13.7018Z" fill="#423E4F"/>
<path d="M21.3346 14.6835C21.117 14.6273 20.8945 14.7582 20.8382 14.976C20.8191 15.0498 20.7724 15.1118 20.7068 15.1504C20.4893 15.2787 20.2222 15.079 20.2858 14.8333C20.3421 14.6154 20.2111 14.3931 19.9933 14.3368C19.7756 14.2804 19.5531 14.4114 19.4968 14.6293C19.4575 14.7816 19.3015 14.8735 19.1492 14.8341C18.9969 14.7948 18.905 14.6388 18.9443 14.4865C19.0007 14.2686 18.8697 14.0464 18.6518 13.99C18.4342 13.9338 18.2117 14.0647 18.1554 14.2826C17.9252 15.1729 18.8339 15.9434 19.6768 15.5579C20.2213 16.2985 21.3953 16.0772 21.6271 15.18C21.6834 14.9621 21.5524 14.7398 21.3346 14.6835Z" fill="#423E4F"/>
</svg>
