<svg width="30" height="30" viewBox="0 0 30 30" fill="none" xmlns="http://www.w3.org/2000/svg">
<g clip-path="url(#clip0_791_33940)">
<path d="M4.82616 13.1025C4.91398 13.1898 5.03279 13.2388 5.15662 13.2388C5.28046 13.2388 5.39927 13.1898 5.48709 13.1025C6.16252 12.3727 6.54621 11.4202 6.56522 10.426C6.53402 9.75025 6.2858 9.10259 5.85741 8.57909L5.67459 8.30253C5.64306 8.24725 5.60059 8.19896 5.54979 8.16063C5.49899 8.12229 5.44091 8.0947 5.3791 8.07953C5.31728 8.06437 5.25303 8.06196 5.19025 8.07244C5.12747 8.08292 5.06749 8.10607 5.01395 8.14049C4.96041 8.1749 4.91444 8.21986 4.87885 8.27262C4.84325 8.32539 4.81877 8.38484 4.8069 8.44737C4.79503 8.5099 4.79602 8.57419 4.80981 8.63633C4.8236 8.69846 4.84989 8.75714 4.88709 8.80878L5.08397 9.10409C5.40008 9.47635 5.5904 9.93903 5.62772 10.426C5.60689 11.17 5.32287 11.8826 4.82616 12.4369C4.78222 12.4805 4.74735 12.5323 4.72355 12.5894C4.69975 12.6466 4.6875 12.7078 4.6875 12.7697C4.6875 12.8316 4.69975 12.8929 4.72355 12.95C4.74735 13.0071 4.78222 13.059 4.82616 13.1025Z" fill="#231F20"/>
<path d="M8.97168 14.6006C8.95085 15.3447 8.66683 16.0572 8.17012 16.6116C8.08247 16.6998 8.03348 16.8193 8.03392 16.9437C8.03436 17.0681 8.08419 17.1872 8.17246 17.2748C8.26073 17.3625 8.3802 17.4115 8.50459 17.411C8.62898 17.4106 8.7481 17.3608 8.83574 17.2725C9.50839 16.5432 9.89031 15.5926 9.90918 14.6006C9.87798 13.9249 9.62976 13.2773 9.20137 12.7538C8.7627 12.2151 8.51684 11.5452 8.50293 10.8506C8.52376 10.1066 8.80778 9.39404 9.30449 8.83969C9.38129 8.75002 9.42141 8.63467 9.41686 8.5167C9.4123 8.39872 9.36339 8.28682 9.27991 8.20333C9.19643 8.11985 9.08452 8.07095 8.96655 8.06639C8.84857 8.06183 8.73323 8.10196 8.64355 8.17875C7.9692 8.90736 7.58558 9.85805 7.56543 10.8506C7.57957 11.7303 7.8808 12.5814 8.42324 13.2741C8.74224 13.6468 8.93432 14.1114 8.97168 14.6006Z" fill="#231F20"/>
<path d="M12.3154 12.2848C12.2946 13.0288 12.0106 13.7414 11.5139 14.2957C11.4262 14.384 11.3772 14.5035 11.3777 14.6279C11.3781 14.7522 11.4279 14.8714 11.5162 14.959C11.6045 15.0467 11.7239 15.0956 11.8483 15.0952C11.9727 15.0948 12.0918 15.0449 12.1795 14.9567C12.8521 14.2274 13.2341 13.2767 13.2529 12.2848C13.2217 11.6091 12.9735 10.9614 12.5451 10.4379C12.1064 9.89926 11.8606 9.22933 11.8467 8.53479C11.8467 8.41047 11.7973 8.29124 11.7094 8.20333C11.6215 8.11543 11.5022 8.06604 11.3779 8.06604C11.2536 8.06604 11.1344 8.11543 11.0465 8.20333C10.9586 8.29124 10.9092 8.41047 10.9092 8.53479C10.9233 9.41451 11.2245 10.2655 11.767 10.9582C12.086 11.331 12.2781 11.7956 12.3154 12.2848Z" fill="#231F20"/>
<path d="M24.8438 17.411H7.03125C6.90693 17.411 6.7877 17.4604 6.69979 17.5483C6.61189 17.6362 6.5625 17.7554 6.5625 17.8798C6.5625 18.0041 6.61189 18.1233 6.69979 18.2112C6.7877 18.2991 6.90693 18.3485 7.03125 18.3485H7.99219C7.99219 18.5079 7.99219 18.6626 8.02969 18.8173H5.15625C5.03193 18.8173 4.9127 18.8666 4.82479 18.9546C4.73689 19.0425 4.6875 19.1617 4.6875 19.286C4.6875 19.4103 4.73689 19.5296 4.82479 19.6175C4.9127 19.7054 5.03193 19.7548 5.15625 19.7548H8.19844C8.46366 20.8463 8.956 21.8697 9.64333 22.7581C10.3307 23.6466 11.1976 24.3801 12.1875 24.911L10.3125 34.6657C10.301 34.7263 10.3015 34.7887 10.3142 34.8491C10.3268 34.9095 10.3512 34.9669 10.3861 35.0178C10.4209 35.0688 10.4655 35.1124 10.5172 35.146C10.5689 35.1797 10.6268 35.2029 10.6875 35.2141L10.7812 35.2235C10.8916 35.2255 10.9991 35.1885 11.0848 35.1191C11.1706 35.0496 11.2291 34.9522 11.25 34.8438L12.1547 30.0673H12.1875H19.6875H19.7203L19.9406 31.2298C19.4797 31.4568 19.1183 31.8453 18.925 32.3213C18.7318 32.7974 18.7202 33.3278 18.8924 33.8119C19.0647 34.2959 19.4088 34.6998 19.8593 34.9468C20.3099 35.1938 20.8354 35.2666 21.3362 35.1514C21.8369 35.0362 22.2778 34.7411 22.5752 34.3221C22.8726 33.9032 23.0056 33.3895 22.9491 32.8789C22.8925 32.3682 22.6504 31.8961 22.2685 31.5523C21.8867 31.2085 21.3919 31.017 20.8781 31.0141L19.6875 24.911C20.8881 24.2664 21.9034 23.3246 22.6363 22.1756C23.3691 21.0267 23.7951 19.709 23.8734 18.3485H24.8438C24.9681 18.3485 25.0873 18.2991 25.1752 18.2112C25.2631 18.1233 25.3125 18.0041 25.3125 17.8798C25.3125 17.7554 25.2631 17.6362 25.1752 17.5483C25.0873 17.4604 24.9681 17.411 24.8438 17.411ZM22.0312 33.1141C22.0312 33.3459 21.9625 33.5725 21.8338 33.7652C21.705 33.9579 21.522 34.1081 21.3078 34.1968C21.0937 34.2855 20.8581 34.3087 20.6308 34.2635C20.4034 34.2183 20.1946 34.1067 20.0307 33.9428C19.8668 33.7789 19.7552 33.5701 19.71 33.3428C19.6648 33.1154 19.688 32.8798 19.7767 32.6657C19.8654 32.4515 20.0156 32.2685 20.2083 32.1398C20.401 32.011 20.6276 31.9423 20.8594 31.9423C21.1702 31.9423 21.4682 32.0657 21.688 32.2855C21.9078 32.5053 22.0312 32.8033 22.0312 33.1141ZM19.5469 29.1298H12.3281L13.0594 25.3001C14.909 26.0283 16.966 26.0283 18.8156 25.3001L19.5469 29.1298ZM15.9375 24.911C14.1511 24.915 12.4302 24.2389 11.1243 23.02C9.81838 21.8011 9.02534 20.1309 8.90625 18.3485H22.9688C22.8497 20.1309 22.0566 21.8011 20.7507 23.02C19.4448 24.2389 17.7239 24.915 15.9375 24.911Z" fill="#231F20"/>
</g>
<defs>
<clipPath id="clip0_791_33940">
<rect width="30" height="30" fill="white"/>
</clipPath>
</defs>
</svg>
