<svg width="21" height="28" viewBox="0 0 21 28" fill="none" xmlns="http://www.w3.org/2000/svg">
<path d="M0.13866 5.1025C0.22648 5.1898 0.34529 5.2388 0.46912 5.2388C0.59296 5.2388 0.71177 5.1898 0.79959 5.1025C1.47502 4.3727 1.85871 3.4202 1.87772 2.426C1.84652 1.75025 1.5983 1.10259 1.16991 0.57909L0.98709 0.30253C0.95556 0.24725 0.91309 0.19896 0.86229 0.16063C0.81149 0.12229 0.75341 0.0946997 0.6916 0.0795297C0.62978 0.0643697 0.56553 0.0619601 0.50275 0.0724401C0.43997 0.0829201 0.37999 0.106069 0.32645 0.140489C0.27291 0.174899 0.22694 0.21986 0.19135 0.27262C0.15575 0.32539 0.13127 0.384839 0.1194 0.447369C0.10753 0.509899 0.10852 0.57419 0.12231 0.63633C0.1361 0.69846 0.16239 0.75714 0.19959 0.80878L0.39647 1.10409C0.71258 1.47635 0.9029 1.93903 0.94022 2.426C0.91939 3.17 0.63537 3.8826 0.13866 4.4369C0.09472 4.4805 0.0598498 4.5323 0.0360498 4.5894C0.0122498 4.6466 0 4.7078 0 4.7697C0 4.8316 0.0122498 4.8929 0.0360498 4.95C0.0598498 5.0071 0.09472 5.059 0.13866 5.1025Z" fill="#231F20"/>
<path d="M4.28418 6.6006C4.26335 7.3447 3.97933 8.0572 3.48262 8.6116C3.39497 8.6998 3.34598 8.8193 3.34642 8.9437C3.34686 9.0681 3.39669 9.1872 3.48496 9.2748C3.57323 9.3625 3.6927 9.4115 3.81709 9.411C3.94148 9.4106 4.0606 9.3608 4.14824 9.2725C4.82089 8.5432 5.20281 7.5926 5.22168 6.6006C5.19048 5.9249 4.94226 5.2773 4.51387 4.7538C4.0752 4.2151 3.82934 3.5452 3.81543 2.8506C3.83626 2.1066 4.12028 1.39404 4.61699 0.83969C4.69379 0.75002 4.73391 0.63467 4.72936 0.5167C4.7248 0.39872 4.67589 0.28682 4.59241 0.20333C4.50893 0.11985 4.39702 0.0709501 4.27905 0.0663901C4.16107 0.0618301 4.04573 0.10196 3.95605 0.17875C3.2817 0.90736 2.89808 1.85805 2.87793 2.8506C2.89207 3.7303 3.1933 4.5814 3.73574 5.2741C4.05474 5.6468 4.24682 6.1114 4.28418 6.6006Z" fill="#231F20"/>
<path d="M7.62788 4.2848C7.60708 5.0288 7.32308 5.7414 6.82638 6.2957C6.73868 6.384 6.68968 6.5035 6.69018 6.6279C6.69058 6.7522 6.74038 6.8714 6.82868 6.959C6.91698 7.0467 7.03638 7.0956 7.16078 7.0952C7.28518 7.0948 7.40428 7.0449 7.49198 6.9567C8.16458 6.2274 8.54658 5.2767 8.56538 4.2848C8.53418 3.6091 8.28598 2.9614 7.85758 2.4379C7.41888 1.89926 7.17308 1.22933 7.15918 0.53479C7.15918 0.41047 7.10978 0.29124 7.02188 0.20333C6.93398 0.11543 6.81468 0.06604 6.69038 0.06604C6.56608 0.06604 6.44688 0.11543 6.35898 0.20333C6.27108 0.29124 6.22168 0.41047 6.22168 0.53479C6.23578 1.41451 6.53698 2.2655 7.07948 2.9582C7.39848 3.331 7.59058 3.7956 7.62788 4.2848Z" fill="#231F20"/>
<path d="M20.1563 9.41101H2.34375C2.21943 9.41101 2.1002 9.46041 2.01229 9.54831C1.92439 9.63621 1.875 9.75541 1.875 9.87981C1.875 10.0041 1.92439 10.1233 2.01229 10.2112C2.1002 10.2991 2.21943 10.3485 2.34375 10.3485H3.30469C3.30469 10.5079 3.30469 10.6626 3.34219 10.8173H0.46875C0.34443 10.8173 0.2252 10.8666 0.13729 10.9546C0.04939 11.0425 0 11.1617 0 11.286C0 11.4103 0.04939 11.5296 0.13729 11.6175C0.2252 11.7054 0.34443 11.7548 0.46875 11.7548H3.51094C3.77616 12.8463 4.2685 13.8697 4.95583 14.7581C5.6432 15.6466 6.5101 16.3801 7.5 16.911L5.625 26.6657C5.6135 26.7263 5.614 26.7887 5.6267 26.8491C5.6393 26.9095 5.6637 26.9669 5.6986 27.0178C5.7334 27.0688 5.778 27.1124 5.8297 27.146C5.8814 27.1797 5.9393 27.2029 6 27.2141L6.0937 27.2235C6.2041 27.2255 6.3116 27.1885 6.3973 27.1191C6.4831 27.0496 6.5416 26.9522 6.5625 26.8438L7.4672 22.0673H7.5H15H15.0328L15.2531 23.2298C14.7922 23.4568 14.4308 23.8453 14.2375 24.3213C14.0443 24.7974 14.0327 25.3278 14.2049 25.8119C14.3772 26.2959 14.7213 26.6998 15.1718 26.9468C15.6224 27.1938 16.1479 27.2666 16.6487 27.1514C17.1494 27.0362 17.5903 26.7411 17.8877 26.3221C18.1851 25.9032 18.3181 25.3895 18.2616 24.8789C18.205 24.3682 17.9629 23.8961 17.581 23.5523C17.1992 23.2085 16.7044 23.017 16.1906 23.0141L15 16.911C16.2006 16.2664 17.2159 15.3246 17.9488 14.1756C18.6816 13.0267 19.1076 11.709 19.1859 10.3485H20.1563C20.2806 10.3485 20.3998 10.2991 20.4877 10.2112C20.5756 10.1233 20.625 10.0041 20.625 9.87981C20.625 9.75541 20.5756 9.63621 20.4877 9.54831C20.3998 9.46041 20.2806 9.41101 20.1563 9.41101ZM17.3437 25.1141C17.3437 25.3459 17.275 25.5725 17.1463 25.7652C17.0175 25.9579 16.8345 26.1081 16.6203 26.1968C16.4062 26.2855 16.1706 26.3087 15.9433 26.2635C15.7159 26.2183 15.5071 26.1067 15.3432 25.9428C15.1793 25.7789 15.0677 25.5701 15.0225 25.3428C14.9773 25.1154 15.0005 24.8798 15.0892 24.6657C15.1779 24.4515 15.3281 24.2685 15.5208 24.1398C15.7135 24.011 15.9401 23.9423 16.1719 23.9423C16.4827 23.9423 16.7807 24.0657 17.0005 24.2855C17.2203 24.5053 17.3437 24.8033 17.3437 25.1141ZM14.8594 21.1298H7.6406L8.3719 17.3001C10.2215 18.0283 12.2785 18.0283 14.1281 17.3001L14.8594 21.1298ZM11.25 16.911C9.4636 16.915 7.7427 16.2389 6.4368 15.02C5.13088 13.8011 4.33784 12.1309 4.21875 10.3485H18.2813C18.1622 12.1309 17.3691 13.8011 16.0632 15.02C14.7573 16.2389 13.0364 16.915 11.25 16.911Z" fill="#231F20"/>
</svg>
