<svg width="30" height="30" viewBox="0 0 30 30" fill="none" xmlns="http://www.w3.org/2000/svg">
<path d="M28.7199 15.3108H27.6785C27.5809 13.7274 27.1953 12.1992 26.5279 10.7625C26.426 10.5425 26.1651 10.4473 25.9451 10.5492C25.7252 10.6512 25.6297 10.9122 25.7318 11.1321C26.345 12.4525 26.7027 13.8563 26.7989 15.3108H6.69708C6.4547 15.3108 6.25832 15.5072 6.25832 15.7496C6.25832 15.992 6.4547 16.1884 6.69708 16.1884H28.7199C28.9419 16.1884 29.1222 16.3689 29.1222 16.591V17.1265C29.1222 17.3486 28.9419 17.5291 28.7199 17.5291H1.28014C1.05812 17.5291 0.877762 17.3486 0.877762 17.1265V16.591C0.877762 16.3689 1.05812 16.1884 1.28014 16.1884H4.65157C4.89395 16.1884 5.09056 15.992 5.09056 15.7496C5.09056 15.5072 4.89395 15.3108 4.65157 15.3108H3.20114C3.39455 12.3956 4.6447 9.68353 6.75179 7.63229C8.78242 5.65567 11.4063 4.49203 14.2106 4.30756C14.2122 4.30756 14.2138 4.30779 14.2154 4.30756C14.3349 4.29977 14.453 4.29382 14.5697 4.28947C14.593 4.28879 14.6162 4.28764 14.6395 4.28696C14.6812 4.28558 14.7226 4.28467 14.7636 4.28375C14.8423 4.28238 14.921 4.28101 15 4.28101C15.1048 4.28101 15.2097 4.28307 15.3143 4.28581C15.3452 4.28673 15.3758 4.28764 15.407 4.28856C15.4875 4.29131 15.5679 4.29543 15.6482 4.29977C15.6908 4.30206 15.7333 4.30435 15.7761 4.3071C19.379 4.54376 22.6936 6.41739 24.7563 9.42169C24.8934 9.62128 25.1667 9.67232 25.3665 9.53499C25.5663 9.39789 25.6171 9.1246 25.4798 8.92479C23.4501 5.96832 20.2908 4.03198 16.799 3.53256C17.0178 3.1929 17.1407 2.79305 17.1407 2.37419C17.1407 2.1357 17.0343 1.69601 16.3216 1.43372C15.9657 1.3028 15.4962 1.23047 15 1.23047C14.5036 1.23047 14.0341 1.3028 13.6782 1.43372C12.9655 1.69601 12.8593 2.1357 12.8593 2.37419C12.8593 2.7919 12.9817 3.19107 13.1992 3.53004C10.548 3.90518 8.08914 5.10544 6.13953 7.00333C3.86192 9.2205 2.51633 12.1566 2.32155 15.3106H1.28014C0.574265 15.3108 0 15.8851 0 16.591V17.1265C0 17.8326 0.574265 18.4069 1.28014 18.4069H6.00769C5.77171 18.5685 5.54558 18.7498 5.33386 18.951L5.32516 18.9592C5.31166 18.9718 5.29884 18.9853 5.28717 18.9997L3.20366 21.5298C2.94228 21.3638 2.63283 21.3034 2.3275 21.362C2.00912 21.4229 1.73378 21.6042 1.55205 21.8724L0.732651 23.0807C0.357971 23.6334 0.502625 24.3885 1.05492 24.7636L6.66183 28.5727C6.86508 28.7107 7.09991 28.7826 7.34047 28.7826C7.41692 28.7826 7.49405 28.7753 7.57095 28.7606C7.8891 28.6997 8.16444 28.5184 8.34618 28.2502L9.16557 27.0419C9.54025 26.4892 9.39583 25.7341 8.84354 25.359L8.81149 25.3372C9.20174 24.8943 9.72198 24.5769 10.288 24.446C11.4807 24.1697 12.8842 24.3475 13.8361 24.5052C15.0137 24.7002 16.2506 24.6336 17.4131 24.3125L19.029 23.866C20.1054 23.5684 21.096 23.0674 21.9736 22.3766C21.9802 22.3714 21.9866 22.3661 21.993 22.3604L24.7673 19.9033C25.2402 19.5415 25.3432 18.9148 25.18 18.4069H28.7199C29.4257 18.4069 30 17.8326 30 17.1268V16.591C30 15.8851 29.4257 15.3108 28.7199 15.3108ZM15 2.10823C15.7391 2.10823 16.1819 2.29111 16.263 2.39273C16.257 2.80907 16.0464 3.19313 15.7038 3.42339C15.6175 3.41881 15.5324 3.41515 15.4475 3.41194C15.4189 3.41103 15.3902 3.40965 15.3616 3.40897C15.2392 3.4053 15.1183 3.40347 15 3.40347C14.916 3.40347 14.8304 3.40462 14.7441 3.40645C14.7025 3.40714 14.6606 3.40828 14.6187 3.40965C14.5688 3.41125 14.5184 3.41286 14.4681 3.41492C14.4106 3.41743 14.3532 3.41995 14.296 3.42316C13.9533 3.1929 13.743 2.80884 13.737 2.39273C13.8181 2.29111 14.2609 2.10823 15 2.10823ZM18.1471 18.6186C18.1144 18.5445 18.0753 18.474 18.0311 18.4069H22.2404L20.4204 19.6115L17.826 20.362L17.7379 20.3641C18.2373 19.9477 18.4195 19.2368 18.1471 18.6186ZM13.3882 18.4069L12.7549 18.539L12.2653 18.4069H13.3882ZM8.4391 26.5494L7.61993 27.7576C7.56981 27.8318 7.49382 27.8817 7.40593 27.8986C7.31827 27.9153 7.229 27.897 7.15508 27.8467L1.54816 24.0376C1.39572 23.9342 1.3559 23.7259 1.45935 23.5735L2.27875 22.365C2.32887 22.291 2.40463 22.2409 2.49252 22.2242C2.51381 22.2201 2.5351 22.218 2.55615 22.218C2.62253 22.218 2.6873 22.2379 2.74338 22.2762L3.04619 22.4817C3.04619 22.4819 3.04642 22.4819 3.04642 22.4819L8.3503 26.085C8.50273 26.1884 8.54256 26.3969 8.4391 26.5494ZM24.2287 19.2103C24.2182 19.2178 24.2081 19.2261 24.1983 19.2348L21.4211 21.6948C20.638 22.3089 19.7546 22.7547 18.7953 23.0198L17.1794 23.4663C16.1389 23.754 15.0325 23.8138 13.9799 23.6394C12.954 23.4695 11.4352 23.2793 10.09 23.5909C9.31091 23.7712 8.59955 24.2189 8.08205 24.8415L3.93402 22.0237L5.94727 19.5788C6.70876 18.8599 7.67441 18.433 8.59909 18.4069H8.61694C8.90373 18.4021 9.20723 18.4866 9.52835 18.5765C9.5929 18.5944 9.65721 18.6124 9.72176 18.6298L12.6276 19.4138C12.6942 19.4316 12.7641 19.4337 12.8316 19.4195L16.6374 18.6259C16.81 18.5902 16.9913 18.6253 17.1348 18.7225C17.2275 18.7855 17.2998 18.872 17.344 18.9725C17.4744 19.2684 17.3515 19.6159 17.0599 19.766L15.7615 20.4536C15.5818 20.5488 15.4912 20.7548 15.5422 20.9516C15.5935 21.1487 15.7727 21.2828 15.9764 21.2801L17.9025 21.2384C17.9407 21.2375 17.9784 21.2318 18.0148 21.2212L20.7287 20.4362C20.7715 20.4238 20.812 20.405 20.8491 20.3806L23.587 18.5683C23.8168 18.4264 24.1225 18.3096 24.2853 18.5497C24.4121 18.7365 24.4151 19.0727 24.2287 19.2103Z" fill="black"/>
</svg>
