<svg width="27" height="27" viewBox="0 0 27 27" fill="none" xmlns="http://www.w3.org/2000/svg">
<g clip-path="url(#clip0_940_1045)">
<path d="M13.3027 7.89941H26.9901V24.7682H13.3027V7.89941Z" fill="#C3C6D4"/>
<path d="M13.3027 7.89941H22.1311V24.7682H13.3027V7.89941Z" fill="#F3EFEE"/>
<path d="M26.9901 7.89939H13.3027L15.7318 3.70105H24.5611L26.9901 7.89939Z" fill="#C3C6D4"/>
<path d="M26.9899 7.89939H22.1309L24.5599 3.70105H24.5609L26.9899 7.89939Z" fill="#5A617A"/>
<path d="M23.9393 2.23169H16.3504C16.008 2.23169 15.7305 2.50923 15.7305 2.85167V3.70112H24.5593V2.85167C24.5592 2.50923 24.2817 2.23169 23.9393 2.23169Z" fill="#F3EFEE"/>
<path d="M24.5599 3.70105L23.6074 5.34644L24.2682 6.51951C24.7483 7.37195 25.6507 7.89932 26.6291 7.89932H26.9894L24.5599 3.70105Z" fill="#37405B"/>
<path d="M25.9744 8.91491H23.1464C22.5855 8.91491 22.1309 8.46027 22.1309 7.89941H26.9899C26.9899 8.46027 26.5352 8.91491 25.9744 8.91491Z" fill="#5A617A"/>
<path d="M13.3027 11.0575H22.1311V21.5946H13.3027V11.0575Z" fill="#A1CAD5"/>
<path d="M22.1309 11.0575H27.0007V21.5946H22.1309V11.0575Z" fill="#5A617A"/>
<path d="M9.57559 9.71964V9.23486H6.80628V9.71964C6.80628 10.4344 6.52831 11.121 6.03107 11.6345C5.5339 12.1479 5.25586 12.8347 5.25586 13.5494V19.2443C5.25586 19.7398 5.65757 20.1415 6.1531 20.1415H10.2286C10.7242 20.1415 11.1259 19.7398 11.1259 19.2443V13.5494C11.1259 12.8347 10.8479 12.148 10.3507 11.6345C9.85356 11.1211 9.57559 10.4344 9.57559 9.71964Z" fill="#FFEBD7"/>
<path d="M9.94101 9.55429H6.40625V8.4095C6.40625 8.13145 6.63165 7.90613 6.90962 7.90613H9.43757C9.71561 7.90613 9.94094 8.13152 9.94094 8.4095V9.55429H9.94101Z" fill="#37405B"/>
<path d="M6.40625 9.24048H9.94101V9.76921H6.40625V9.24048Z" fill="#A1CAD5"/>
<path d="M13.3782 23.8611H3.15625V19.138C3.15625 17.93 4.13556 16.9507 5.34354 16.9507H11.1909C12.3989 16.9507 13.3782 17.93 13.3782 19.138V23.8611Z" fill="#FFAB57"/>
<path d="M17.7166 18.9021C19.1393 18.9021 20.2926 17.7488 20.2926 16.3261C20.2926 14.9034 19.1393 13.7501 17.7166 13.7501C16.2939 13.7501 15.1406 14.9034 15.1406 16.3261C15.1406 17.7488 16.2939 18.9021 17.7166 18.9021Z" fill="#DD455B"/>
<path d="M16.8473 23.8611H2.91602V19.138C2.91602 17.93 3.89532 16.9507 5.10331 16.9507H14.66C15.8679 16.9507 16.8473 17.93 16.8473 19.138V23.8611Z" fill="#FFAB57"/>
<path d="M11.5657 23.8611H1.34375V19.138C1.34375 17.93 2.32306 16.9507 3.53104 16.9507H9.3784C10.5864 16.9507 11.5657 17.93 11.5657 19.138V23.8611Z" fill="#FFE0B3"/>
<path d="M17.1514 23.7048H0.829567C0.371364 23.7048 0 24.0762 0 24.5344V24.7609H17.981V24.5344C17.981 24.0762 17.6096 23.7048 17.1514 23.7048Z" fill="#5A617A"/>
</g>
<defs>
<clipPath id="clip0_940_1045">
<rect width="27" height="27" fill="white"/>
</clipPath>
</defs>
</svg>
