<svg width="30" height="30" viewBox="0 0 30 30" fill="none" xmlns="http://www.w3.org/2000/svg">
<g clip-path="url(#clip0_791_33930)">
<path d="M19.6621 25.5729C19.6621 26.3878 20.3227 27.0484 21.1375 27.0484C21.9524 27.0484 22.6129 26.3878 22.6129 25.5729C22.6129 24.7581 21.9524 24.0975 21.1375 24.0975C20.3227 24.0975 19.6621 24.7581 19.6621 25.5729ZM21.6293 25.5729C21.6293 25.8446 21.4091 26.0647 21.1375 26.0647C20.8659 26.0647 20.6457 25.8446 20.6457 25.5729C20.6457 25.3013 20.8659 25.0811 21.1375 25.0811C21.4091 25.0811 21.6293 25.3013 21.6293 25.5729Z" fill="#4B4B4B"/>
<path d="M26.5501 7.86968H21.1403V7.37788C21.1403 6.56303 20.4797 5.90247 19.6649 5.90247H18.6813C17.8664 5.90247 17.2059 6.56303 17.2059 7.37788V7.86968H15.2386V7.37788C15.2386 6.56303 14.5781 5.90247 13.7632 5.90247H12.7796C11.9648 5.90247 11.3042 6.56303 11.3042 7.37788V7.86968H9.33701V7.37788C9.33701 6.56303 8.67645 5.90247 7.8616 5.90247H6.87799C6.06315 5.90247 5.40258 6.56303 5.40258 7.37788V7.86968H3.92717C3.65556 7.86968 3.43537 8.08987 3.43537 8.36148C3.43537 8.6331 3.65556 8.85329 3.92717 8.85329H5.40258V9.34509C5.40421 9.51301 5.43483 9.67939 5.49308 9.83689H2.94357C2.40034 9.83689 1.95996 10.2773 1.95996 10.8205V13.2795C1.96392 15.5777 3.41815 17.623 5.5875 18.3815L2.99521 27.6628C2.77791 28.4489 3.23899 29.2622 4.02504 29.4795C4.8111 29.6968 5.62447 29.2357 5.84176 28.4497L6.23521 27.0485H17.4975C18.2116 28.8209 20.0959 29.824 21.9649 29.4266C23.834 29.0293 25.1474 27.3465 25.0788 25.437C25.0102 23.5274 23.5794 21.9432 21.6867 21.681L20.8698 18.412C23.0832 17.6786 24.5789 15.6112 24.5829 13.2795V10.8205C24.5829 10.2773 24.1425 9.83689 23.5993 9.83689H21.0498C21.108 9.67939 21.1387 9.51301 21.1403 9.34509V8.85329H26.5501C26.8217 8.85329 27.0419 9.07347 27.0419 9.34509C27.0419 9.6167 26.8217 9.83689 26.5501 9.83689H26.0583C25.7867 9.83689 25.5665 10.0571 25.5665 10.3287C25.5665 10.6003 25.7867 10.8205 26.0583 10.8205H26.5501C27.365 10.8205 28.0255 10.1599 28.0255 9.34509C28.0255 8.53024 27.365 7.86968 26.5501 7.86968ZM17.2059 8.85329V9.34509C17.2075 9.51301 17.2381 9.67939 17.2964 9.83689H15.1482C15.2064 9.67939 15.237 9.51301 15.2386 9.34509V8.85329H17.2059ZM12.2878 7.37788C12.2878 7.10626 12.508 6.88607 12.7796 6.88607H13.7632C14.0349 6.88607 14.255 7.10626 14.255 7.37788V9.34509C14.255 9.6167 14.0349 9.83689 13.7632 9.83689H12.7796C12.508 9.83689 12.2878 9.6167 12.2878 9.34509V7.37788ZM11.3042 8.85329V9.34509C11.3059 9.51301 11.3365 9.67939 11.3947 9.83689H9.24652C9.30477 9.67939 9.33538 9.51301 9.33701 9.34509V8.85329H11.3042ZM6.38619 9.34509V7.37788C6.38619 7.10626 6.60638 6.88607 6.87799 6.88607H7.8616C8.13322 6.88607 8.3534 7.10626 8.3534 7.37788V9.34509C8.3534 9.6167 8.13322 9.83689 7.8616 9.83689H6.87799C6.60638 9.83689 6.38619 9.6167 6.38619 9.34509ZM5.85996 26.0664C5.63932 26.0664 5.44571 26.2134 5.38635 26.4259L4.89455 28.1861C4.83667 28.401 4.6416 28.5503 4.41898 28.55C4.26613 28.5466 4.12317 28.4737 4.0306 28.352C3.93803 28.2304 3.90593 28.0731 3.9434 27.9249L6.54258 18.6195C6.81612 18.664 7.09268 18.6873 7.3698 18.6894H7.54783L5.93668 24.4587C5.89529 24.6069 5.92565 24.766 6.01874 24.8885C6.11182 25.011 6.2569 25.0829 6.41078 25.0828H17.2398C17.1946 25.4091 17.1946 25.7401 17.2398 26.0664H5.85996ZM17.8988 18.6894L18.8249 22.401C18.2327 22.8327 17.7724 23.4207 17.4955 24.0992H7.05849L8.5693 18.6894H17.8988ZM24.0911 25.5746C24.0911 27.2043 22.77 28.5254 21.1403 28.5254C19.5106 28.5254 18.1895 27.2043 18.1895 25.5746C18.1895 23.9449 19.5106 22.6238 21.1403 22.6238C22.7693 22.6254 24.0895 23.9456 24.0911 25.5746ZM20.6682 21.6712C20.342 21.7109 20.0221 21.7916 19.716 21.9112L18.9124 18.6894H19.1731C19.42 18.6875 19.6664 18.6688 19.9108 18.6333L20.6682 21.6712ZM23.5993 11.8041H7.3698C7.09818 11.8041 6.87799 12.0243 6.87799 12.2959C6.87799 12.5675 7.09818 12.7877 7.3698 12.7877H23.5993V13.2795C23.5963 15.7228 21.6164 17.7028 19.1731 17.7057H7.3698C4.92649 17.7028 2.94655 15.7228 2.94357 13.2795V12.7877H5.40258C5.6742 12.7877 5.89439 12.5675 5.89439 12.2959C5.89439 12.0243 5.6742 11.8041 5.40258 11.8041H2.94357V10.8205H23.5993V11.8041ZM18.6813 9.83689C18.4097 9.83689 18.1895 9.6167 18.1895 9.34509V7.37788C18.1895 7.10626 18.4097 6.88607 18.6813 6.88607H19.6649C19.9365 6.88607 20.1567 7.10626 20.1567 7.37788V9.34509C20.1567 9.6167 19.9365 9.83689 19.6649 9.83689H18.6813Z" fill="#4B4B4B"/>
<path d="M13.2654 0.983607C13.5371 0.983607 13.7573 0.763419 13.7573 0.491803C13.7573 0.220188 13.5371 0 13.2654 0C12.5322 0 11.79 0.675738 11.79 1.96721C11.8538 2.59209 12.1729 3.16285 12.6718 3.54443C12.9773 3.84984 13.2654 4.13803 13.2654 4.42623C13.2654 4.69784 13.4856 4.91803 13.7573 4.91803C14.0289 4.91803 14.2491 4.69784 14.2491 4.42623C14.1853 3.80136 13.8662 3.23059 13.3673 2.84902C13.0618 2.54361 12.7736 2.25541 12.7736 1.96721C12.7736 1.32787 13.0269 0.983607 13.2654 0.983607Z" fill="#4B4B4B"/>
<path d="M19.1795 0.983607C19.4511 0.983607 19.6713 0.763419 19.6713 0.491803C19.6713 0.220188 19.4511 0 19.1795 0C18.4462 0 17.7041 0.675738 17.7041 1.96721C17.7679 2.59209 18.087 3.16285 18.5859 3.54443C18.8913 3.84984 19.1795 4.13803 19.1795 4.42623C19.1795 4.69784 19.3997 4.91803 19.6713 4.91803C19.9429 4.91803 20.1631 4.69784 20.1631 4.42623C20.0994 3.80136 19.7802 3.23059 19.2813 2.84902C18.9759 2.54361 18.6877 2.25541 18.6877 1.96721C18.6877 1.32787 18.941 0.983607 19.1795 0.983607Z" fill="#4B4B4B"/>
<path d="M7.36506 0.983607C7.63667 0.983607 7.85686 0.763419 7.85686 0.491803C7.85686 0.220188 7.63667 0 7.36506 0C6.63178 0 5.88965 0.675738 5.88965 1.96721C5.95341 2.59209 6.27252 3.16285 6.77145 3.54443C7.07686 3.84984 7.36506 4.13803 7.36506 4.42623C7.36506 4.69784 7.58525 4.91803 7.85686 4.91803C8.12848 4.91803 8.34866 4.69784 8.34866 4.42623C8.2849 3.80136 7.96579 3.23059 7.46686 2.84902C7.16145 2.54361 6.87325 2.25541 6.87325 1.96721C6.87325 1.32787 7.12653 0.983607 7.36506 0.983607Z" fill="#4B4B4B"/>
</g>
<defs>
<clipPath id="clip0_791_33930">
<rect width="30" height="30" fill="white"/>
</clipPath>
</defs>
</svg>
