<svg width="15" height="15" viewBox="0 0 15 15" fill="none" xmlns="http://www.w3.org/2000/svg">
<g clip-path="url(#clip0_3394_1477)">
<path d="M1.40638 4.69011H4.21888C4.22255 4.69034 4.22621 4.69057 4.22804 4.69011C4.48713 4.69011 4.69679 4.48022 4.69679 4.22136C4.69679 4.11424 4.66108 4.01537 4.60066 3.9364L3.23194 1.1992C3.07264 0.881516 2.55262 0.881516 2.39332 1.1992L0.987072 4.0117C0.914287 4.15704 0.922069 4.32962 1.00767 4.46786C1.09327 4.60588 1.24388 4.69011 1.40638 4.69011Z" fill="#ADDCFF"/>
<path d="M4.21875 9.8457H1.875C1.61591 9.8457 1.40625 10.0556 1.40625 10.3145V12.6582C1.40625 12.9171 1.61591 13.127 1.875 13.127H4.21875C4.47784 13.127 4.6875 12.9171 4.6875 12.6582V10.3145C4.6875 10.0556 4.47784 9.8457 4.21875 9.8457Z" fill="#ADDCFF"/>
<path d="M9.375 5.62695C9.375 4.59309 8.53409 3.75195 7.5 3.75195C6.46591 3.75195 5.625 4.59309 5.625 5.62695C5.625 6.66081 6.46591 7.50195 7.5 7.50195C8.53409 7.50195 9.375 6.66081 9.375 5.62695Z" fill="#ADDCFF"/>
<path d="M8.4375 7.50195H7.5H6.5625C5.52841 7.50195 4.6875 8.34309 4.6875 9.37695V9.8457C4.6875 10.1046 4.89716 10.3145 5.15625 10.3145H7.5H9.84375C10.1028 10.3145 10.3125 10.1046 10.3125 9.8457V9.37695C10.3125 8.34309 9.47159 7.50195 8.4375 7.50195Z" fill="#ADDCFF"/>
<path d="M2.38701 5.15859L1.40625 5.1585C1.39492 5.1585 1.38448 5.1547 1.37323 5.1543C1.08745 5.89828 0.9375 6.69218 0.9375 7.50225C0.9375 8.21662 1.05884 8.91631 1.28592 9.59149C1.44745 9.45965 1.65078 9.37725 1.875 9.37725H2.20413C1.98993 8.77255 1.875 8.14424 1.875 7.50225C1.875 6.68595 2.05095 5.88861 2.38701 5.15859Z" fill="#ADDCFF"/>
<path d="M10.9841 3.36171L10.8578 4.14609C10.8294 4.32301 10.904 4.50085 11.051 4.60408C11.1315 4.66084 11.2258 4.68945 11.3206 4.68945C11.3984 4.68945 11.4762 4.67023 11.5467 4.63109L12.1853 4.27907L12.8294 4.63177C12.8999 4.67046 12.9772 4.68945 13.0546 4.68945C13.0578 4.68968 13.0615 4.68991 13.0638 4.68945C13.3228 4.68945 13.5325 4.47957 13.5325 4.2207C13.5325 4.16257 13.522 4.10695 13.5027 4.05545L13.3911 3.36171L13.9298 2.80873C14.0525 2.68285 14.0942 2.4986 14.0379 2.33197C13.982 2.16534 13.8374 2.04404 13.6634 2.01817L12.9411 1.90991L12.6119 1.20908C12.5346 1.04451 12.3693 0.939453 12.1876 0.939453C12.0059 0.939453 11.8406 1.04451 11.7632 1.20908L11.435 1.90854L10.8775 1.99162C10.8669 1.99277 10.856 1.99414 10.845 1.99597L10.7044 2.01932C10.5323 2.04793 10.3904 2.16969 10.3359 2.33563C10.2815 2.50134 10.3236 2.68376 10.4453 2.80873L10.9841 3.36171Z" fill="#ADDCFF"/>
<path d="M9.89042 2.18915C9.97602 1.92897 10.1692 1.72769 10.4138 1.62335C9.51148 1.17563 8.51968 0.939453 7.49998 0.939453C6.29726 0.939453 5.12358 1.27545 4.10352 1.89383L4.525 2.73655C5.41444 2.18085 6.44398 1.87695 7.49998 1.87695C8.32006 1.87695 9.11877 2.05551 9.85294 2.39405C9.85952 2.32539 9.86828 2.25653 9.89042 2.18915Z" fill="#ADDCFF"/>
<path d="M13.2852 9.73492C12.9662 9.50078 12.5867 9.37695 12.1875 9.37695C11.1534 9.37695 10.3125 10.2181 10.3125 11.252C10.3125 11.7967 10.545 12.3076 10.9401 12.6447C11.2834 12.9557 11.7265 13.127 12.1875 13.127C13.2216 13.127 14.0625 12.2858 14.0625 11.252C14.0625 10.6479 13.7695 10.0794 13.2852 9.73492Z" fill="#ADDCFF"/>
<path d="M10.6258 12.9913C10.4457 12.8377 10.2937 12.6544 10.1723 12.4512C9.35835 12.8946 8.44997 13.1261 7.5006 13.1261C6.68412 13.1261 5.88678 12.9503 5.15685 12.6143V12.6574C5.15685 12.9884 4.98336 13.2783 4.72363 13.4451C5.58726 13.8504 6.53231 14.0636 7.5006 14.0636C8.69362 14.0636 9.82921 13.7458 10.8336 13.1474C10.7633 13.0968 10.6906 13.0501 10.6258 12.9913Z" fill="#ADDCFF"/>
<path d="M12.909 9.02113C13.1417 9.09664 13.3619 9.20896 13.563 9.35656C13.627 9.40208 13.6868 9.45238 13.7453 9.5039C13.9523 8.85914 14.0629 8.18963 14.0629 7.50147C14.0629 6.63118 13.8929 5.78901 13.5689 5.00586C13.437 5.09095 13.2844 5.14662 13.1185 5.15612L13.0604 5.15795C13.0604 5.15795 13.0178 5.15658 13.016 5.15658C12.8933 5.15658 12.74 5.11675 12.604 5.04214L12.5381 5.00603C12.9223 5.77485 13.1254 6.62114 13.1254 7.50147C13.1254 8.02206 13.0473 8.52901 12.909 9.02113Z" fill="#ADDCFF"/>
</g>
<defs>
<clipPath id="clip0_3394_1477">
<rect width="15" height="15" fill="white" transform="translate(0 0.00195312)"/>
</clipPath>
</defs>
</svg>
