<svg width="15" height="15" viewBox="0 0 15 15" fill="none" xmlns="http://www.w3.org/2000/svg">
<path d="M14.518 14.0645H14.1941L13.9874 13.2379C13.9711 13.1727 13.9125 13.127 13.8453 13.127H1.15471C1.08751 13.127 1.02891 13.1727 1.0126 13.2379L0.805965 14.0645H0.482C0.229607 14.0645 0.0124297 14.2584 0.000535168 14.5105C-0.0121504 14.7797 0.202332 15.002 0.468758 15.002H14.5313C14.7977 15.002 15.0122 14.7797 14.9995 14.5105C14.9876 14.2584 14.7704 14.0645 14.518 14.0645Z" fill="#ADDCFF"/>
<path d="M6.34136 3.98633H7.03125V4.70914C4.14811 4.94814 1.875 7.37064 1.875 10.3145V10.5488C1.60857 10.5488 1.39423 10.7708 1.40677 11.04C1.41849 11.2922 1.63567 11.4863 1.88815 11.4863H3.28125V12.043C3.28125 12.1239 3.34684 12.1895 3.42773 12.1895H11.5723C11.6532 12.1895 11.7187 12.1239 11.7187 12.043V11.4863H13.1118C13.3643 11.4863 13.5815 11.2922 13.5932 11.04C13.6058 10.7708 13.3914 10.5488 13.125 10.5488V10.3145C13.125 7.37064 10.8519 4.94814 7.96875 4.70914V3.98633H8.65863C8.91102 3.98633 9.1282 3.79235 9.14009 3.54025C9.15278 3.27107 8.9383 3.04883 8.67187 3.04883H6.32812C6.0617 3.04883 5.84721 3.27107 5.8599 3.54025C5.87179 3.79235 6.08897 3.98633 6.34136 3.98633Z" fill="#ADDCFF"/>
<path d="M0.46875 7.9707H1.40625C1.66515 7.9707 1.875 7.76082 1.875 7.50195C1.875 7.24309 1.66515 7.0332 1.40625 7.0332H0.46875C0.209854 7.0332 0 7.24309 0 7.50195C0 7.76082 0.209854 7.9707 0.46875 7.9707Z" fill="#ADDCFF"/>
<path d="M13.5938 7.9707H14.5312C14.7901 7.9707 15 7.76082 15 7.50195C15 7.24309 14.7901 7.0332 14.5312 7.0332H13.5938C13.3349 7.0332 13.125 7.24309 13.125 7.50195C13.125 7.76082 13.3349 7.9707 13.5938 7.9707Z" fill="#ADDCFF"/>
<path d="M2.85981 3.5237C3.04285 3.70675 3.33966 3.70678 3.52271 3.5237C3.70578 3.34063 3.70578 3.04385 3.52271 2.8608L2.85978 2.19784C2.67673 2.0148 2.37992 2.01477 2.19688 2.19784C2.0138 2.38092 2.0138 2.6777 2.19688 2.86074L2.85981 3.5237Z" fill="#ADDCFF"/>
<path d="M11.8091 3.66092C11.9291 3.66092 12.049 3.61513 12.1406 3.52363L12.8035 2.86073C12.9866 2.67766 12.9866 2.38088 12.8035 2.19783C12.6205 2.01479 12.3237 2.01479 12.1406 2.19783L11.4777 2.86073C11.1815 3.15684 11.3953 3.66092 11.8091 3.66092Z" fill="#ADDCFF"/>
<path d="M7.5 1.87695C7.7589 1.87695 7.96875 1.66707 7.96875 1.4082V0.470703C7.96875 0.211836 7.7589 0.00195312 7.5 0.00195312C7.2411 0.00195312 7.03125 0.211836 7.03125 0.470703V1.4082C7.03125 1.66707 7.2411 1.87695 7.5 1.87695Z" fill="#ADDCFF"/>
</svg>
