<svg width="15" height="15" viewBox="0 0 15 15" fill="none" xmlns="http://www.w3.org/2000/svg">
<g clip-path="url(#clip0_3394_1622)">
<path d="M11.25 14.375H3.75C3.58424 14.375 3.42527 14.3092 3.30806 14.1919C3.19085 14.0747 3.125 13.9158 3.125 13.75C3.125 13.5842 3.19085 13.4253 3.30806 13.3081C3.42527 13.1908 3.58424 13.125 3.75 13.125H11.25C11.4158 13.125 11.5747 13.1908 11.6919 13.3081C11.8092 13.4253 11.875 13.5842 11.875 13.75C11.875 13.9158 11.8092 14.0747 11.6919 14.1919C11.5747 14.3092 11.4158 14.375 11.25 14.375ZM14.375 3.75V8.75C14.375 9.16038 14.2942 9.56674 14.1371 9.94589C13.9801 10.325 13.7499 10.6695 13.4597 10.9597C13.1695 11.2499 12.825 11.4801 12.4459 11.6371C12.0667 11.7942 11.6604 11.875 11.25 11.875H3.75C3.33962 11.875 2.93326 11.7942 2.55411 11.6371C2.17497 11.4801 1.83047 11.2499 1.54029 10.9597C0.95424 10.3737 0.625 9.5788 0.625 8.75V3.75C0.625 2.9212 0.95424 2.12634 1.54029 1.54029C2.12634 0.95424 2.9212 0.625 3.75 0.625H11.25C11.6604 0.625 12.0667 0.705831 12.4459 0.862876C12.825 1.01992 13.1695 1.25011 13.4597 1.54029C13.7499 1.83047 13.9801 2.17497 14.1371 2.55411C14.2942 2.93326 14.375 3.33962 14.375 3.75ZM3.125 5C3.125 5.16576 3.19085 5.32473 3.30806 5.44194C3.42527 5.55915 3.58424 5.625 3.75 5.625H7.5C7.66576 5.625 7.82473 5.55915 7.94194 5.44194C8.05915 5.32473 8.125 5.16576 8.125 5C8.125 4.83424 8.05915 4.67527 7.94194 4.55806C7.82473 4.44085 7.66576 4.375 7.5 4.375H3.75C3.58424 4.375 3.42527 4.44085 3.30806 4.55806C3.19085 4.67527 3.125 4.83424 3.125 5ZM11.875 7.5C11.875 7.33424 11.8092 7.17527 11.6919 7.05806C11.5747 6.94085 11.4158 6.875 11.25 6.875H3.75C3.58424 6.875 3.42527 6.94085 3.30806 7.05806C3.19085 7.17527 3.125 7.33424 3.125 7.5C3.125 7.66576 3.19085 7.82473 3.30806 7.94194C3.42527 8.05915 3.58424 8.125 3.75 8.125H11.25C11.4158 8.125 11.5747 8.05915 11.6919 7.94194C11.8092 7.82473 11.875 7.66576 11.875 7.5Z" fill="#ADDCFF"/>
</g>
<defs>
<clipPath id="clip0_3394_1622">
<rect width="15" height="15" fill="white"/>
</clipPath>
</defs>
</svg>
