<svg width="15" height="16" viewBox="0 0 15 16" fill="none" xmlns="http://www.w3.org/2000/svg">
<path fill-rule="evenodd" clip-rule="evenodd" d="M5.54506 3.64295H13.8723L8.92633 7.03356L5.56205 4.72722C5.69014 4.38425 5.69122 3.99656 5.54506 3.64295ZM3.36722 5.61088L4.58099 4.87183C4.94119 4.65252 5.06075 4.18459 4.84987 3.81934L3.75408 1.92137C3.64167 1.72664 3.47151 1.60136 3.2522 1.55185C3.03285 1.50231 2.82543 1.5423 2.64021 1.66983L0.641816 3.04573C-0.309424 6.39741 3.96525 13.6537 7.24369 14.4805L9.43445 13.4378C9.63748 13.3411 9.77585 13.1815 9.84262 12.9668C9.90938 12.752 9.88598 12.5421 9.77353 12.3473L8.67774 10.4494C8.46689 10.0841 8.00186 9.9537 7.63182 10.156L6.38491 10.8376C5.15181 9.74094 3.70044 7.22713 3.36722 5.61088ZM14.4771 4.079L9.12408 7.74867C8.99884 7.83416 8.83791 7.82748 8.72151 7.74383L5.1678 5.30765C5.10048 5.36833 5.02674 5.42364 4.94664 5.47242L4.17895 5.93982C4.58228 7.24148 5.58027 8.97006 6.50588 9.97016L7.29452 9.53903C7.99917 9.15383 8.88511 9.40233 9.28662 10.0978L9.96619 11.2748H13.9244C14.237 11.2748 14.4927 11.0191 14.4927 10.7066V4.21119C14.4927 4.16572 14.4873 4.12145 14.4771 4.079Z" fill="#ADDCFF"/>
</svg>
