<svg width="15" height="15" viewBox="0 0 15 15" fill="none" xmlns="http://www.w3.org/2000/svg">
<g clip-path="url(#clip0_1677_1652)">
<g clip-path="url(#clip1_1677_1652)">
<path d="M6.08396 1.73047H2.56833C2.116 1.73047 1.74805 2.09842 1.74805 2.55075V4.66013C1.74805 5.11254 2.116 5.4805 2.56833 5.4805H6.08396C6.53637 5.4805 6.90433 5.11254 6.90433 4.66013V2.55075C6.90433 2.09842 6.53637 1.73047 6.08396 1.73047Z" fill="#ADDCFF"/>
<path d="M6.08396 6.41797H2.56833C2.116 6.41797 1.74805 6.78592 1.74805 7.23834V12.1602C1.74805 12.6125 2.116 12.9805 2.56833 12.9805H6.08396C6.53637 12.9805 6.90433 12.6125 6.90433 12.1602V7.23834C6.90433 6.78592 6.53637 6.41797 6.08396 6.41797Z" fill="#ADDCFF"/>
<path d="M12.1778 9.23047H8.66217C8.20975 9.23047 7.8418 9.59842 7.8418 10.0508V12.1602C7.8418 12.6125 8.20975 12.9805 8.66217 12.9805H12.1778C12.6301 12.9805 12.9981 12.6125 12.9981 12.1602V10.0508C12.9981 9.59842 12.6301 9.23047 12.1778 9.23047Z" fill="#ADDCFF"/>
<path d="M12.1778 1.73047H8.66217C8.20975 1.73047 7.8418 2.09842 7.8418 2.55075V7.47263C7.8418 7.92504 8.20975 8.293 8.66217 8.293H12.1778C12.6301 8.293 12.9981 7.92504 12.9981 7.47263V2.55075C12.9981 2.09842 12.6301 1.73047 12.1778 1.73047Z" fill="#ADDCFF"/>
</g>
</g>
<defs>
<clipPath id="clip0_1677_1652">
<rect width="15.0021" height="15.0021" fill="white"/>
</clipPath>
<clipPath id="clip1_1677_1652">
<rect width="11.25" height="11.25" fill="white" transform="translate(1.74805 1.73047)"/>
</clipPath>
</defs>
</svg>
