<svg width="15" height="15" viewBox="0 0 15 15" fill="none" xmlns="http://www.w3.org/2000/svg">
<path fill-rule="evenodd" clip-rule="evenodd" d="M9.7625 15.002C9.27343 14.4998 8.40313 13.5363 7.65781 12.3454C6.87656 11.0973 6.25 9.60555 6.25 8.12695C6.25 5.62602 8.27969 3.5957 10.7812 3.5957C10.8859 3.5957 10.9906 3.5993 11.0938 3.60633V1.87695C11.0938 1.62836 10.9953 1.38992 10.8187 1.21399C10.6437 1.03821 10.4047 0.939453 10.1562 0.939453H7.96875C7.96875 0.690859 7.87031 0.452425 7.69375 0.276487C7.51875 0.100706 7.27969 0.00195312 7.03125 0.00195312C6.26719 0.00195312 4.98281 0.00195312 4.21875 0.00195312C3.97031 0.00195312 3.73125 0.100706 3.55625 0.276487C3.37969 0.452425 3.28125 0.690859 3.28125 0.939453H1.25C1.00156 0.939453 0.762502 1.03821 0.587502 1.21399C0.410939 1.38992 0.3125 1.62836 0.3125 1.87695V14.0645C0.3125 14.313 0.410939 14.5515 0.587502 14.7274C0.762502 14.9032 1.00156 15.002 1.25 15.002H9.7625ZM10.5703 14.9198C10.689 15.0293 10.8735 15.0293 10.9922 14.9198C10.9922 14.9198 12.3156 13.7066 13.375 12.014C14.0953 10.8624 14.6875 9.49102 14.6875 8.12695C14.6875 5.97102 12.9375 4.2207 10.7812 4.2207C8.625 4.2207 6.875 5.97102 6.875 8.12695C6.875 9.49102 7.46717 10.8624 8.18748 12.014C9.24686 13.7066 10.5703 14.9198 10.5703 14.9198ZM2.1875 13.2832H5C5.17188 13.2832 5.3125 13.1432 5.3125 12.9707C5.3125 12.7982 5.17188 12.6582 5 12.6582H2.1875C2.01562 12.6582 1.875 12.7982 1.875 12.9707C1.875 13.1432 2.01562 13.2832 2.1875 13.2832ZM2.1875 11.877H6.25C6.42188 11.877 6.5625 11.737 6.5625 11.5645C6.5625 11.392 6.42188 11.252 6.25 11.252H2.1875C2.01562 11.252 1.875 11.392 1.875 11.5645C1.875 11.737 2.01562 11.877 2.1875 11.877ZM3.59375 7.3457H2.1875C2.01406 7.3457 1.875 7.48555 1.875 7.6582V10.1582C1.875 10.3309 2.01406 10.4707 2.1875 10.4707H4.6875C4.86094 10.4707 5 10.3309 5 10.1582V9.68945C5 9.51695 4.85938 9.37695 4.6875 9.37695C4.51562 9.37695 4.375 9.51695 4.375 9.68945V9.8457H2.5V7.9707H3.59375C3.76562 7.9707 3.90625 7.8307 3.90625 7.6582C3.90625 7.4857 3.76562 7.3457 3.59375 7.3457ZM10.7812 6.4082C11.7297 6.4082 12.5 7.17836 12.5 8.12695C12.5 9.07555 11.7297 9.8457 10.7812 9.8457C9.83281 9.8457 9.0625 9.07555 9.0625 8.12695C9.0625 7.17836 9.83281 6.4082 10.7812 6.4082ZM2.9047 8.81664L3.5297 9.44164C3.65158 9.56367 3.84842 9.56367 3.9703 9.44164L5.2203 8.19164C5.34374 8.06977 5.34374 7.87164 5.2203 7.74977C5.09842 7.62773 4.90158 7.62773 4.7797 7.74977L3.75 8.77883L3.3453 8.37477C3.22342 8.25273 3.02658 8.25273 2.9047 8.37477C2.78283 8.49664 2.78283 8.69477 2.9047 8.81664ZM3.59375 3.5957H2.1875C2.01406 3.5957 1.875 3.73555 1.875 3.9082V6.4082C1.875 6.58086 2.01406 6.7207 2.1875 6.7207H4.6875C4.86094 6.7207 5 6.58086 5 6.4082V5.93945C5 5.76695 4.85938 5.62695 4.6875 5.62695C4.51562 5.62695 4.375 5.76695 4.375 5.93945V6.0957H2.5V4.2207H3.59375C3.76562 4.2207 3.90625 4.0807 3.90625 3.9082C3.90625 3.7357 3.76562 3.5957 3.59375 3.5957ZM2.9047 5.06664L3.5297 5.69164C3.65158 5.81367 3.84842 5.81367 3.9703 5.69164L5.2203 4.44164C5.34374 4.31977 5.34374 4.12164 5.2203 3.99977C5.09842 3.87773 4.90158 3.87773 4.7797 3.99977L3.75 5.02883L3.3453 4.62477C3.22342 4.50273 3.02658 4.50273 2.9047 4.62477C2.78283 4.74664 2.78283 4.94477 2.9047 5.06664ZM7.34375 0.939453V1.87695H3.90625V0.939453C3.90625 0.856641 3.93908 0.777109 3.99845 0.718515C4.05626 0.659922 4.13594 0.626953 4.21875 0.626953H7.03125C7.11406 0.626953 7.19374 0.659922 7.25155 0.718515C7.31092 0.777109 7.34375 0.856641 7.34375 0.939453Z" fill="#ADDCFF"/>
</svg>
