<svg width="15" height="16" viewBox="0 0 15 16" fill="none" xmlns="http://www.w3.org/2000/svg">
<g clip-path="url(#clip0_3394_1588)">
<path d="M7.96387 12.3203C6.75033 12.3203 5.7666 13.3626 5.7666 14.5762C5.7666 14.8189 5.96336 15.0156 6.20606 15.0156H9.72169C9.96438 15.0156 10.1611 14.8189 10.1611 14.5762C10.1611 13.3626 9.17741 12.3203 7.96387 12.3203Z" fill="#ADDCFF"/>
<path d="M13.2385 9.1019C12.7245 8.58783 11.8881 8.58783 11.3741 9.1019C11.0096 9.46641 10.9167 9.99036 11.0692 10.4491C8.83594 11.9078 5.82699 11.6341 3.91628 9.72338C2.00556 7.81272 1.73187 4.80378 3.19053 2.5705C3.64929 2.7229 4.17324 2.63009 4.53775 2.26558C5.05183 1.75156 5.05183 0.915195 4.53775 0.40118C4.02368 -0.112893 3.18737 -0.112893 2.6733 0.40118C2.23777 0.836708 2.19414 1.49311 2.49669 1.99936C0.750568 4.58475 1.06607 8.11609 3.2948 10.3449C5.52362 12.5737 9.05496 12.8892 11.6404 11.143C12.1466 11.4455 12.8029 11.4019 13.2385 10.9664C13.7525 10.4523 13.7525 9.61597 13.2385 9.1019Z" fill="#ADDCFF"/>
<path d="M7.95566 6.30469L7.03125 7.22909C8.38685 8.46071 10.0373 9.24135 10.8968 9.24581L7.95566 6.30469Z" fill="#ADDCFF"/>
<path d="M9.50155 4.75977L8.57715 5.68417L11.5183 8.62532C11.5139 7.76587 10.7332 6.11539 9.50155 4.75977Z" fill="#ADDCFF"/>
<path d="M4.39355 2.74219C4.39801 3.60167 5.17862 5.25214 6.41033 6.60774L7.3347 5.68336L4.39355 2.74219Z" fill="#ADDCFF"/>
<path d="M5.8125 1.35547C7.02879 1.66226 8.46296 2.56959 9.50227 3.51614L11.0478 1.97058C9.55808 0.728628 7.4935 0.524839 5.8125 1.35547Z" fill="#ADDCFF"/>
<path d="M3.62796 3.54102C2.79731 5.22204 3.00104 7.28663 4.24308 8.77635L5.78864 7.23079C4.84203 6.19148 3.9347 4.75737 3.62796 3.54102Z" fill="#ADDCFF"/>
<path d="M6.40982 7.85156L4.86426 9.39712C6.35398 10.6391 8.41859 10.8429 10.0996 10.0122C8.8833 9.7055 7.44913 8.79818 6.40982 7.85156Z" fill="#ADDCFF"/>
<path d="M5.01465 2.12109L7.95583 5.06224L8.88023 4.13784C7.52463 2.90616 5.87416 2.12558 5.01465 2.12109Z" fill="#ADDCFF"/>
<path d="M11.6686 2.5918L10.123 4.13733C11.0697 5.17664 11.977 6.61075 12.2837 7.82704C13.1144 6.14604 12.9106 4.08149 11.6686 2.5918Z" fill="#ADDCFF"/>
</g>
<defs>
<clipPath id="clip0_3394_1588">
<rect width="15" height="15" fill="white" transform="translate(0 0.015625)"/>
</clipPath>
</defs>
</svg>
