<svg width="14" height="14" viewBox="0 0 14 14" fill="none" xmlns="http://www.w3.org/2000/svg">
<path d="M6.96877 2.75099V1.34474L9.78127 4.15724H8.37502C7.38752 4.15724 6.96877 3.73849 6.96877 2.75099ZM6.96877 10.201C6.96622 10.7805 7.12413 11.3494 7.42502 11.8447C7.44177 11.8737 7.45046 11.9066 7.45019 11.9401C7.44992 11.9736 7.4407 12.0064 7.42348 12.0351C7.40626 12.0638 7.38167 12.0873 7.35227 12.1033C7.32286 12.1193 7.28972 12.1271 7.25627 12.126H2.75002C2.49533 12.1623 2.23567 12.1389 1.99161 12.0575C1.74755 11.9761 1.52579 11.8391 1.34387 11.6571C1.16195 11.4752 1.02488 11.2535 0.943502 11.0094C0.862125 10.7653 0.838678 10.5057 0.875016 10.251V2.75099C0.838678 2.4963 0.862125 2.23665 0.943502 1.99259C1.02488 1.74853 1.16195 1.52676 1.34387 1.34485C1.52579 1.16293 1.74755 1.02586 1.99161 0.944479C2.23567 0.863101 2.49533 0.839654 2.75002 0.875993H6.03127V2.75099C5.99432 3.0677 6.02952 3.38867 6.13424 3.68985C6.23896 3.99102 6.41048 4.26459 6.63595 4.49006C6.86142 4.71553 7.13499 4.88705 7.43616 4.99177C7.73734 5.09649 8.0583 5.13169 8.37502 5.09474H10.25V6.78849C10.2491 6.83688 10.2299 6.88313 10.1963 6.91793C10.1627 6.95272 10.1171 6.97347 10.0688 6.97599C9.23964 7.02087 8.45846 7.37878 7.88304 7.9774C7.30762 8.57603 6.98085 9.37074 6.96877 10.201ZM3.84377 9.00099C3.84377 8.90828 3.81627 8.81766 3.76477 8.74057C3.71326 8.66348 3.64005 8.6034 3.5544 8.56792C3.46875 8.53245 3.3745 8.52316 3.28357 8.54125C3.19264 8.55934 3.10912 8.60398 3.04356 8.66954C2.978 8.73509 2.93336 8.81862 2.91527 8.90954C2.89719 9.00047 2.90647 9.09472 2.94195 9.18038C2.97743 9.26603 3.03751 9.33924 3.11459 9.39074C3.19168 9.44225 3.28231 9.46974 3.37502 9.46974C3.49934 9.46974 3.61856 9.42036 3.70647 9.33245C3.79438 9.24454 3.84377 9.12531 3.84377 9.00099ZM3.84377 6.50099C3.84377 6.40828 3.81627 6.31766 3.76477 6.24057C3.71326 6.16348 3.64005 6.1034 3.5544 6.06792C3.46875 6.03245 3.3745 6.02316 3.28357 6.04125C3.19264 6.05934 3.10912 6.10398 3.04356 6.16954C2.978 6.23509 2.93336 6.31862 2.91527 6.40954C2.89719 6.50047 2.90647 6.59472 2.94195 6.68038C2.97743 6.76603 3.03751 6.83924 3.11459 6.89074C3.19168 6.94225 3.28231 6.96974 3.37502 6.96974C3.49934 6.96974 3.61856 6.92036 3.70647 6.83245C3.79438 6.74454 3.84377 6.62531 3.84377 6.50099ZM6.34377 9.00099C6.34377 8.87667 6.29438 8.75744 6.20647 8.66954C6.11856 8.58163 5.99934 8.53224 5.87502 8.53224H4.93752C4.8132 8.53224 4.69397 8.58163 4.60606 8.66954C4.51815 8.75744 4.46877 8.87667 4.46877 9.00099C4.46877 9.12531 4.51815 9.24454 4.60606 9.33245C4.69397 9.42036 4.8132 9.46974 4.93752 9.46974H5.87502C5.99934 9.46974 6.11856 9.42036 6.20647 9.33245C6.29438 9.24454 6.34377 9.12531 6.34377 9.00099ZM7.75002 6.96974C7.87434 6.96974 7.99356 6.92036 8.08147 6.83245C8.16938 6.74454 8.21877 6.62531 8.21877 6.50099C8.21877 6.37667 8.16938 6.25744 8.08147 6.16954C7.99356 6.08163 7.87434 6.03224 7.75002 6.03224H4.93752C4.8132 6.03224 4.69397 6.08163 4.60606 6.16954C4.51815 6.25744 4.46877 6.37667 4.46877 6.50099C4.46877 6.62531 4.51815 6.74454 4.60606 6.83245C4.69397 6.92036 4.8132 6.96974 4.93752 6.96974H7.75002ZM13.0813 13.0822C13.0378 13.1259 12.9862 13.1605 12.9294 13.1841C12.8725 13.2077 12.8116 13.2198 12.75 13.2198C12.6885 13.2198 12.6275 13.2077 12.5707 13.1841C12.5138 13.1605 12.4622 13.1259 12.4188 13.0822L11.45 12.1141C10.9734 12.4271 10.3976 12.5522 9.83407 12.4652C9.27054 12.3781 8.7593 12.0852 8.39924 11.6431C8.03917 11.201 7.85588 10.641 7.8848 10.0715C7.91372 9.50205 8.15281 8.96354 8.55582 8.56015C8.95883 8.15676 9.49711 7.91716 10.0666 7.8877C10.636 7.85824 11.1961 8.04101 11.6386 8.40066C12.0811 8.7603 12.3745 9.27127 12.462 9.83471C12.5496 10.3982 12.425 10.9741 12.1125 11.451L13.0813 12.4197C13.1248 12.4632 13.1593 12.5149 13.1829 12.5717C13.2065 12.6285 13.2186 12.6895 13.2186 12.751C13.2186 12.8125 13.2065 12.8735 13.1829 12.9303C13.1593 12.9871 13.1248 13.0388 13.0813 13.0822ZM11.5519 10.1991C11.552 9.93119 11.4727 9.66925 11.3239 9.44643C11.1751 9.22361 10.9636 9.04992 10.7161 8.94733C10.4686 8.84475 10.1962 8.81787 9.93344 8.87011C9.67066 8.92235 9.42928 9.05135 9.23983 9.2408C9.05038 9.43025 8.92137 9.67164 8.86913 9.93442C8.8169 10.1972 8.84377 10.4696 8.94636 10.7171C9.04894 10.9646 9.22263 11.1761 9.44546 11.3249C9.66828 11.4736 9.93022 11.553 10.1981 11.5529C10.557 11.5524 10.9011 11.4096 11.1548 11.1558C11.4086 10.902 11.5514 10.558 11.5519 10.1991Z" fill="#ADDCFF"/>
</svg>
