<svg width="15" height="15" viewBox="0 0 15 15" fill="none" xmlns="http://www.w3.org/2000/svg">
<path d="M10.6639 5.68359C9.98555 5.68359 9.43359 6.23555 9.43359 6.91397C9.43359 7.81444 10.373 8.40823 11.1837 8.02881L10.9675 7.81266C10.7959 7.64106 10.7959 7.3628 10.9675 7.19118C11.1391 7.01959 11.4174 7.01959 11.589 7.19118L11.7952 7.3974C12.1421 6.5889 11.5453 5.68359 10.6639 5.68359Z" fill="#ADDCFF"/>
<path d="M13.6816 2.06445H1.31836C0.591416 2.06445 0 2.65587 0 3.38281V10.4435C0 11.1705 0.591416 11.7619 1.31836 11.7619H6.40137L7.14844 12.758C7.32428 12.9924 7.6761 12.9919 7.85156 12.758L8.59863 11.7619H13.6816C14.4086 11.7619 15 11.1705 15 10.4435V3.38281C15 2.65587 14.4086 2.06445 13.6816 2.06445ZM3.89024 6.45453C4.13294 6.45453 4.3297 6.65129 4.3297 6.89398C4.3297 7.13668 4.13294 7.33344 3.89024 7.33344H3.09275V8.58295C3.09275 8.82564 2.89597 9.0224 2.6533 9.0224C2.41061 9.0224 2.21385 8.82564 2.21385 8.58295V5.26777C2.21385 5.02508 2.41061 4.82832 2.6533 4.82832H3.99694C4.23964 4.82832 4.4364 5.02508 4.4364 5.26777C4.4364 5.51047 4.23964 5.70723 3.99694 5.70723H3.09275V6.45453H3.89024ZM7.84567 8.9941C7.61854 9.07985 7.36506 8.96513 7.27937 8.73811L7.07716 8.20235H5.66903L5.46448 8.7394C5.37794 8.96656 5.12373 9.07988 4.89741 8.99363C4.67062 8.90727 4.55678 8.65338 4.64314 8.42653L5.89717 5.13392C5.9688 4.94328 6.15603 4.80406 6.37743 4.80383C6.58658 4.80362 6.77423 4.92819 6.85433 5.12302C6.85857 5.13336 6.80288 4.98611 8.1017 8.42779C8.18736 8.65484 8.07273 8.90844 7.84567 8.9941ZM12.6575 8.88023C12.4859 9.05185 12.2077 9.05185 12.0361 8.88023L11.8274 8.67148C11.4936 8.89297 11.0938 9.0224 10.6641 9.0224C9.50101 9.0224 8.55483 8.0762 8.55483 6.91315C8.55483 5.75009 9.50101 4.80386 10.6641 4.80386C11.8271 4.80386 12.7734 5.75009 12.7734 6.91315C12.7734 7.32916 12.6518 7.71711 12.4431 8.04424L12.6575 8.25872C12.8292 8.43034 12.8292 8.7086 12.6575 8.88023Z" fill="#ADDCFF"/>
<path d="M6.00391 7.32398H6.74564L6.37647 6.3457L6.00391 7.32398Z" fill="#ADDCFF"/>
</svg>
