<svg width="15" height="15" viewBox="0 0 15 15" fill="none" xmlns="http://www.w3.org/2000/svg">
<g clip-path="url(#clip0_3393_1459)">
<path d="M4.53198 10.4332C4.13533 10.2057 3.86731 9.7783 3.86731 9.28906C3.86731 7.26975 5.51011 5.62695 7.52942 5.62695H9.03855L9.10962 4.45508H0.558594L1.1728 14.5891C1.18687 14.821 1.37902 15.002 1.61145 15.002H4.30791C4.03142 14.6345 3.86731 14.1779 3.86731 13.6836C3.86731 13.1138 4.23077 12.6273 4.73798 12.4436C4.55819 12.1679 4.45325 11.8393 4.45325 11.4863C4.45325 11.133 4.55842 10.804 4.73855 10.5281C4.59527 10.4958 4.51573 10.4641 4.53198 10.4332Z" fill="#ADDCFF"/>
<path d="M4.83353 3.57629C4.83387 3.57629 4.83421 3.57617 4.83456 3.57617H9.22852C9.47124 3.57617 9.66797 3.37945 9.66797 3.13672C9.66797 2.89399 9.47124 2.69727 9.22852 2.69727H5.64526L6.82983 0.880859H8.34961C8.59234 0.880859 8.78906 0.684135 8.78906 0.441406C8.78906 0.198677 8.59234 0.00195312 8.34961 0.00195312H6.5918C6.44325 0.00195312 6.30478 0.0769119 6.22375 0.201309L4.59595 2.69727H0.439453C0.196724 2.69727 0 2.89399 0 3.13672C0 3.37945 0.196724 3.57617 0.439453 3.57617H4.83192C4.8325 3.57617 4.83307 3.57629 4.83353 3.57629Z" fill="#ADDCFF"/>
<path d="M4.74609 9.28906C4.74609 9.53179 4.94282 9.72852 5.18555 9.72852H14.5605C14.8033 9.72852 15 9.53179 15 9.28906C15 7.75441 13.7514 6.50586 12.2168 6.50586H7.5293C5.99464 6.50586 4.74609 7.75441 4.74609 9.28906Z" fill="#ADDCFF"/>
<path d="M6.21094 10.6074C5.72548 10.6074 5.33203 11.0009 5.33203 11.4863C5.33203 11.9718 5.72548 12.3652 6.21094 12.3652H13.5352C14.0206 12.3652 14.4141 11.9718 14.4141 11.4863C14.4141 11.0009 14.0206 10.6074 13.5352 10.6074H6.21094Z" fill="#ADDCFF"/>
<path d="M14.5605 13.2441H5.18555C4.94282 13.2441 4.74609 13.4409 4.74609 13.6836C4.74609 14.4105 5.33752 15.002 6.06445 15.002H13.6816C14.4086 15.002 15 14.4105 15 13.6836C15 13.4409 14.8033 13.2441 14.5605 13.2441Z" fill="#ADDCFF"/>
</g>
<defs>
<clipPath id="clip0_3393_1459">
<rect width="15" height="15" fill="white" transform="translate(0 0.00195312)"/>
</clipPath>
</defs>
</svg>
