<svg width="50" height="50" viewBox="0 0 50 50" fill="none" xmlns="http://www.w3.org/2000/svg">
<ellipse cx="24.7576" cy="25.1616" rx="24.4334" ry="24.3784" fill="#0F5B92"/>
<g clip-path="url(#clip0_791_29151)">
<path d="M14.5714 25.4843C14.7627 25.4843 14.9537 25.4113 15.0997 25.2654L20.5488 19.8163L23.0092 22.2767C23.3011 22.5686 23.7739 22.5686 24.0658 22.2767L31.7564 14.5861V15.771C31.7564 16.1839 32.0907 16.5182 32.5036 16.5182C32.9165 16.5182 33.2508 16.1839 33.2508 15.771V12.7823C33.2508 12.7578 33.2494 12.7331 33.2471 12.7088C33.2459 12.6965 33.2436 12.6847 33.2418 12.6728C33.2401 12.6607 33.2387 12.6487 33.2364 12.6368C33.2337 12.6222 33.2296 12.6082 33.2261 12.594C33.2235 12.5848 33.2216 12.5755 33.2189 12.5664C33.2144 12.5514 33.2089 12.537 33.2035 12.5224C33.2004 12.5142 33.1979 12.5058 33.1945 12.4979C33.1883 12.4829 33.1811 12.4683 33.1741 12.4539C33.1706 12.4465 33.1673 12.4391 33.1636 12.4319C33.155 12.4159 33.1457 12.4008 33.1362 12.3856C33.1329 12.3801 33.1299 12.3747 33.1264 12.3694C33.113 12.3494 33.0988 12.3299 33.0836 12.3113C33.0834 12.3111 33.0834 12.3109 33.0832 12.3107C33.0509 12.2712 33.0148 12.235 32.9753 12.2027C32.9751 12.2025 32.9749 12.2025 32.9747 12.2023C32.956 12.1871 32.9365 12.1729 32.9165 12.1595C32.9112 12.156 32.9058 12.1531 32.9003 12.1498C32.8852 12.1402 32.87 12.1309 32.854 12.1223C32.8468 12.1184 32.8394 12.1153 32.832 12.1118C32.8176 12.1046 32.8031 12.0976 32.7881 12.0914C32.7801 12.0881 32.7717 12.0856 32.7636 12.0824C32.749 12.077 32.7346 12.0715 32.7196 12.0671C32.7104 12.0643 32.7011 12.0624 32.692 12.0599C32.6777 12.0564 32.6637 12.0523 32.6491 12.0496C32.6373 12.0472 32.6252 12.0459 32.6131 12.0441C32.6013 12.0424 32.5894 12.04 32.5772 12.0389C32.5528 12.0365 32.5281 12.0352 32.5036 12.0352H29.5149C29.102 12.0352 28.7677 12.3694 28.7677 12.7823C28.7677 13.1952 29.102 13.5295 29.5149 13.5295H30.6999L23.5375 20.6919L21.0771 18.2315C20.7852 17.9396 20.3124 17.9396 20.0205 18.2315L14.0431 24.2089C13.7513 24.5007 13.7513 24.9735 14.0431 25.2654C14.1891 25.4113 14.3801 25.4843 14.5714 25.4843Z" fill="#ADDCFF"/>
<path d="M10.7822 36.7942C10.7822 37.2071 11.1165 37.5414 11.5295 37.5414H17.5074C17.9204 37.5414 18.2547 37.2071 18.2547 36.7942V35.748H10.7822V36.7942Z" fill="#ADDCFF"/>
<path d="M17.5074 32.459H11.5295C11.1165 32.459 10.7822 32.7933 10.7822 33.2062V34.2524H18.2547V33.2062C18.2547 32.7933 17.9204 32.459 17.5074 32.459Z" fill="#ADDCFF"/>
<path d="M19.7988 36.7942C19.7988 37.2071 20.1331 37.5414 20.5461 37.5414H26.524C26.937 37.5414 27.2713 37.2071 27.2713 36.7942V35.748H19.7988V36.7942Z" fill="#ADDCFF"/>
<path d="M28.8242 32.459H36.2967V34.2524H28.8242V32.459Z" fill="#ADDCFF"/>
<path d="M35.5494 22.5957H29.5715C29.1585 22.5957 28.8242 22.93 28.8242 23.3429V24.3891H36.2967V23.3429C36.2967 22.93 35.9624 22.5957 35.5494 22.5957Z" fill="#ADDCFF"/>
<path d="M28.8242 25.8848H36.2967V27.6782H28.8242V25.8848Z" fill="#ADDCFF"/>
<path d="M28.8242 29.1719H36.2967V30.9653H28.8242V29.1719Z" fill="#ADDCFF"/>
<path d="M28.8242 36.7942C28.8242 37.2071 29.1585 37.5414 29.5715 37.5414H35.5494C35.9624 37.5414 36.2967 37.2071 36.2967 36.7942V35.748H28.8242V36.7942Z" fill="#ADDCFF"/>
<path d="M19.7988 32.459H27.2713V34.2524H19.7988V32.459Z" fill="#ADDCFF"/>
<path d="M26.524 29.1719H20.5461C20.1331 29.1719 19.7988 29.5062 19.7988 29.9191V30.9653H27.2713V29.9191C27.2713 29.5062 26.937 29.1719 26.524 29.1719Z" fill="#ADDCFF"/>
</g>
<defs>
<clipPath id="clip0_791_29151">
<rect width="25.5036" height="25.5036" fill="white" transform="translate(10.7803 12.0352)"/>
</clipPath>
</defs>
</svg>
