<svg width="50" height="49" viewBox="0 0 50 49" fill="none" xmlns="http://www.w3.org/2000/svg">
<ellipse cx="24.7224" cy="24.4116" rx="24.4334" ry="24.3784" fill="#0F5B92"/>
<path d="M33.5306 16.5757L29.063 14.9363V26.723C29.0022 26.6803 28.9326 26.6518 28.8593 26.6397C28.7861 26.6277 28.711 26.6323 28.6398 26.6534L27.9916 26.857V14.8934L22.6347 16.2328V28.3678L21.5634 28.6678V16.1739L17.4493 14.8023C17.3687 14.7758 17.283 14.7687 17.1992 14.7818C17.1154 14.7948 17.0359 14.8276 16.9672 14.8773C16.8979 14.9266 16.8414 14.9917 16.8023 15.0672C16.7632 15.1426 16.7426 15.2263 16.7422 15.3113V29.6161C16.7422 29.7262 16.7762 29.8337 16.8395 29.9238C16.9027 30.0139 16.9922 30.0823 17.0957 30.1198L21.5634 31.7592V30.5109L22.6347 30.8912L22.849 30.9663L22.7687 31.7699L22.5812 33.7094C22.5724 33.8217 22.5992 33.9339 22.6579 34.0301C22.7166 34.1263 22.8041 34.2015 22.9079 34.2451C22.9734 34.2752 23.0449 34.2898 23.1169 34.288C23.1938 34.2886 23.27 34.2727 23.3403 34.2413C23.4105 34.2099 23.4732 34.1636 23.524 34.1058L26.3095 30.8912L27.5202 29.4876L27.9916 28.9518L29.063 27.7088V30.543L33.177 31.9199C33.2339 31.9276 33.2916 31.9276 33.3485 31.9199C33.4605 31.9215 33.5698 31.8857 33.6592 31.8181C33.7284 31.7688 33.7849 31.7037 33.824 31.6283C33.8631 31.5528 33.8837 31.4691 33.8841 31.3841V17.0793C33.8841 16.9692 33.8501 16.8618 33.7869 16.7717C33.7236 16.6816 33.6341 16.6131 33.5306 16.5757ZM23.8882 31.1591C23.8882 31.127 23.8882 31.0948 23.8882 31.0627L23.9311 30.6555C23.9379 30.54 23.9072 30.4254 23.8434 30.3288C23.7797 30.2322 23.6864 30.1589 23.5775 30.1198L22.6347 29.7769L22.3133 29.659C22.2786 29.6451 22.2428 29.6344 22.2062 29.6269H22.2812H22.324L22.6347 29.5411L27.2148 28.1696L25.6667 29.9912C25.6372 30.0171 25.6103 30.0458 25.5864 30.0769L23.8132 32.1342L23.8882 31.1591Z" fill="#ADDCFF"/>
</svg>
