<svg width="15" height="15" viewBox="0 0 15 15" fill="none" xmlns="http://www.w3.org/2000/svg">
<path d="M15 4.28571V2.67857C15 2.25233 14.8307 1.84355 14.5293 1.54215C14.2279 1.24075 13.8191 1.07143 13.3929 1.07143H11.25V0.535714C11.25 0.393634 11.1936 0.257373 11.0931 0.156907C10.9926 0.0564411 10.8564 0 10.7143 0C10.5722 0 10.4359 0.0564411 10.3355 0.156907C10.235 0.257373 10.1786 0.393634 10.1786 0.535714V1.07143H4.82143V0.535714C4.82143 0.393634 4.76499 0.257373 4.66452 0.156907C4.56406 0.0564411 4.42779 0 4.28571 0C4.14363 0 4.00737 0.0564411 3.90691 0.156907C3.80644 0.257373 3.75 0.393634 3.75 0.535714V1.07143H1.60714C1.1809 1.07143 0.772119 1.24075 0.470721 1.54215C0.169324 1.84355 0 2.25233 0 2.67857V4.28571H15Z" fill="#ADDCFF"/>
<path d="M0 5.35742V13.3931C0 13.8194 0.169324 14.2282 0.470721 14.5296C0.772119 14.831 1.1809 15.0003 1.60714 15.0003H13.3929C13.8191 15.0003 14.2279 14.831 14.5293 14.5296C14.8307 14.2282 15 13.8194 15 13.3931V5.35742H0ZM10.5268 8.4426L6.77678 11.6569C6.67428 11.7445 6.5425 11.7903 6.40774 11.785C6.27299 11.7798 6.14517 11.7239 6.04982 11.6285L4.44268 10.0213C4.34509 9.92031 4.2911 9.78499 4.29232 9.64453C4.29354 9.50407 4.34988 9.3697 4.4492 9.27038C4.54853 9.17105 4.68289 9.11471 4.82336 9.11349C4.96382 9.11227 5.09914 9.16627 5.20018 9.26385L6.45696 10.5206L9.83196 7.62778C9.88508 7.5799 9.94725 7.54315 10.0148 7.51967C10.0823 7.4962 10.1539 7.48649 10.2253 7.49111C10.2966 7.49574 10.3663 7.5146 10.4303 7.54659C10.4942 7.57858 10.5511 7.62305 10.5976 7.67738C10.6441 7.73171 10.6793 7.7948 10.701 7.86292C10.7227 7.93105 10.7306 8.00284 10.7242 8.07406C10.7177 8.14527 10.6971 8.21448 10.6634 8.27759C10.6298 8.3407 10.5839 8.39644 10.5284 8.44153L10.5268 8.4426Z" fill="#ADDCFF"/>
<rect x="2.47461" y="7.42188" width="9.89691" height="4.94845" fill="#ADDCFF"/>
<path d="M8.60555 7.34171C9.03505 7.61101 9.33622 8.06671 9.39106 8.59567C9.56622 8.67752 9.76062 8.72458 9.96674 8.72458C10.7192 8.72458 11.3291 8.1147 11.3291 7.36235C11.3291 6.60988 10.7192 6 9.96674 6C9.22146 6.00023 8.61691 6.59922 8.60555 7.34171ZM7.71304 10.1311C8.46551 10.1311 9.07539 9.5211 9.07539 8.76875C9.07539 8.0164 8.4654 7.40652 7.71304 7.40652C6.96069 7.40652 6.35046 8.01651 6.35046 8.76887C6.35046 9.52122 6.96069 10.1311 7.71304 10.1311ZM8.29093 10.224H7.13493C6.1731 10.224 5.3906 11.0066 5.3906 11.9684V13.3821L5.3942 13.4042L5.49157 13.4347C6.40947 13.7215 7.20691 13.8172 7.86328 13.8172C9.1453 13.8172 9.88837 13.4517 9.93416 13.4284L10.0252 13.3823H10.0349V11.9684C10.0353 11.0066 9.25276 10.224 8.29093 10.224ZM10.5449 8.81755H9.39778C9.38538 9.2765 9.18946 9.68977 8.8796 9.987C9.73454 10.2412 10.3601 11.034 10.3601 11.9705V12.4061C11.4927 12.3646 12.1453 12.0436 12.1883 12.0221L12.2793 11.9759H12.2891V10.5618C12.2891 9.60005 11.5066 8.81755 10.5449 8.81755ZM5.32256 8.72481C5.58907 8.72481 5.83703 8.64703 6.04709 8.51453C6.11386 8.079 6.34733 7.69842 6.68085 7.43921C6.68224 7.4137 6.68467 7.38843 6.68467 7.3627C6.68467 6.61023 6.07468 6.00035 5.32256 6.00035C4.56997 6.00035 3.96021 6.61023 3.96021 7.3627C3.96021 8.11482 4.56997 8.72481 5.32256 8.72481ZM6.54603 9.987C6.23767 9.69128 6.04245 9.28021 6.02819 8.82405C5.98565 8.82092 5.94357 8.81755 5.90021 8.81755H4.74432C3.78249 8.81755 3 9.60005 3 10.5618V11.9757L3.00359 11.9975L3.10097 12.0282C3.83733 12.2581 4.4945 12.364 5.06532 12.3974V11.9705C5.06555 11.034 5.69085 10.2415 6.54603 9.987Z" fill="#021B32"/>
</svg>
