<svg width="50" height="50" viewBox="0 0 50 50" fill="none" xmlns="http://www.w3.org/2000/svg">
<ellipse cx="25.3787" cy="25.1607" rx="24.4334" ry="24.3784" fill="#0F5B92"/>
<g clip-path="url(#clip0_448_1354)">
<path d="M33.2281 17.4292C32.2194 16.3449 30.8059 15.728 29.3249 15.7257C27.8428 15.7274 26.4277 16.344 25.4174 17.4285L25.0731 17.7924L24.7288 17.4285C22.724 15.2709 19.3497 15.1469 17.1921 17.1517C17.0965 17.2406 17.0042 17.3329 16.9153 17.4285C14.7887 19.7224 14.7887 23.2674 16.9153 25.5612L24.5671 33.6306C24.8318 33.91 25.273 33.922 25.5525 33.6573C25.5616 33.6486 25.5705 33.6397 25.5792 33.6306L33.2282 25.5612C35.3547 23.2676 35.3547 19.7228 33.2281 17.4292ZM32.2196 24.6014H32.2189L25.0731 32.1382L17.9267 24.6014C16.302 22.8487 16.302 20.1403 17.9267 18.3876C19.402 16.7885 21.8944 16.6883 23.4935 18.1636C23.5711 18.2353 23.6458 18.31 23.7175 18.3876L24.5671 19.284C24.8471 19.5622 25.2992 19.5622 25.5792 19.284L26.4288 18.3883C27.9042 16.7892 30.3966 16.689 31.9956 18.1643C32.0733 18.236 32.148 18.3107 32.2196 18.3883C33.8584 20.1438 33.8704 22.8572 32.2196 24.6014Z" fill="#ADDCFF"/>
</g>
<defs>
<clipPath id="clip0_448_1354">
<rect width="19.5027" height="19.5027" fill="white" transform="translate(15.3203 15.0352)"/>
</clipPath>
</defs>
</svg>
