<svg width="31" height="25" viewBox="0 0 31 25" fill="none" xmlns="http://www.w3.org/2000/svg">
<path d="M28.1939 0.523438H2.37989C1.29814 0.523438 0.417969 1.43874 0.417969 2.56366V22.9546C0.417969 24.0797 1.29814 24.9948 2.37989 24.9948H28.1939C29.2756 24.9948 30.1558 24.0797 30.1558 22.9546V2.56366C30.1558 1.43874 29.2758 0.523438 28.1939 0.523438ZM2.37989 2.2722H28.1939C28.3458 2.2722 28.4742 2.40569 28.4742 2.56366V16.1427L23.9777 10.1416C23.644 9.69641 23.1557 9.42955 22.6377 9.40973C22.1199 9.38956 21.614 9.61853 21.2496 10.0372L15.4155 16.7422C15.2751 16.9035 14.9634 16.9481 14.7862 16.8322L9.98921 13.6907C9.16722 13.1522 7.96417 13.2077 7.19118 13.8195L2.09961 17.8492V2.56366C2.09961 2.40569 2.22798 2.2722 2.37989 2.2722ZM28.1939 23.2461H2.37989C2.22798 23.2461 2.09961 23.1126 2.09961 22.9546V20.0468L8.20969 15.2111C8.42192 15.0432 8.86778 15.0227 9.09323 15.1704L13.8902 18.3119C14.7572 18.8798 15.975 18.7056 16.6625 17.9155L22.4966 11.2105C22.5316 11.1703 22.5566 11.158 22.576 11.1572C22.5907 11.1578 22.6191 11.1737 22.6512 11.2164L28.4742 18.9877V22.9545C28.4742 23.1126 28.3458 23.2461 28.1939 23.2461Z" fill="#7F888C"/>
<path d="M12.8438 12.3629C14.4863 12.3629 15.8224 10.9734 15.8224 9.26544C15.8224 7.55743 14.4862 6.16797 12.8438 6.16797C11.2014 6.16797 9.86523 7.55755 9.86523 9.26544C9.86523 10.9733 11.2014 12.3629 12.8438 12.3629ZM12.8438 7.91678C13.5589 7.91678 14.1406 8.52168 14.1406 9.26532C14.1406 10.009 13.5589 10.6139 12.8438 10.6139C12.1287 10.6139 11.547 10.009 11.547 9.26532C11.547 8.52179 12.1287 7.91678 12.8438 7.91678Z" fill="#7F888C"/>
</svg>
