<svg width="50" height="49" viewBox="0 0 50 49" fill="none" xmlns="http://www.w3.org/2000/svg">
<ellipse cx="24.8318" cy="24.4116" rx="24.4334" ry="24.3784" fill="#0F5B92"/>
<g clip-path="url(#clip0_448_1366)">
<path d="M27.2078 17.5843L28.5281 16.2973C28.6222 16.2057 28.6887 16.0896 28.7202 15.9622C28.7517 15.8347 28.7469 15.701 28.7064 15.5761C28.6658 15.4513 28.5911 15.3403 28.4907 15.2557C28.3903 15.1711 28.2683 15.1162 28.1384 15.0974L26.3132 14.8323L25.4973 13.1784C25.4325 13.0687 25.3403 12.9778 25.2296 12.9147C25.119 12.8516 24.9938 12.8184 24.8664 12.8184C24.7391 12.8184 24.6139 12.8516 24.5033 12.9147C24.3926 12.9778 24.3004 13.0687 24.2356 13.1784L23.4198 14.8323L21.5946 15.0973C21.4647 15.1162 21.3426 15.171 21.2422 15.2556C21.1418 15.3402 21.0672 15.4512 21.0266 15.5761C20.986 15.7009 20.9812 15.8347 21.0127 15.9621C21.0442 16.0895 21.1108 16.2056 21.2048 16.2972L22.5252 17.5842L22.2133 19.4022C22.1911 19.5315 22.2056 19.6645 22.255 19.7861C22.3045 19.9077 22.387 20.013 22.4932 20.0902C22.5993 20.1673 22.725 20.2132 22.8559 20.2227C22.9869 20.2321 23.1178 20.2047 23.234 20.1436L24.8664 19.2852L26.499 20.1437C26.6151 20.2048 26.7461 20.2322 26.877 20.2227C27.0079 20.2133 27.1336 20.1674 27.2398 20.0903C27.346 20.0131 27.4285 19.9078 27.4779 19.7862C27.5274 19.6646 27.5418 19.5316 27.5196 19.4022L27.2078 17.5843Z" fill="#ADDCFF"/>
<path d="M36.081 17.6554C36.0405 17.5306 35.9657 17.4196 35.8654 17.335C35.765 17.2504 35.643 17.1956 35.5131 17.1767L33.6882 16.9115L32.8716 15.2578C32.8069 15.148 32.7147 15.0571 32.6041 14.9939C32.4935 14.9307 32.3683 14.8975 32.2409 14.8975C32.1135 14.8975 31.9883 14.9307 31.8777 14.9939C31.7671 15.0571 31.6749 15.148 31.6102 15.2578L30.7944 16.9115L28.9696 17.1767C28.8397 17.1955 28.7177 17.2503 28.6173 17.3349C28.517 17.4194 28.4423 17.5304 28.4017 17.6552C28.3611 17.78 28.3562 17.9137 28.3876 18.0411C28.4191 18.1685 28.4855 18.2846 28.5795 18.3762L29.9002 19.6632L29.5883 21.4812C29.5661 21.6106 29.5805 21.7436 29.6299 21.8652C29.6793 21.9868 29.7617 22.0921 29.8679 22.1693C29.974 22.2464 30.0997 22.2924 30.2306 22.3019C30.3615 22.3114 30.4924 22.284 30.6086 22.223L32.2408 21.365L33.8733 22.223C33.9895 22.2841 34.1205 22.3115 34.2514 22.3021C34.3823 22.2926 34.508 22.2467 34.6142 22.1696C34.7204 22.0925 34.8028 21.9871 34.8523 21.8655C34.9017 21.744 34.9162 21.611 34.894 21.4816L34.5822 19.6636L35.9026 18.3766C35.9967 18.285 36.0633 18.1689 36.0948 18.0415C36.1264 17.914 36.1216 17.7803 36.081 17.6554Z" fill="#ADDCFF"/>
<path d="M20.7631 17.1752L18.9383 16.9101L18.1224 15.2563C18.0644 15.1386 17.9745 15.0395 17.8631 14.9703C17.7516 14.901 17.623 14.8643 17.4918 14.8643C17.3605 14.8643 17.2319 14.901 17.1205 14.9703C17.009 15.0395 16.9192 15.1386 16.8611 15.2563L16.0444 16.9101L14.2195 17.1752C14.0896 17.1941 13.9676 17.2489 13.8672 17.3335C13.7668 17.4181 13.6922 17.5291 13.6516 17.654C13.611 17.7788 13.6062 17.9125 13.6377 18.0399C13.6692 18.1674 13.7357 18.2835 13.8298 18.3751L15.1504 19.6621L14.8386 21.4802C14.8164 21.6095 14.8308 21.7425 14.8802 21.8641C14.9297 21.9857 15.0122 22.091 15.1184 22.1682C15.2246 22.2453 15.3502 22.2912 15.4812 22.3006C15.6121 22.3101 15.743 22.2827 15.8592 22.2216L17.4917 21.3635L19.1239 22.2216C19.2401 22.2827 19.371 22.3101 19.502 22.3006C19.6329 22.2912 19.7585 22.2453 19.8647 22.1682C19.9709 22.091 20.0534 21.9857 20.1029 21.8641C20.1523 21.7425 20.1667 21.6095 20.1445 21.4802L19.8327 19.6621L21.1534 18.3751C21.2474 18.2835 21.3138 18.1674 21.3452 18.04C21.3767 17.9126 21.3718 17.7789 21.3312 17.6541C21.2906 17.5293 21.2159 17.4183 21.1156 17.3338C21.0152 17.2492 20.893 17.1941 20.7631 17.1752Z" fill="#ADDCFF"/>
<path d="M31.8929 23.335H17.8284C17.2691 23.3356 16.7328 23.558 16.3373 23.9535C15.9418 24.3491 15.7194 24.8853 15.7188 25.4446V31.0704C15.7194 31.6298 15.9418 32.166 16.3373 32.5615C16.7328 32.957 17.2691 33.1795 17.8284 33.1801H22.4598L24.3635 35.0837C24.4288 35.149 24.5063 35.2009 24.5916 35.2362C24.6769 35.2716 24.7683 35.2898 24.8607 35.2898C24.953 35.2898 25.0444 35.2716 25.1298 35.2362C25.2151 35.2009 25.2926 35.149 25.3578 35.0837L27.2615 33.1801H31.8929C32.4522 33.1795 32.9885 32.957 33.384 32.5615C33.7795 32.166 34.002 31.6298 34.0026 31.0704V25.4446C34.002 24.8853 33.7795 24.3491 33.384 23.9535C32.9885 23.558 32.4522 23.3356 31.8929 23.335ZM30.4865 30.3672H19.2349C19.0484 30.3672 18.8695 30.2931 18.7376 30.1612C18.6057 30.0293 18.5316 29.8505 18.5316 29.664C18.5316 29.4775 18.6057 29.2986 18.7376 29.1667C18.8695 29.0348 19.0484 28.9608 19.2349 28.9608H30.4865C30.673 28.9608 30.8518 29.0348 30.9837 29.1667C31.1156 29.2986 31.1897 29.4775 31.1897 29.664C31.1897 29.8505 31.1156 30.0293 30.9837 30.1612C30.8518 30.2931 30.673 30.3672 30.4865 30.3672ZM30.4865 27.5543H19.2349C19.0484 27.5543 18.8695 27.4802 18.7376 27.3483C18.6057 27.2165 18.5316 27.0376 18.5316 26.8511C18.5316 26.6646 18.6057 26.4857 18.7376 26.3538C18.8695 26.2219 19.0484 26.1479 19.2349 26.1479H30.4865C30.673 26.1479 30.8518 26.2219 30.9837 26.3538C31.1156 26.4857 31.1897 26.6646 31.1897 26.8511C31.1897 27.0376 31.1156 27.2165 30.9837 27.3483C30.8518 27.4802 30.673 27.5543 30.4865 27.5543Z" fill="#ADDCFF"/>
</g>
<defs>
<clipPath id="clip0_448_1366">
<rect width="22.5032" height="22.5032" fill="white" transform="translate(13.625 12.7852)"/>
</clipPath>
</defs>
</svg>
