<svg width="15" height="15" viewBox="0 0 15 15" fill="none" xmlns="http://www.w3.org/2000/svg">
<g clip-path="url(#clip0_3393_1399)">
<path d="M7.5 0.00195312C4.39875 0.00195312 1.875 2.5432 1.875 5.66758C1.875 10.107 6.97125 14.6907 7.18813 14.8832C7.2775 14.9626 7.38875 15.002 7.5 15.002C7.61125 15.002 7.7225 14.9626 7.81187 14.8838C8.02875 14.6907 13.125 10.107 13.125 5.66758C13.125 2.5432 10.6012 0.00195312 7.5 0.00195312ZM7.5 8.75195C5.77688 8.75195 4.375 7.35008 4.375 5.62695C4.375 3.90383 5.77688 2.50195 7.5 2.50195C9.22312 2.50195 10.625 3.90383 10.625 5.62695C10.625 7.35008 9.22312 8.75195 7.5 8.75195Z" fill="#ADDCFF"/>
</g>
<defs>
<clipPath id="clip0_3393_1399">
<rect width="15" height="15" fill="white" transform="translate(0 0.00195312)"/>
</clipPath>
</defs>
</svg>
