<svg width="16" height="16" viewBox="0 0 16 16" fill="none" xmlns="http://www.w3.org/2000/svg">
<g clip-path="url(#clip0_1677_1695)">
<path fill-rule="evenodd" clip-rule="evenodd" d="M12.3362 9.44558C12.4086 9.16139 12.6978 8.98977 12.982 9.06227C13.2662 9.13473 13.4378 9.42389 13.3653 9.70811C13.0544 10.9187 12.3452 11.9712 11.3883 12.7146C10.5823 13.3409 9.6006 13.7504 8.53288 13.8536V14.9353H10.9433C11.2378 14.9353 11.4766 15.1741 11.4766 15.4686C11.4766 15.7632 11.2378 16.002 10.9433 16.002H5.05588C4.76134 16.002 4.52256 15.7632 4.52256 15.4686C4.52256 15.1741 4.76134 14.9353 5.05588 14.9353H7.46625V13.8536C6.39853 13.7504 5.41688 13.3409 4.61081 12.7146C3.65397 11.9712 2.94466 10.9187 2.63378 9.70811C2.56131 9.42392 2.73294 9.13473 3.01713 9.06227C3.30131 8.98977 3.59047 9.16139 3.66297 9.44558C3.913 10.4192 4.48781 11.2691 5.265 11.873C6.02225 12.4613 6.97181 12.8126 7.99956 12.8126C9.02731 12.8126 9.97688 12.4613 10.7342 11.873C11.5113 11.2692 12.0862 10.4192 12.3362 9.44558ZM7.81972 0.00195313C6.21938 0.00195313 4.90509 1.28889 4.86047 2.87895H6.17859C6.47316 2.87895 6.71194 3.11773 6.71194 3.41227C6.71194 3.7068 6.47316 3.94561 6.17859 3.94561H4.85919V5.20717H6.17859C6.47316 5.20717 6.71194 5.44595 6.71194 5.74048C6.71194 6.03505 6.47316 6.27383 6.17859 6.27383H4.85919V7.53539H6.17859C6.47316 7.53539 6.71194 7.77417 6.71194 8.06873C6.71194 8.3633 6.47316 8.60205 6.17859 8.60205H4.86047C4.90509 10.1921 6.21938 11.479 7.81972 11.479H8.17938C9.77972 11.479 11.094 10.1921 11.1386 8.60205H9.8205C9.52594 8.60205 9.28716 8.36327 9.28716 8.06873C9.28716 7.7742 9.52594 7.53539 9.8205 7.53539H11.1399V6.27383H9.8205C9.52594 6.27383 9.28716 6.03505 9.28716 5.74048C9.28716 5.44595 9.52594 5.20717 9.8205 5.20717H11.1399V3.94561H9.8205C9.52594 3.94561 9.28716 3.70683 9.28716 3.41227C9.28716 3.1177 9.52594 2.87895 9.8205 2.87895H11.1387C11.094 1.28889 9.77972 0.00195312 8.17938 0.00195312L7.81972 0.00195313Z" fill="#ADDCFF"/>
</g>
<defs>
<clipPath id="clip0_1677_1695">
<rect width="16" height="16" fill="white" transform="translate(0 0.00195312)"/>
</clipPath>
</defs>
</svg>
