<svg width="14" height="15" viewBox="0 0 14 15" fill="none" xmlns="http://www.w3.org/2000/svg">
<path d="M6.74314 0.759766C3.01508 0.759766 -0.0078125 3.78207 -0.0078125 7.51042C-0.0078125 11.2388 3.01478 14.2611 6.74314 14.2611C10.4718 14.2611 13.4941 11.2388 13.4941 7.51042C13.4941 3.78207 10.4718 0.759766 6.74314 0.759766ZM6.74314 2.77829C7.97673 2.77829 8.97635 3.77821 8.97635 5.01121C8.97635 6.2445 7.97673 7.24413 6.74314 7.24413C5.51014 7.24413 4.51051 6.2445 4.51051 5.01121C4.51051 3.77821 5.51014 2.77829 6.74314 2.77829ZM6.74165 12.4961C5.51132 12.4961 4.38449 12.048 3.51534 11.3064C3.30361 11.1258 3.18144 10.861 3.18144 10.5831C3.18144 9.33263 4.19352 8.33182 5.44431 8.33182H8.04256C9.29365 8.33182 10.3019 9.33263 10.3019 10.5831C10.3019 10.8613 10.1803 11.1255 9.96827 11.3061C9.09941 12.048 7.97228 12.4961 6.74165 12.4961Z" fill="#ADDCFF"/>
</svg>
