<svg width="15" height="15" viewBox="0 0 15 15" fill="none" xmlns="http://www.w3.org/2000/svg">
<path d="M5.77935 9.65889L5.54921 11.0258C5.51784 11.2127 5.59452 11.401 5.7475 11.5125C5.90073 11.6238 6.1042 11.6387 6.27161 11.551L7.50057 10.9095L8.72953 11.5511C8.80223 11.5889 8.88191 11.6078 8.96075 11.6078C9.06399 11.6078 9.16698 11.5755 9.25387 11.5127C9.40698 11.4011 9.48389 11.2128 9.45229 11.0259L9.22238 9.65901L10.2119 8.68831C10.3473 8.55576 10.3955 8.35794 10.3374 8.17791C10.2791 7.998 10.1231 7.86628 9.93589 7.83864L8.56464 7.6353L7.94704 6.39396C7.86327 6.22451 7.68973 6.11719 7.50045 6.11719C7.31152 6.11719 7.1381 6.22451 7.05362 6.39396L6.43662 7.6353L5.06536 7.83852C4.87776 7.86616 4.72249 7.99788 4.66408 8.17779C4.60568 8.35782 4.65375 8.55588 4.78931 8.68819L5.77935 9.65889Z" fill="#ADDCFF"/>
<path d="M13.3939 1.59662H11.8238V0.725676C11.8238 0.325958 11.4998 0.00195312 11.1 0.00195312H10.9852C10.5855 0.00195312 10.2616 0.325958 10.2616 0.725676V1.59662H4.72165V0.725676C4.72165 0.325958 4.39765 0.00195312 3.99805 0.00195312H3.88316C3.48344 0.00195312 3.15955 0.325958 3.15955 0.725676V1.59662H1.60767C0.786484 1.59662 0.118164 2.2647 0.118164 3.08613V13.5126C0.118164 14.3335 0.786484 15.0021 1.60767 15.0021H13.3941C14.2151 15.0021 14.8836 14.3336 14.8836 13.5126V3.08613C14.8835 2.2647 14.215 1.59662 13.3939 1.59662ZM13.1996 13.3182H1.802V5.20189H13.1996V13.3182Z" fill="#ADDCFF"/>
</svg>
