<svg width="14" height="15" viewBox="0 0 14 15" fill="none" xmlns="http://www.w3.org/2000/svg">
<g clip-path="url(#clip0_120_467)">
<path d="M8.4564 3.50775L9.27777 2.70713C9.33628 2.65015 9.37767 2.57794 9.39727 2.49866C9.41686 2.41938 9.41388 2.33619 9.38865 2.25852C9.36341 2.18085 9.31695 2.11179 9.2545 2.05916C9.19206 2.00653 9.11613 1.97243 9.03531 1.96071L7.8999 1.79582L7.39236 0.766948C7.35206 0.698723 7.29467 0.642182 7.22585 0.602904C7.15703 0.563627 7.07916 0.542969 6.99992 0.542969C6.92068 0.542969 6.84281 0.563627 6.774 0.602904C6.70518 0.642182 6.64779 0.698723 6.60749 0.766948L6.09999 1.79577L4.96459 1.96067C4.88376 1.97238 4.80783 2.00648 4.74539 2.05912C4.68294 2.11175 4.63648 2.18081 4.61125 2.25848C4.58602 2.33615 4.58303 2.41933 4.60262 2.49862C4.62222 2.5779 4.66361 2.65011 4.72212 2.70709L5.54349 3.50771L5.3495 4.6386C5.33568 4.71908 5.34466 4.80182 5.37542 4.87745C5.40618 4.95309 5.4575 5.01861 5.52356 5.0666C5.58962 5.11459 5.66779 5.14313 5.74924 5.149C5.83068 5.15487 5.91214 5.13784 5.9844 5.09982L6.99992 4.5658L8.01549 5.09986C8.08775 5.13788 8.16921 5.15492 8.25065 5.14905C8.3321 5.14318 8.41027 5.11463 8.47633 5.06664C8.54239 5.01865 8.59371 4.95313 8.62447 4.8775C8.65523 4.80186 8.66421 4.71912 8.65039 4.63865L8.4564 3.50775Z" fill="#ADDCFF"/>
<path d="M13.9783 3.55159C13.953 3.47394 13.9066 3.4049 13.8441 3.35227C13.7817 3.29964 13.7058 3.26553 13.625 3.25379L12.4897 3.08885L11.9818 2.06007C11.9415 1.99181 11.8842 1.93523 11.8154 1.89592C11.7465 1.85661 11.6687 1.83594 11.5894 1.83594C11.5102 1.83594 11.4323 1.85661 11.3635 1.89592C11.2947 1.93523 11.2374 1.99181 11.1971 2.06007L10.6896 3.08885L9.55442 3.25379C9.47363 3.2655 9.39772 3.29959 9.33529 3.35219C9.27286 3.40479 9.22639 3.47382 9.20114 3.55145C9.17589 3.62909 9.17287 3.71225 9.19241 3.79151C9.21196 3.87078 9.25329 3.94299 9.31174 3.99999L10.1333 4.80061L9.93934 5.93155C9.9255 6.01201 9.93445 6.09474 9.96519 6.17038C9.99592 6.24602 10.0472 6.31155 10.1132 6.35956C10.1793 6.40757 10.2574 6.43614 10.3389 6.44205C10.4203 6.44796 10.5017 6.43096 10.574 6.39298L11.5894 5.85923L12.6049 6.39298C12.6772 6.431 12.7587 6.44804 12.8401 6.44217C12.9215 6.4363 12.9997 6.40775 13.0658 6.35976C13.1318 6.31177 13.1832 6.24626 13.2139 6.17062C13.2447 6.09498 13.2537 6.01225 13.2398 5.93177L13.0459 4.80083L13.8673 4.00021C13.9258 3.94324 13.9672 3.87104 13.9869 3.79175C14.0065 3.71247 14.0035 3.62928 13.9783 3.55159Z" fill="#ADDCFF"/>
<path d="M4.44529 3.25401L3.31011 3.08908L2.80261 2.0603C2.76648 1.98709 2.71059 1.92545 2.64126 1.88235C2.57193 1.83925 2.49192 1.81641 2.41028 1.81641C2.32864 1.81641 2.24864 1.83925 2.1793 1.88235C2.10997 1.92545 2.05408 1.98709 2.01795 2.0603L1.50993 3.08908L0.374703 3.25401C0.29389 3.26574 0.21797 3.29984 0.155533 3.35247C0.0930956 3.4051 0.046634 3.47415 0.0214047 3.55181C-0.00382464 3.62948 -0.00681469 3.71265 0.0127729 3.79193C0.0323604 3.8712 0.0737437 3.94341 0.13224 4.00039L0.953778 4.80106L0.75979 5.932C0.745974 6.01247 0.754953 6.09521 0.785714 6.17085C0.816475 6.24648 0.867788 6.312 0.93385 6.35999C0.999913 6.40798 1.07809 6.43653 1.15953 6.4424C1.24097 6.44827 1.32243 6.43123 1.39469 6.39321L2.41026 5.85946L3.42561 6.39321C3.49787 6.43123 3.57933 6.44827 3.66077 6.4424C3.74221 6.43653 3.82039 6.40798 3.88645 6.35999C3.95251 6.312 4.00382 6.24648 4.03459 6.17085C4.06535 6.09521 4.07433 6.01247 4.06051 5.932L3.86652 4.80106L4.6881 4.00043C4.74655 3.94344 4.78789 3.87122 4.80743 3.79196C4.82698 3.71269 4.82396 3.62954 4.79871 3.5519C4.77346 3.47426 4.72699 3.40524 4.66456 3.35263C4.60212 3.30003 4.52609 3.26573 4.44529 3.25401Z" fill="#ADDCFF"/>
<path d="M11.375 7.08594H2.625C2.27702 7.08632 1.9434 7.22472 1.69734 7.47078C1.45129 7.71684 1.31288 8.05046 1.3125 8.39844V11.8984C1.31288 12.2464 1.45129 12.58 1.69734 12.8261C1.9434 13.0722 2.27702 13.2106 2.625 13.2109H5.50633L6.69069 14.3953C6.7313 14.4359 6.77952 14.4681 6.83259 14.4901C6.88566 14.5121 6.94255 14.5234 7 14.5234C7.05745 14.5234 7.11434 14.5121 7.16741 14.4901C7.22048 14.4681 7.2687 14.4359 7.30931 14.3953L8.49367 13.2109H11.375C11.723 13.2106 12.0566 13.0722 12.3027 12.8261C12.5487 12.58 12.6871 12.2464 12.6875 11.8984V8.39844C12.6871 8.05046 12.5487 7.71684 12.3027 7.47078C12.0566 7.22472 11.723 7.08632 11.375 7.08594ZM10.5 11.4609H3.5C3.38397 11.4609 3.27269 11.4148 3.19064 11.3328C3.10859 11.2508 3.0625 11.1395 3.0625 11.0234C3.0625 10.9074 3.10859 10.7961 3.19064 10.7141C3.27269 10.632 3.38397 10.5859 3.5 10.5859H10.5C10.616 10.5859 10.7273 10.632 10.8094 10.7141C10.8914 10.7961 10.9375 10.9074 10.9375 11.0234C10.9375 11.1395 10.8914 11.2508 10.8094 11.3328C10.7273 11.4148 10.616 11.4609 10.5 11.4609ZM10.5 9.71094H3.5C3.38397 9.71094 3.27269 9.66484 3.19064 9.5828C3.10859 9.50075 3.0625 9.38947 3.0625 9.27344C3.0625 9.15741 3.10859 9.04613 3.19064 8.96408C3.27269 8.88203 3.38397 8.83594 3.5 8.83594H10.5C10.616 8.83594 10.7273 8.88203 10.8094 8.96408C10.8914 9.04613 10.9375 9.15741 10.9375 9.27344C10.9375 9.38947 10.8914 9.50075 10.8094 9.5828C10.7273 9.66484 10.616 9.71094 10.5 9.71094Z" fill="#ADDCFF"/>
</g>
<defs>
<clipPath id="clip0_120_467">
<rect width="14" height="14" fill="white" transform="translate(0 0.523438)"/>
</clipPath>
</defs>
</svg>
