<svg width="15" height="15" viewBox="0 0 15 15" fill="none" xmlns="http://www.w3.org/2000/svg">
<g clip-path="url(#clip0_3394_1492)">
<path d="M2.34375 1.96602V5.8332C2.34498 7.43741 2.73238 9.01775 3.47321 10.4407C4.21403 11.8636 5.28651 13.0872 6.6 14.0082C6.86435 14.1915 7.17834 14.2897 7.5 14.2897C7.82166 14.2897 8.13565 14.1915 8.4 14.0082C9.71349 13.0872 10.786 11.8636 11.5268 10.4407C12.2676 9.01775 12.655 7.43741 12.6562 5.8332V1.96602C12.6562 1.56943 12.4987 1.1891 12.2183 0.90867C11.9379 0.628245 11.5575 0.470703 11.1609 0.470703H3.83906C3.44248 0.470703 3.06214 0.628245 2.78172 0.90867C2.50129 1.1891 2.34375 1.56943 2.34375 1.96602ZM5.55469 5.86602C5.64251 5.77871 5.76132 5.72971 5.88516 5.72971C6.00899 5.72971 6.1278 5.77871 6.21563 5.86602L6.74531 6.42383C6.77957 6.45789 6.82591 6.47701 6.87422 6.47701C6.92253 6.47701 6.96887 6.45789 7.00312 6.42383L9.09844 4.50195C9.18932 4.41769 9.30988 4.37285 9.43374 4.37724C9.5576 4.38163 9.67469 4.4349 9.75937 4.52539C9.84364 4.61628 9.88848 4.73684 9.88409 4.8607C9.87969 4.98456 9.82643 5.10164 9.73594 5.18633L6.96094 7.76914C6.92668 7.8032 6.88034 7.82232 6.83203 7.82232C6.78372 7.82232 6.73738 7.8032 6.70312 7.76914L5.53594 6.54102C5.49176 6.49604 5.45711 6.44262 5.43406 6.38394C5.41101 6.32527 5.40003 6.26255 5.40178 6.19953C5.40353 6.13651 5.41798 6.0745 5.44425 6.01719C5.47052 5.95989 5.50808 5.90847 5.55469 5.86602Z" fill="#ADDCFF"/>
</g>
<defs>
<clipPath id="clip0_3394_1492">
<rect width="15" height="15" fill="white" transform="translate(0 0.00195312)"/>
</clipPath>
</defs>
</svg>
