<svg width="15" height="15" viewBox="0 0 15 15" fill="none" xmlns="http://www.w3.org/2000/svg">
<g clip-path="url(#clip0_3394_1533)">
<path d="M3.62109 8.26649L3.62112 8.2666C3.63041 8.25723 3.62979 8.25779 3.62109 8.26649Z" fill="#ADDCFF"/>
<path d="M14.6676 6.19418L13.9217 6.01482C13.7595 5.30681 13.4801 4.63397 13.0897 4.00837L13.4677 3.37374C13.5707 3.20083 13.5428 2.98025 13.4007 2.83822L12.1619 1.5994C12.0199 1.45781 11.7998 1.42948 11.6264 1.53246L10.9918 1.91048C10.3662 1.52001 9.69333 1.24066 8.98531 1.07848L8.80596 0.332578C8.75703 0.137344 8.58154 0 8.37986 0H6.62228C6.42061 0 6.24512 0.137314 6.19619 0.332578L6.01684 1.07848C5.30882 1.24066 4.63599 1.52001 4.01038 1.91048L3.37575 1.53246C3.20284 1.42945 2.98227 1.45737 2.84023 1.5994L1.60136 2.83819C1.45933 2.98022 1.43144 3.20077 1.53441 3.37371L1.91243 4.00834C1.52196 4.63394 1.24262 5.30678 1.08043 6.01479L0.334531 6.19415C0.139297 6.24308 0.00195312 6.41856 0.00195312 6.62024V8.37782C0.00195312 8.5795 0.139268 8.75543 0.334941 8.80392L1.08084 8.98327C1.18897 9.45243 1.35172 9.90316 1.56072 10.3355C1.88343 10.0114 3.50419 8.38374 3.62067 8.2674C3.61493 8.23781 3.55215 7.67499 3.55048 7.56536C3.5131 5.32629 5.31658 3.54486 7.50274 3.54486C9.70388 3.54486 11.4591 5.31973 11.4508 7.51274C11.4414 9.54088 9.92762 11.2675 7.81344 11.4254C7.72197 11.4324 7.30848 11.4934 6.73212 11.3798L4.66988 13.442C5.10055 13.6498 5.54958 13.8115 6.01681 13.9192L6.19616 14.6655C6.24509 14.8608 6.42058 14.9981 6.62226 14.9981H8.37983C8.58151 14.9981 8.757 14.8608 8.80593 14.6655L8.98528 13.9196C9.6933 13.7574 10.3661 13.4781 10.9917 13.0876L11.6264 13.4656C11.7984 13.5686 12.0194 13.5403 12.1619 13.3987L13.4007 12.1599C13.5427 12.0178 13.5706 11.7973 13.4676 11.6244L13.0896 10.9897C13.4805 10.3641 13.7594 9.69129 13.9216 8.98283L14.6671 8.80392C14.8628 8.75543 15.0001 8.5795 15.0001 8.37782V6.62024C15.0001 6.41859 14.8628 6.24308 14.6676 6.19418Z" fill="#ADDCFF"/>
<path d="M10.4742 6.69709C10.4356 6.5458 10.3188 6.4268 10.1682 6.38555C10.0176 6.34424 9.85675 6.38728 9.74633 6.49767L8.74364 7.50041C8.4009 7.84316 7.84373 7.84316 7.50096 7.50041C7.15854 7.15799 7.15854 6.60018 7.50096 6.25773L8.50408 5.2546C8.61447 5.14421 8.6571 4.98308 8.61582 4.83258C8.57451 4.68208 8.45566 4.5651 8.3044 4.52666C6.45031 4.05548 4.7818 5.26318 4.47579 6.93097C4.37753 7.48023 4.4213 8.02732 4.60107 8.53108C4.35105 8.78112 0.489308 12.6428 0.385509 12.7467C-0.129852 13.262 -0.129852 14.1005 0.393653 14.624C0.912267 15.1156 1.70653 15.1363 2.25465 14.6158L6.47024 10.4002C7.14532 10.6412 7.89822 10.6363 8.63501 10.3763C9.9626 9.90785 10.8917 8.33569 10.4742 6.69709Z" fill="#ADDCFF"/>
</g>
<defs>
<clipPath id="clip0_3394_1533">
<rect width="15" height="15" fill="white"/>
</clipPath>
</defs>
</svg>
