<svg width="15" height="15" viewBox="0 0 15 15" fill="none" xmlns="http://www.w3.org/2000/svg">
<path d="M5.625 13.752H9.375C10.4125 13.752 11.25 12.9145 11.25 11.877V3.12695C11.25 2.08945 10.4125 1.25195 9.375 1.25195H5.625C4.5875 1.25195 3.75 2.08945 3.75 3.12695V11.877C3.75 12.9145 4.5875 13.752 5.625 13.752Z" fill="#ADDCFF"/>
<path d="M2.8125 3.7087V11.2962C2.8125 11.4962 2.63125 11.64 2.4375 11.6025C1.5125 11.4337 1.25 10.8962 1.25 9.58373V5.4212C1.25 4.1087 1.5125 3.5712 2.4375 3.40245C2.63125 3.36495 2.8125 3.5087 2.8125 3.7087Z" fill="#ADDCFF"/>
<path d="M13.75 5.4212V9.58373C13.75 10.8962 13.4875 11.4337 12.5625 11.6025C12.3688 11.64 12.1875 11.49 12.1875 11.2962V3.7087C12.1875 3.5087 12.3688 3.36495 12.5625 3.40245C13.4875 3.5712 13.75 4.1087 13.75 5.4212Z" fill="#ADDCFF"/>
</svg>
