<svg width="17" height="17" viewBox="0 0 17 17" fill="none" xmlns="http://www.w3.org/2000/svg">
<path d="M14.8645 9.15313V7.85333C14.8645 7.65783 14.7058 7.49917 14.5103 7.49917H9.50241V2.49479C9.50241 2.29929 9.34374 2.14062 9.14824 2.14062H7.85199C7.65649 2.14062 7.49783 2.29929 7.49783 2.49479V7.49917H2.48991C2.29441 7.49917 2.13574 7.65783 2.13574 7.85333V9.15313C2.13574 9.34863 2.29441 9.50729 2.48991 9.50729H7.49783V14.5117C7.49783 14.7072 7.65649 14.8658 7.85199 14.8658H9.14824C9.34374 14.8658 9.50241 14.7072 9.50241 14.5117V9.50729H14.5103C14.7058 9.50729 14.8645 9.34863 14.8645 9.15313ZM14.1562 8.79896H9.14824C8.95274 8.79896 8.79408 8.95762 8.79408 9.15313V14.1575H8.20616V9.15313C8.20616 8.95762 8.04749 8.79896 7.85199 8.79896H2.84408V8.2075H7.85199C8.04749 8.2075 8.20616 8.04883 8.20616 7.85333V2.84896H8.79408V7.85333C8.79408 8.04883 8.95274 8.2075 9.14824 8.2075H14.1562V8.79896Z" fill="#ADDCFF"/>
<path d="M14.8646 10.9707V13.804C14.8646 14.3884 14.3865 14.8665 13.8021 14.8665H10.9688C10.3844 14.8665 9.90625 14.3884 9.90625 13.804V10.9707C9.90625 10.3863 10.3844 9.9082 10.9688 9.9082H13.8021C14.3865 9.9082 14.8646 10.3863 14.8646 10.9707Z" fill="#ADDCFF"/>
<path d="M6.03158 9.9082H3.19824C2.61245 9.9082 2.13574 10.3849 2.13574 10.9707V13.804C2.13574 14.3898 2.61245 14.8665 3.19824 14.8665H6.03158C6.61737 14.8665 7.09408 14.3898 7.09408 13.804V10.9707C7.09408 10.3846 6.61772 9.9082 6.03158 9.9082ZM6.38574 13.804C6.38574 13.9992 6.22672 14.1582 6.03158 14.1582H3.19824C3.0031 14.1582 2.84408 13.9992 2.84408 13.804V10.9707C2.84408 10.7756 3.0031 10.6165 3.19824 10.6165H6.03158C6.22672 10.6165 6.38574 10.7756 6.38574 10.9707V13.804Z" fill="#ADDCFF"/>
<path d="M13.8031 2.13672H10.9697C10.3839 2.13672 9.90723 2.61343 9.90723 3.19922V6.03255C9.90723 6.61834 10.3839 7.09505 10.9697 7.09505H13.8031C14.3889 7.09505 14.8656 6.61834 14.8656 6.03255V3.19922C14.8656 2.61343 14.3889 2.13672 13.8031 2.13672ZM14.1572 6.03255C14.1572 6.2277 13.9982 6.38672 13.8031 6.38672H10.9697C10.7746 6.38672 10.6156 6.2277 10.6156 6.03255V3.19922C10.6156 3.00407 10.7746 2.84505 10.9697 2.84505H13.8031C13.9982 2.84505 14.1572 3.00407 14.1572 3.19922V6.03255Z" fill="#ADDCFF"/>
<path d="M7.09408 3.19922V6.03255C7.09408 6.61693 6.61595 7.09505 6.03158 7.09505H3.19824C2.61387 7.09505 2.13574 6.61693 2.13574 6.03255V3.19922C2.13574 2.61484 2.61387 2.13672 3.19824 2.13672H6.03158C6.61595 2.13672 7.09408 2.61484 7.09408 3.19922Z" fill="#ADDCFF"/>
</svg>
