<svg width="14" height="15" viewBox="0 0 14 15" fill="none" xmlns="http://www.w3.org/2000/svg">
<g clip-path="url(#clip0_1677_1706)">
<path d="M6.75092 8.09431C7.43637 8.09431 7.99398 7.53667 7.99398 6.85126V1.76647C7.99398 1.08108 7.43637 0.523438 6.75092 0.523438C6.06548 0.523438 5.50781 1.08108 5.50781 1.76649V6.85128C5.50781 7.5367 6.06548 8.09431 6.75092 8.09431Z" fill="#ADDCFF"/>
<path d="M10.9361 3.95777C10.9329 3.95431 10.9296 3.95096 10.9266 3.94798C10.6919 3.71325 10.3798 3.58398 10.0478 3.58398C9.71579 3.58398 9.40367 3.71323 9.16891 3.94798C8.93411 4.18274 8.80481 4.49489 8.80486 4.82692C8.80486 5.15358 8.93007 5.46099 9.15773 5.69442C9.16134 5.6983 9.16504 5.70215 9.16886 5.70595C9.81434 6.35145 10.1698 7.20969 10.1698 8.12263C10.1698 10.0071 8.63664 11.5403 6.75215 11.5403C4.86766 11.5403 3.33449 10.0071 3.33449 8.12263C3.33449 7.20967 3.68996 6.35143 4.3355 5.70595C4.82001 5.22141 4.82006 4.43289 4.33539 3.94806C4.10061 3.71339 3.78846 3.58412 3.45653 3.58412C3.12455 3.58412 2.81245 3.71339 2.57769 3.94817C1.46268 5.06321 0.848633 6.54573 0.848633 8.12263C0.848633 9.69953 1.46268 11.182 2.57772 12.2971C3.69276 13.4122 5.17525 14.0262 6.75215 14.0262C8.32905 14.0262 9.81155 13.4121 10.9266 12.2971C12.0416 11.182 12.6557 9.69953 12.6557 8.12263C12.6557 6.55042 12.0451 5.07167 10.9361 3.95777Z" fill="#ADDCFF"/>
</g>
<defs>
<clipPath id="clip0_1677_1706">
<rect width="13.5019" height="13.5019" fill="white" transform="translate(0 0.523438)"/>
</clipPath>
</defs>
</svg>
