<svg width="60" height="60" viewBox="0 0 60 60" fill="none" xmlns="http://www.w3.org/2000/svg">
<circle cx="30" cy="30" r="30" fill="#0F5B92"/>
<path d="M30.6667 30.7452C35.069 30.7452 38.6378 27.1764 38.6378 22.7741C38.6378 18.3717 35.069 14.8029 30.6667 14.8029C26.2644 14.8029 22.6956 18.3717 22.6956 22.7741C22.6956 27.1764 26.2644 30.7452 30.6667 30.7452Z" fill="white"/>
<path fill-rule="evenodd" clip-rule="evenodd" d="M32.732 44.5309C31.2262 42.9134 30.3045 40.7453 30.3045 38.3626C30.3045 35.9235 31.2712 33.7075 32.8422 32.0785C32.132 32.0234 31.4059 31.9944 30.6668 31.9944C25.8522 31.9944 21.5899 33.1988 18.9435 35.0032C16.9246 36.38 15.8115 38.1293 15.8115 39.9656V42.067C15.8115 42.7207 16.0709 43.3482 16.5333 43.8091C16.9956 44.2714 17.6217 44.5309 18.2753 44.5309H32.732Z" fill="white"/>
<g clip-path="url(#clip0_66_54)">
<path d="M31.6084 38.205C31.6084 34.7344 34.432 31.9108 37.9026 31.9108C39.3043 31.9108 40.631 32.3618 41.7393 33.215L40.2767 35.115C39.5914 34.5875 38.7704 34.3086 37.9026 34.3086C35.7541 34.3086 34.0062 36.0566 34.0062 38.205C34.0062 40.3535 35.7541 42.1014 37.9026 42.1014C39.633 42.1014 41.1035 40.9677 41.6103 39.4039H37.9026V37.0061H44.1968V38.205C44.1968 41.6757 41.3732 44.4992 37.9026 44.4992C34.432 44.4992 31.6084 41.6757 31.6084 38.205Z" fill="white"/>
</g>
<defs>
<clipPath id="clip0_66_54">
<rect width="12.5884" height="12.5884" fill="white" transform="translate(31.6084 31.9108)"/>
</clipPath>
</defs>
</svg>
