<svg width="15" height="15" viewBox="0 0 15 15" fill="none" xmlns="http://www.w3.org/2000/svg">
<g clip-path="url(#clip0_3393_1378)">
<path d="M3.84023 14.7027H11.1602C12.3002 14.7027 13.2602 13.7427 13.2602 12.6027V2.40273C13.2602 1.26273 12.3002 0.302734 11.1602 0.302734H3.84023C2.70023 0.302734 1.74023 1.26273 1.74023 2.40273V12.6027C1.74023 13.7427 2.70023 14.7027 3.84023 14.7027ZM7.50023 2.16273C8.40023 2.16273 9.18023 2.94273 9.18023 3.84273C9.18023 4.74273 8.40023 5.52273 7.50023 5.52273C6.54023 5.52273 5.82023 4.74273 5.82023 3.84273C5.82023 2.94273 6.54023 2.16273 7.50023 2.16273ZM4.50023 8.64273C4.74023 7.68273 5.40023 6.84273 6.30023 6.48273C6.66023 6.66273 7.08023 6.72273 7.50023 6.72273C7.92023 6.72273 8.34023 6.60273 8.70023 6.48273C9.60023 6.84273 10.2602 7.68273 10.5002 8.64273C10.5602 8.94273 10.5002 9.24273 10.3202 9.42273C10.1402 9.60273 9.84023 9.78273 9.54023 9.78273H5.46023C5.16023 9.78273 4.86023 9.66273 4.68023 9.42273C4.50023 9.24273 4.44023 8.94273 4.50023 8.64273ZM4.14023 11.6427H10.9202C11.2802 11.6427 11.5202 11.8827 11.5202 12.2427C11.5202 12.5427 11.2802 12.8427 10.9202 12.8427H4.14023C3.84023 12.8427 3.54023 12.5427 3.54023 12.2427C3.54023 11.8827 3.78023 11.6427 4.14023 11.6427Z" fill="#ADDCFF"/>
</g>
<defs>
<clipPath id="clip0_3393_1378">
<rect width="15" height="15" fill="white" transform="translate(0 0.00195312)"/>
</clipPath>
</defs>
</svg>
