<svg width="60" height="60" viewBox="0 0 60 60" fill="none" xmlns="http://www.w3.org/2000/svg">
<circle cx="30" cy="30" r="30" fill="#0F5B92"/>
<path d="M33.1037 21.7099C34.4908 22.5796 35.4635 24.0513 35.6406 25.7597C36.2063 26.024 36.8341 26.176 37.4998 26.176C39.93 26.176 41.8997 24.2063 41.8997 21.7765C41.8997 19.3463 39.93 17.3766 37.4998 17.3766C35.0928 17.3774 33.1404 19.3119 33.1037 21.7099ZM30.2213 30.7185C32.6514 30.7185 34.6211 28.7484 34.6211 26.3186C34.6211 23.8888 32.6511 21.9191 30.2213 21.9191C27.7915 21.9191 25.8207 23.8892 25.8207 26.319C25.8207 28.7488 27.7915 30.7185 30.2213 30.7185ZM32.0876 31.0184H28.3542C25.2478 31.0184 22.7207 33.5459 22.7207 36.6522V41.2179L22.7323 41.2894L23.0468 41.3879C26.0112 42.3141 28.5867 42.623 30.7065 42.623C34.8469 42.623 37.2467 41.4425 37.3946 41.3673L37.6885 41.2187H37.72V36.6522C37.7211 33.5459 35.1939 31.0184 32.0876 31.0184ZM39.3669 26.4762H35.6623C35.6222 27.9585 34.9895 29.2932 33.9888 30.2531C36.7499 31.0741 38.7701 33.6346 38.7701 36.6589V38.0659C42.4279 37.9319 44.5358 36.8952 44.6747 36.8255L44.9686 36.6765H45V32.1093C45 29.0034 42.4729 26.4762 39.3669 26.4762ZM22.5009 26.1767C23.3617 26.1767 24.1625 25.9255 24.8409 25.4976C25.0565 24.091 25.8106 22.8619 26.8877 22.0247C26.8922 21.9424 26.9 21.8607 26.9 21.7776C26.9 19.3474 24.93 17.3778 22.5009 17.3778C20.0704 17.3778 18.1011 19.3474 18.1011 21.7776C18.1011 24.2067 20.0704 26.1767 22.5009 26.1767ZM26.4523 30.2531C25.4564 29.298 24.8259 27.9704 24.7799 26.4972C24.6425 26.4871 24.5066 26.4762 24.3665 26.4762H20.6335C17.5271 26.4762 15 29.0034 15 32.1093V36.6758L15.0116 36.7462L15.3261 36.8454C17.7042 37.5878 19.8267 37.93 21.6702 38.0378V36.6589C21.6709 33.6346 23.6904 31.0749 26.4523 30.2531Z" fill="white"/>
</svg>
