<svg width="14" height="15" viewBox="0 0 14 15" fill="none" xmlns="http://www.w3.org/2000/svg">
<g clip-path="url(#clip0_120_481)">
<path d="M7 0.523438C3.13414 0.523438 0 3.65758 0 7.52344C0 11.3893 3.13414 14.5234 7 14.5234C10.8659 14.5234 14 11.3893 14 7.52344C14 3.65758 10.8661 0.523438 7 0.523438ZM7 11.6474L6.33609 11.176C5.67027 10.6756 5.25766 10.362 4.73402 9.88539C4.23309 9.42902 3.6709 8.86848 3.32637 8.19664C3.32637 8.19664 3.1541 7.82996 3.07563 7.51633C3.0248 7.29369 3.00384 7.06528 3.01328 6.83711C3.07781 5.55195 4.19863 4.37945 5.35828 4.31246C5.62927 4.29905 5.89958 4.34993 6.14715 4.46094C6.29448 4.52741 6.43298 4.61191 6.55949 4.7125L7 5.08984L7.44051 4.71496C7.78559 4.44152 8.1941 4.29277 8.64172 4.31383C9.80137 4.38082 10.9222 5.55277 10.9867 6.83848C10.9962 7.06665 10.9752 7.29506 10.9244 7.51769C10.9244 7.51769 10.8238 7.92785 10.6736 8.19801C10.3291 8.86984 9.76691 9.43039 9.26598 9.88676C9.08797 10.0484 8.92555 10.1897 8.76176 10.3259C8.44156 10.592 8.11371 10.8389 7.66391 11.1771L7 11.6474Z" fill="#ADDCFF"/>
</g>
<defs>
<clipPath id="clip0_120_481">
<rect width="14" height="14" fill="white" transform="translate(0 0.523438)"/>
</clipPath>
</defs>
</svg>
