<svg width="45" height="45" viewBox="0 0 45 45" fill="none" xmlns="http://www.w3.org/2000/svg">
<g clip-path="url(#clip0_791_34064)">
<path d="M35.4759 44.4377C30.8379 44.4377 27.0645 40.6643 27.0645 36.0263C27.0645 31.3882 30.8378 27.6149 35.4759 27.6149C40.1141 27.6149 43.8873 31.3882 43.8873 36.0263C43.8873 40.6643 40.1139 44.4377 35.4759 44.4377ZM35.4759 28.9396C31.5683 28.9396 28.3893 32.1187 28.3893 36.0262C28.3893 39.9338 31.5684 43.1129 35.4759 43.1129C39.3835 43.1129 42.5625 39.9338 42.5625 36.0262C42.5625 32.1187 39.3835 28.9396 35.4759 28.9396Z" fill="#E64B55"/>
<path d="M35.4767 28.2772C39.7563 28.2772 43.2256 31.7466 43.2256 36.0262C43.2256 40.3057 39.7562 43.7752 35.4767 43.7752C31.1971 43.7752 27.7277 40.3058 27.7277 36.0262C27.7277 31.7465 31.197 28.2772 35.4767 28.2772ZM35.4767 27.0526C30.5286 27.0526 26.5029 31.0782 26.5029 36.0263C26.5029 40.9745 30.5286 45 35.4767 45C40.4247 45 44.4504 40.9744 44.4504 36.0263C44.4503 31.0782 40.4247 27.0526 35.4767 27.0526Z" fill="#50555A"/>
<path d="M35.4763 27.0526C35.463 27.0526 35.4498 27.0531 35.4365 27.0531V28.2778C35.4499 28.2777 35.463 28.2773 35.4763 28.2773C39.756 28.2773 43.2254 31.7467 43.2254 36.0262C43.2254 40.3058 39.756 43.7753 35.4763 43.7753C35.463 43.7753 35.4498 43.7749 35.4365 43.7748V44.9994C35.4499 44.9995 35.463 45 35.4763 45C40.4244 45 44.4501 40.9744 44.4501 36.0262C44.4501 31.0782 40.4244 27.0526 35.4763 27.0526Z" fill="#373C41"/>
<path d="M35.4767 33.8807C34.2936 33.8807 33.3311 34.8432 33.3311 36.0263C33.3311 37.2094 34.2935 38.172 35.4767 38.172C36.6599 38.172 37.6224 37.2095 37.6224 36.0263C37.6223 34.8432 36.6597 33.8807 35.4767 33.8807Z" fill="#B9B9BE"/>
<path d="M35.4767 33.8807C34.2936 33.8807 33.3311 34.8432 33.3311 36.0263C33.3311 37.2094 34.2935 38.172 35.4767 38.172C36.6599 38.172 37.6224 37.2095 37.6224 36.0263C37.6223 34.8432 36.6597 33.8807 35.4767 33.8807Z" fill="#B9B9BE"/>
<path d="M9.5237 44.4377C4.88563 44.4377 1.1123 40.6643 1.1123 36.0263C1.1123 31.3882 4.88563 27.6149 9.5237 27.6149C14.1618 27.6149 17.9351 31.3882 17.9351 36.0263C17.9351 40.6643 14.1618 44.4377 9.5237 44.4377ZM9.5237 28.9396C5.61608 28.9396 2.43717 32.1187 2.43717 36.0262C2.43717 39.9338 5.61626 43.1129 9.5237 43.1129C13.4311 43.1129 16.6102 39.9338 16.6102 36.0262C16.6103 32.1187 13.4313 28.9396 9.5237 28.9396Z" fill="#E64B55"/>
<path d="M9.52344 28.2772C13.8031 28.2772 17.2724 31.7466 17.2724 36.0262C17.2724 40.3057 13.803 43.7752 9.52344 43.7752C5.24387 43.7752 1.77447 40.3058 1.77447 36.0262C1.77447 31.7465 5.24387 28.2772 9.52344 28.2772ZM9.52344 27.0526C4.57537 27.0526 0.549805 31.0782 0.549805 36.0263C0.549805 40.9745 4.57537 45 9.52344 45C14.4715 45 18.4972 40.9744 18.4972 36.0263C18.4972 31.0782 14.4716 27.0526 9.52344 27.0526Z" fill="#50555A"/>
<path d="M9.52321 27.0526C9.50985 27.0526 9.49667 27.0531 9.4834 27.0531V28.2778C9.49676 28.2777 9.50985 28.2773 9.52321 28.2773C13.8029 28.2773 17.2723 31.7467 17.2723 36.0262C17.2723 40.3058 13.8029 43.7753 9.52321 43.7753C9.50985 43.7753 9.49667 43.7749 9.4834 43.7748V44.9994C9.49676 44.9995 9.50985 45 9.52321 45C14.4713 45 18.4969 40.9744 18.4969 36.0262C18.4969 31.0782 14.4714 27.0526 9.52321 27.0526Z" fill="#373C41"/>
<path d="M9.5236 33.8807C8.34051 33.8807 7.37793 34.8432 7.37793 36.0263C7.37793 37.2094 8.34042 38.172 9.5236 38.172C10.7068 38.172 11.6693 37.2095 11.6693 36.0263C11.6693 34.8432 10.7068 33.8807 9.5236 33.8807Z" fill="#B9B9BE"/>
<path d="M18.7356 35.8949C18.3378 35.8949 17.9603 35.6594 17.7984 35.2689L12.3941 22.2366C12.1794 21.7191 12.425 21.1259 12.9424 20.9112C13.4599 20.6967 14.0532 20.9422 14.2678 21.4596L19.6721 34.4918C19.8867 35.0093 19.6412 35.6026 19.1238 35.8172C18.9968 35.87 18.865 35.8949 18.7356 35.8949Z" fill="#46738C"/>
<path d="M18.7354 35.8947C18.4911 35.8947 18.246 35.8069 18.0515 35.6291C17.638 35.2513 17.6092 34.6097 17.9869 34.1963L27.8709 23.3798L13.623 24.5558L8.72087 33.8662H13.6469C14.207 33.8662 14.6611 34.3203 14.6611 34.8805C14.6611 35.4406 14.2071 35.8947 13.6469 35.8947H7.04058C6.68523 35.8947 6.35582 35.7089 6.17231 35.4046C5.9887 35.1004 5.97763 34.7223 6.14313 34.4079L12.0875 23.1183C12.2491 22.8115 12.5561 22.6085 12.9015 22.5799L30.2794 21.1456C30.6951 21.1119 31.0895 21.3349 31.2733 21.7094C31.457 22.0839 31.393 22.5327 31.1115 22.8405L19.4844 35.5646C19.2843 35.7836 19.0103 35.8947 18.7354 35.8947Z" fill="#55879B"/>
<path d="M16.5744 22.9518H9.87674C9.02525 22.9518 8.33496 22.2615 8.33496 21.4101C8.33496 20.5586 9.02525 19.8683 9.87674 19.8683H16.5744C17.4259 19.8683 18.1162 20.5586 18.1162 21.4101C18.1162 22.2615 17.4259 22.9518 16.5744 22.9518Z" fill="#B9CDD2"/>
<path d="M34.6387 35.8951C34.2136 35.8951 33.8177 35.6258 33.6763 35.2003L27.7588 17.3884C27.6675 17.1138 27.6979 16.8132 27.8423 16.5625C27.9867 16.3117 28.2313 16.1345 28.5147 16.0756L33.0957 15.1225C33.6444 15.0086 34.1813 15.3605 34.2954 15.9088C34.4094 16.4572 34.0574 16.9943 33.509 17.1084L30.0429 17.8295L35.6014 34.5606C35.7781 35.0921 35.4903 35.6662 34.9587 35.8429C34.8526 35.8783 34.7447 35.8951 34.6387 35.8951Z" fill="#46738C"/>
<path d="M17.9663 36.9504C16.8232 36.5255 16.241 35.2543 16.6659 34.1112L20.0561 24.9912L13.2941 20.5243C12.2765 19.8521 11.9965 18.4823 12.6687 17.4648C13.3408 16.4472 14.7108 16.1671 15.7282 16.8393L23.9543 22.2733C24.8115 22.8395 25.165 23.9223 24.807 24.8853L20.8053 35.65C20.3806 36.7929 19.1093 37.3754 17.9663 36.9504Z" fill="#FFB69E"/>
<path d="M26.1757 10.1748L22.8986 6.6923C22.3797 6.14096 21.6561 5.82842 20.8991 5.82886C20.142 5.82921 19.4187 6.14245 18.9005 6.6944L11.0391 15.0659C10.4484 15.6949 10.168 16.5541 10.2739 17.4106C10.3798 18.267 10.8611 19.032 11.5874 19.498L17.0112 22.9797L17.0113 22.9796L18.9129 24.2357L22.1179 21.06L20.2246 19.8094L26.1047 14.0083C27.1653 12.9618 27.1969 11.26 26.1757 10.1748Z" fill="#3C5064"/>
<path d="M10.293 16.5649C10.388 16.0088 10.6441 15.486 11.0386 15.0659L18.9 6.6944C19.4183 6.14254 20.1416 5.8293 20.8986 5.82886C21.6557 5.82851 22.3793 6.14096 22.8982 6.6923L26.1752 10.1748C27.1964 11.26 27.1648 12.9617 26.1041 14.0082L20.224 19.8093L10.293 16.5649Z" fill="#FFA50A"/>
<path d="M29.2198 8.60209C31.463 8.60209 33.2814 6.78364 33.2814 4.54048C33.2814 2.29732 31.463 0.478882 29.2198 0.478882C26.9766 0.478882 25.1582 2.29732 25.1582 4.54048C25.1582 6.78364 26.9766 8.60209 29.2198 8.60209Z" fill="#FFB69E"/>
<path d="M22.949 0.612894C23.3011 -0.369811 25.2723 0.278295 27.5063 0.0751794C30.947 -0.237623 32.6495 0.409691 33.8286 2.31797C34.2817 3.05124 34.1927 4.04116 34.0364 4.90864C34.0087 5.06236 33.9144 5.19595 33.7789 5.27347C33.6433 5.35099 33.4804 5.36453 33.3337 5.31056C27.9455 3.32889 22.2186 2.65125 22.949 0.612894Z" fill="#FA503C"/>
<path d="M25.4048 17.0547C24.871 16.9826 24.3914 16.679 24.0986 16.2186L19.2887 8.65697C18.7433 7.79942 18.9962 6.66212 19.8538 6.11667C20.7113 5.57131 21.8486 5.82417 22.3941 6.68172L26.6744 13.411L33.0385 13.5382C34.0551 13.5589 34.862 14.3988 34.8416 15.4149C34.8213 16.4309 33.981 17.2382 32.9649 17.2179L25.6145 17.0709C25.5438 17.0694 25.4737 17.064 25.4048 17.0547Z" fill="#FFB69E"/>
<path d="M21.6735 12.4063L24.7253 10.3466L22.3941 6.6817C21.8487 5.82424 20.7113 5.57129 19.8538 6.11665C18.9962 6.6621 18.7433 7.7994 19.2887 8.65695L21.6735 12.4063Z" fill="#FA870A"/>
</g>
<defs>
<clipPath id="clip0_791_34064">
<rect width="45" height="45" fill="white"/>
</clipPath>
</defs>
</svg>
