<svg width="45" height="45" viewBox="0 0 45 45" fill="none" xmlns="http://www.w3.org/2000/svg">
<g clip-path="url(#clip0_791_34042)">
<path d="M33.0534 26.7614L27.2193 39.5696H26.3817C25.5259 39.572 24.8328 40.2651 24.8301 41.1209V41.8967C24.8277 42.7525 24.1342 43.446 23.2784 43.4484H21.7271C20.8713 43.446 20.1779 42.7525 20.1755 41.8967V41.1209C20.1728 40.2651 19.4797 39.572 18.6239 39.5696H17.7862L11.9521 26.7614C14.293 24.9059 17.112 23.7518 20.0825 23.4336C20.5868 23.3635 21.0986 23.3248 21.6262 23.3014C21.9132 23.286 22.2081 23.2784 22.503 23.2784C23.1559 23.2763 23.8085 23.31 24.4576 23.379C25.0151 23.4336 25.5692 23.5163 26.1177 23.6275C28.656 24.0738 31.0411 25.1517 33.0534 26.7614Z" fill="#A9B0BB"/>
<path d="M31.4396 1.6344H31.4475C32.9291 1.85925 34.8144 2.36353 35.5744 3.51937C35.7169 3.77683 35.7066 4.09162 35.548 4.33947C35.3894 4.58698 35.1076 4.72807 34.8144 4.70644C33.5497 4.75931 32.293 4.92786 31.0596 5.21038L31.4396 1.6344Z" fill="#FDCD56"/>
<path d="M18.6232 35.6905C18.6232 40.8322 14.4554 45 9.31404 45C4.17269 45 0.00488281 40.8322 0.00488281 35.6905C0.00488281 30.5492 4.17269 26.3813 9.31404 26.3813C14.4554 26.3813 18.6232 30.5492 18.6232 35.6905Z" fill="#636C77"/>
<path d="M15.5208 35.6905C15.5208 39.1182 12.7423 41.8967 9.31462 41.8967C5.88693 41.8967 3.1084 39.1182 3.1084 35.6905C3.1084 32.2632 5.88693 29.4846 9.31462 29.4846C12.7423 29.4846 15.5208 32.2632 15.5208 35.6905Z" fill="#4FC0E8"/>
<path d="M45.0005 35.6905C45.0005 40.8322 40.8323 45 35.691 45C30.5496 45 26.3818 40.8322 26.3818 35.6905C26.3818 30.5492 30.5496 26.3813 35.691 26.3813C40.8323 26.3813 45.0005 30.5492 45.0005 35.6905Z" fill="#636C77"/>
<path d="M41.8968 35.6905C41.8968 39.1182 39.1183 41.8967 35.6906 41.8967C32.2629 41.8967 29.4844 39.1182 29.4844 35.6905C29.4844 32.2632 32.2629 29.4846 35.6906 29.4846C39.1183 29.4846 41.8968 32.2632 41.8968 35.6905Z" fill="#4FC0E8"/>
<path d="M24.8294 28.7088C24.8294 29.9941 23.7875 31.0359 22.5023 31.0359C21.2167 31.0359 20.1748 29.9941 20.1748 28.7088C20.1748 27.4232 21.2167 26.3813 22.5023 26.3813C23.7875 26.3813 24.8294 27.4232 24.8294 28.7088Z" fill="#CAD0D7"/>
<path d="M31.2223 4.93131C30.9631 5.27769 30.8543 5.714 30.9198 6.14139C30.9899 6.64533 31.029 7.15339 31.0362 7.66213C31.144 12.3352 28.2027 16.5364 23.7751 18.0341C23.4592 18.1436 23.1383 18.2366 22.8128 18.3135L22.2701 18.4299C21.8341 18.5102 21.3937 18.5648 20.9512 18.5926C20.4346 18.6314 19.9162 18.6314 19.3996 18.5926C18.4607 18.5305 17.5345 18.3424 16.6458 18.0341H16.6379C15.9911 17.8103 15.3677 17.5243 14.7759 17.1807C14.7604 17.1731 14.7525 17.1652 14.7371 17.1574L7.63114 20.5476C6.75061 20.9431 5.76814 21.0516 4.82274 20.8579L4.50485 20.7958C4.18526 20.7296 3.94153 20.4704 3.89484 20.1477C3.84781 19.825 4.00812 19.5075 4.29545 19.353L11.859 15.063C12.2322 14.8539 12.5806 14.604 12.8985 14.3181L25.1636 3.49605C25.4191 3.2736 25.589 2.96911 25.6446 2.63509C25.7771 1.77826 26.2608 1.01582 26.9796 0.531451C27.6985 0.0467351 28.5865 -0.115638 29.4303 0.0827798C30.5367 0.341272 31.4104 1.18815 31.7032 2.28597C31.951 3.19499 31.7743 4.16751 31.2223 4.93131Z" fill="#5E9CEA"/>
<path d="M45.0006 35.6905C45.0006 40.8322 40.8324 45 35.6911 45C35.3018 45.0017 34.9132 44.9756 34.5273 44.9224C39.1823 44.3391 42.6748 40.3818 42.6748 35.6905C42.6748 30.9995 39.1823 27.0421 34.5273 26.4589C34.9132 26.4057 35.3018 26.3796 35.6911 26.3813C40.8324 26.3813 45.0006 30.5491 45.0006 35.6905Z" fill="#525C66"/>
<path d="M18.6233 35.6905C18.6233 40.8322 14.4555 45 9.31412 45C8.92484 45.0017 8.5359 44.9756 8.15039 44.9224C12.8053 44.3391 16.2979 40.3818 16.2979 35.6905C16.2979 30.9995 12.8053 27.0421 8.15039 26.4589C8.5359 26.4057 8.92484 26.3796 9.31412 26.3813C14.4555 26.3813 18.6233 30.5491 18.6233 35.6905Z" fill="#525C66"/>
<path d="M31.2221 4.93125C30.9629 5.27762 30.8541 5.71393 30.9197 6.14132C30.9897 6.64526 31.0288 7.15332 31.036 7.66207C31.1438 12.3352 28.2026 16.5363 23.7749 18.034C23.4591 18.1435 23.1381 18.2366 22.8127 18.3135L22.2699 18.4298C21.834 18.5102 21.3935 18.5647 20.9511 18.5926C20.4344 18.6313 19.9161 18.6313 19.3994 18.5926C19.8419 18.5647 20.2823 18.5102 20.7183 18.4298L21.2614 18.3135C21.5865 18.2366 21.9074 18.1435 22.2233 18.034C26.6513 16.5363 29.5922 12.3352 29.4844 7.66207C29.4772 7.15332 29.4384 6.64526 29.368 6.14132C29.3025 5.71393 29.4113 5.27762 29.6708 4.93125C30.2228 4.16744 30.3996 3.19492 30.1517 2.28591C29.8672 1.21315 29.024 0.378968 27.9485 0.106058C28.7353 -0.103001 29.5733 0.00925236 30.2774 0.418103C30.9815 0.826953 31.4943 1.49876 31.703 2.28591C31.9509 3.19492 31.7741 4.16744 31.2221 4.93125Z" fill="#4A88DA"/>
<path d="M6.21102 36.4663C5.78261 36.4663 5.43555 36.1193 5.43555 35.6905C5.43795 33.5495 7.17325 31.8145 9.31431 31.8118C9.74272 31.8118 10.0901 32.1592 10.0901 32.5876C10.0901 33.016 9.74272 33.3634 9.31431 33.3634C8.02905 33.3634 6.98684 34.4053 6.98684 35.6905C6.98684 36.1193 6.63978 36.4663 6.21102 36.4663Z" fill="#66D4F1"/>
<path d="M9.31391 39.5696C8.88549 39.5696 8.53809 39.2222 8.53809 38.7938C8.53809 38.3654 8.88549 38.018 9.31391 38.018C10.5992 38.018 11.641 36.9761 11.641 35.6905C11.641 35.2621 11.9884 34.915 12.4168 34.915C12.8453 34.915 13.1927 35.2621 13.1927 35.6905C13.1903 37.8319 11.455 39.5669 9.31391 39.5696Z" fill="#66D4F1"/>
<path d="M32.5873 36.4663C32.1589 36.4663 31.8115 36.1193 31.8115 35.6905C31.8139 33.5495 33.5492 31.8145 35.6903 31.8118C36.1187 31.8118 36.4661 32.1592 36.4661 32.5876C36.4661 33.016 36.1187 33.3634 35.6903 33.3634C34.405 33.3634 33.3632 34.4053 33.3632 35.6905C33.3632 36.1193 33.0158 36.4663 32.5873 36.4663Z" fill="#66D4F1"/>
<path d="M35.6909 39.5696C35.2624 39.5696 34.915 39.2222 34.915 38.7938C34.915 38.3654 35.2624 38.018 35.6909 38.018C36.9761 38.018 38.0183 36.9761 38.0183 35.6905C38.0183 35.2621 38.3657 34.915 38.7941 34.915C39.2226 34.915 39.5696 35.2621 39.5696 35.6905C39.5672 37.8319 37.8323 39.5669 35.6909 39.5696Z" fill="#66D4F1"/>
<path d="M23.2783 34.915H21.727C21.2986 34.915 20.9512 34.5676 20.9512 34.1392C20.9512 33.7108 21.2986 33.3634 21.727 33.3634H23.2783C23.7067 33.3634 24.0541 33.7108 24.0541 34.1392C24.0541 34.5676 23.7067 34.915 23.2783 34.915Z" fill="#636C77"/>
<path d="M23.2783 38.0179H21.727C21.2986 38.0179 20.9512 37.6705 20.9512 37.2421C20.9512 36.8137 21.2986 36.4663 21.727 36.4663H23.2783C23.7067 36.4663 24.0541 36.8137 24.0541 37.2421C24.0541 37.6705 23.7067 38.0179 23.2783 38.0179Z" fill="#636C77"/>
<path d="M26.9087 12.0993C26.537 13.1498 25.7481 14.0004 24.7285 14.4498L16.6453 18.034H16.6374C15.9906 17.8102 15.3672 17.5242 14.7754 17.1806C14.797 17.1648 14.8204 17.1518 14.8454 17.1418L24.1003 13.0303C24.731 12.7464 25.2191 12.2181 25.4518 11.5669C25.6846 10.9153 25.642 10.1972 25.3338 9.57825C25.2397 9.39425 25.2236 9.18038 25.2895 8.98471C25.355 8.78904 25.4968 8.62838 25.6829 8.53844C26.0643 8.34689 26.5287 8.49965 26.7223 8.88001C27.2276 9.88103 27.2953 11.0468 26.9087 12.0993Z" fill="#4A88DA"/>
<path d="M21.6184 23.2396C21.6249 23.2595 21.6277 23.2804 21.6263 23.3013C21.0987 23.3247 20.5868 23.3635 20.0825 23.4335L19.4077 18.7322C19.4011 18.6859 19.3984 18.6392 19.3998 18.5925C19.9164 18.6313 20.4348 18.6313 20.9514 18.5925L21.6184 23.2396Z" fill="#FA6C51"/>
<path d="M26.1171 23.6275C25.5685 23.5163 25.0144 23.4336 24.4569 23.379L22.3238 18.5771C22.3021 18.5294 22.2839 18.48 22.2695 18.4299L22.8123 18.3135C23.1377 18.2366 23.4587 18.1436 23.7745 18.0341L26.0628 23.1775C26.1301 23.3172 26.1493 23.4754 26.1171 23.6275Z" fill="#FA6C51"/>
</g>
<defs>
<clipPath id="clip0_791_34042">
<rect width="45" height="45" fill="white"/>
</clipPath>
</defs>
</svg>
