<svg width="32" height="32" viewBox="0 0 32 32" fill="none" xmlns="http://www.w3.org/2000/svg">
<g clip-path="url(#clip0_940_419)">
<path d="M29.6984 27.1289C29.5874 26.8966 29.3732 26.7263 29.1152 26.6514C28.8623 26.5792 28.6481 26.4114 28.519 26.1818C28.2997 25.7973 27.9565 25.6192 27.91 25.5934C27.6184 25.4489 27.3371 25.4308 27.1126 25.4566C26.8313 25.4902 26.5526 25.4024 26.3333 25.2218C26.2739 25.1728 26.2017 25.1237 26.1191 25.0824C26.0159 25.0308 25.9126 24.9999 25.812 24.9844C25.4817 24.9276 25.1849 24.7289 25.061 24.4141C24.9346 24.0837 24.6481 23.8412 24.3281 23.8025C24.0804 23.7741 23.8198 23.867 23.6185 24.0502C23.3785 24.2721 23.0662 24.3934 22.7436 24.3418C22.4056 24.2876 22.0546 24.365 21.7733 24.5715C21.4972 24.7728 21.3166 25.0747 21.2624 25.4102C21.2185 25.6631 21.0637 25.8902 20.8469 26.0295C20.7282 26.1069 20.6017 26.2127 20.4934 26.3624C20.4495 26.4244 20.4108 26.4863 20.3798 26.5482C20.2405 26.8295 19.9592 26.9972 19.6521 27.0669C19.5927 27.0798 19.5334 27.1005 19.4714 27.1289C19.1773 27.2682 18.9837 27.5624 18.9605 27.8979H16.9141L17.5102 30.1998L17.9747 31.9907H19.7269H24.3281H28.9319H30.6842L31.1487 30.1998L31.7448 27.8979H29.6984C29.7239 27.8359 29.8684 27.485 29.6984 27.1289Z" fill="#FEC4B9"/>
<path d="M25.3261 22.6438C25.2874 22.9947 25.4474 23.2992 25.6822 23.3251C25.9145 23.3509 26.1364 23.0876 26.1751 22.7367C26.2112 22.3857 26.0538 22.0786 25.819 22.0528C25.5867 22.027 25.3645 22.2928 25.3261 22.6438Z" fill="#FEC4B9"/>
<path d="M25.6341 20.6025C25.7192 20.9431 25.9721 21.178 26.2018 21.1212C26.4315 21.0644 26.5476 20.7419 26.4625 20.3986C26.3799 20.0554 26.1244 19.8232 25.8973 19.8774C25.6676 19.9341 25.5512 20.2593 25.6341 20.6025Z" fill="#FEC4B9"/>
<path d="M26.1933 18.4632C26.4256 18.489 26.6475 18.2258 26.6862 17.8748C26.7249 17.5238 26.5649 17.2193 26.3301 17.1935C26.0978 17.1677 25.8759 17.4309 25.8372 17.7819C25.8011 18.1329 25.9587 18.44 26.1933 18.4632Z" fill="#FEC4B9"/>
<path d="M29.0142 17.5394C29.2439 17.4826 29.36 17.16 29.2749 16.8168C29.1923 16.4736 28.9368 16.2413 28.7097 16.2955C28.48 16.3523 28.3639 16.6774 28.4465 17.0207C28.5316 17.3613 28.7845 17.5961 29.0142 17.5394Z" fill="#FEC4B9"/>
<path d="M22.6451 15.16C22.8464 15.2839 23.1586 15.1394 23.3444 14.8374C23.5276 14.5381 23.5147 14.1949 23.316 14.071C23.1147 13.9471 22.8025 14.0916 22.6167 14.391C22.4335 14.6929 22.4438 15.0361 22.6451 15.16Z" fill="#FEC4B9"/>
<path d="M26.6297 0.00927734C25.8039 0.226048 25.2181 0.538301 24.8414 0.775717C23.6646 1.52151 23.6465 1.9215 22.7949 2.31118C21.324 2.98213 20.235 2.1615 19.7369 2.82472C19.2879 3.426 19.8298 4.56662 19.9821 4.87113C20.3666 5.63241 20.7511 5.81306 21.2595 6.40659C22.6504 8.02205 21.7369 8.95365 23.0504 10.4994C23.7678 11.3433 24.5627 11.6813 24.5859 12.5459C24.5962 13.0104 24.3794 13.3665 24.5859 13.5703C24.8775 13.862 25.4813 13.2968 26.1188 13.5703C26.7329 13.831 26.7742 14.6103 27.1407 14.5923C27.5045 14.5768 27.6284 13.8052 27.9097 13.8258C28.2581 13.8491 28.3045 15.0645 28.6761 15.1032C28.9832 15.1368 29.0503 14.3239 29.6981 14.0813C30.1368 13.9162 30.369 14.1897 30.978 14.0813C31.4322 14.0013 31.7754 13.7639 32 13.5703V0.00927734L26.6297 0.00927734Z" fill="#FEC4B9"/>
<path d="M19.4713 22.7805C19.75 22.0812 20.1887 20.9819 19.7268 20.4761C19.461 20.1845 19.0894 20.3083 18.7049 20.2206C16.95 19.8257 17.3191 15.6348 15.123 12.8013C14.6275 12.1588 13.7217 11.2323 12.0546 10.4994C11.8146 10.0401 11.2805 9.17302 10.2663 8.45303C9.23404 7.72014 8.22244 7.50337 7.7089 7.42853C7.66503 7.924 7.65471 8.72657 7.93858 9.64527H7.936C6.83924 9.30979 5.65474 8.99237 4.38509 8.70851C2.84188 8.36271 1.38384 8.11497 0.0367686 7.93949V24.827C-0.0380689 25.9934 -0.0200047 27.485 0.294829 29.1753C0.493535 30.2514 0.772241 31.1933 1.06127 31.9907H5.66248C5.43539 31.3172 5.19023 30.3546 5.15153 29.1753C5.11798 28.1379 5.25475 27.2605 5.407 26.6179C6.03151 26.6489 7.07924 26.6102 8.21986 26.1069C8.74889 25.8721 9.17469 25.5908 9.49984 25.3379C10.785 25.4592 12.1501 25.5495 13.5901 25.5934C15.0249 25.6398 16.3926 25.6347 17.6804 25.5934C18.669 24.5173 19.1874 23.4902 19.4713 22.7805Z" fill="#FEC4B9"/>
<path d="M28.9309 30.9662C29.2122 30.9662 29.4418 31.1959 29.4418 31.4771C29.4418 31.761 29.2122 31.9907 28.9309 31.9907C28.6496 31.9907 28.4199 31.761 28.4199 31.4771C28.4199 31.1959 28.6496 30.9662 28.9309 30.9662Z" fill="#AD6A6A"/>
<path d="M24.3274 30.9662C24.6112 30.9662 24.8409 31.1959 24.8409 31.4771C24.8409 31.761 24.6112 31.9907 24.3274 31.9907C24.0461 31.9907 23.8164 31.761 23.8164 31.4771C23.8164 31.1959 24.0461 30.9662 24.3274 30.9662Z" fill="#AD6A6A"/>
<path d="M19.7258 30.9662C20.0071 30.9662 20.2368 31.1959 20.2368 31.4771C20.2368 31.761 20.0071 31.9907 19.7258 31.9907C19.4419 31.9907 19.2148 31.761 19.2148 31.4771C19.2148 31.1959 19.4419 30.9662 19.7258 30.9662Z" fill="#AD6A6A"/>
<path d="M24.3277 31.9907H19.7265C20.0078 31.9907 20.2375 31.761 20.2375 31.4772C20.2375 31.1959 20.0078 30.9662 19.7265 30.9662C19.4426 30.9662 19.2155 31.1959 19.2155 31.4772C19.2155 31.761 19.4426 31.9907 19.7265 31.9907H17.9743L17.5098 30.1998H24.3277H31.1483L30.6837 31.9907H28.9315C29.2128 31.9907 29.4425 31.761 29.4425 31.4772C29.4425 31.1959 29.2128 30.9662 28.9315 30.9662C28.6502 30.9662 28.4206 31.1959 28.4206 31.4772C28.4206 31.761 28.6502 31.9907 28.9315 31.9907H24.3277C24.6116 31.9907 24.8413 31.761 24.8413 31.4772C24.8413 31.1959 24.6116 30.9662 24.3277 30.9662C24.0464 30.9662 23.8168 31.1959 23.8168 31.4772C23.8168 31.761 24.0464 31.9907 24.3277 31.9907Z" fill="#1EA6BC"/>
<path d="M31.7448 27.8979L31.1487 30.1998H24.3281H17.5102L16.9141 27.8979H18.9605H24.3281H29.6984H31.7448Z" fill="#604533"/>
<path d="M29.6988 27.8979H24.3286H18.9609C18.9842 27.5624 19.1777 27.2682 19.4719 27.1289C19.5338 27.1005 19.5932 27.0798 19.6525 27.0669C19.9596 26.9972 20.2409 26.8295 20.3803 26.5482C20.4112 26.4863 20.4499 26.4244 20.4938 26.3624C20.6022 26.2127 20.7287 26.1069 20.8474 26.0295C21.0641 25.8902 21.219 25.6631 21.2628 25.4102C21.317 25.0747 21.4977 24.7728 21.7738 24.5715C22.0551 24.365 22.406 24.2876 22.7441 24.3418C23.0667 24.3934 23.3789 24.2721 23.6189 24.0502C23.8202 23.867 24.0809 23.7741 24.3286 23.8025C24.6486 23.8412 24.935 24.0837 25.0615 24.4141C25.1854 24.7289 25.4821 24.9276 25.8124 24.9844C25.9131 24.9999 26.0163 25.0308 26.1195 25.0824C26.2021 25.1237 26.2744 25.1728 26.3337 25.2218C26.5531 25.4024 26.8318 25.4902 27.1131 25.4566C27.3376 25.4308 27.6189 25.4489 27.9105 25.5934C27.9569 25.6192 28.3001 25.7973 28.5195 26.1818C28.6485 26.4114 28.8627 26.5792 29.1156 26.6514C29.3737 26.7263 29.5879 26.8966 29.6988 27.1289C29.8691 27.485 29.7246 27.8359 29.6988 27.8979Z" fill="#FFC05A"/>
<path d="M25.819 22.0528C26.0538 22.0786 26.2112 22.3857 26.1751 22.7367C26.1364 23.0876 25.9145 23.3509 25.6822 23.3251C25.4474 23.2992 25.2874 22.9947 25.3261 22.6438C25.3648 22.2928 25.5867 22.027 25.819 22.0528Z" fill="#FFC05A"/>
<path d="M26.4624 20.3986C26.5475 20.7419 26.4314 21.0644 26.2017 21.1212C25.972 21.178 25.7191 20.9431 25.634 20.6025C25.5514 20.2593 25.6675 19.9341 25.8972 19.8774C26.1243 19.8232 26.3798 20.0554 26.4624 20.3986Z" fill="#FFC05A"/>
<path d="M26.3301 17.1935C26.5649 17.2193 26.7249 17.5238 26.6862 17.8748C26.6475 18.2258 26.4256 18.489 26.1933 18.4632C25.9585 18.44 25.8011 18.1329 25.8372 17.7819C25.8759 17.4309 26.0978 17.1677 26.3301 17.1935Z" fill="#FFC05A"/>
<path d="M29.2749 16.8168C29.36 17.16 29.2439 17.4826 29.0142 17.5394C28.7845 17.5961 28.5316 17.3613 28.4465 17.0207C28.3639 16.6774 28.48 16.3523 28.7097 16.2955C28.9368 16.2413 29.1923 16.4736 29.2749 16.8168Z" fill="#FFC05A"/>
<path d="M23.316 14.071C23.5147 14.1949 23.5276 14.5381 23.3444 14.8374C23.1586 15.1394 22.8464 15.2839 22.6451 15.16C22.4438 15.0361 22.4335 14.6929 22.6167 14.391C22.8025 14.0916 23.1147 13.9471 23.316 14.071Z" fill="#FFC05A"/>
<path d="M26.6297 0.00927734C25.8039 0.226048 25.2181 0.538301 24.8414 0.775717C23.6646 1.52151 23.6465 1.9215 22.7949 2.31118C21.324 2.98213 20.235 2.1615 19.7369 2.82472C19.2879 3.426 19.8298 4.56662 19.9821 4.87113C20.3666 5.63241 20.7511 5.81306 21.2595 6.40659C22.6504 8.02205 21.7369 8.95365 23.0504 10.4994C23.7678 11.3433 24.5627 11.6813 24.5859 12.5459C24.5962 13.0104 24.3794 13.3665 24.5859 13.5703C24.8775 13.862 25.4813 13.2968 26.1188 13.5703C26.7329 13.831 26.7742 14.6103 27.1407 14.5923C27.5045 14.5768 27.6284 13.8052 27.9097 13.8258C28.2581 13.8491 28.3045 15.0645 28.6761 15.1032C28.9832 15.1368 29.0503 14.3239 29.6981 14.0813C30.1368 13.9162 30.369 14.1897 30.978 14.0813C31.4322 14.0013 31.7754 13.7639 32 13.5703V0.00927734L26.6297 0.00927734Z" fill="#D6B85A"/>
<path d="M25.8965 25.9057C26.1262 25.9573 26.2449 26.2799 26.1649 26.6257C26.0849 26.9689 25.8345 27.2037 25.6049 27.1495C25.3752 27.0953 25.2539 26.7727 25.3365 26.4295C25.4165 26.0863 25.6668 25.8515 25.8965 25.9057Z" fill="#EF9D26"/>
<path d="M22.5723 25.6476C22.8019 25.7018 22.9206 26.0244 22.8406 26.3676C22.7606 26.7134 22.5103 26.9482 22.2807 26.894C22.051 26.8399 21.9297 26.5173 22.0123 26.1741C22.0923 25.8308 22.3426 25.596 22.5723 25.6476Z" fill="#EF9D26"/>
<path d="M25.0427 4.40407L23.7266 4.32407C23.595 4.25181 23.3989 4.1202 23.2234 3.89827C22.9705 3.57569 22.8982 3.24279 22.875 3.0828C22.9731 3.04667 23.5743 2.83764 24.1937 3.1628C24.9188 3.54472 25.0324 4.33181 25.0427 4.40407Z" fill="#4AAF8F"/>
<path d="M23.7258 4.32404L25.0419 4.40403C25.0316 4.47113 24.949 5.01048 24.4587 5.29434C24.0561 5.5266 23.54 5.49563 23.1426 5.21434C23.171 5.10596 23.2174 4.97177 23.2974 4.82725C23.4342 4.5821 23.6045 4.41952 23.7258 4.32404Z" fill="#6FCEAE"/>
<path d="M13.5907 18.1741C14.0139 18.1741 14.3571 18.5174 14.3571 18.9432C14.3571 19.3664 14.0139 19.7096 13.5907 19.7096C13.1674 19.7096 12.8242 19.3664 12.8242 18.9432C12.8242 18.5174 13.1674 18.1741 13.5907 18.1741Z" fill="#543927"/>
<path d="M31.7451 27.8979L31.1489 30.1998H25.4277C28.1399 29.6991 30.527 28.9585 30.5322 27.8979H31.7451Z" fill="#543927"/>
<path d="M25.4272 30.1998C23.4273 30.5662 21.2492 30.8036 19.7241 30.943C18.5344 31.0488 17.7422 31.0952 17.7422 31.0952L17.9744 31.9907H19.7267C19.4428 31.9907 19.2157 31.761 19.2157 31.4772C19.2157 31.1959 19.4428 30.9662 19.7267 30.9662C20.008 30.9662 20.2376 31.1959 20.2376 31.4772C20.2376 31.761 20.008 31.9907 19.7267 31.9907H24.3279C24.0466 31.9907 23.8169 31.761 23.8169 31.4772C23.8169 31.1959 24.0466 30.9662 24.3279 30.9662C24.6118 30.9662 24.8414 31.1959 24.8414 31.4772C24.8414 31.761 24.6118 31.9907 24.3279 31.9907H28.9317C28.6504 31.9907 28.4207 31.761 28.4207 31.4772C28.4207 31.1959 28.6504 30.9662 28.9317 30.9662C29.213 30.9662 29.4426 31.1959 29.4426 31.4772C29.4426 31.761 29.213 31.9907 28.9317 31.9907H30.6839L31.1484 30.1998H25.4272Z" fill="#1498B7"/>
<path d="M0.515625 30.1998C0.678203 30.8604 0.866587 31.4566 1.06013 31.9907H5.66135C5.43426 31.3172 5.1891 30.3546 5.15039 29.1753C5.11684 28.1379 5.25361 27.2605 5.40587 26.6179C2.05392 31.8282 0.515625 30.1998 0.515625 30.1998Z" fill="#F7B6AD"/>
<path d="M8.21895 26.1069C8.74797 25.8721 9.17377 25.5908 9.49892 25.3379C9.24861 24.9921 8.98022 24.5663 8.72991 24.0579C8.50281 23.5934 8.33765 23.1599 8.21895 22.7805C6.45897 23.5315 5.66157 23.036 5.66157 23.036C5.5506 23.5521 5.45512 24.1534 5.40609 24.8269C5.35964 25.4927 5.36996 26.0966 5.40609 26.6179C6.03059 26.6488 7.07832 26.6101 8.21895 26.1069Z" fill="#F7B6AD"/>
<path d="M8.31424 9.87804C8.27037 9.74281 8.12508 9.66823 7.98908 9.7121C7.8536 9.75597 7.77928 9.90152 7.82315 10.0373C8.05412 10.749 8.26985 11.0571 8.51991 11.4138C8.56998 11.4855 8.64998 11.5237 8.73152 11.5237C8.78262 11.5237 8.83423 11.5085 8.87939 11.477C8.99629 11.3952 9.02442 11.2344 8.94262 11.1175C8.70727 10.7818 8.52146 10.5162 8.31424 9.87804Z" fill="#F7B6AD"/>
<path d="M10.5127 10.934C10.3899 10.5371 10.2054 10.1678 9.96408 9.83672C9.73544 9.5224 9.45777 9.24447 9.1388 9.01118C9.02371 8.9268 8.86242 8.95234 8.77829 9.06718C8.69417 9.18228 8.7192 9.34356 8.83429 9.42769C9.1099 9.62924 9.34964 9.86897 9.54706 10.1405C9.75479 10.4256 9.91402 10.7441 10.0201 11.0868C10.0544 11.1975 10.1563 11.2687 10.2665 11.2687C10.2918 11.2687 10.3176 11.2648 10.3429 11.2571C10.4789 11.2148 10.555 11.0702 10.5127 10.934Z" fill="#F7B6AD"/>
<path d="M24.9888 14.3806C24.8721 14.2994 24.7111 14.3275 24.6293 14.4444C24.0084 15.3329 23.4827 16.297 23.0667 17.3099C22.5222 18.6386 22.1723 20.0399 22.0267 21.4747C22.0123 21.6164 22.1158 21.7431 22.2574 21.7576C22.2665 21.7583 22.275 21.7588 22.2838 21.7588C22.4146 21.7588 22.5269 21.6597 22.5403 21.5268C22.6807 20.1418 23.0185 18.7888 23.5441 17.506C23.9457 16.5285 24.453 15.5979 25.0525 14.7404C25.134 14.6232 25.1057 14.4622 24.9888 14.3806Z" fill="#E7F2F1"/>
<path d="M25.6892 14.8583C25.5532 14.8137 25.4079 14.8872 25.3633 15.0225C24.8923 16.4503 24.545 17.929 24.331 19.4167C24.1821 20.4324 24.097 21.4469 24.0704 22.5189C24.0668 22.6613 24.1793 22.7798 24.322 22.7831H24.3285C24.4681 22.7831 24.5829 22.6716 24.5863 22.5312C24.6126 21.4807 24.6959 20.4864 24.8417 19.4908C25.0515 18.0322 25.3917 16.5832 25.8533 15.1843C25.898 15.0488 25.8244 14.9027 25.6892 14.8583Z" fill="#D6EAE8"/>
<path d="M27.9107 15.6488C27.9285 15.5074 27.8284 15.3783 27.6867 15.3605C27.5468 15.3417 27.4163 15.4429 27.3984 15.5845C27.2692 16.6137 27.1817 17.6534 27.1386 18.6748C27.097 19.713 27.097 20.7535 27.1386 21.7664C27.1443 21.9052 27.2586 22.0138 27.3964 22.0138C27.4 22.0138 27.4034 22.0138 27.4072 22.0136C27.5497 22.0079 27.6604 21.8877 27.6544 21.7452C27.6134 20.746 27.6134 19.7197 27.6544 18.696C27.6968 17.6893 27.783 16.664 27.9107 15.6488Z" fill="#C3DDDA"/>
<path d="M31.7367 11.1833C31.4592 10.5278 30.5664 10.2599 29.6131 10.5464C29.5429 10.5675 29.4848 10.6174 29.4536 10.6839C29.4224 10.7503 29.4211 10.8269 29.4497 10.8945L29.8936 11.9371C29.9493 12.0682 30.1006 12.1298 30.2322 12.0733C30.3633 12.0176 30.4244 11.8661 30.3684 11.7348L30.0451 10.9745C30.6169 10.8806 31.115 11.0385 31.2618 11.3853C31.3439 11.5763 31.2977 11.774 31.2448 11.9064C31.0962 12.2769 30.7184 12.6209 30.234 12.8269C29.8451 12.9931 29.4407 13.0491 29.0957 12.9843C28.7891 12.927 28.571 12.7809 28.4823 12.5727C28.386 12.3479 28.4497 12.0581 28.6567 11.7771C28.7414 11.6625 28.7168 11.501 28.602 11.4163C28.4872 11.3317 28.3256 11.3562 28.2412 11.471C27.9228 11.903 27.8376 12.3789 28.0077 12.7758C28.1664 13.1474 28.5189 13.4016 29.001 13.4916C29.1248 13.5149 29.2539 13.5262 29.386 13.5262C29.7274 13.5262 30.0895 13.4498 30.4366 13.3014C31.044 13.0431 31.5256 12.5931 31.724 12.0981C31.8523 11.7791 31.8564 11.462 31.7367 11.1833Z" fill="#604533"/>
<path d="M28.9085 9.09247C28.8143 8.98564 28.651 8.97531 28.5444 9.06976C28.4375 9.16395 28.4272 9.32705 28.5217 9.43389C28.6664 9.59775 28.8393 9.72524 29.0282 9.81375L28.6912 9.95749C28.5601 10.0135 28.4992 10.165 28.5552 10.2963C28.597 10.3944 28.6925 10.4532 28.7926 10.4532C28.8264 10.4532 28.8608 10.4465 28.8938 10.4323L30.7931 9.62201C30.9239 9.56601 30.9851 9.41479 30.9294 9.28369C30.8739 9.1526 30.7229 9.0917 30.5913 9.14692L30.0894 9.35905C29.6793 9.53479 29.2045 9.42795 28.9085 9.09247Z" fill="#604533"/>
<path d="M28.6052 8.6897C28.767 8.6897 28.9332 8.65718 29.0932 8.5906C29.5043 8.41951 29.7881 8.06364 29.8351 7.66055C29.8366 7.65281 29.8377 7.64507 29.8385 7.63707C29.8821 7.19166 29.7125 6.84327 29.5515 6.61799L29.5543 6.61618C29.6759 6.5416 29.7138 6.38264 29.6392 6.26135C29.5647 6.14006 29.4059 6.10187 29.2844 6.17645L29.0238 6.33644C29.0238 6.33644 29.0238 6.33644 29.0235 6.3367L27.5962 7.21669C27.5229 7.26185 27.4769 7.34262 27.4736 7.42856C27.4661 7.6221 27.4947 8.1088 27.9007 8.43757C27.9089 8.44635 27.9177 8.45435 27.9273 8.46183C28.1172 8.61228 28.3559 8.6897 28.6052 8.6897ZM29.112 6.88818C29.2248 7.03579 29.353 7.27527 29.3257 7.579C29.3247 7.58546 29.3236 7.59217 29.3231 7.59836C29.2937 7.85952 29.0829 8.03577 28.895 8.11396C28.7125 8.19009 28.4467 8.21512 28.2669 8.07396C28.2594 8.06596 28.2511 8.05848 28.2426 8.05151C28.0674 7.90906 28.0109 7.71732 27.9946 7.57746L29.112 6.88818Z" fill="#604533"/>
<path d="M29.309 5.48226C29.253 5.35142 29.1015 5.29001 28.9702 5.34626L27.0709 6.15657C26.9398 6.21257 26.8789 6.36405 26.9349 6.49541C26.9767 6.59347 27.0722 6.65231 27.1723 6.65231C27.2061 6.65231 27.2404 6.6456 27.2734 6.6314L29.1728 5.82109C29.3041 5.76484 29.365 5.61336 29.309 5.48226Z" fill="#604533"/>
<path d="M25.6657 6.15295C25.6649 6.15321 25.6642 6.15347 25.6634 6.15399C25.2969 6.31114 25.1261 6.73643 25.2828 7.10158C25.3997 7.37435 25.667 7.53796 25.9475 7.53796C26.0415 7.53796 26.1369 7.51964 26.2285 7.48067C26.4051 7.40687 26.5421 7.26829 26.6143 7.08997C26.6874 6.9101 26.6853 6.71294 26.6089 6.53462C26.4533 6.17205 26.0309 6.00096 25.6657 6.15295ZM26.1359 6.89642C26.1158 6.94597 26.0781 6.98442 26.0283 7.00533C25.9215 7.05074 25.8022 7.00378 25.7573 6.89849C25.7129 6.79501 25.7617 6.67423 25.8657 6.62882C25.9697 6.58649 26.0902 6.63475 26.1346 6.73798C26.1563 6.78881 26.1568 6.84507 26.1359 6.89642Z" fill="#604533"/>
<path d="M28.8266 5.00532C28.9577 4.94958 29.0189 4.79784 28.9629 4.66674C28.9071 4.53539 28.7549 4.47423 28.6243 4.53049L27.3797 5.06157C27.2602 4.99009 27.0692 4.84042 26.9985 4.58442C26.9978 4.58132 26.997 4.57848 26.9962 4.57539C26.9449 4.37281 27.0661 4.15139 27.278 4.06082L28.2483 3.64792C28.3794 3.59218 28.4406 3.44044 28.3848 3.30934C28.3288 3.17825 28.1776 3.11683 28.0463 3.17283L27.0757 3.58598C26.6318 3.77566 26.3825 4.25565 26.4961 4.70235C26.4963 4.70313 26.4966 4.70416 26.4969 4.70519C26.4976 4.70906 26.4987 4.71293 26.4997 4.71681C26.5681 4.96816 26.7041 5.1537 26.8434 5.29022L26.7245 5.34105C26.5936 5.39705 26.5327 5.54879 26.589 5.67989C26.6308 5.77769 26.726 5.83627 26.8261 5.83627C26.8599 5.83627 26.8945 5.82956 26.9278 5.81511L28.8266 5.00532Z" fill="#604533"/>
<path d="M25.6946 3.2557C25.8319 3.34783 25.9906 3.39479 26.1514 3.39479C26.3057 3.39479 26.4616 3.3517 26.6017 3.26447C26.6378 3.2397 26.6915 3.20022 26.7439 3.1437C26.9849 2.88022 26.9364 2.53958 26.9008 2.29107C26.8858 2.18681 26.861 2.01236 26.893 1.98269C26.9423 1.93727 27.1315 1.94114 27.2417 2.02707C27.3676 2.1223 27.4048 2.36617 27.245 2.59455C27.1635 2.71119 27.1916 2.87222 27.3085 2.95403C27.4254 3.03583 27.5864 3.00745 27.668 2.89054C27.973 2.45494 27.9224 1.89469 27.556 1.61805C27.2874 1.40825 26.8167 1.35225 26.5431 1.6036C26.3119 1.81779 26.355 2.12075 26.3898 2.36436C26.4198 2.57442 26.4342 2.7179 26.3638 2.79455C26.3509 2.80874 26.3343 2.82216 26.3189 2.83325C26.2169 2.89674 26.082 2.89467 25.9857 2.83016C25.9478 2.80358 25.9196 2.7739 25.899 2.73958C25.8365 2.63197 25.8525 2.48694 25.9395 2.37004C26.0244 2.25572 26.0007 2.09391 25.8863 2.00901C25.7718 1.92437 25.6105 1.94811 25.5253 2.06217C25.3153 2.34475 25.2866 2.71222 25.4544 3.00177C25.515 3.10215 25.5924 3.18473 25.6946 3.2557Z" fill="#604533"/>
</g>
<defs>
<clipPath id="clip0_940_419">
<rect width="32" height="32" fill="white"/>
</clipPath>
</defs>
</svg>
