<svg width="51" height="51" viewBox="0 0 51 51" fill="none" xmlns="http://www.w3.org/2000/svg">
<path d="M48.5059 25.5C48.4981 28.9811 47.714 32.4167 46.2109 35.5566C44.3133 39.481 41.3447 42.7889 37.6477 45.0984C33.9507 47.408 29.676 48.6251 25.3169 48.6093C20.9579 48.5934 16.6921 47.3453 13.012 45.009C9.33183 42.6726 6.38736 39.3433 4.51836 35.4052C3.61517 33.5302 2.98202 31.5368 2.63774 29.4844C2.40364 28.1692 2.28631 26.8359 2.28711 25.5C2.28711 19.371 4.72184 13.4931 9.05569 9.1592C13.3895 4.82536 19.2675 2.39063 25.3965 2.39062C31.5255 2.39063 37.4034 4.82536 41.7373 9.1592C46.0711 13.4931 48.5059 19.371 48.5059 25.5Z" fill="#B8E9FF"/>
<path d="M47.6058 31.8909C46.1784 36.8556 43.1288 41.1988 38.9438 44.2272C34.7589 47.2556 29.6799 48.7944 24.5179 48.5981C19.3559 48.4018 14.4085 46.4816 10.4656 43.1441C6.52274 39.8066 3.8118 35.2443 2.76562 30.1856C6.82969 33.2376 13.0692 36.6562 20.6156 36.6562C31.0547 36.6562 35.9156 28.8548 47.6058 31.8909Z" fill="#FFE0AB"/>
<path d="M28.5837 11.1562C27.9773 11.1596 27.3799 11.3028 26.8378 11.5746C26.547 10.4498 25.8567 9.46932 24.8957 8.81641C23.9347 8.1635 22.7689 7.88281 21.6161 8.02681C20.4633 8.1708 19.4023 8.72962 18.6315 9.59884C17.8606 10.4681 17.4326 11.5882 17.4275 12.75C17.4275 12.9038 17.4363 13.0552 17.4498 13.2042C17.0283 12.9544 16.5547 12.8053 16.0661 12.7685C15.5775 12.7318 15.087 12.8083 14.6329 12.9922C14.1787 13.176 13.7731 13.4623 13.4477 13.8287C13.1223 14.195 12.8859 14.6315 12.7568 15.1042C12.6278 15.5769 12.6097 16.073 12.7038 16.5539C12.798 17.0347 13.0019 17.4874 13.2997 17.8765C13.5975 18.2656 13.9811 18.5807 14.4206 18.7973C14.8601 19.0138 15.3438 19.126 15.8337 19.125H28.5837C29.6405 19.125 30.6539 18.7052 31.4011 17.958C32.1483 17.2108 32.5681 16.1973 32.5681 15.1406C32.5681 14.0839 32.1483 13.0704 31.4011 12.3232C30.6539 11.576 29.6405 11.1562 28.5837 11.1562Z" fill="white"/>
<path d="M48.1542 29.4844C47.7971 31.5903 47.1424 33.6348 46.2098 35.5566C35.5078 33.4608 30.6309 40.6406 20.6142 40.6406C14.8493 40.5235 9.24815 38.7018 4.51734 35.4052C3.61416 33.5302 2.981 31.5368 2.63672 29.4844H48.1542Z" fill="#EDF9FF"/>
<path d="M48.5059 25.5C48.5091 27.6621 48.2059 29.8138 47.6054 31.8909C35.9153 28.8548 31.0543 36.6562 20.6153 36.6562C13.0689 36.6562 6.82934 33.2377 2.76528 30.1856C2.44417 28.6445 2.28393 27.0742 2.28716 25.5H48.5059Z" fill="#5AC4F4"/>
<path d="M24.7031 23.1094H26.2969V32.6719H24.7031V23.1094Z" fill="#FFCF56"/>
<path d="M31.0781 23.1094H32.6719V32.6719H31.0781V23.1094Z" fill="#FFCF56"/>
<path d="M18.3281 23.1094H19.9219V32.6719H18.3281V23.1094Z" fill="#FFCF56"/>
<path d="M25.9543 23.8146C21.1377 23.8329 16.343 23.1661 11.7141 21.8344C11.5128 21.7699 11.3453 21.6281 11.2486 21.4402C11.1518 21.2523 11.1337 21.0336 11.1981 20.8323C11.2626 20.631 11.4044 20.4636 11.5923 20.3668C11.7802 20.27 11.9989 20.2519 12.2002 20.3163C12.3333 20.3594 25.6722 24.5223 38.8078 20.3163C39.004 20.2676 39.2113 20.2952 39.3879 20.3935C39.5645 20.4919 39.6971 20.6536 39.7589 20.8461C39.8207 21.0385 39.807 21.2472 39.7207 21.43C39.6344 21.6128 39.4818 21.7559 39.2939 21.8304C34.9764 23.1763 30.4766 23.8456 25.9543 23.8146Z" fill="#FFAF56"/>
<path d="M25.9543 33.3771C21.1377 33.3953 16.343 32.7286 11.7141 31.3969C11.5128 31.3324 11.3453 31.1906 11.2486 31.0027C11.1518 30.8148 11.1337 30.5961 11.1981 30.3948C11.2626 30.1935 11.4044 30.026 11.5923 29.9293C11.7802 29.8325 11.9989 29.8144 12.2002 29.8788C12.3333 29.9211 25.6722 34.0847 38.8078 29.8788C38.9093 29.8386 39.0179 29.8196 39.127 29.8231C39.2361 29.8266 39.3433 29.8524 39.442 29.899C39.5407 29.9456 39.6287 30.012 39.7007 30.0941C39.7727 30.1761 39.827 30.2721 39.8604 30.376C39.8937 30.4799 39.9054 30.5895 39.8946 30.6982C39.8839 30.8068 39.8509 30.912 39.7978 31.0073C39.7447 31.1027 39.6726 31.1861 39.5859 31.2524C39.4992 31.3187 39.3999 31.3666 39.2939 31.3929C34.9764 32.7388 30.4766 33.4081 25.9543 33.3771Z" fill="#FFAF56"/>
<path d="M25.9543 28.5959C21.1377 28.6141 16.343 27.9474 11.7141 26.6156C11.5128 26.5512 11.3453 26.4094 11.2486 26.2215C11.1518 26.0335 11.1337 25.8149 11.1981 25.6136C11.2626 25.4123 11.4044 25.2448 11.5923 25.148C11.7802 25.0513 11.9989 25.0331 12.2002 25.0976C12.3333 25.1398 25.6722 29.3035 38.8078 25.0976C39.004 25.0488 39.2113 25.0764 39.3879 25.1748C39.5645 25.2731 39.6971 25.4349 39.7589 25.6273C39.8207 25.8198 39.807 26.0285 39.7207 26.2113C39.6344 26.394 39.4818 26.5371 39.2939 26.6117C34.9764 27.9575 30.4766 28.6269 25.9543 28.5959Z" fill="#FFAF56"/>
<path d="M40.6406 19.125C40.6406 18.2448 39.9271 17.5312 39.0469 17.5312C38.1667 17.5312 37.4531 18.2448 37.4531 19.125V38.25C37.4531 39.1302 38.1667 39.8438 39.0469 39.8438C39.9271 39.8438 40.6406 39.1302 40.6406 38.25V19.125Z" fill="#687CF6"/>
<path d="M13.5469 19.125C13.5469 18.2448 12.8333 17.5312 11.9531 17.5312C11.0729 17.5312 10.3594 18.2448 10.3594 19.125V38.25C10.3594 39.1302 11.0729 39.8438 11.9531 39.8438C12.8333 39.8438 13.5469 39.1302 13.5469 38.25V19.125Z" fill="#687CF6"/>
<path d="M25.5 19.125C27.7005 19.125 29.4844 17.3411 29.4844 15.1406C29.4844 12.9401 27.7005 11.1562 25.5 11.1562C23.2995 11.1562 21.5156 12.9401 21.5156 15.1406C21.5156 17.3411 23.2995 19.125 25.5 19.125Z" fill="#FF7656"/>
</svg>
