<svg width="36" height="36" viewBox="0 0 36 36" fill="none" xmlns="http://www.w3.org/2000/svg">
<path d="M12.375 26.9775C12.375 26.9775 14.2144 25.9706 15.1875 21.5887C18.0113 21.0544 24.0525 20.0981 30.915 20.1656C31.3312 21.0937 31.7138 22.0612 32.0625 23.0625L15.6825 27.1575L12.375 26.9775Z" fill="#34B8D6"/>
<path d="M30.915 20.1656C24.0525 20.0981 18.0113 21.0544 15.1875 21.5888C15.4688 20.3231 15.6769 18.7706 15.75 16.875C16.1438 6.60938 12.375 0.5625 12.375 0.5625C12.375 0.5625 24.8625 6.60937 30.915 20.1656Z" fill="#72D4E7"/>
<path d="M25.1827 15.7781C25.006 15.7781 24.8317 15.6954 24.7225 15.5396C23.1942 13.3717 21.3802 11.3001 19.3304 9.38306C19.1037 9.171 19.0919 8.81494 19.304 8.58769C19.5172 8.36044 19.8727 8.34919 20.0993 8.56125C22.2053 10.5311 24.07 12.6608 25.6422 14.8916C25.8211 15.1459 25.7603 15.4963 25.5067 15.6758C25.4077 15.7449 25.2946 15.7781 25.1827 15.7781Z" fill="#ABEDEF"/>
<path d="M18.1992 8.10449C18.5099 8.10449 18.7617 7.85265 18.7617 7.54199C18.7617 7.23133 18.5099 6.97949 18.1992 6.97949C17.8886 6.97949 17.6367 7.23133 17.6367 7.54199C17.6367 7.85265 17.8886 8.10449 18.1992 8.10449Z" fill="#ABEDEF"/>
<path d="M33.2316 30.8531C32.7844 32.1148 31.9637 33.5593 30.4472 34.5803C29.5703 35.1709 28.5144 35.4375 27.4575 35.4375H10.0847C9.23081 35.4375 8.38256 35.2496 7.61588 34.8728C4.74881 33.4631 3.41119 31.1524 2.78906 29.3063L33.2316 30.8531Z" fill="#EA4E56"/>
<path d="M32.0897 32.3303C31.2128 32.9209 30.157 33.1875 29.1 33.1875H8.4197C7.56583 33.1875 6.71758 32.9996 5.95089 32.6228C4.93952 32.1255 4.12164 31.5146 3.45508 30.8531C4.23358 32.3185 5.51158 33.8383 7.61589 34.8728C8.38202 35.2496 9.23027 35.4375 10.0847 35.4375H27.4575C28.5145 35.4375 29.5703 35.1709 30.4472 34.5803C31.6335 33.7821 32.3895 32.7246 32.8789 31.698C32.637 31.9208 32.38 32.1351 32.0897 32.3303Z" fill="#D83049"/>
<path d="M12.9375 27.0079V0.5625C12.9375 0.252 12.6855 0 12.375 0C12.0645 0 11.8125 0.252 11.8125 0.5625V26.9477L12.375 26.9775L12.9375 27.0079Z" fill="#ADADAD"/>
<path d="M15.6825 27.1575L12.9375 27.0079L12.375 26.9775L11.8125 26.9477L2.25 26.4375C2.25 26.4375 2.25 27.6919 2.79 29.3062L33.2325 30.8531C33.75 29.3625 33.75 28.125 33.75 28.125L15.6825 27.1575Z" fill="#F99430"/>
</svg>
