<svg width="46" height="46" viewBox="0 0 46 46" fill="none" xmlns="http://www.w3.org/2000/svg">
<g clip-path="url(#clip0_940_585)">
<path d="M34.4101 18.7041C34.4101 12.7994 29.376 8.013 23.166 8.013C16.9563 8.013 11.9219 12.7994 11.9219 18.7041C11.9219 24.6083 16.9563 29.3948 23.166 29.3948C29.376 29.3948 34.4101 24.6083 34.4101 18.7041Z" fill="#FCDD3F"/>
<path d="M34.411 18.7041C34.411 24.6104 29.3742 29.3944 23.168 29.3944V8.013C29.3783 8.01369 34.411 12.7998 34.411 18.7041Z" fill="#FECF00"/>
<path d="M40.6569 35.9486C40.4366 35.8299 35.1815 33.0381 30.1159 34.635C27.412 35.4865 25.3779 37.3939 24.0526 39.0219C24.0526 44.3057 24.0609 43.9675 24.0332 44.101C26.9177 45.2672 30.3082 45.7912 33.3204 44.8425C38.3859 43.2456 41.0996 37.9432 41.2131 37.7187C41.5361 37.0754 41.2902 36.2913 40.6569 35.9486Z" fill="#84B721"/>
<path d="M41.2988 36.7438L24.0526 41.5264C24.0526 44.1197 24.0602 43.9706 24.0332 44.101C26.9177 45.2673 30.3082 45.7913 33.3204 44.8426C38.3859 43.2457 41.0996 37.9432 41.2131 37.7188C41.3708 37.4047 41.3929 37.0568 41.2988 36.7438Z" fill="#53A000"/>
<path d="M22.2825 38.9705C20.9551 37.3539 18.9362 35.4776 16.2606 34.635C11.1951 33.0382 5.93998 35.829 5.71966 35.9486C5.08638 36.2914 4.84047 37.0755 5.16351 37.7188C5.27696 37.9432 7.99062 43.2457 13.0562 44.8426C16.0375 45.7809 19.4035 45.2822 22.3053 44.1159C22.2725 43.9744 22.2825 44.3047 22.2825 38.9705Z" fill="#A2D147"/>
<path d="M22.2822 41.543L5.07298 36.7579C4.98444 37.0675 5.00727 37.4089 5.16326 37.7184C5.2767 37.9429 7.99036 43.2457 13.0559 44.8426C16.0373 45.7809 19.4032 45.2821 22.3051 44.1159C22.2736 43.9793 22.2822 44.1231 22.2822 41.543Z" fill="#7DBF06"/>
<path d="M24.4961 32.8251V43.9146C24.4961 44.6492 23.9012 45.2455 23.168 45.2455C22.4347 45.2455 21.8398 44.6492 21.8398 43.9146V32.8251H24.4961Z" fill="#84B721"/>
<path d="M24.4961 32.8251V43.9146C24.4961 44.6492 23.9012 45.2455 23.168 45.2455V32.8251H24.4961Z" fill="#53A000"/>
<path d="M23.168 5.32288C22.4344 5.32288 21.8398 4.7273 21.8398 3.99233V1.33055C21.8398 0.595927 22.4344 0 23.168 0C23.9016 0 24.4961 0.595927 24.4961 1.33055V3.99233C24.4961 4.7273 23.9016 5.32288 23.168 5.32288Z" fill="#FFB736"/>
<path d="M24.4961 1.33055V3.99233C24.4961 4.72695 23.9012 5.32288 23.168 5.32288V0C23.9012 0 24.4961 0.596273 24.4961 1.33055Z" fill="#FF941F"/>
<path d="M10.9566 9.61024L9.07855 7.72838C8.55975 7.20889 8.55975 6.36602 9.07855 5.84653C9.59701 5.32704 10.4382 5.32704 10.9566 5.84653L12.835 7.72838C13.3538 8.24822 13.3538 9.09075 12.835 9.61024C12.3162 10.1301 11.4754 10.1301 10.9566 9.61024Z" fill="#FFB736"/>
<path d="M7.22852 21.2919H4.57227C3.83868 21.2919 3.24414 20.6963 3.24414 19.9613C3.24414 19.2264 3.83868 18.6304 4.57227 18.6304H7.22852C7.9621 18.6304 8.55664 19.2264 8.55664 19.9613C8.55664 20.6963 7.9621 21.2919 7.22852 21.2919Z" fill="#FFB736"/>
<path d="M41.7617 21.2919H39.1055C38.3719 21.2919 37.7773 20.6963 37.7773 19.9613C37.7773 19.2264 38.3719 18.6304 39.1055 18.6304H41.7617C42.495 18.6304 43.0898 19.2264 43.0898 19.9613C43.0898 20.6963 42.495 21.2919 41.7617 21.2919Z" fill="#FF941F"/>
<path d="M33.2328 11.207C32.7141 10.6876 32.7141 9.84502 33.2328 9.32519L35.1109 7.44333C35.6297 6.92384 36.4705 6.92384 36.9893 7.44333C37.5081 7.96317 37.5081 8.80569 36.9893 9.32519L35.1109 11.207C34.5921 11.7269 33.7513 11.7269 33.2328 11.207Z" fill="#FF941F"/>
<path d="M26.7616 16.3587C26.2432 15.8389 25.402 15.8389 24.8836 16.3587L23.1664 18.0791L21.4491 16.3587C20.9303 15.8389 20.0895 15.8389 19.5707 16.3587C19.0519 16.8782 19.0519 17.7211 19.5707 18.2406L21.8379 20.5123C21.8379 28.0867 21.8272 27.5904 21.8624 27.7751H24.4696C24.5049 27.5914 24.4941 28.0895 24.4941 20.5123L26.7616 18.2406C27.2804 17.7211 27.2804 16.8782 26.7616 16.3587Z" fill="#FFB736"/>
<path d="M26.7636 18.241L24.4961 20.5119C24.4961 28.0919 24.5068 27.5939 24.4712 27.7751H23.168V18.0794L24.8848 16.3584C25.4036 15.8393 26.2448 15.8393 26.7636 16.3584C27.2817 16.8783 27.2817 17.7211 26.7636 18.241Z" fill="#FF941F"/>
<path d="M16.5273 27.3317V30.1637C16.5273 31.8757 17.9174 33.2685 19.6263 33.2685H26.7096C28.4186 33.2685 29.8086 31.8757 29.8086 30.1637V27.3317H16.5273Z" fill="#E2F0F7"/>
<path d="M29.8086 27.3317V30.1637C29.8086 31.8757 28.4186 33.2685 26.7096 33.2685H23.168V27.3317H29.8086Z" fill="#C3DBE2"/>
</g>
<defs>
<clipPath id="clip0_940_585">
<rect width="45.3333" height="45.3333" fill="white" transform="translate(0.5)"/>
</clipPath>
</defs>
</svg>
