<svg width="40" height="40" viewBox="0 0 40 40" fill="none" xmlns="http://www.w3.org/2000/svg">
<path d="M13.302 38.7582C13.4184 38.8836 13.3288 39.0836 13.1617 39.0866L11.7318 39.1045C11.6094 39.1075 11.5199 39.006 11.5348 38.8866L11.6124 38.2478C11.6124 38.2478 10.4572 37.3731 10.4154 36.809C10.3736 36.2418 10.4423 35.6716 10.1408 34.5343C9.83927 33.394 8.99151 32.0746 9.02136 31.4269C9.04524 30.7791 9.39748 29.7254 9.39748 29.7254L8.50195 26.4687L14.5169 23.7463C14.4811 25.0687 13.684 28.9254 10.8034 31.0687C10.8034 31.0687 11.3467 36.3314 11.7139 36.9105C11.9079 37.2149 12.4303 37.8119 12.8751 38.3015C13.0363 38.4687 13.1826 38.6299 13.302 38.7582Z" fill="#914C30"/>
<path d="M13.1597 39.0866L11.7299 39.1045C11.6075 39.1075 11.518 39.006 11.5329 38.8866L11.6105 38.2478L12.8702 38.2955C13.0314 38.4687 13.1747 38.6299 13.2971 38.7582C13.4165 38.8836 13.3269 39.0836 13.1597 39.0866Z" fill="#333333"/>
<path d="M22.1413 32.4776L21.3145 33.8686L20.7413 33.9015C20.5443 33.9134 20.41 33.7045 20.5025 33.5313L21.1742 32.2537C21.2846 32.0507 21.5503 31.997 21.7294 32.1403L22.1413 32.4776Z" fill="#333333"/>
<path d="M27.2518 31.9433L24.3682 33.6955L21.3145 33.8686L20.7413 33.9015C20.5443 33.9134 20.41 33.7045 20.5025 33.5313L21.1742 32.2537C21.2846 32.0507 21.5503 31.997 21.7294 32.1403L22.1413 32.4776L23.9891 32.3492L25.8787 31.4239L24.7443 27.3074L25.8339 25.3582L27.6548 30.8358C27.7981 31.2567 27.6309 31.7134 27.2518 31.9433Z" fill="#914C30"/>
<path d="M37.6654 20.3224C37.6654 20.3224 37.4743 21.3403 36.6982 20.5642C36.3758 20.2418 36.1639 19.8328 35.943 19.4507C35.8654 19.3105 35.7818 19.1791 35.6982 19.0507C35.4385 18.6746 35.1221 18.3761 34.6146 18.2896C33.4534 18.0955 32.6803 18 32.6803 18C32.6803 18 30.3072 21.8746 28.3251 22.7463C28.3251 22.7463 28.0833 25.2149 26.143 25.8925C26.143 25.8925 25.0803 29.0388 24.8863 30.3463C24.6923 31.6537 24.546 32.9612 24.1102 33.4448L23.6743 36.3493L24.7072 38.0358L25.143 38.7493C25.1997 38.8418 25.134 38.9612 25.0236 38.9612H23.4236C23.346 38.9612 23.2833 38.8985 23.2833 38.8209V38.0896L22.4117 36.8776L22.7012 33.4388C22.7012 33.4388 22.3609 32.4716 22.8952 31.2597C22.8952 31.2597 23.6714 28.3552 22.943 26.9015C22.943 26.9015 17.2296 26.9493 14.2266 24.7224C14.2266 24.7224 13.4505 28.4985 8.31912 29.6119C8.31912 29.6119 7.97882 31.4537 7.15494 32.1313C7.15494 32.1313 5.79972 35.809 5.89823 36.4866C5.95494 36.8806 6.54897 37.6507 7.03554 38.2239C7.16987 38.3761 7.28927 38.5134 7.39375 38.6299C7.51017 38.7582 7.41763 38.9552 7.24748 38.9552H5.85047C5.743 38.9552 5.65644 38.8687 5.65644 38.7612V38.1821C5.65644 38.1821 4.2027 36.9224 4.39673 36.3881C4.59076 35.8537 5.02659 35.9045 5.22061 34.7433C5.41464 33.5791 5.41465 30.9672 5.7042 30.3851C5.99375 29.803 6.48032 29.7075 6.48032 29.7075L7.49524 24.5284C7.49524 24.5284 5.7042 21.0418 7.05942 18.7194C8.41763 16.397 12.2415 16.7851 13.5967 17.1224C14.9549 17.4597 20.1072 16.7821 20.1072 16.7821L24.6863 16.1522L24.6923 16.1433C24.8355 15.9493 27.137 12.8627 33.2505 12.8149C33.346 12.8119 33.4475 12.8119 33.546 12.8119L33.5609 12.791L34.7878 10.994C34.8982 10.8328 35.149 10.9015 35.1609 11.0925L35.2893 13.003C35.2893 13.003 35.3788 13.1284 35.5311 13.3373C35.5818 13.409 35.6445 13.4925 35.7102 13.5851C36.3311 14.4537 37.5012 16.1254 38.1967 17.3463C38.2594 17.4597 38.3191 17.5642 38.3729 17.6687C38.546 17.997 38.6714 18.2716 38.7281 18.4746C39.0714 19.7433 38.7818 20.4687 37.6654 20.3224Z" fill="#A45E3F"/>
<path d="M8.38643 17.8418C7.85211 17.5731 7.10285 17.6418 6.51181 17.6418C6.00733 17.6418 5.44315 17.5701 4.95658 17.7254C4.04912 18.0149 3.00434 18.5851 2.3536 19.2895C1.72972 19.9672 1.75957 20.9283 1.75957 21.8V24.9642C1.75957 25.6269 1.68196 26.2567 1.55658 26.9045C1.47897 27.3045 1.18345 27.7045 1.13867 28.0806C1.44016 28.0328 1.82524 27.4448 2.02225 27.2089C2.17748 27.5791 1.92972 28.1283 1.90882 28.5164C2.13867 28.4 2.37151 28.2149 2.58942 28.0657C2.70584 28.2239 2.67599 28.4179 2.60434 29.0567C3.20434 28.6537 3.50285 27.997 3.72375 27.8537C3.76554 27.8269 3.63718 28.6657 3.67599 28.6149C3.95658 28.2478 4.12375 27.5492 4.16255 27.4388C5.40136 23.9642 5.23419 20.803 5.33569 20.188C5.40136 19.806 5.41628 19.197 5.79837 18.9731C6.11479 18.791 6.59837 18.6836 6.96255 18.803C7.43121 18.9582 7.93569 19.4089 8.32673 19.7075" fill="#A45E3F"/>
<path d="M33.552 12.8209L33.2535 13.4358C33.2356 13.4358 28.6684 13.4388 25.3938 16.5851L24.6953 16.1612L24.7013 16.1523C24.8386 15.9552 27.2177 12.7702 33.552 12.8209Z" fill="#914C30"/>
<path d="M25.0255 38.9642H23.4255C23.3478 38.9642 23.2852 38.9015 23.2852 38.8239V38.0925L24.7061 38.0358L25.1419 38.7493C25.2016 38.8478 25.1359 38.9642 25.0255 38.9642Z" fill="#333333"/>
<path d="M7.39552 38.6418C7.29402 38.5254 7.17164 38.3881 7.03731 38.2358L5.6582 38.194V38.7731C5.6582 38.8806 5.74477 38.9672 5.85223 38.9672H7.24925C7.4194 38.9642 7.51193 38.7672 7.39552 38.6418Z" fill="#333333"/>
<path d="M36.3818 18.3194C36.1997 18.5343 35.9848 18.9044 35.9459 19.4537C35.8445 19.3373 35.7579 19.2089 35.7012 19.0537C35.7937 18.6298 35.9818 18.3253 36.1459 18.1253C36.1997 18.0627 36.2982 18.0537 36.3609 18.1044C36.4236 18.1582 36.4325 18.2537 36.3818 18.3194Z" fill="#1A1A1A"/>
<path d="M38.2029 17.3582C37.5551 17.3224 37.1014 17.4597 36.8238 17.591C36.7492 17.6268 36.7134 17.7164 36.7522 17.791C36.776 17.8448 36.8298 17.8776 36.8895 17.8776C36.9104 17.8776 36.9313 17.8716 36.9522 17.8627C37.2238 17.7343 37.6895 17.6 38.379 17.6776C38.3432 17.5642 38.2895 17.4567 38.2029 17.3582Z" fill="#1A1A1A"/>
<path d="M36.3533 17.5075C35.2608 16.5134 34.5772 15.4239 34.1563 14.5104L35.7175 13.597C35.6698 13.4866 35.6101 13.406 35.5384 13.3493L34.0369 14.2328C33.7772 13.6209 33.6369 13.1134 33.5712 12.8C33.4459 12.797 33.3295 12.797 33.2578 12.8209V12.8239C33.428 13.6388 34.0578 15.8328 36.1474 17.7313C36.1772 17.7582 36.213 17.7701 36.2489 17.7701C36.2906 17.7701 36.3295 17.7522 36.3623 17.7224C36.419 17.6567 36.413 17.5642 36.3533 17.5075Z" fill="#1A1A1A"/>
<path d="M37.8665 18.9911C37.6695 19.2597 37.5322 19.8567 38.0128 19.9015C38.2606 19.9254 38.3889 19.8149 38.4606 19.5851C38.5322 19.3463 38.6009 19.0687 38.4844 18.8358C38.4277 18.7254 38.3561 18.6508 38.2546 18.5731C38.1561 18.4985 38.0486 18.397 37.9262 18.3612C38.0456 18.603 37.9889 18.8657 37.8665 18.9911Z" fill="#914C30"/>
<path d="M35.0918 14.7672C35.0918 14.7672 35.6739 14.3731 36.1187 15.1164C36.1187 15.1164 35.4321 15.2478 35.0918 14.7672Z" fill="#914C30"/>
<path d="M23.2779 16.3373C23.2451 16.1642 23.063 16.0597 22.8959 16.1194C21.9138 16.4776 18.6959 17.4657 14.4242 16.8866C14.2182 16.8597 14.0481 17.0448 14.1018 17.2448C14.4003 18.3463 15.4272 21.2627 17.9705 21.6448C21.1167 22.1194 23.1526 20.6239 23.463 19.5761C23.7018 18.7702 23.4153 17.0627 23.2779 16.3373Z" fill="#333333"/>
<path d="M19.9416 9.17912C19.9297 8.90151 19.8312 8.65077 19.7924 8.42987C19.6013 7.33435 18.7595 6.4239 18.7595 6.4239L17.2879 6.15524C17.2879 6.15524 16.0192 6.34032 15.6282 7.89554C15.467 8.54032 15.6133 9.5433 15.6192 10.1523H15.6133L15.6222 10.4717C15.6252 10.6149 15.6252 10.7015 15.6252 10.7015H15.6282L15.7327 13.9314C15.7357 14.0627 15.7506 14.1911 15.7745 14.3224L15.873 14.8717L17.9148 15.3105L19.6282 14.6866L19.9416 13.3463V9.17614V9.17912Z" fill="#4D4D4D"/>
<path d="M23.2633 18.1732L19.6364 15.1672V14.6866L15.9349 14.806C15.9349 14.806 15.3588 16.3732 16.3081 17.1672C17.2573 17.9642 20.9021 19.203 20.9021 19.203L20.4752 23.1075L22.3707 23.6478L23.5319 18.9851C23.6036 18.6866 23.5021 18.3702 23.2633 18.1732Z" fill="#E6E6E6"/>
<path d="M19.6686 14.6866H15.8597C15.8209 14.6866 15.791 14.7164 15.791 14.7552V15.1075C15.791 15.1463 15.8209 15.1761 15.8597 15.1761H19.6686C19.7074 15.1761 19.7373 15.1463 19.7373 15.1075V14.7552C19.7373 14.7194 19.7044 14.6866 19.6686 14.6866Z" fill="#666666"/>
<path d="M19.591 3.82983L19.4626 3.97311C19.4626 3.97311 19.8477 4.33132 19.8806 4.50147C19.9134 4.66863 19.6089 4.73729 19.6089 4.73729C19.6089 4.73729 19.6925 4.93431 19.5611 5.00296C19.5611 5.00296 19.7014 5.0746 19.5552 5.22684C19.5552 5.22684 19.4507 5.27162 19.5552 5.44177C19.6597 5.60893 19.585 5.88953 19.2447 5.9164C18.9014 5.94028 18.7134 5.90147 18.7134 5.90147L18.6567 6.34028L17.0388 5.71042L17.0806 4.99699C17.0806 4.99699 17.0656 4.96416 17.0477 4.91043C16.9522 4.66266 16.6955 3.94028 16.8 3.70445C16.8 3.70445 16.6865 2.78207 17.1283 2.4746C17.5701 2.16117 18.8328 2.28654 19.0895 2.35819C19.3403 2.42983 19.6597 2.88953 19.2865 3.12237L19.591 3.82983Z" fill="#F0C067"/>
<path d="M19.092 2.35519C18.8383 2.28355 17.5726 2.16116 17.1308 2.47161C16.8473 2.66863 16.8234 3.11937 16.7876 3.4149C16.7607 3.64475 16.7756 3.80893 16.7756 3.88057C16.7756 4.41788 17.0025 4.79102 17.0831 4.99102L17.5249 4.88355C17.5249 4.88355 17.4264 4.32833 17.504 4.02087C17.5876 3.71639 17.9816 3.81788 18.101 4.02385C18.1935 4.18206 18.2592 4.6746 18.2592 4.6746L18.4771 4.63878L18.3995 3.88057C18.3786 3.66863 18.4383 3.44773 18.5905 3.29848C18.6144 3.27758 18.6383 3.2537 18.6652 3.23579C18.895 3.06863 19.2861 3.11042 19.2861 3.11042C19.6622 2.88952 19.3428 2.42982 19.092 2.35519Z" fill="#333333"/>
<path d="M16.8359 3.00894L17.1106 1.13133C17.1374 0.955207 17.3255 0.853715 17.4867 0.928341L17.9583 1.19401C18.0986 1.27163 18.2718 1.26864 18.4091 1.18506L18.8359 0.922371C18.9941 0.850729 19.1792 0.946252 19.2091 1.11939L19.5374 2.94625L16.8359 3.00894Z" fill="#A45E3F"/>
<path d="M20.6416 3.57017C20.5282 3.79107 19.4476 3.46271 18.1461 3.47465C16.8446 3.45972 15.764 3.79107 15.6506 3.57017C15.5252 3.36719 16.5998 2.58808 18.1461 2.59107C19.6923 2.5851 20.767 3.3642 20.6416 3.57017Z" fill="#914C30"/>
<path d="M16.9112 5.51941L16.6426 6.4209L19.0993 6.85672L18.6844 6.01792L16.9112 5.51941Z" fill="#666666"/>
<path opacity="0.25" d="M18.3535 8.77014V11.5164L20.0132 12.7403L18.5565 11.3224L18.3535 8.77014Z" fill="#333333"/>
<path opacity="0.25" d="M16.3867 9.23285L16.7061 12.6717L19.733 14.1702L16.6584 13.0149C16.5778 12.9851 16.521 12.9075 16.5181 12.8209L16.3867 9.23285Z" fill="#333333"/>
<path d="M23.9788 27.6059C24.0265 27.4925 24.0236 27.4029 24.0056 27.3403C23.9877 27.2806 23.934 27.2388 23.8713 27.2388C23.4325 27.2358 22.8027 26.9671 22.5191 26.7343C22.2176 26.4865 21.8833 25.7552 21.8833 25.7552C21.8833 25.7552 21.9848 25.385 22.1071 24.9283L22.1161 24.8985C22.1609 24.7223 22.2116 24.5373 22.2564 24.3522C22.3042 24.1641 22.3489 23.9791 22.3877 23.8149C22.4385 23.6 22.4743 23.4208 22.4862 23.3223C22.537 22.8806 21.9131 22.6328 21.9131 22.6328C20.934 22.1582 20.3937 23.0089 20.3937 23.0089L20.3579 23.3134L20.2922 23.8895L20.2236 24.4985L20.2086 24.6179L20.143 25.197L20.0892 25.3701C20.0743 25.4 20.1042 25.3343 20.0892 25.3701C20.0833 25.385 20.0743 25.4029 20.0683 25.4179C20.0027 25.5761 19.9221 25.782 19.8564 25.9552C19.8534 25.9611 19.8504 25.9671 19.8504 25.9761C19.8295 26.0298 19.7221 26.3223 19.7221 26.3223L19.728 26.3701L19.7012 26.9432L19.8176 26.9701L20.6624 27.3044C20.7221 27.3164 20.7788 27.2806 20.7967 27.2238L20.8534 27.0208C20.8534 27.0208 21.4056 27.4298 22.0952 27.7701C22.7848 28.1104 24.0206 27.797 24.0594 27.6626C24.0892 27.5283 23.9788 27.6059 23.9788 27.6059Z" fill="#333333"/>
<path d="M23.9892 27.594C24.0399 27.4746 24.031 27.385 24.0101 27.3253C23.9892 27.2716 23.9384 27.2358 23.8787 27.2358C23.4399 27.2358 22.8041 26.9671 22.5205 26.7313C22.219 26.4836 21.8847 25.7522 21.8847 25.7522L21.8518 25.788C21.7921 25.8567 21.7683 25.9492 21.7921 26.0358C21.813 26.1164 21.819 26.2149 21.7414 26.2627C21.5951 26.3522 21.1295 26.3134 20.7384 26.0746C20.4399 25.8925 20.0907 25.3701 20.0907 25.3701C20.0847 25.385 20.0757 25.403 20.0698 25.4179C20.0041 25.5761 19.9235 25.7821 19.8578 25.9552C19.8548 25.9612 19.7295 26.3015 19.7295 26.3015L19.7205 26.3224L19.7265 26.3701C19.7384 26.4149 19.7205 26.4089 19.7175 26.4567C19.7116 26.5313 19.7444 26.6179 19.7474 26.7104C19.8817 26.7731 20.0011 26.8238 20.1683 26.8776C20.228 26.8955 20.2877 26.9164 20.3474 26.9343C20.3832 26.9433 20.4548 26.9433 20.4459 26.9522C20.4638 26.9492 20.4757 26.9462 20.4787 26.9462C20.5354 26.9373 20.5832 26.9313 20.6369 26.9343C20.8966 26.9462 21.1504 27.0567 21.3504 27.2149C21.4339 27.2836 21.5056 27.3612 21.5533 27.4507C21.5832 27.4716 21.613 27.4925 21.6399 27.5194C21.7384 27.6089 22.0011 27.6537 22.1713 27.6955C22.3683 27.7433 22.5504 27.7791 22.7295 27.797C23.1384 27.8358 23.5474 27.8268 23.9265 27.6686C23.9713 27.6507 24.013 27.6358 24.0578 27.6268C24.0698 27.5313 23.9892 27.594 23.9892 27.594Z" fill="#4D4D4D"/>
<path d="M21.6092 22.8448C21.5883 22.8388 21.5644 22.8507 21.5615 22.8716L20.4898 26.6985C20.4838 26.7194 20.4958 26.7433 20.5167 26.7463C20.5376 26.7522 20.5615 26.7403 20.5644 26.7194L21.6361 22.8925C21.6421 22.8746 21.6301 22.8507 21.6092 22.8448Z" fill="#1A1A1A"/>
<path d="M24.0828 27.594C24.0649 27.5612 24.0291 27.5463 23.9932 27.5582C23.8052 27.6239 23.2082 27.8119 22.5634 27.7224C21.7873 27.6149 21.3903 27.188 21.0589 26.8985C20.7783 26.6537 20.044 26.6537 19.8947 26.4925C19.7455 26.3313 19.7276 26.2776 19.6947 26.3403C19.6679 26.391 19.641 26.803 19.6291 27C19.6261 27.0567 19.6649 27.1074 19.7216 27.1194L20.6589 27.3045C20.7186 27.3164 20.7753 27.2806 20.7903 27.2239L20.847 27.0209C20.847 27.0209 20.9843 27.1194 21.3306 27.3701C21.6112 27.5761 22.0798 27.7791 22.2141 27.8209C22.3455 27.8597 23.0888 28.1074 24.0261 27.7164C24.0589 27.7045 24.1067 27.6477 24.0828 27.594Z" fill="#333333"/>
<path d="M30.9178 19.6896C28.1118 19.6896 24.6641 18.6 21.688 14.4567C21.6402 14.3881 21.6551 14.2955 21.7238 14.2448C21.7924 14.197 21.885 14.212 21.9357 14.2806C28.0163 22.7493 36.1059 18.1373 36.1865 18.0925C36.2581 18.0508 36.3507 18.0746 36.3924 18.1463C36.4342 18.2179 36.4104 18.3105 36.3387 18.3523C36.2969 18.3761 33.9954 19.6896 30.9178 19.6896Z" fill="#1A1A1A"/>
<path d="M36.527 18.4716C36.2195 18.4716 35.9688 18.2209 35.9688 17.9134C35.9688 17.606 36.2195 17.3552 36.527 17.3552C36.8344 17.3552 37.0852 17.606 37.0852 17.9134C37.0852 18.2209 36.8344 18.4716 36.527 18.4716ZM36.527 17.6567C36.3867 17.6567 36.2702 17.7701 36.2702 17.9134C36.2702 18.0567 36.3837 18.1701 36.527 18.1701C36.6702 18.1701 36.7837 18.0567 36.7837 17.9134C36.7837 17.7701 36.6673 17.6567 36.527 17.6567Z" fill="#333333"/>
<path d="M20.3201 13.388C20.3201 13.388 21.544 13.1791 21.9111 13.2955C22.1649 13.3761 22.3141 13.6 22.3798 13.7283C22.4097 13.7851 22.4126 13.8507 22.3917 13.9104L22.1261 14.6657C22.0932 14.7582 22.0067 14.8209 21.9052 14.8209H21.5619C21.4783 14.8209 21.3977 14.7761 21.3589 14.7015L21.1917 14.397L20.0156 14.1313L20.3201 13.388Z" fill="#F0C067"/>
<path d="M18.3534 8.77014V11.5164L20.8191 13.194L20.4131 14.5075L16.7086 12.6716L16.3594 8.90149L18.3534 8.77014Z" fill="#4D4D4D"/>
<g opacity="0.5">
<path d="M5.47705 18.9492C5.47705 18.9492 4.88899 18.8627 4.78451 21.6836C4.68003 24.5045 4.05615 27.0418 3.3457 27.8179C3.3457 27.8179 4.29794 25.2627 4.42331 23.3015C4.55167 21.3373 4.38152 19.3343 5.47705 18.9492Z" fill="#914C30"/>
<path d="M4.75985 18.597C4.75985 18.597 4.14791 18.5075 4.04044 21.4388C3.93298 24.3701 3.28522 27.0089 2.54492 27.8149C2.54492 27.8149 3.53298 25.1582 3.66432 23.1194C3.79865 21.0806 3.61955 19 4.75985 18.597Z" fill="#914C30"/>
<path d="M3.85476 18.7731C3.85476 18.7731 3.3861 18.6926 3.30252 21.3672C3.21894 24.0418 2.72341 26.4567 2.15625 27.194C2.15625 27.194 2.91446 24.7702 3.01595 22.9075C3.11744 21.0418 2.98013 19.1433 3.85476 18.7731Z" fill="#914C30"/>
<path d="M2.80844 19.6358C2.80844 19.6358 2.46814 19.597 2.5159 21.5313C2.56367 23.4686 2.30098 25.2268 1.92188 25.7821C1.92188 25.7821 2.37262 24 2.36964 22.6507C2.36964 21.3045 2.19352 19.9373 2.80844 19.6358Z" fill="#914C30"/>
</g>
</svg>
