<svg width="33" height="33" viewBox="0 0 33 33" fill="none" xmlns="http://www.w3.org/2000/svg">
<g clip-path="url(#clip0_940_648)">
<path d="M21.4459 12.2374L21.0689 12.802C20.7755 13.2415 20.6091 13.7535 20.5883 14.2815L20.5616 14.9585C20.5159 16.1177 19.7762 17.1352 18.6876 17.5363L18.0538 17.7697C17.5562 17.953 17.1193 18.2707 16.7914 18.6874L16.3761 19.2153C15.6576 20.1286 14.4589 20.5179 13.3409 20.2012L12.6952 20.0183C12.1842 19.8735 11.6431 19.8735 11.1321 20.0183L10.4864 20.2012C9.36838 20.5179 8.16971 20.1286 7.45117 19.2153L7.03581 18.6874C6.70797 18.2706 6.27095 17.953 5.77344 17.7697L5.13967 17.5363C4.05103 17.1352 3.31135 16.1177 3.26563 14.9585L3.23894 14.2815C3.21814 13.7535 3.0518 13.2415 2.75837 12.8021L2.38127 12.2374C1.73749 11.2734 1.73749 10.0166 2.38127 9.05254L2.7583 8.48791C3.05174 8.04847 3.21808 7.5365 3.23888 7.0085L3.26557 6.33143C3.31129 5.17221 4.05096 4.15474 5.1396 3.7537L5.77337 3.52025C6.27095 3.33696 6.7079 3.01926 7.03581 2.60253L7.4511 2.07466C8.16958 1.16138 9.36824 0.772056 10.4863 1.08871L11.1319 1.2716C11.6429 1.41636 12.1841 1.41636 12.6951 1.2716L13.1285 1.14876L13.3407 1.15406C14.4587 0.837336 15.6573 1.22666 16.3759 2.13994L16.7912 2.66787C17.1191 3.08461 17.5561 3.40224 18.0536 3.58553L18.6874 3.81898C19.776 4.22002 20.4503 5.17208 20.496 6.3313L20.5227 7.0083C20.5435 7.5363 20.7753 8.11369 21.0687 8.55312L21.3804 9.05241C22.0242 10.0166 22.0896 11.2734 21.4459 12.2374Z" fill="#FFD271"/>
<path d="M20.0916 31.3002L18.0311 31.9543H11.7615L9.34432 31.3002L7.4835 31.9543H4.69835C4.15021 31.9543 3.68978 31.542 3.62947 30.9972L1.54102 12.1206L1.97888 10.82L22.5023 10.1659L20.0916 31.3002Z" fill="#FE646F"/>
<path d="M11.7625 31.9546H7.48463L5.07422 10.1661H9.35212L9.81935 14.3893L9.83355 20.4309L11.4257 28.9097L11.7625 31.9546Z" fill="#F2FBFF"/>
<path d="M11.0812 25.8073C10.3035 24.2721 9.86523 22.536 9.86523 20.6973C9.86523 19.7384 9.98428 18.8076 10.2086 17.9193L11.0812 25.8073Z" fill="#F2FBFF"/>
<path d="M6.33653 7.44689C6.1696 7.44689 6.00693 7.36172 5.91509 7.20801C5.67117 6.8001 5.60059 6.32155 5.71663 5.86067C5.8326 5.39971 6.12113 5.01156 6.5291 4.76764C7.37108 4.26417 8.46593 4.53955 8.96947 5.38166C9.10853 5.6142 9.03279 5.91542 8.80025 6.05448C8.56771 6.19354 8.26643 6.11773 8.12743 5.8852C7.90156 5.50751 7.41046 5.38388 7.03264 5.60975C6.84962 5.71918 6.72024 5.89331 6.66823 6.10007C6.61617 6.30684 6.64783 6.52145 6.75719 6.70447C6.89626 6.93701 6.82051 7.23823 6.58797 7.37729C6.50902 7.42445 6.42216 7.44689 6.33653 7.44689Z" fill="#FFC55E"/>
<path d="M14.1626 5.49655C14.1031 5.49655 14.0427 5.48569 13.984 5.46267C13.7317 5.36396 13.6072 5.07942 13.7059 4.82706C13.7836 4.62848 13.7792 4.41157 13.6938 4.21625C13.6082 4.02094 13.4518 3.87062 13.2533 3.79291C13.0545 3.7152 12.8377 3.71945 12.6424 3.80501C12.4471 3.89051 12.2968 4.0469 12.2191 4.24549C12.1204 4.49785 11.8361 4.62246 11.5835 4.52369C11.3312 4.42498 11.2066 4.14044 11.3053 3.88809C11.4784 3.44545 11.8136 3.09667 12.249 2.90613C12.6845 2.71559 13.1681 2.70604 13.6106 2.87912C14.0533 3.05226 14.402 3.38743 14.5926 3.8228C14.7831 4.25825 14.7927 4.74183 14.6195 5.18447C14.5438 5.37815 14.3586 5.49655 14.1626 5.49655Z" fill="#FFC55E"/>
<path d="M10.2452 8.68511C10.0282 8.68511 9.82966 8.54002 9.77131 8.32037C9.64932 7.86099 9.71349 7.38159 9.95205 6.97048C10.1906 6.55937 10.575 6.2658 11.0344 6.14381C11.4937 6.02182 11.9731 6.08599 12.3842 6.32454C12.7953 6.5631 13.0889 6.94746 13.211 7.40684C13.2804 7.66868 13.1246 7.93732 12.8627 8.00686C12.6008 8.07659 12.3323 7.92051 12.2626 7.65861C12.208 7.45256 12.0762 7.28014 11.8918 7.17312C11.7074 7.06611 11.4923 7.0374 11.2863 7.09201C11.0802 7.14676 10.9078 7.2785 10.8007 7.4629C10.6937 7.64729 10.665 7.86236 10.7197 8.06834C10.7893 8.33018 10.6334 8.59889 10.3715 8.66843C10.3292 8.67974 10.2869 8.68511 10.2452 8.68511Z" fill="#FFC55E"/>
<path d="M21.446 12.2377L21.0692 12.8022C20.7755 13.2417 20.6093 13.7532 20.5884 14.2818L20.5616 14.9588C20.5158 16.1179 19.7767 17.135 18.6876 17.536L18.0537 17.7695C17.5566 17.9533 17.1196 18.2705 16.7913 18.6872L16.3759 19.2151C15.6577 20.1289 14.4594 20.5181 13.3408 20.2015L13.1289 20.1413C13.6254 19.9634 14.0734 19.6481 14.4136 19.2151L14.8289 18.6872C15.1573 18.2705 15.5943 17.9533 16.0914 17.7695L16.7252 17.536C17.8143 17.135 18.5535 16.1179 18.5993 14.9588L18.6261 14.2818C18.647 13.7532 18.8131 13.2417 19.1068 12.8022L19.4836 12.2377C20.1273 11.2735 20.1273 10.0163 19.4836 9.05279L19.1068 8.48764C18.8131 8.04873 18.647 7.53656 18.6261 7.00869L18.5993 6.33168C18.5535 5.17194 17.8143 4.15479 16.7252 3.75382L16.0914 3.5203C15.5943 3.33715 15.1573 3.01925 14.8289 2.60258L14.4136 2.07471C14.0734 1.64234 13.6254 1.32706 13.1289 1.14914L13.3408 1.08896C14.4594 0.771719 15.6577 1.16157 16.3759 2.07471L16.7913 2.60258C17.1196 3.01925 17.5566 3.33715 18.0537 3.5203L18.6876 3.75382C19.7767 4.15479 20.5158 5.17194 20.5616 6.33168L20.5884 7.00869C20.6093 7.53656 20.7755 8.04873 21.0692 8.48764L21.446 9.05279C22.0896 10.0163 22.0896 11.2735 21.446 12.2377Z" fill="#FFC55E"/>
<path d="M22.6486 12.1203L13.7969 11.4662L11.8342 12.1203H1.17858C0.527673 12.1203 0 11.5926 0 10.9416C0 10.2907 0.527673 9.763 1.17858 9.763H16.1664L17.5286 10.4171L22.6486 9.763C23.2995 9.763 23.8272 10.2907 23.8272 10.9416C23.8272 11.5926 23.2996 12.1203 22.6486 12.1203Z" fill="#95C7F9"/>
<path d="M32.9993 31.5137C32.9993 31.7852 32.7795 32.0043 32.5087 32.0043H21.7812C23.221 31.9304 24.0742 31.5863 25.3229 31.0231H32.5087C32.7795 31.0231 32.9993 31.2429 32.9993 31.5137Z" fill="#1A4C65"/>
<path d="M19.9636 31.9546H18.0013C16.4304 31.786 14.9558 30.6418 13.6443 29.8975C12.8369 29.4393 12.0914 29.5388 11.4234 28.9035C9.25439 26.8408 7.90234 23.9269 7.90234 20.6973C7.90234 18.3639 8.60813 16.1954 9.81818 14.3936C10.0223 14.0897 10.8949 13.7961 11.1268 13.514C11.5398 13.0115 11.3411 12.5453 11.8336 12.1206H13.7959C12.9578 12.8433 12.2268 13.0326 11.6299 13.9697C10.9915 14.972 10.5066 16.7356 10.208 17.9193C9.98373 18.8082 11.761 19.7392 11.761 20.6977C11.761 22.5406 10.305 24.2803 11.086 25.8181C11.8686 27.3589 12.9933 29.3507 14.3601 30.3853C15.9523 31.5904 17.8727 31.7301 19.9636 31.9546Z" fill="#DFF6FD"/>
<path d="M19.9649 31.9546H18.0025C15.4646 31.6818 13.1778 30.5705 11.4248 28.9032L11.082 25.8073C11.7166 27.0602 13.7432 27.2703 14.7764 28.2016C16.4983 29.7537 17.5336 31.6934 19.9649 31.9546Z" fill="#FF555A"/>
<path d="M10.2082 17.9193L9.81836 14.3943C10.3861 13.5485 11.0651 12.7839 11.8337 12.1206H13.796C13.028 12.783 13.4354 14.3921 12.8681 15.2361C12.1541 16.2985 10.5301 16.6428 10.2082 17.9193Z" fill="#FF555A"/>
<path d="M18.2391 9.76318H16.2767C15.8614 9.87504 15.4552 10.0098 15.0601 10.1661C13.8729 10.6358 12.7844 11.3003 11.834 12.1206H13.7963L18.2391 9.76318Z" fill="#4CA3F6"/>
<path d="M32.4442 20.6976C32.4442 26.9507 27.4405 31.9544 21.1874 31.9544C20.8717 31.9544 20.5591 32.0069 20.2499 31.9815C14.4355 31.5049 9.86523 26.635 9.86523 20.6976C9.86523 14.7618 14.433 9.8929 20.2452 9.41408C20.5559 9.38851 20.8701 9.44084 21.1874 9.44084C27.4405 9.44084 32.4442 14.4445 32.4442 20.6976Z" fill="#275E7C"/>
<path d="M28.1053 21.3535C27.4774 21.5575 26.8295 21.5914 26.2572 21.3729C25.4991 21.0836 24.8738 20.4664 24.6036 19.6347C24.1439 18.2199 24.8802 16.7036 26.255 16.1798C26.2986 16.1632 26.3429 16.213 26.3878 16.1984C27.8474 15.7241 29.3499 16.4575 29.8241 17.9172C30.2983 19.3768 29.565 20.8792 28.1053 21.3535Z" fill="#F2FBFF"/>
<path d="M22.7087 27.4502C21.8065 26.2085 22.0818 24.4706 23.3235 23.5685C23.5291 23.4192 23.7482 23.3021 23.975 23.2163C25.1177 22.784 26.4524 23.2126 27.2053 24.2488C27.5116 24.6703 27.6167 25.134 27.6598 25.5979C27.7437 26.5004 27.4105 27.4038 26.5905 27.9996C25.8049 28.5704 24.8206 28.7353 23.9751 28.4169C23.4842 28.2319 23.0401 27.9062 22.7087 27.4502Z" fill="#F2FBFF"/>
<path d="M15.3063 24.1833C15.6396 23.7245 16.0869 23.3977 16.5812 23.2134C17.4248 22.8989 18.4051 23.065 19.188 23.6339C19.8823 24.1383 20.209 24.8631 20.2621 25.6212C20.304 26.2189 20.2005 26.8373 19.8028 27.3848C19.052 28.4182 17.7223 28.8475 16.5815 28.4205C16.3516 28.3345 16.1294 28.2163 15.9211 28.065C14.6795 27.1628 14.4042 25.4249 15.3063 24.1833Z" fill="#F2FBFF"/>
<path d="M16.1268 16.1983C17.5864 16.6726 18.3199 18.175 17.8456 19.6346C17.3713 21.0943 15.8689 21.8277 14.4093 21.3534C14.3679 21.34 14.3271 21.3911 14.2869 21.3759C12.9054 20.8559 12.1642 19.3354 12.625 17.9171C12.8981 17.0769 13.5335 16.4556 14.302 16.1701C14.8685 15.9597 15.5074 15.9971 16.1268 16.1983Z" fill="#F2FBFF"/>
<path d="M23.9691 14.4245C23.9691 15.9593 22.7904 17.1381 21.2556 17.1381C20.9103 17.1381 20.5797 17.1405 20.2747 17.0255C19.2239 16.629 18.4766 15.614 18.4766 14.4245C18.4766 13.235 19.224 12.22 20.2748 11.8236C20.5798 11.7085 20.9103 11.7109 21.2556 11.7109C22.7904 11.7109 23.9691 12.8897 23.9691 14.4245Z" fill="#F2FBFF"/>
<path d="M22.5179 20.6975C22.5179 21.4686 21.9583 22.0283 21.1872 22.0283C20.9769 22.0283 20.7775 22.0472 20.5986 21.964C20.1217 21.7419 19.791 21.2583 19.791 20.6975C19.791 20.1406 20.1171 19.6598 20.5888 19.4358C20.7702 19.3496 20.9731 19.3668 21.1872 19.3668C21.9583 19.3668 22.5179 19.9265 22.5179 20.6975Z" fill="#95C7F9"/>
<path d="M32.5102 20.6973C32.5102 26.9506 27.4409 32.02 21.1882 32.02C20.8579 32.02 20.5302 32.0056 20.207 31.9775C26.0005 31.4803 30.5479 26.6203 30.5479 20.6973C30.5479 14.7749 26.0005 9.91489 20.207 9.41776C20.5302 9.38963 20.8579 9.37524 21.1882 9.37524C27.4409 9.37524 32.5102 14.4446 32.5102 20.6973Z" fill="#1A4C65"/>
<path d="M28.1056 21.4188C27.4803 21.6216 26.836 21.5915 26.2656 21.3756C27.6471 20.8556 28.3876 19.3354 27.9271 17.9173C27.6563 17.082 27.0277 16.4639 26.2656 16.1761C26.3062 16.1604 26.3467 16.146 26.3879 16.1329C27.8479 15.6587 29.4152 16.4573 29.8894 17.9173C30.3636 19.3767 29.565 20.9446 28.1056 21.4188Z" fill="#DFF6FD"/>
<path d="M26.5924 28.0652C25.8068 28.6356 24.823 28.735 23.9779 28.4171C24.2048 28.3321 24.4246 28.215 24.63 28.0652C25.8715 27.1625 26.1469 25.4252 25.2449 24.1831C24.9133 23.7265 24.4678 23.4007 23.9766 23.2163C25.1193 22.7839 26.4537 23.1469 27.2072 24.1831C28.1092 25.4252 27.8339 27.1625 26.5924 28.0652Z" fill="#DFF6FD"/>
<path d="M19.1978 28.0652C18.4122 28.6356 17.4285 28.735 16.5833 28.4171C16.8103 28.3321 17.0301 28.215 17.2355 28.0652C18.477 27.1625 18.7524 25.4252 17.8504 24.1831C17.5187 23.7265 17.0733 23.4007 16.582 23.2163C17.7248 22.7839 19.0592 23.1469 19.8127 24.1831C20.7147 25.4252 20.4393 27.1625 19.1978 28.0652Z" fill="#DFF6FD"/>
<path d="M17.9096 19.6344C17.4354 21.0943 15.8675 21.893 14.4075 21.4188C14.3663 21.405 14.3251 21.3913 14.2852 21.3756C15.0472 21.0878 15.6765 20.4697 15.9473 19.6344C16.4078 18.2162 15.6673 16.6954 14.2852 16.1761C14.8549 15.9602 15.4998 15.9295 16.1252 16.1329C17.5852 16.6071 18.3838 18.175 17.9096 19.6344Z" fill="#DFF6FD"/>
<path d="M24.0352 14.4244C24.0352 15.9596 22.7911 17.2037 21.2566 17.2037C20.9112 17.2037 20.5802 17.1409 20.2754 17.0251C21.3259 16.6287 22.0729 15.6142 22.0729 14.4244C22.0729 13.2352 21.3259 12.2207 20.2754 11.8236C20.5802 11.7085 20.9112 11.6457 21.2566 11.6457C22.7911 11.6457 24.0352 12.8898 24.0352 14.4244Z" fill="#DFF6FD"/>
<path d="M22.5842 20.6973C22.5842 21.4685 21.9595 22.0939 21.1883 22.0939C20.9777 22.0939 20.7782 22.0474 20.5996 21.9637C21.0765 21.7419 21.4068 21.2579 21.4068 20.6973C21.4068 20.1374 21.0765 19.6534 20.5996 19.4316C20.7782 19.3479 20.9777 19.3015 21.1883 19.3015C21.9595 19.3015 22.5842 19.9268 22.5842 20.6973Z" fill="#4CA3F6"/>
</g>
<defs>
<clipPath id="clip0_940_648">
<rect width="33" height="33" fill="white"/>
</clipPath>
</defs>
</svg>
