<svg width="31" height="31" viewBox="0 0 31 31" fill="none" xmlns="http://www.w3.org/2000/svg">
<g clip-path="url(#clip0_940_604)">
<path d="M24.7971 12.1893C24.1954 12.4831 23.5396 12.7288 22.8416 12.9134C22.7899 12.9272 22.738 12.9401 22.6861 12.9532C21.1929 13.3263 19.7345 13.361 18.4784 13.1137C16.58 12.7389 15.1446 11.7192 14.7545 10.2457C14.2398 8.30119 15.6965 6.14424 18.1836 4.81554C18.4997 4.64731 18.7615 4.40469 18.9519 4.11387C19.1419 3.82445 19.2605 3.48683 19.2895 3.13027C19.3857 1.9513 18.5422 0.901726 17.3689 0.746137C15.7606 0.531823 13.4265 0.423496 11.122 1.03368C3.37997 3.08324 -1.19901 11.2277 0.745265 18.9965C2.77049 27.0883 11.0181 31.9343 19.0551 29.7956C25.656 28.0394 30.0736 22.0372 30.1349 15.4908C30.1353 15.4384 30.1342 15.3803 30.1307 15.3162C29.9863 12.6818 27.1686 11.0314 24.7971 12.1893ZM24.1633 21.2862C23.0085 21.592 21.8255 20.9043 21.5202 19.7502C21.2144 18.5953 21.902 17.4124 23.0569 17.1068C24.2111 16.8012 25.394 17.4889 25.6996 18.6437C26.0051 19.7977 25.3175 20.9806 24.1633 21.2862Z" fill="#E5E9EA"/>
<path d="M20.2953 24.5757C20.2953 26.0343 19.113 27.2165 17.6545 27.2165C16.1959 27.2165 15.0137 26.0343 15.0137 24.5757C15.0137 23.1172 16.1959 21.9347 17.6545 21.9347C19.113 21.9347 20.2953 23.1172 20.2953 24.5757Z" fill="#42C0E2"/>
<path d="M12.8756 22.7379C12.8756 24.1964 11.6931 25.3787 10.2348 25.3787C8.77622 25.3787 7.59375 24.1964 7.59375 22.7379C7.59375 21.2793 8.77622 20.0969 10.2348 20.0969C11.6931 20.0969 12.8756 21.2793 12.8756 22.7379Z" fill="#49BD90"/>
<path d="M8.48494 16.2956C8.48494 17.7542 7.30271 18.9364 5.84415 18.9364C4.3856 18.9364 3.20312 17.7542 3.20312 16.2956C3.20312 14.8371 4.3856 13.6546 5.84415 13.6546C7.30271 13.6546 8.48494 14.8371 8.48494 16.2956Z" fill="#FA70B2"/>
<path d="M10.69 8.85307C10.69 10.3116 9.50755 11.4941 8.049 11.4941C6.59044 11.4941 5.4082 10.3116 5.4082 8.85307C5.4082 7.39452 6.59044 6.21228 8.049 6.21228C9.50755 6.21228 10.69 7.39452 10.69 8.85307Z" fill="#FFD061"/>
<path d="M28.5507 12.0198L28.1066 17.7155L27.1637 29.8014C27.145 30.0454 26.9814 30.2623 26.7306 30.4181C26.4803 30.5739 26.1408 30.6682 25.7697 30.6666C25.0278 30.6635 24.4176 30.2775 24.3839 29.7897L23.5428 17.6963L23.1465 11.9971L28.5507 12.0198Z" fill="#FFD061"/>
<path d="M26.4398 30.5561C25.9511 30.4244 25.5996 30.1146 25.5739 29.7476L24.6705 12.0037L23.1465 11.9971L23.5431 17.6961L24.3839 29.7894C24.4176 30.2773 25.0281 30.6633 25.7697 30.6663C26.0119 30.6675 26.2412 30.6277 26.4398 30.5561Z" fill="#EF8930"/>
<path d="M28.1068 17.7155L28.5509 12.0198L24.6708 12.0037L23.1465 11.9971L23.5433 17.6963L24.9609 17.7022L28.1068 17.7155Z" fill="#3E4B5C"/>
<path d="M23.1467 11.9974C20.6736 10.8858 20.4139 7.16807 22.6256 4.97485C24.8373 2.78164 25.8064 1.48148 25.8125 0C25.8125 0 33.7835 8.16336 28.5511 12.0201L23.1467 11.9974Z" fill="#FA70B2"/>
<path d="M25.3843 12.0065L23.1466 11.9972C20.6738 10.8853 20.4138 7.1676 22.6255 4.97532C24.8375 2.78188 25.8063 1.48125 25.8124 0C26.6128 4.41076 22.1737 7.02301 25.3843 12.0065Z" fill="#DD215B"/>
<path d="M24.9609 17.7022L24.6708 12.0037L23.1465 11.9971L23.5433 17.6963L24.9609 17.7022Z" fill="#243142"/>
</g>
<defs>
<clipPath id="clip0_940_604">
<rect width="30.6667" height="30.6667" fill="white"/>
</clipPath>
</defs>
</svg>
