<svg width="30" height="31" viewBox="0 0 30 31" fill="none" xmlns="http://www.w3.org/2000/svg">
<g clip-path="url(#clip0_791_34129)">
<path d="M4.82199 8.92237C6.4629 8.92237 7.85836 7.74965 8.13563 6.12692C8.1629 5.95874 8.08108 5.79055 7.93108 5.70874C7.78108 5.62692 7.59472 5.65419 7.47199 5.76783C7.09017 6.12692 6.59472 6.32692 6.08108 6.32692C5.8629 6.32692 5.68108 6.50419 5.68108 6.72692C5.68108 6.94965 5.85836 7.12692 6.08108 7.12692C6.38108 7.12692 6.68108 7.07692 6.9629 6.98601C6.49926 7.68601 5.70836 8.13146 4.82199 8.13146C3.40381 8.13146 2.25381 6.97692 2.25381 5.56328C2.25381 4.68601 2.69472 3.89965 3.38563 3.43601C3.29472 3.71328 3.24926 4.00419 3.24926 4.29965C3.24926 5.28601 3.74926 6.18601 4.59017 6.70874C4.77654 6.82692 5.02199 6.76783 5.13563 6.58146C5.24926 6.3951 5.19472 6.14965 5.00836 6.03601C4.40381 5.66328 4.04472 5.01328 4.04472 4.30419C4.04472 3.7951 4.24017 3.30419 4.59472 2.92237C4.7129 2.7951 4.73563 2.61328 4.65381 2.46328C4.57199 2.31328 4.40381 2.23146 4.23563 2.26328C2.62654 2.54965 1.4629 3.94055 1.4629 5.57237C1.45836 7.40874 2.96745 8.92237 4.82199 8.92237Z" fill="black"/>
<path d="M10.3225 20.9815C10.3771 20.8406 10.4134 20.6906 10.4134 20.5269C10.4134 19.986 10.0634 19.5224 9.57706 19.3588V19.0951C9.57706 18.8769 9.39979 18.6951 9.17706 18.6951H5.76342C5.36342 18.6951 5.03615 18.3678 5.03615 17.9678V17.1451C5.03615 16.9269 4.85888 16.7451 4.63615 16.7451C4.41342 16.7451 4.23615 16.9224 4.23615 17.1451V17.9678C4.23615 18.3678 3.90888 18.6951 3.50888 18.6951C3.2907 18.6951 3.10888 18.8724 3.10888 19.0951V19.3588C2.62251 19.5224 2.27251 19.986 2.27251 20.5269C2.27251 20.6769 2.29979 20.8178 2.34979 20.9497C2.36342 21.0224 2.3907 21.086 2.4407 21.1406C2.47706 21.1997 2.51342 21.2588 2.55888 21.3133C1.94979 21.5906 1.52251 22.2042 1.52251 22.9178C1.52251 23.1906 1.60888 23.4497 1.76797 23.6678C1.89524 23.8406 1.8907 24.0769 1.75433 24.2451L1.60888 24.4269C1.51342 24.5451 1.49524 24.7088 1.55888 24.8497C1.62706 24.986 1.76342 25.0769 1.91797 25.0769H3.11797C3.77706 25.0769 4.35888 24.7269 4.6816 24.186C5.16797 24.4769 5.7316 24.6497 6.34069 24.6497C6.94524 24.6497 7.51342 24.4815 7.99979 24.186C8.31797 24.7269 8.90433 25.0769 9.56342 25.0769H10.7634C10.918 25.0769 11.0543 24.9906 11.1225 24.8497C11.1907 24.7133 11.168 24.5497 11.0725 24.4269L10.9271 24.2451C10.7952 24.0769 10.7861 23.8406 10.9134 23.6678C11.0771 23.4497 11.1589 23.1906 11.1589 22.9178C11.1589 22.2042 10.7316 21.5951 10.1225 21.3133C10.1907 21.2315 10.2452 21.1451 10.2907 21.0497C10.3043 21.0269 10.318 21.0042 10.3225 20.9815ZM3.12706 24.2769H2.62251C2.72251 23.9133 2.65433 23.5133 2.41797 23.1951C2.35888 23.1133 2.32706 23.0178 2.32706 22.9133C2.32706 22.4224 2.69524 22.0178 3.16797 21.9542V21.9588C3.2816 22.6269 3.59979 23.2224 4.05433 23.6815V23.686C3.8907 24.0406 3.5316 24.2769 3.12706 24.2769ZM3.91797 21.4133V21.3633C3.91797 21.1451 3.7407 20.9633 3.51797 20.9633C3.27706 20.9633 3.07706 20.7678 3.07706 20.5224C3.07706 20.2815 3.27251 20.0815 3.51797 20.0815C3.73615 20.0815 3.91797 19.9042 3.91797 19.6815V19.436C4.19979 19.3588 4.44979 19.2042 4.64524 18.9906C4.92251 19.2951 5.32251 19.486 5.76797 19.486H8.7816V19.686C8.7816 19.9042 8.95888 20.086 9.1816 20.086C9.42251 20.086 9.62251 20.2815 9.62251 20.5269C9.62251 20.7678 9.42706 20.9678 9.1816 20.9678C8.96342 20.9678 8.7816 21.1451 8.7816 21.3678V21.4178C8.7816 22.7588 7.6907 23.8497 6.34979 23.8497C5.00888 23.8497 3.91797 22.7542 3.91797 21.4133ZM10.2771 23.1951C10.0452 23.5133 9.97706 23.9133 10.0725 24.2769H9.56797C9.15888 24.2769 8.80433 24.0406 8.6407 23.686V23.6815C9.09524 23.2178 9.41797 22.6224 9.52706 21.9588C9.99978 22.0224 10.368 22.4269 10.368 22.9178C10.368 23.0133 10.3361 23.1133 10.2771 23.1951Z" fill="black"/>
<path d="M29.3726 27.3769L28.818 26.8224C27.8044 25.8088 26.5226 25.1178 25.1089 24.8315C24.9908 24.8088 24.8726 24.836 24.7771 24.9133C24.6862 24.9906 24.6317 25.1042 24.6317 25.2224V25.3815C24.6317 25.9224 24.1908 26.3588 23.6544 26.3588C23.118 26.3588 22.6771 25.9178 22.6771 25.3815V25.2224C22.6771 25.1042 22.6226 24.9906 22.5317 24.9133C22.4407 24.836 22.318 24.8088 22.1998 24.8315C20.7908 25.1178 19.5089 25.8088 18.4908 26.8224L17.9317 27.3769C17.8544 27.4497 17.8135 27.5542 17.8135 27.6588V29.7997C17.8135 30.0178 17.9907 30.1997 18.2135 30.1997C18.4362 30.1997 18.6135 30.0224 18.6135 29.7997V27.8269L19.0544 27.386C19.8498 26.5906 20.8317 26.0178 21.9135 25.7178C22.0726 26.536 22.7908 27.1542 23.6544 27.1542C24.518 27.1542 25.2362 26.536 25.3953 25.7178C26.4771 26.0178 27.4589 26.5906 28.2544 27.386L28.6953 27.8269V29.7997C28.6953 30.0178 28.8726 30.1997 29.0953 30.1997C29.318 30.1997 29.4953 30.0224 29.4953 29.7997V27.6588C29.4907 27.5542 29.4453 27.4542 29.3726 27.3769Z" fill="black"/>
<path d="M26.927 19.1951C26.927 19.0088 26.7952 18.8451 26.6134 18.8042C26.0725 18.6906 25.6816 18.2088 25.677 17.6542C25.677 17.4542 25.527 17.286 25.3316 17.2633C25.1316 17.236 24.9497 17.3588 24.8952 17.5497C24.6679 18.3542 23.927 18.9133 23.0952 18.9133H20.7725C20.5634 18.9133 20.3952 19.0724 20.377 19.2724C19.8816 19.4406 19.5225 19.9088 19.5225 20.4588C19.5225 20.6269 19.5543 20.786 19.6179 20.9406L19.6497 21.0042C19.8043 21.3179 20.0725 21.5451 20.3906 21.6497C20.5361 23.3224 21.9452 24.6406 23.6543 24.6406C25.3634 24.6406 26.7725 23.3224 26.9179 21.6497C27.2361 21.5451 27.5088 21.3133 27.6588 21.0042L27.6906 20.9406C27.7543 20.786 27.7861 20.6269 27.7861 20.4633C27.7861 19.9133 27.427 19.4451 26.9316 19.2769V19.1951H26.927ZM26.9861 20.4633C26.9861 20.5224 26.9725 20.5815 26.9543 20.6315L26.9406 20.6588C26.8634 20.8179 26.7088 20.9179 26.5316 20.9179C26.3134 20.9179 26.1316 21.0951 26.1316 21.3179V21.3679C26.1316 22.736 25.0179 23.8497 23.6497 23.8497C22.2816 23.8497 21.1679 22.736 21.1679 21.3679V21.3179C21.1679 21.0997 20.9906 20.9179 20.7679 20.9179C20.5906 20.9179 20.4361 20.8179 20.3497 20.636C20.327 20.5815 20.3134 20.5224 20.3134 20.4633C20.3134 20.2133 20.5179 20.0088 20.7679 20.0088C20.9543 20.0088 21.1088 19.8815 21.1543 19.7133H23.0906C23.9225 19.7133 24.6861 19.3269 25.1816 18.6997C25.4043 19.0542 25.7316 19.3315 26.127 19.4906V19.6088C26.127 19.8269 26.3043 20.0088 26.527 20.0088C26.7816 20.0088 26.9861 20.2133 26.9861 20.4633Z" fill="black"/>
<path d="M5.23189 21.3451C5.48293 21.3451 5.68643 21.1416 5.68643 20.8906C5.68643 20.6395 5.48293 20.436 5.23189 20.436C4.98085 20.436 4.77734 20.6395 4.77734 20.8906C4.77734 21.1416 4.98085 21.3451 5.23189 21.3451Z" fill="black"/>
<path d="M7.46333 21.3451C7.71437 21.3451 7.91788 21.1416 7.91788 20.8906C7.91788 20.6395 7.71437 20.436 7.46333 20.436C7.2123 20.436 7.00879 20.6395 7.00879 20.8906C7.00879 21.1416 7.2123 21.3451 7.46333 21.3451Z" fill="black"/>
<path d="M6.87246 22.2405C6.5861 22.5269 6.11337 22.5269 5.82701 22.2405C5.67246 22.086 5.41792 22.086 5.26337 22.2405C5.10882 22.3951 5.10882 22.6496 5.26337 22.8042C5.56337 23.1042 5.95428 23.2542 6.34973 23.2542C6.74519 23.2542 7.1361 23.1042 7.4361 22.8042C7.59064 22.6496 7.59064 22.3951 7.4361 22.2405C7.27701 22.086 7.02701 22.086 6.87246 22.2405Z" fill="black"/>
<path d="M22.5356 21.3451C22.7866 21.3451 22.9901 21.1416 22.9901 20.8906C22.9901 20.6395 22.7866 20.436 22.5356 20.436C22.2846 20.436 22.0811 20.6395 22.0811 20.8906C22.0811 21.1416 22.2846 21.3451 22.5356 21.3451Z" fill="black"/>
<path d="M24.768 21.3451C25.0191 21.3451 25.2226 21.1416 25.2226 20.8906C25.2226 20.6395 25.0191 20.436 24.768 20.436C24.517 20.436 24.3135 20.6395 24.3135 20.8906C24.3135 21.1416 24.517 21.3451 24.768 21.3451Z" fill="black"/>
<path d="M24.1723 22.2405C23.8859 22.5269 23.4132 22.5269 23.1268 22.2405C22.9723 22.086 22.7177 22.086 22.5632 22.2405C22.4086 22.3951 22.4086 22.6496 22.5632 22.8042C22.8632 23.1042 23.2541 23.2542 23.6495 23.2542C24.045 23.2542 24.4359 23.1042 24.7359 22.8042C24.8904 22.6496 24.8904 22.3951 24.7359 22.2405C24.5814 22.086 24.3314 22.086 24.1723 22.2405Z" fill="black"/>
<path d="M19.7364 16.4905C19.7364 16.2724 19.5591 16.0905 19.3364 16.0905H17.891L15.3955 8.94054V4.23144L22.291 14.5951C22.3682 14.7087 22.4955 14.7724 22.6228 14.7724C22.7 14.7724 22.7728 14.7496 22.841 14.7042C23.0228 14.5814 23.0728 14.336 22.9501 14.1542L15.4773 2.91326L16.191 1.83599C16.3137 1.65417 16.2637 1.40417 16.0819 1.28599C15.9001 1.16326 15.65 1.21326 15.5319 1.39508L15 2.19508L14.4682 1.39963C14.3455 1.21781 14.1 1.16781 13.9182 1.29053C13.7364 1.41326 13.6864 1.65872 13.8091 1.84054L14.5228 2.91781L7.52732 13.4314C7.4046 13.6133 7.4546 13.8633 7.63641 13.9814C7.81823 14.1042 8.06823 14.0542 8.18641 13.8724L14.5955 4.23144V8.94054L12.1 16.0905H10.9319C10.7137 16.0905 10.5319 16.2678 10.5319 16.4905C10.5319 16.7133 10.7091 16.8905 10.9319 16.8905H12.3819H17.6046H19.3319C19.5591 16.886 19.7364 16.7087 19.7364 16.4905ZM12.95 16.0905L15 10.2178L17.05 16.0951H12.95V16.0905Z" fill="black"/>
<path d="M11.5133 26.8224C10.4997 25.8088 9.21788 25.1178 7.80424 24.8315C7.68606 24.8088 7.56788 24.836 7.47243 24.9133C7.38152 24.9906 7.32697 25.1042 7.32697 25.2224V25.3815C7.32697 25.9224 6.88606 26.3588 6.3497 26.3588C5.81333 26.3588 5.37243 25.9178 5.37243 25.3815V25.2224C5.37243 25.1042 5.31788 24.9906 5.22697 24.9133C5.13606 24.836 5.01333 24.8088 4.89515 24.8315C3.48606 25.1178 2.20424 25.8088 1.18606 26.8224L0.626971 27.3769C0.549698 27.4497 0.508789 27.5542 0.508789 27.6588V29.7997C0.508789 30.0178 0.686062 30.1997 0.908789 30.1997C1.13152 30.1997 1.30879 30.0178 1.30879 29.7997V27.8269L1.7497 27.386C2.54515 26.5906 3.52697 26.0178 4.60879 25.7178C4.76788 26.536 5.48606 27.1542 6.3497 27.1542C7.21334 27.1542 7.93152 26.536 8.09061 25.7178C9.17243 26.0178 10.1542 26.5906 10.9497 27.386L11.3906 27.8269V29.7997C11.3906 30.0178 11.5679 30.1997 11.7906 30.1997C12.0133 30.1997 12.1906 30.0224 12.1906 29.7997V27.6588C12.1906 27.5542 12.1497 27.4542 12.0724 27.3769L11.5133 26.8224Z" fill="black"/>
<path d="M6.34985 14.3815C4.41803 14.3815 2.76803 15.7587 2.41803 17.6587C2.37712 17.8769 2.52258 18.0815 2.73621 18.1224C2.75894 18.1269 2.78621 18.1269 2.80894 18.1269C2.99531 18.1269 3.16349 17.9951 3.19985 17.7997C3.47712 16.2769 4.8044 15.1769 6.34985 15.1769C7.89531 15.1769 9.22258 16.2815 9.49985 17.7997C9.54076 18.0178 9.74531 18.1587 9.96349 18.1178C10.1817 18.0769 10.3226 17.8724 10.2817 17.6542C9.93167 15.7587 8.27712 14.3815 6.34985 14.3815Z" fill="black"/>
<path d="M20.0498 17.7724V17.9496C20.0498 18.1678 20.2271 18.3496 20.4498 18.3496C20.6725 18.3496 20.8498 18.1724 20.8498 17.9496V17.7724C20.8498 16.8724 21.5862 16.136 22.4862 16.136H25.3134C25.3271 16.136 25.3362 16.1405 25.3498 16.1405C25.9771 16.1724 26.4634 16.6905 26.4634 17.3178V17.9496C26.4634 18.1678 26.6407 18.3496 26.8634 18.3496C27.0862 18.3496 27.2634 18.1724 27.2634 17.9496V17.3178C27.2634 16.2905 26.4771 15.4405 25.4589 15.3542C25.4316 15.3496 25.4043 15.3451 25.3725 15.3451H22.4862C21.1407 15.3451 20.0498 16.4315 20.0498 17.7724Z" fill="black"/>
</g>
<defs>
<clipPath id="clip0_791_34129">
<rect width="30" height="30" fill="white" transform="translate(0 0.70874)"/>
</clipPath>
</defs>
</svg>
