<svg width="30" height="31" viewBox="0 0 30 31" fill="none" xmlns="http://www.w3.org/2000/svg">
<path d="M15.469 26.49V25.0838H16.4065V24.1463H15.469V22.2713H16.4065V21.3338H15.469V19.4588H17.344V18.5213H15.469V7.81503C16.3046 7.45036 17.0157 6.84995 17.5152 6.08732C18.0147 5.32469 18.2811 4.43295 18.2815 3.52128H20.7425C20.9398 3.52172 21.134 3.57104 21.3077 3.66482C21.4814 3.75861 21.6292 3.89395 21.7378 4.05875C21.8464 4.22355 21.9125 4.41268 21.9303 4.60927C21.948 4.80586 21.9167 5.00377 21.8393 5.18534C21.3294 6.4428 21.076 7.78949 21.094 9.14628C21.094 12.5494 22.5003 15.2682 24.3753 15.6619V17.1385H25.3128V15.24C25.3128 15.1157 25.2634 14.9965 25.1755 14.9086C25.0876 14.8207 24.9683 14.7713 24.844 14.7713C23.3206 14.7713 22.0315 12.1932 22.0315 9.14628C22.0174 7.91551 22.2451 6.69395 22.7018 5.55097C22.8396 5.22691 22.895 4.87379 22.863 4.52312C22.8311 4.17245 22.7128 3.83515 22.5188 3.54131C22.3248 3.24748 22.061 3.00625 21.751 2.83917C21.4411 2.67209 21.0946 2.58435 20.7425 2.58378H17.7846C17.7181 2.58386 17.6523 2.59812 17.5917 2.6256C17.5311 2.65308 17.477 2.69315 17.4331 2.74315C14.8596 4.84315 12.3565 4.84315 9.78309 2.74315C9.73611 2.68944 9.67748 2.64716 9.61168 2.61954C9.54588 2.59192 9.47464 2.57969 9.4034 2.58378H5.53621C5.16524 2.58282 4.80043 2.67865 4.47781 2.86179C4.15519 3.04493 3.88592 3.30905 3.69658 3.62808C3.50725 3.9471 3.4044 4.31 3.3982 4.68092C3.392 5.05185 3.48265 5.41798 3.66121 5.74315C4.28171 6.77423 4.63459 7.94407 4.68777 9.14628C4.68777 11.9072 3.60496 14.3588 2.22215 14.7244C2.11989 14.7519 2.02994 14.8132 1.96695 14.8983C1.90396 14.9834 1.87165 15.0873 1.87527 15.1932V26.49C1.87527 26.863 2.02343 27.2207 2.28716 27.4844C2.55088 27.7481 2.90856 27.8963 3.28152 27.8963H11.2503C11.6232 27.8963 11.9809 27.7481 12.2446 27.4844C12.5084 27.2207 12.6565 26.863 12.6565 26.49V7.49628C12.6561 7.39938 12.6257 7.30498 12.5695 7.22607C12.5132 7.14717 12.4339 7.08763 12.3425 7.05565C11.6926 6.82462 11.119 6.41885 10.6849 5.88295C10.2507 5.34706 9.97272 4.7018 9.88152 4.01815C10.9605 4.8103 12.2559 5.25356 13.594 5.28847C14.9321 5.25356 16.2275 4.8103 17.3065 4.01815C17.2153 4.7018 16.9374 5.34706 16.5032 5.88295C16.069 6.41885 15.4954 6.82462 14.8456 7.05565C14.7541 7.08763 14.6748 7.14717 14.6186 7.22607C14.5623 7.30498 14.5319 7.39938 14.5315 7.49628V26.49C14.5315 26.863 14.6797 27.2207 14.9434 27.4844C15.2071 27.7481 15.5648 27.8963 15.9378 27.8963H17.8128V26.9588H15.9378C15.8135 26.9588 15.6942 26.9094 15.6063 26.8215C15.5184 26.7336 15.469 26.6143 15.469 26.49ZM2.81277 21.3338V19.4588H11.719V21.3338H2.81277ZM11.719 22.2713V24.1463H2.81277V22.2713H11.719ZM11.2503 26.9588H3.28152C3.1572 26.9588 3.03798 26.9094 2.95007 26.8215C2.86216 26.7336 2.81277 26.6143 2.81277 26.49V25.0838H11.719V26.49C11.719 26.6143 11.6696 26.7336 11.5817 26.8215C11.4938 26.9094 11.3746 26.9588 11.2503 26.9588ZM11.719 7.81503V18.5213H2.81277V15.5119C4.46277 14.79 5.62527 12.2307 5.62527 9.14628C5.57665 7.78703 5.18653 6.46192 4.4909 5.29315C4.39075 5.11128 4.33971 4.90646 4.34278 4.69887C4.34586 4.49127 4.40296 4.28805 4.50846 4.10923C4.61395 3.93041 4.7642 3.78215 4.94442 3.67906C5.12463 3.57596 5.32859 3.52158 5.53621 3.52128H8.90653C8.90699 4.43295 9.1733 5.32469 9.67284 6.08732C10.1724 6.84995 10.8835 7.45036 11.719 7.81503ZM27.6565 21.3338H27.0284L27.4972 20.865C27.5845 20.7772 27.6335 20.6584 27.6335 20.5346C27.6335 20.4107 27.5845 20.2919 27.4972 20.2041L25.505 18.2119C25.4171 18.1246 25.2983 18.0756 25.1745 18.0756C25.0507 18.0756 24.9319 18.1246 24.844 18.2119L24.3753 18.6807V18.0525C24.3753 17.9282 24.3259 17.809 24.238 17.7211C24.1501 17.6332 24.0308 17.5838 23.9065 17.5838H21.094C20.9697 17.5838 20.8505 17.6332 20.7626 17.7211C20.6747 17.809 20.6253 17.9282 20.6253 18.0525V18.6807L20.1565 18.2119C20.1127 18.1685 20.0608 18.1341 20.0037 18.1108C19.9466 18.0874 19.8854 18.0756 19.8237 18.076C19.7007 18.0765 19.5829 18.1253 19.4956 18.2119L17.5034 20.2041C17.4161 20.2919 17.3671 20.4107 17.3671 20.5346C17.3671 20.6584 17.4161 20.7772 17.5034 20.865L17.9722 21.3338H17.344C17.2197 21.3338 17.1005 21.3832 17.0126 21.4711C16.9247 21.559 16.8753 21.6782 16.8753 21.8025V24.615C16.8753 24.7393 16.9247 24.8586 17.0126 24.9465C17.1005 25.0344 17.2197 25.0838 17.344 25.0838H17.9722L17.5034 25.5525C17.4161 25.6404 17.3671 25.7592 17.3671 25.883C17.3671 26.0068 17.4161 26.1256 17.5034 26.2135L19.4956 28.2057C19.5834 28.293 19.7022 28.342 19.8261 28.342C19.9499 28.342 20.0687 28.293 20.1565 28.2057L20.6253 27.7369V28.365C20.6253 28.4894 20.6747 28.6086 20.7626 28.6965C20.8505 28.7844 20.9697 28.8338 21.094 28.8338H23.9065C24.0308 28.8338 24.1501 28.7844 24.238 28.6965C24.3259 28.6086 24.3753 28.4894 24.3753 28.365V27.7369L24.844 28.2057C24.8878 28.2491 24.9398 28.2835 24.9969 28.3068C25.054 28.3301 25.1151 28.3419 25.1768 28.3416C25.2998 28.3411 25.4177 28.2923 25.505 28.2057L27.4972 26.2135C27.5845 26.1256 27.6335 26.0068 27.6335 25.883C27.6335 25.7592 27.5845 25.6404 27.4972 25.5525L27.0284 25.0838H27.6565C27.7808 25.0838 27.9001 25.0344 27.988 24.9465C28.0759 24.8586 28.1253 24.7393 28.1253 24.615V21.8025C28.1253 21.6782 28.0759 21.559 27.988 21.4711C27.9001 21.3832 27.7808 21.3338 27.6565 21.3338ZM27.1878 24.1463H25.894C25.8013 24.1467 25.7108 24.1745 25.6339 24.2264C25.5571 24.2782 25.4973 24.3516 25.4622 24.4374C25.4271 24.5232 25.4182 24.6175 25.4366 24.7084C25.4551 24.7992 25.5001 24.8826 25.5659 24.9478L26.5034 25.8619L25.1768 27.1885L24.2628 26.251C24.1975 26.1851 24.1142 26.1402 24.0233 26.1217C23.9325 26.1032 23.8382 26.1121 23.7524 26.1472C23.6666 26.1824 23.5931 26.2421 23.5413 26.319C23.4895 26.3959 23.4616 26.4864 23.4612 26.5791V27.8963H21.5628V26.6025C21.5624 26.5098 21.5345 26.4193 21.4827 26.3424C21.4309 26.2656 21.3574 26.2058 21.2716 26.1707C21.1858 26.1356 21.0915 26.1267 21.0007 26.1451C20.9098 26.1636 20.8265 26.2086 20.7612 26.2744L19.8472 27.2119L18.5206 25.8853L19.4581 24.9713C19.5239 24.906 19.5689 24.8227 19.5874 24.7318C19.6058 24.641 19.5969 24.5467 19.5618 24.4609C19.5267 24.3751 19.4669 24.3016 19.39 24.2498C19.3132 24.198 19.2227 24.1701 19.13 24.1697H17.8128V22.2713H19.1065C19.1992 22.2709 19.2897 22.243 19.3666 22.1912C19.4435 22.1394 19.5032 22.0659 19.5384 21.9801C19.5735 21.8943 19.5824 21.8 19.5639 21.7092C19.5455 21.6183 19.5005 21.535 19.4347 21.4697L18.4972 20.5557L19.8237 19.2291L20.7378 20.1666C20.8031 20.2324 20.8864 20.2774 20.9772 20.2959C21.0681 20.3143 21.1624 20.3054 21.2482 20.2703C21.334 20.2352 21.4074 20.1754 21.4593 20.0985C21.5111 20.0217 21.5389 19.9312 21.5393 19.8385V18.5213H23.4143V19.815C23.4147 19.9077 23.4426 19.9982 23.4944 20.0751C23.5462 20.152 23.6197 20.2118 23.7055 20.2469C23.7913 20.282 23.8856 20.2909 23.9764 20.2724C24.0673 20.254 24.1506 20.209 24.2159 20.1432L25.13 19.2057L26.4565 20.5322L25.519 21.4463C25.4532 21.5116 25.4082 21.5949 25.3898 21.6857C25.3713 21.7766 25.3802 21.8709 25.4153 21.9567C25.4504 22.0425 25.5102 22.1159 25.5871 22.1678C25.6639 22.2196 25.7544 22.2475 25.8472 22.2478H27.1878V24.1463ZM22.5003 20.3963C21.944 20.3963 21.4002 20.5612 20.9377 20.8703C20.4752 21.1793 20.1147 21.6186 19.9019 22.1325C19.689 22.6464 19.6333 23.2119 19.7418 23.7575C19.8503 24.303 20.1182 24.8042 20.5115 25.1975C20.9049 25.5909 21.406 25.8587 21.9516 25.9672C22.4972 26.0758 23.0627 26.0201 23.5766 25.8072C24.0905 25.5943 24.5297 25.2338 24.8388 24.7713C25.1478 24.3088 25.3128 23.765 25.3128 23.2088C25.3128 22.4629 25.0165 21.7475 24.489 21.22C23.9616 20.6926 23.2462 20.3963 22.5003 20.3963ZM22.5003 25.0838C22.1294 25.0838 21.7669 24.9738 21.4586 24.7678C21.1502 24.5618 20.9099 24.2689 20.768 23.9263C20.6261 23.5837 20.589 23.2067 20.6613 22.843C20.7337 22.4793 20.9122 22.1452 21.1744 21.883C21.4367 21.6207 21.7708 21.4422 22.1345 21.3698C22.4982 21.2975 22.8752 21.3346 23.2178 21.4765C23.5604 21.6184 23.8533 21.8587 24.0593 22.1671C24.2653 22.4754 24.3753 22.8379 24.3753 23.2088C24.3753 23.7061 24.1777 24.183 23.8261 24.5346C23.4745 24.8862 22.9976 25.0838 22.5003 25.0838Z" fill="black"/>
</svg>
