<svg width="30" height="31" viewBox="0 0 30 31" fill="none" xmlns="http://www.w3.org/2000/svg">
<path d="M10.3698 21.5675C10.4452 21.634 10.5418 21.67 10.641 21.67C10.6581 21.67 10.6753 21.6689 10.6925 21.6667L27.4734 19.5459C27.6783 19.52 27.8321 19.3457 27.8321 19.139V12.2784C27.8321 12.0718 27.6783 11.8974 27.4734 11.8715L10.6925 9.75075C10.5756 9.73587 10.4582 9.77208 10.3698 9.84995C10.2814 9.92782 10.2309 10.0399 10.2309 10.1576V21.2599C10.2308 21.3776 10.2814 21.4897 10.3698 21.5675ZM23.04 19.2794L21.7129 19.4471V11.9703L23.04 12.1381V19.2794ZM23.8603 12.2417L25.1875 12.4095V19.008L23.8603 19.1758V12.2417ZM20.8925 19.5508L19.5654 19.7186V11.6989L20.8925 11.8667V19.5508ZM18.7451 19.8223L17.418 19.99V11.4275L18.7451 11.5953V19.8223ZM16.5977 20.0936L15.2706 20.2614V11.1561L16.5977 11.3239V20.0936ZM14.4503 20.365L13.1232 20.5328V10.8847L14.4503 11.0525V20.365ZM27.0117 18.7775L26.0078 18.9044V12.5132L27.0117 12.64V18.7775ZM11.0511 10.6229L12.3028 10.7811V20.6364L11.0511 20.7946V10.6229ZM29.1139 10.4252L9.0518 7.88975C9.00656 7.88395 8.9608 7.88589 8.91621 7.89526L0.853301 9.58557C0.663398 9.62542 0.527344 9.79288 0.527344 9.987V21.4306C0.527344 21.6247 0.663398 21.7922 0.853301 21.832L8.91615 23.5223C8.94393 23.5282 8.97211 23.5311 9.00035 23.5311C9.01752 23.5311 9.03469 23.5299 9.0518 23.5278L29.1139 20.9923C29.3189 20.9665 29.4727 20.792 29.4727 20.5854V10.8321C29.4727 10.6255 29.3189 10.4511 29.1139 10.4252ZM8.5902 22.6158L4.79314 21.8198V9.59776L8.5902 8.80171V22.6158ZM1.34766 10.32L3.97289 9.76967V21.6478L1.34766 21.0975V10.32ZM28.6523 20.2238L9.41051 22.6556V8.76186L28.6523 11.1937V20.2238ZM5.56002 18.3151V13.1C5.56002 12.8734 5.74365 12.6898 5.97018 12.6898C6.1967 12.6898 6.38033 12.8734 6.38033 13.1V18.3151C6.38033 18.5416 6.1967 18.7253 5.97018 18.7253C5.74365 18.7253 5.56002 18.5417 5.56002 18.3151ZM3.27328 13.429V17.9885C3.27328 18.215 3.08965 18.3987 2.86312 18.3987C2.6366 18.3987 2.45297 18.215 2.45297 17.9885V13.429C2.45297 13.2025 2.6366 13.0189 2.86312 13.0189C3.08965 13.0189 3.27328 13.2025 3.27328 13.429Z" fill="black"/>
</svg>
