<svg width="52" height="52" viewBox="0 0 52 52" fill="none" xmlns="http://www.w3.org/2000/svg">
<path fill-rule="evenodd" clip-rule="evenodd" d="M32.3874 40.0948L40.5114 35.6728C41.9252 34.907 42.4523 33.1226 41.6834 31.7088C40.9146 30.2981 39.1302 29.771 37.7195 30.5398L28.916 35.3306L32.3874 40.0948Z" fill="#FBC894"/>
<path fill-rule="evenodd" clip-rule="evenodd" d="M31.0626 45.3548L48.0652 36.1045C49.4789 35.3387 50.006 33.5542 49.2372 32.1435C48.4684 30.7328 46.6839 30.2057 45.2732 30.9746L36.4921 35.751C36.3509 34.6603 35.5994 33.6893 34.4883 33.3328C31.1367 32.2532 27.7862 31.1767 24.4326 30.0971C21.7493 29.2338 19.1209 29.4785 16.6448 30.8253L6.33008 36.4356L12.2634 47.321L16.1065 45.2278C17.9001 44.2518 19.8064 44.0761 21.7493 44.7007L25.4228 45.8839C27.3667 46.5096 29.269 46.3308 31.0626 45.3548Z" fill="#FBBD80"/>
<path fill-rule="evenodd" clip-rule="evenodd" d="M10.0869 34.3921L6.33008 36.4366L12.2634 47.322L16.1065 45.2288C16.1674 45.1974 16.2273 45.1659 16.2883 45.1334L10.0869 34.3921Z" fill="#E2AA73"/>
<path fill-rule="evenodd" clip-rule="evenodd" d="M2.50983 35.9897L11.0462 50.8046C11.2533 51.1672 11.7226 51.2942 12.0882 51.0839L15.8826 48.8983C16.2451 48.6881 16.3721 48.2188 16.1619 47.8563L7.62655 33.0444C7.41631 32.6818 6.95014 32.5549 6.58452 32.762L2.78913 34.9477C2.42655 35.1579 2.2996 35.6271 2.50983 35.9897Z" fill="#0593FC"/>
<path fill-rule="evenodd" clip-rule="evenodd" d="M37.9561 34.9528C38.1744 35.7642 38.1694 36.6428 37.8931 37.4979C37.1304 39.8643 34.5771 41.1714 32.2097 40.4117L24.7154 37.9996C24.4158 37.9021 24.2116 37.6574 24.1741 37.3466C24.1365 37.0358 24.2746 36.7474 24.5427 36.5808L24.563 36.5696C24.7672 36.4427 24.9916 36.4142 25.2191 36.4894L32.6962 38.8964C34.2277 39.389 35.8832 38.5399 36.3758 37.0104C36.5109 36.5899 36.5454 36.1644 36.4936 35.7521L37.9561 34.9528Z" fill="#CB9968"/>
<path fill-rule="evenodd" clip-rule="evenodd" d="M20.1699 34.8614C21.5024 35.2899 22.8329 35.7196 24.1634 36.1482C27.0081 37.0632 29.8519 37.9793 32.6966 38.8944C34.2282 39.387 35.8837 38.5379 36.3762 37.0084C36.8688 35.4789 36.0187 33.8244 34.4902 33.3318L26.6882 30.8212L20.1699 34.8614Z" fill="#FBBD80"/>
<path fill-rule="evenodd" clip-rule="evenodd" d="M2.50983 35.9897L11.0462 50.8046C11.0523 50.8127 11.0573 50.8249 11.0665 50.8361L3.12631 37.0602C2.91608 36.6945 3.04303 36.2284 3.40561 36.0181L7.20303 33.8335C7.55444 33.6324 8.00639 33.7411 8.22475 34.0813L7.62553 33.0454C7.4153 32.6828 6.94913 32.5559 6.5835 32.7631L2.78913 34.9477C2.42655 35.1579 2.2996 35.6271 2.50983 35.9897Z" fill="#0584E3"/>
<path d="M25.9473 9.1579V2.14197C25.9473 1.40767 26.5404 0.814545 27.2747 0.814545H40.1691C40.9034 0.814545 41.4965 1.40767 41.4965 2.14197V9.1579H38.8447V3.46634H28.5991V9.1579H25.9473Z" fill="#CF3939"/>
<path fill-rule="evenodd" clip-rule="evenodd" d="M21.819 6.65033H45.6252C46.457 6.65033 47.1395 7.32978 47.1395 8.16158V24.117C47.1395 24.9488 46.457 25.6283 45.6252 25.6283H21.819C20.9872 25.6283 20.3047 24.9488 20.3047 24.117V8.16158C20.3047 7.32978 20.9872 6.65033 21.819 6.65033Z" fill="#FF4646"/>
<path fill-rule="evenodd" clip-rule="evenodd" d="M32.578 10.3269H34.8673C35.1984 10.3269 35.4665 10.595 35.4665 10.9261V14.3955H38.9359C39.267 14.3955 39.5371 14.6657 39.5371 14.9967V17.2829C39.5371 17.614 39.267 17.8842 38.9359 17.8842H35.4665V21.3535C35.4665 21.6846 35.1984 21.9528 34.8673 21.9528H32.578C32.247 21.9528 31.9788 21.6846 31.9788 21.3535V17.8842H28.5095C28.1784 17.8842 27.9082 17.614 27.9082 17.2829V14.9967C27.9082 14.6657 28.1784 14.3955 28.5095 14.3955H31.9788V10.9261C31.9798 10.594 32.247 10.3269 32.578 10.3269Z" fill="#F1F1F1"/>
<path fill-rule="evenodd" clip-rule="evenodd" d="M22.0292 24.117V8.16158C22.0292 7.32978 22.7117 6.65033 23.5435 6.65033H21.819C20.9872 6.65033 20.3047 7.32978 20.3047 8.16158V24.117C20.3047 24.9488 20.9872 25.6283 21.819 25.6283H23.5435C22.7117 25.6283 22.0292 24.9488 22.0292 24.117Z" fill="#E63F3F"/>
</svg>
