<svg width="45" height="45" viewBox="0 0 45 45" fill="none" xmlns="http://www.w3.org/2000/svg">
<g clip-path="url(#clip0_791_34000)">
<path d="M43.5938 38.0566C43.5938 43.4932 39.5014 43.5938 34.4531 43.5938C29.4049 43.5938 25.3125 43.4932 25.3125 38.0566C25.3125 32.6201 29.4049 23.9062 34.4531 23.9062C39.5014 23.9062 43.5938 32.6201 43.5938 38.0566Z" fill="#7E8589"/>
<path d="M41.4846 40.7812C41.6746 40.7812 41.8627 40.8198 42.0374 40.8945C42.2121 40.9692 42.3699 41.0785 42.5012 41.2159C42.6325 41.3533 42.7346 41.5158 42.8013 41.6938C42.8681 41.8717 42.898 42.0613 42.8894 42.2511C42.8557 43.0101 42.2002 43.5938 41.4406 43.5938H37.2706C36.8964 43.5938 36.5375 43.4451 36.2729 43.1805C36.0082 42.9159 35.8596 42.557 35.8596 42.1828V40.7858C35.8596 40.7852 35.8595 40.7846 35.8592 40.784C35.859 40.7835 35.8586 40.783 35.8582 40.7826C35.8578 40.7821 35.8573 40.7818 35.8567 40.7816C35.8561 40.7813 35.8555 40.7812 35.8549 40.7812C35.0661 40.7788 34.4891 40.1563 34.4565 39.3755L34.4533 39.375L34.4502 39.3755C34.4176 40.1563 33.8406 40.7788 33.0517 40.7812C33.0511 40.7812 33.0505 40.7813 33.05 40.7816C33.0494 40.7818 33.0489 40.7821 33.0485 40.7826C33.048 40.783 33.0477 40.7835 33.0474 40.784C33.0472 40.7846 33.0471 40.7852 33.0471 40.7858V42.1828C33.0471 42.557 32.8984 42.9159 32.6338 43.1805C32.3692 43.4451 32.0103 43.5938 31.6361 43.5938H27.466C26.7063 43.5938 26.0506 43.0101 26.0171 42.2511C26.0085 42.0613 26.0384 41.8717 26.1052 41.6937C26.1719 41.5158 26.274 41.3532 26.4053 41.2158C26.5366 41.0784 26.6944 40.9691 26.8692 40.8944C27.044 40.8197 27.232 40.7812 27.4221 40.7812H28.1205C28.1217 40.7812 28.1229 40.7808 28.1238 40.7799C28.1247 40.779 28.1252 40.7778 28.1252 40.7765V28.125C28.1252 26.6332 28.7178 25.2024 29.7727 24.1475C30.8276 23.0926 32.2584 22.5 33.7502 22.5H35.1565C36.6483 22.5 38.079 23.0926 39.1339 24.1475C40.1888 25.2024 40.7815 26.6332 40.7815 28.125V40.7765C40.7815 40.7778 40.782 40.779 40.7828 40.7799C40.7837 40.7808 40.7849 40.7812 40.7862 40.7812H41.4846Z" fill="#9AA3A8"/>
<path d="M34.4531 40.0781C34.2666 40.0781 34.0878 40.004 33.9559 39.8722C33.8241 39.7403 33.75 39.5615 33.75 39.375V36.5625C33.75 36.376 33.8241 36.1972 33.9559 36.0653C34.0878 35.9335 34.2666 35.8594 34.4531 35.8594C34.6396 35.8594 34.8184 35.9335 34.9503 36.0653C35.0822 36.1972 35.1562 36.376 35.1562 36.5625V39.375C35.1562 39.5615 35.0822 39.7403 34.9503 39.8722C34.8184 40.004 34.6396 40.0781 34.4531 40.0781Z" fill="#B6B9BA"/>
<path d="M29.5312 41.4844H27.4219C27.2354 41.4844 27.0566 41.4103 26.9247 41.2784C26.7928 41.1466 26.7188 40.9677 26.7188 40.7812C26.7188 40.5948 26.7928 40.4159 26.9247 40.2841C27.0566 40.1522 27.2354 40.0781 27.4219 40.0781H29.5312C29.7177 40.0781 29.8966 40.1522 30.0284 40.2841C30.1603 40.4159 30.2344 40.5948 30.2344 40.7812C30.2344 40.9677 30.1603 41.1466 30.0284 41.2784C29.8966 41.4103 29.7177 41.4844 29.5312 41.4844Z" fill="#B6B9BA"/>
<path d="M36.5625 34.0514C36.5625 35.993 35.6181 36.5625 34.4531 36.5625C33.2881 36.5625 32.3438 35.993 32.3438 34.0514C32.3438 32.1098 33.2881 29.5312 34.4531 29.5312C35.6181 29.5312 36.5625 32.1097 36.5625 34.0514Z" fill="#7E8589"/>
<path d="M42.2857 39.375H32.2456C31.1348 39.375 30.2344 40.2754 30.2344 41.3862V41.5825C30.2344 42.6933 31.1348 43.5938 32.2456 43.5938H42.2857C43.3964 43.5938 44.2969 42.6933 44.2969 41.5825V41.3862C44.2969 40.2754 43.3964 39.375 42.2857 39.375Z" fill="#B6B9BA"/>
<path d="M34.4531 39.375V43.5938H32.2453C31.712 43.5936 31.2007 43.3816 30.8236 43.0046C30.4465 42.6275 30.2346 42.1161 30.2344 41.5828V41.3859C30.2346 40.8527 30.4465 40.3413 30.8236 39.9642C31.2007 39.5871 31.712 39.3752 32.2453 39.375H34.4531Z" fill="#7E8589"/>
<path d="M42.1875 18.9844V10.0102C42.1874 9.85515 42.1459 9.70298 42.0671 9.56944C41.9884 9.43591 41.8754 9.32587 41.7398 9.25075C41.6042 9.17564 41.4509 9.13818 41.296 9.14227C41.141 9.14636 40.99 9.19184 40.8585 9.274L37.2656 11.9532H31.6406L28.0477 9.274C27.9163 9.19184 27.7652 9.14636 27.6103 9.14227C27.4553 9.13818 27.3021 9.17564 27.1665 9.25075C27.0309 9.32587 26.9178 9.43591 26.8391 9.56944C26.7604 9.70298 26.7188 9.85515 26.7188 10.0102V18.9844H42.1875Z" fill="#9AA3A8"/>
<path d="M42.1875 19.1123C42.1875 23.7721 39.4365 24.6094 34.4531 24.6094C29.4697 24.6094 26.7188 23.7721 26.7188 19.1123C26.7188 14.4524 29.4697 10.5469 34.4531 10.5469C39.4365 10.5469 42.1875 14.4523 42.1875 19.1123Z" fill="#B6B9BA"/>
<path d="M35.1562 10.5741V14.7656C35.1562 14.9521 35.0822 15.131 34.9503 15.2628C34.8184 15.3947 34.6396 15.4688 34.4531 15.4688C34.2666 15.4688 34.0878 15.3947 33.9559 15.2628C33.8241 15.131 33.75 14.9521 33.75 14.7656V10.5741C33.9794 10.5557 34.2138 10.5466 34.4531 10.5469C34.6925 10.5472 34.9269 10.5563 35.1562 10.5741Z" fill="#7E8589"/>
<path d="M37.9688 11.3274V13.3594C37.9688 13.5459 37.8947 13.7247 37.7628 13.8566C37.6309 13.9884 37.4521 14.0625 37.2656 14.0625C37.0791 14.0625 36.9003 13.9884 36.7684 13.8566C36.6366 13.7247 36.5625 13.5459 36.5625 13.3594V10.8053C37.0481 10.9299 37.5195 11.1049 37.9688 11.3274Z" fill="#7E8589"/>
<path d="M32.3438 10.8053V13.3594C32.3438 13.5459 32.2697 13.7247 32.1378 13.8566C32.0059 13.9884 31.8271 14.0625 31.6406 14.0625C31.4541 14.0625 31.2753 13.9884 31.1434 13.8566C31.0116 13.7247 30.9375 13.5459 30.9375 13.3594V11.3274C31.3868 11.1049 31.8581 10.9299 32.3438 10.8053Z" fill="#7E8589"/>
<path d="M28.1258 18.2812C28.0793 18.2813 28.0328 18.2767 27.9871 18.2675L24.4715 17.5644C24.381 17.5463 24.2949 17.5105 24.2181 17.4592C24.1414 17.4078 24.0756 17.3418 24.0243 17.265C23.9731 17.1881 23.9375 17.102 23.9196 17.0114C23.9017 16.9208 23.9018 16.8276 23.9199 16.737C23.938 16.6465 23.9738 16.5604 24.0252 16.4836C24.0765 16.4069 24.1425 16.3411 24.2194 16.2898C24.2962 16.2386 24.3824 16.203 24.4729 16.1851C24.5635 16.1672 24.6568 16.1673 24.7473 16.1854L28.2629 16.8885C28.4341 16.9226 28.5865 17.0191 28.6904 17.1593C28.7944 17.2995 28.8425 17.4733 28.8254 17.647C28.8083 17.8207 28.7272 17.9818 28.5979 18.099C28.4686 18.2163 28.3003 18.2812 28.1258 18.2812Z" fill="#7E8589"/>
<path d="M24.6082 21.7969C24.4337 21.7968 24.2654 21.7319 24.1361 21.6147C24.0068 21.4974 23.9258 21.3363 23.9087 21.1626C23.8916 20.989 23.9397 20.8151 24.0436 20.6749C24.1476 20.5348 24.2999 20.4382 24.4711 20.4042L27.9867 19.701C28.1696 19.6645 28.3595 19.702 28.5147 19.8055C28.6698 19.9089 28.7776 20.0698 28.8141 20.2526C28.8507 20.4355 28.8131 20.6254 28.7097 20.7806C28.6062 20.9357 28.4454 21.0435 28.2625 21.08L24.7469 21.7832C24.7012 21.7923 24.6548 21.7969 24.6082 21.7969Z" fill="#7E8589"/>
<path d="M40.7801 18.2812C40.6056 18.2812 40.4373 18.2163 40.308 18.099C40.1787 17.9818 40.0976 17.8207 40.0805 17.647C40.0634 17.4733 40.1115 17.2995 40.2155 17.1593C40.3194 17.0191 40.4718 16.9226 40.643 16.8885L44.1586 16.1854C44.2491 16.1673 44.3424 16.1672 44.433 16.1851C44.5235 16.203 44.6097 16.2386 44.6865 16.2898C44.7634 16.3411 44.8294 16.4069 44.8807 16.4836C44.9321 16.5604 44.9679 16.6465 44.986 16.737C45.0041 16.8276 45.0042 16.9208 44.9863 17.0114C44.9684 17.102 44.9328 17.1881 44.8816 17.265C44.8303 17.3418 44.7645 17.4078 44.6878 17.4592C44.611 17.5105 44.525 17.5463 44.4344 17.5644L40.9188 18.2675C40.8731 18.2767 40.8267 18.2813 40.7801 18.2812Z" fill="#7E8589"/>
<path d="M44.2977 21.7969C44.2511 21.7969 44.2047 21.7923 44.159 21.7832L40.6434 21.08C40.4605 21.0435 40.2997 20.9357 40.1962 20.7806C40.0928 20.6254 40.0552 20.4355 40.0918 20.2526C40.1284 20.0698 40.2361 19.9089 40.3912 19.8055C40.5464 19.702 40.7363 19.6645 40.9192 19.701L44.4348 20.4042C44.606 20.4382 44.7583 20.5348 44.8623 20.6749C44.9663 20.8151 45.0144 20.989 44.9973 21.1626C44.9802 21.3363 44.8991 21.4974 44.7698 21.6147C44.6405 21.7319 44.4722 21.7968 44.2977 21.7969Z" fill="#7E8589"/>
<path d="M0.703125 39.375H13.3594V43.5938H4.92188C3.80299 43.5938 2.72994 43.1493 1.93877 42.3581C1.1476 41.5669 0.703125 40.4939 0.703125 39.375Z" fill="#8C5237"/>
<path d="M25.3125 37.2656C25.3125 43.4788 20.5905 43.5938 14.7656 43.5938C8.94076 43.5938 4.21875 43.4788 4.21875 37.2656C4.21875 31.0525 8.94076 21.0938 14.7656 21.0938C20.5905 21.0938 25.3125 31.0525 25.3125 37.2656Z" fill="#B37A60"/>
<path d="M23.2031 40.7812C23.5761 40.7812 23.9338 40.9294 24.1975 41.1931C24.4612 41.4569 24.6094 41.8145 24.6094 42.1875C24.6094 42.5605 24.4612 42.9181 24.1975 43.1819C23.9338 43.4456 23.5761 43.5938 23.2031 43.5938H17.5781C17.2052 43.5938 16.8475 43.4456 16.5838 43.1819C16.32 42.9181 16.1719 42.5605 16.1719 42.1875V40.7812C15.3809 40.7812 14.8014 40.1578 14.7688 39.3755L14.7656 39.375L14.7625 39.3755C14.7299 40.1578 14.1504 40.7812 13.3594 40.7812V42.1875C13.3594 42.5605 13.2112 42.9181 12.9475 43.1819C12.6838 43.4456 12.3261 43.5938 11.9531 43.5938H6.32812C5.95516 43.5938 5.59748 43.4456 5.33376 43.1819C5.07003 42.9181 4.92188 42.5605 4.92188 42.1875C4.92188 41.8145 5.07003 41.4569 5.33376 41.1931C5.59748 40.9294 5.95516 40.7812 6.32812 40.7812H7.03125V25.3125C7.03125 23.4477 7.77204 21.6593 9.09066 20.3407C10.4093 19.022 12.1977 18.2812 14.0625 18.2812H15.4688C17.3336 18.2813 19.122 19.022 20.4406 20.3407C21.7592 21.6593 22.5 23.4477 22.5 25.3125V40.7812H23.2031Z" fill="#D49073"/>
<path d="M14.7656 40.0781C14.5791 40.0781 14.4003 40.004 14.2684 39.8722C14.1366 39.7403 14.0625 39.5615 14.0625 39.375V34.4531C14.0625 34.2666 14.1366 34.0878 14.2684 33.9559C14.4003 33.8241 14.5791 33.75 14.7656 33.75C14.9521 33.75 15.1309 33.8241 15.2628 33.9559C15.3947 34.0878 15.4688 34.2666 15.4688 34.4531V39.375C15.4688 39.5615 15.3947 39.7403 15.2628 39.8722C15.1309 40.004 14.9521 40.0781 14.7656 40.0781Z" fill="#C48669"/>
<path d="M9.14062 41.4844H7.03125C6.84477 41.4844 6.66593 41.4103 6.53407 41.2784C6.4022 41.1466 6.32812 40.9677 6.32812 40.7812C6.32812 40.5948 6.4022 40.4159 6.53407 40.2841C6.66593 40.1522 6.84477 40.0781 7.03125 40.0781H9.14062C9.32711 40.0781 9.50595 40.1522 9.63781 40.2841C9.76967 40.4159 9.84375 40.5948 9.84375 40.7812C9.84375 40.9677 9.76967 41.1466 9.63781 41.2784C9.50595 41.4103 9.32711 41.4844 9.14062 41.4844Z" fill="#C48669"/>
<path d="M22.5 41.4844H20.3906C20.2041 41.4844 20.0253 41.4103 19.8934 41.2784C19.7616 41.1466 19.6875 40.9677 19.6875 40.7812C19.6875 40.5948 19.7616 40.4159 19.8934 40.2841C20.0253 40.1522 20.2041 40.0781 20.3906 40.0781H22.5C22.6865 40.0781 22.8653 40.1522 22.9972 40.2841C23.129 40.4159 23.2031 40.5948 23.2031 40.7812C23.2031 40.9677 23.129 41.1466 22.9972 41.2784C22.8653 41.4103 22.6865 41.4844 22.5 41.4844Z" fill="#C48669"/>
<path d="M18.2812 31.6406C18.2812 34.3589 16.7072 35.1562 14.7656 35.1562C12.824 35.1562 11.25 34.3589 11.25 31.6406C11.25 28.9223 12.824 25.3125 14.7656 25.3125C16.7072 25.3125 18.2812 28.9223 18.2812 31.6406Z" fill="#B37A60"/>
<path d="M14.0625 2.8125H9.29952C8.32508 2.9526 7.61334 3.56309 7.03124 4.22754L3.34072 9.1793C1.79437 12.0076 3.82842 15.4688 7.03722 15.4688H14.0625V2.8125Z" fill="#8C5237"/>
<path d="M15.4688 2.8125H20.2317C21.2062 2.9526 21.9179 3.56309 22.5 4.22754L26.1905 9.1793C27.7369 12.0076 25.7028 15.4688 22.494 15.4688H15.4688V2.8125Z" fill="#8C5237"/>
<path d="M14.7656 1.40625C11.25 1.40625 9.84375 3.51562 8.4375 7.73438C7.03125 11.9531 6.32812 11.9531 6.32812 14.7656C6.32812 17.5781 7.73438 19.6621 9.14062 19.6621H20.3906C21.7969 19.6621 23.2031 17.5781 23.2031 14.7656C23.2031 11.9531 22.5 11.9531 21.0938 7.73438C19.6875 3.51562 18.2812 1.40625 14.7656 1.40625Z" fill="#C48669"/>
<path d="M19.6875 17.5527C19.6875 20.0769 17.4839 19.6621 14.7656 19.6621C12.0473 19.6621 9.84375 20.0769 9.84375 17.5527C9.84375 15.0286 12.0473 10.5215 14.7656 10.5215C17.4839 10.5215 19.6875 15.0287 19.6875 17.5527Z" fill="#F0C6A4"/>
<path d="M17.5781 9.11523C17.9665 9.11523 18.2812 8.80043 18.2812 8.41211C18.2812 8.02378 17.9665 7.70898 17.5781 7.70898C17.1898 7.70898 16.875 8.02378 16.875 8.41211C16.875 8.80043 17.1898 9.11523 17.5781 9.11523Z" fill="#8C5237"/>
<path d="M11.9531 9.11523C12.3415 9.11523 12.6562 8.80043 12.6562 8.41211C12.6562 8.02378 12.3415 7.70898 11.9531 7.70898C11.5648 7.70898 11.25 8.02378 11.25 8.41211C11.25 8.80043 11.5648 9.11523 11.9531 9.11523Z" fill="#8C5237"/>
<path d="M16.875 16.1719C15.5998 16.1719 15.4795 15.5869 15.4688 15.4542V14.7656C15.6552 14.7656 15.8341 14.6915 15.9659 14.5597C16.0978 14.4278 16.1719 14.249 16.1719 14.0625C16.1719 13.3808 15.6791 12.6562 14.7656 12.6562C13.8522 12.6562 13.3594 13.3808 13.3594 14.0625C13.3594 14.249 13.4335 14.4278 13.5653 14.5597C13.6972 14.6915 13.876 14.7656 14.0625 14.7656V15.4688C14.0436 15.5707 14.0015 15.6669 13.9395 15.75C13.7325 16.026 13.2891 16.1719 12.6562 16.1719C12.4698 16.1719 12.2909 16.246 12.1591 16.3778C12.0272 16.5097 11.9531 16.6885 11.9531 16.875C11.9531 17.0615 12.0272 17.2403 12.1591 17.3722C12.2909 17.504 12.4698 17.5781 12.6562 17.5781C13.697 17.5781 14.3525 17.2854 14.7656 16.9182C15.1787 17.2854 15.8343 17.5781 16.875 17.5781C17.0615 17.5781 17.2403 17.504 17.3722 17.3722C17.504 17.2403 17.5781 17.0615 17.5781 16.875C17.5781 16.6885 17.504 16.5097 17.3722 16.3778C17.2403 16.246 17.0615 16.1719 16.875 16.1719Z" fill="#8C5237"/>
<path d="M37.2656 40.7812C37.2656 40.9677 37.3397 41.1466 37.4716 41.2784C37.6034 41.4103 37.7823 41.4844 37.9688 41.4844C38.1552 41.4844 38.3341 41.4103 38.4659 41.2784C38.5978 41.1466 38.6719 40.9677 38.6719 40.7812V39.375H37.2656V40.7812Z" fill="#7E8589"/>
<path d="M40.0781 39.375V40.7812C40.0781 40.9677 40.1522 41.1466 40.2841 41.2784C40.4159 41.4103 40.5948 41.4844 40.7812 41.4844C40.9677 41.4844 41.1466 41.4103 41.2784 41.2784C41.4103 41.1466 41.4844 40.9677 41.4844 40.7812V39.375H40.0781Z" fill="#7E8589"/>
<path d="M29.5312 30.2344H28.125V31.6406H29.5312C29.7177 31.6406 29.8966 31.5665 30.0284 31.4347C30.1603 31.3028 30.2344 31.124 30.2344 30.9375C30.2344 30.751 30.1603 30.5722 30.0284 30.4403C29.8966 30.3085 29.7177 30.2344 29.5312 30.2344Z" fill="#7E8589"/>
<path d="M29.5312 33.0469H28.125V34.4531H29.5312C29.7177 34.4531 29.8966 34.379 30.0284 34.2472C30.1603 34.1153 30.2344 33.9365 30.2344 33.75C30.2344 33.5635 30.1603 33.3847 30.0284 33.2528C29.8966 33.121 29.7177 33.0469 29.5312 33.0469Z" fill="#7E8589"/>
<path d="M38.6719 33.75C38.6719 33.9365 38.746 34.1153 38.8778 34.2472C39.0097 34.379 39.1885 34.4531 39.375 34.4531H40.7812V33.0469H39.375C39.1885 33.0469 39.0097 33.121 38.8778 33.2528C38.746 33.3847 38.6719 33.5635 38.6719 33.75Z" fill="#7E8589"/>
<path d="M38.6719 30.9375C38.6719 31.124 38.746 31.3028 38.8778 31.4347C39.0097 31.5665 39.1885 31.6406 39.375 31.6406H40.7812V30.2344H39.375C39.1885 30.2344 39.0097 30.3085 38.8778 30.4403C38.746 30.5722 38.6719 30.751 38.6719 30.9375Z" fill="#7E8589"/>
<path d="M37.9688 17.5781C38.3571 17.5781 38.6719 17.2633 38.6719 16.875C38.6719 16.4867 38.3571 16.1719 37.9688 16.1719C37.5804 16.1719 37.2656 16.4867 37.2656 16.875C37.2656 17.2633 37.5804 17.5781 37.9688 17.5781Z" fill="#7E8589"/>
<path d="M30.9375 17.5781C31.3258 17.5781 31.6406 17.2633 31.6406 16.875C31.6406 16.4867 31.3258 16.1719 30.9375 16.1719C30.5492 16.1719 30.2344 16.4867 30.2344 16.875C30.2344 17.2633 30.5492 17.5781 30.9375 17.5781Z" fill="#7E8589"/>
<path d="M36.173 21.1676C35.7225 20.9422 35.2281 20.5567 35.1563 20.3774V18.2812C35.1563 18.0948 35.0822 17.9159 34.9503 17.7841C34.8185 17.6522 34.6396 17.5781 34.4531 17.5781C34.2667 17.5781 34.0878 17.6522 33.956 17.7841C33.8241 17.9159 33.75 18.0948 33.75 18.2812V20.3689C33.6814 20.5492 33.1851 20.9402 32.7324 21.168C32.6491 21.2089 32.5747 21.2658 32.5135 21.3356C32.4523 21.4053 32.4055 21.4865 32.3758 21.5744C32.3461 21.6623 32.3341 21.7553 32.3405 21.8478C32.3469 21.9404 32.3716 22.0308 32.4131 22.1138C32.4546 22.1968 32.5121 22.2708 32.5824 22.3314C32.6526 22.3921 32.7341 22.4382 32.8223 22.4672C32.9104 22.4962 33.0035 22.5075 33.096 22.5004C33.1885 22.4933 33.2787 22.4679 33.3614 22.4257C33.7548 22.23 34.1211 21.984 34.4512 21.694C34.7831 21.9849 35.1516 22.2312 35.5472 22.4267C35.7142 22.5096 35.9072 22.5228 36.0839 22.4634C36.2606 22.4041 36.4065 22.277 36.4895 22.1101C36.5725 21.9432 36.5858 21.7501 36.5266 21.5734C36.4673 21.3967 36.3403 21.2507 36.1734 21.1676H36.173Z" fill="#7E8589"/>
<path d="M34.4532 17.5781C33.5397 17.5781 33.0469 18.3027 33.0469 18.9844C33.045 19.1709 33.1173 19.3504 33.2478 19.4836C33.3784 19.6168 33.5565 19.6927 33.743 19.6946C33.9294 19.6965 34.109 19.6242 34.2422 19.4936C34.3754 19.3631 34.4513 19.185 34.4532 18.9985C34.4532 19.0005 34.4532 19.0025 34.4537 19.0042C34.4537 19.0004 34.4537 18.997 34.4532 18.9942C34.4526 18.9914 34.4532 18.9877 34.4532 18.9844C34.4532 19.1709 34.5272 19.3497 34.6591 19.4816C34.791 19.6134 34.9698 19.6875 35.1563 19.6875C35.3428 19.6875 35.5216 19.6134 35.6535 19.4816C35.7853 19.3497 35.8594 19.1709 35.8594 18.9844C35.8594 18.3027 35.3666 17.5781 34.4532 17.5781Z" fill="#7E8589"/>
</g>
<defs>
<clipPath id="clip0_791_34000">
<rect width="45" height="45" fill="white"/>
</clipPath>
</defs>
</svg>
