<svg width="45" height="45" viewBox="0 0 45 45" fill="none" xmlns="http://www.w3.org/2000/svg">
<g clip-path="url(#clip0_791_33982)">
<path d="M11.4535 29.513C11.2863 29.513 10.8252 29.4348 10.6934 29.3115C10.4174 29.0533 10.6958 28.6376 10.9536 28.3615C14.7089 24.343 15.7293 18.2136 15.9243 13.7796C15.9394 13.4377 16.2048 13.1592 16.546 13.1283C22.6942 12.5697 31.4665 7.58985 34.9505 2.67965C35.1229 2.43658 35.4325 2.33324 35.7165 2.42353C36.0004 2.51417 36.193 2.77784 36.193 3.07585V21.1325C36.193 21.5105 35.8867 21.8171 35.5087 21.8171C35.1307 21.8171 34.8245 21.5105 34.8245 21.1325V5.01012C30.717 9.55262 23.1357 13.6721 17.2615 14.4264C16.9913 19.0345 15.8271 25.1504 11.9537 29.2961C11.8188 29.4403 11.6365 29.513 11.4535 29.513Z" fill="#808080"/>
<path fill-rule="evenodd" clip-rule="evenodd" d="M34.1457 0.0707542C19.1968 3.35257 5.26957 17.343 3.71191 32.7708C4.49709 35.9483 7.12248 35.194 7.37654 32.3468C7.4325 31.7117 7.39439 30.9701 7.76552 29.5096C8.97505 23.6955 12.2284 18.2648 16.6071 13.8098C21.8273 8.50103 28.646 4.58201 35.508 3.07551C36.9363 2.6158 36.6108 -0.505684 34.1457 0.0707542Z" fill="#E6E6E6"/>
<path fill-rule="evenodd" clip-rule="evenodd" d="M7.29557 42.3619L7.97673 35.984C8.37841 34.4449 7.75563 33.1798 6.23093 32.6768C5.96898 32.5628 5.68436 32.4866 5.38704 32.4533C4.78726 32.3898 4.21048 32.512 3.71232 32.7709C2.86603 33.2127 2.24564 34.0587 2.13647 35.0746L1.42236 41.7347C1.35129 42.4152 1.51883 43.0682 1.857 43.6092C2.32221 44.3532 3.11253 44.8843 4.04534 44.9832C5.65896 45.1559 7.12288 43.9776 7.29557 42.3619Z" fill="#FFDDA6"/>
<path fill-rule="evenodd" clip-rule="evenodd" d="M7.9768 35.984C8.27652 34.8359 8.00736 33.8375 7.21703 33.1976C6.94752 32.9792 6.61725 32.8038 6.23101 32.6768C7.51435 33.4846 6.36799 33.2254 6.57158 34.2845C6.57399 34.3024 6.57639 34.3202 6.57914 34.3381C6.6502 34.7494 6.6224 35.2016 6.49777 35.6791L5.81662 42.057C5.66144 43.51 4.45946 44.6096 3.04395 44.691C3.34882 44.8434 3.68699 44.945 4.04542 44.9831C5.65903 45.1558 7.12296 43.9772 7.29599 42.3619L7.9768 35.984Z" fill="#FCC368"/>
<path fill-rule="evenodd" clip-rule="evenodd" d="M14.2536 33.096C14.462 31.1556 13.2497 29.3878 11.4531 28.8289C11.2066 28.7527 10.9474 28.6994 10.6806 28.6713C9.59537 28.5546 8.56094 28.8821 7.76546 29.5097C6.94458 30.1548 6.3726 31.1199 6.25313 32.2401C6.23802 32.3874 6.23047 32.532 6.23047 32.6768C6.23047 34.0281 6.91162 35.2524 7.97626 35.9841C8.51013 36.3497 9.13772 36.5935 9.82643 36.6673C10.9728 36.7891 12.0604 36.416 12.871 35.7224C13.6232 35.0773 14.1392 34.1579 14.2536 33.096Z" fill="#50D960"/>
<path fill-rule="evenodd" clip-rule="evenodd" d="M14.2537 33.0959C14.4621 31.1555 13.2498 29.3877 11.4532 28.8288C11.2142 28.755 10.9653 28.7018 10.7061 28.674C11.9946 29.4588 12.7873 30.9371 12.6147 32.537C12.536 33.2813 12.2562 33.957 11.8394 34.5159C11.6616 34.7545 11.4583 34.9705 11.2345 35.161C10.4215 35.8569 9.33627 36.2301 8.18752 36.1059C8.17996 36.1059 8.17241 36.1059 8.16211 36.1031C8.65272 36.4028 9.2168 36.6009 9.82688 36.6672C10.9729 36.7891 12.0605 36.4159 12.8715 35.7224C13.6233 35.0773 14.1394 34.1578 14.2537 33.0959Z" fill="#0F941E"/>
<path fill-rule="evenodd" clip-rule="evenodd" d="M36.3286 1.37646C18.4419 5.37445 7.08685 19.3597 5.38672 32.4533C5.68404 32.4866 5.96865 32.5628 6.23061 32.6768C6.23061 32.5323 6.23816 32.3874 6.25326 32.2401C6.37274 31.1199 6.94472 30.1548 7.7656 29.5097C8.97512 23.6955 12.2284 18.2648 16.6072 13.8099C21.8274 8.50109 28.6461 4.58207 35.5081 3.07557C36.1635 2.86477 36.4509 2.09538 36.3286 1.37646Z" fill="#C2C7CC"/>
<path fill-rule="evenodd" clip-rule="evenodd" d="M29.6095 27.5052C27.9066 28.6485 27.3425 31.0106 27.335 33.2738C27.3322 34.6985 27.7871 34.6096 28.9208 34.2999L30.5093 33.8629C32.2881 32.6922 31.2437 28.425 29.6095 27.5052Z" fill="#F78411"/>
<path fill-rule="evenodd" clip-rule="evenodd" d="M43.6814 33.2738C43.6762 31.0106 43.1094 28.6485 41.4093 27.5052C40.6138 27.5537 39.8921 33.6902 40.5098 33.8629L42.098 34.2999C43.2316 34.61 43.6865 34.6985 43.6814 33.2738Z" fill="#F78411"/>
<path fill-rule="evenodd" clip-rule="evenodd" d="M41.4099 27.5053L35.8645 25.6002L29.6099 27.5053C29.5491 27.9424 29.5186 28.3945 29.5186 28.8542C29.5186 30.3707 29.7829 31.7879 30.2478 33.1492C30.6546 34.3508 31.2187 35.5116 31.8923 36.6597C32.5607 37.8026 32.8759 38.2904 32.3269 38.9507L30.1819 41.5362C29.8286 41.9606 30.4057 42.4151 30.6673 42.4151H31.8264L35.5088 42.4227L39.1913 42.4151H40.3528C40.6144 42.4151 41.1888 41.9606 40.8382 41.5362L38.6932 38.9507C38.1442 38.2901 38.457 37.8026 39.1278 36.6597C39.8014 35.5116 40.3631 34.3508 40.7723 33.1492C41.2372 31.7879 41.5015 30.3707 41.5015 28.8542C41.5015 28.3945 41.471 27.9424 41.4099 27.5053Z" fill="#FCC368"/>
<path fill-rule="evenodd" clip-rule="evenodd" d="M35.5083 21.1326C32.7964 21.1326 30.5065 23.4541 29.767 26.6367C29.7034 26.9213 29.6502 27.2083 29.6094 27.5057C33.1652 28.6867 37.2898 28.778 41.4094 27.5057C41.3689 27.2083 41.3153 26.9213 41.2494 26.6367C40.5095 23.4541 38.2199 21.1326 35.5083 21.1326Z" fill="#FFDDA6"/>
<path fill-rule="evenodd" clip-rule="evenodd" d="M41.2492 26.6367C40.5094 23.4541 38.2197 21.1326 35.5082 21.1326C34.7508 21.1326 34.0264 21.3128 33.3604 21.6431C33.4163 21.6407 33.4723 21.6407 33.5282 21.6407C36.2398 21.6407 38.5322 23.9622 39.2693 27.1472C39.3355 27.4291 39.3888 27.7189 39.4293 28.0134C40.0878 27.8789 40.7483 27.7086 41.4092 27.5053C41.3687 27.2083 41.3151 26.9213 41.2492 26.6367Z" fill="#FCC368"/>
<path fill-rule="evenodd" clip-rule="evenodd" d="M41.4096 27.5052C40.749 27.7085 40.0881 27.8788 39.4296 28.0134C39.7019 30.9546 38.7663 34.0102 36.8705 36.4615C36.0599 37.5079 36.3902 38.8974 36.8959 39.5905L38.9596 42.4151H40.3525C40.6141 42.4151 41.1885 41.9629 40.8379 41.5361L38.6929 38.9506C38.1439 38.29 38.4567 37.8025 39.1275 36.6596C39.6662 35.7398 40.1338 34.8129 40.5101 33.8629C40.6041 33.6267 40.6903 33.3905 40.7717 33.1491C41.2369 31.7879 41.5012 30.3706 41.5012 28.8542C41.5012 28.3945 41.4707 27.9423 41.4096 27.5052Z" fill="#FFA719"/>
<path d="M37.5163 25.2562C37.1386 25.2562 36.832 24.9499 36.832 24.5719V24.5057C36.832 24.1277 37.1386 23.8214 37.5163 23.8214C37.8943 23.8214 38.2005 24.1277 38.2005 24.5057V24.5719C38.2005 24.9496 37.8943 25.2562 37.5163 25.2562Z" fill="#808080"/>
<path d="M14.8109 38.4768C14.6224 38.4768 14.4346 38.3992 14.2993 38.2475L9.74239 33.1241C9.49108 32.8418 9.51649 32.4089 9.79904 32.158C10.0813 31.9066 10.5138 31.9317 10.7652 32.2143L15.3217 37.3373C15.573 37.6199 15.548 38.0525 15.2654 38.3038C15.135 38.4198 14.9726 38.4768 14.8109 38.4768Z" fill="#E6E6E6"/>
<path fill-rule="evenodd" clip-rule="evenodd" d="M18.4809 39.4027C18.6052 38.2471 17.7692 37.2134 16.6153 37.0887C15.4589 36.9669 14.4245 37.8001 14.2999 38.9557C14.178 40.1086 15.014 41.1451 16.1679 41.267C17.3218 41.3916 18.3586 40.556 18.4809 39.4027Z" fill="#FCC368"/>
</g>
<defs>
<clipPath id="clip0_791_33982">
<rect width="45" height="45" fill="white"/>
</clipPath>
</defs>
</svg>
