<svg width="32" height="32" viewBox="0 0 32 32" fill="none" xmlns="http://www.w3.org/2000/svg">
<g clip-path="url(#clip0_940_679)">
<path d="M23 19.5C23 19.776 22.5 32 22.5 32C22.5 32 22 19.776 22 19.5C22 19.3674 22.0527 19.2402 22.1464 19.1464C22.2402 19.0527 22.3674 19 22.5 19C22.6326 19 22.7598 19.0527 22.8536 19.1464C22.9473 19.2402 23 19.3674 23 19.5Z" fill="url(#paint0_radial_940_679)"/>
<path d="M7 14C7 14.276 6.5 32 6.5 32C6.5 32 6 14.276 6 14C6 13.8674 6.05268 13.7402 6.14645 13.6464C6.24021 13.5527 6.36739 13.5 6.5 13.5C6.63261 13.5 6.75979 13.5527 6.85355 13.6464C6.94732 13.7402 7 13.8674 7 14Z" fill="url(#paint1_radial_940_679)"/>
<path d="M23 4C23 4.276 22.5 8 22.5 8C22.5 8 22 4.276 22 4C22 3.86739 22.0527 3.74021 22.1464 3.64645C22.2402 3.55268 22.3674 3.5 22.5 3.5C22.6326 3.5 22.7598 3.55268 22.8536 3.64645C22.9473 3.74021 23 3.86739 23 4Z" fill="url(#paint2_radial_940_679)"/>
<path d="M20.4327 4.41999C20.5707 4.65899 21.9997 8.13399 21.9997 8.13399C21.9997 8.13399 19.7047 5.15899 19.5667 4.91999C19.5334 4.8631 19.5116 4.80018 19.5027 4.73485C19.4937 4.66952 19.4978 4.60306 19.5147 4.53931C19.5315 4.47556 19.5608 4.41578 19.6009 4.3634C19.6409 4.31102 19.6909 4.26708 19.748 4.2341C19.8051 4.20113 19.8682 4.17978 19.9336 4.17129C19.999 4.16279 20.0654 4.1673 20.1291 4.18458C20.1927 4.20186 20.2523 4.23155 20.3044 4.27195C20.3565 4.31235 20.4001 4.36266 20.4327 4.41999Z" fill="url(#paint3_radial_940_679)"/>
<path d="M18.4208 6.06701C18.6598 6.20501 21.6348 8.50001 21.6348 8.50001C21.6348 8.50001 18.1598 7.07101 17.9208 6.93301C17.8635 6.90042 17.8132 6.85681 17.7728 6.8047C17.7324 6.75258 17.7027 6.69299 17.6854 6.62936C17.6682 6.56572 17.6636 6.4993 17.6721 6.43391C17.6806 6.36852 17.702 6.30545 17.735 6.24835C17.7679 6.19124 17.8119 6.14122 17.8643 6.10117C17.9166 6.06111 17.9764 6.03182 18.0402 6.01496C18.1039 5.99811 18.1704 5.99403 18.2357 6.00296C18.301 6.01189 18.364 6.03366 18.4208 6.06701Z" fill="url(#paint4_radial_940_679)"/>
<path d="M17.5 8.5C17.776 8.5 21.5 9 21.5 9C21.5 9 17.776 9.5 17.5 9.5C17.3674 9.5 17.2402 9.44732 17.1464 9.35355C17.0527 9.25979 17 9.13261 17 9C17 8.86739 17.0527 8.74021 17.1464 8.64645C17.2402 8.55268 17.3674 8.5 17.5 8.5Z" fill="url(#paint5_radial_940_679)"/>
<path d="M17.919 11.067C18.158 10.929 21.633 9.5 21.633 9.5C21.633 9.5 18.658 11.795 18.419 11.933C18.3042 11.9983 18.1683 12.0155 18.0409 11.9809C17.9135 11.9463 17.8049 11.8627 17.7389 11.7483C17.6728 11.634 17.6547 11.4982 17.6885 11.3705C17.7222 11.2429 17.8051 11.1338 17.919 11.067Z" fill="url(#paint6_radial_940_679)"/>
<path d="M19.5673 13.08C19.7053 12.841 22.0003 9.86603 22.0003 9.86603C22.0003 9.86603 20.5713 13.341 20.4333 13.58C20.3665 13.6939 20.2574 13.7768 20.1298 13.8105C20.0021 13.8443 19.8663 13.8262 19.752 13.7602C19.6376 13.6941 19.554 13.5856 19.5194 13.4582C19.4848 13.3307 19.502 13.1948 19.5673 13.08Z" fill="url(#paint7_radial_940_679)"/>
<path d="M22 14C22 13.724 22.5 10 22.5 10C22.5 10 23 13.724 23 14C23 14.1326 22.9473 14.2598 22.8536 14.3536C22.7598 14.4473 22.6326 14.5 22.5 14.5C22.3674 14.5 22.2402 14.4473 22.1464 14.3536C22.0527 14.2598 22 14.1326 22 14Z" fill="url(#paint8_radial_940_679)"/>
<path d="M24.567 13.58C24.429 13.341 23 9.86603 23 9.86603C23 9.86603 25.295 12.841 25.433 13.08C25.4983 13.1948 25.5155 13.3307 25.4809 13.4582C25.4463 13.5856 25.3627 13.6941 25.2483 13.7602C25.134 13.8262 24.9982 13.8443 24.8705 13.8105C24.7429 13.7768 24.6338 13.6939 24.567 13.58Z" fill="url(#paint9_radial_940_679)"/>
<path d="M26.5792 11.933C26.3402 11.795 23.3652 9.5 23.3652 9.5C23.3652 9.5 26.8402 10.929 27.0792 11.067C27.1366 11.0996 27.1869 11.1432 27.2273 11.1953C27.2677 11.2474 27.2974 11.307 27.3146 11.3707C27.3319 11.4343 27.3364 11.5007 27.3279 11.5661C27.3194 11.6315 27.2981 11.6946 27.2651 11.7517C27.2321 11.8088 27.1882 11.8588 27.1358 11.8988C27.0834 11.9389 27.0237 11.9682 26.9599 11.985C26.8962 12.0019 26.8297 12.006 26.7644 11.997C26.699 11.9881 26.6361 11.9663 26.5792 11.933Z" fill="url(#paint10_radial_940_679)"/>
<path d="M27.5 9.5C27.224 9.5 23.5 9 23.5 9C23.5 9 27.224 8.5 27.5 8.5C27.6326 8.5 27.7598 8.55268 27.8536 8.64645C27.9473 8.74021 28 8.86739 28 9C28 9.13261 27.9473 9.25979 27.8536 9.35355C27.7598 9.44732 27.6326 9.5 27.5 9.5Z" fill="url(#paint11_radial_940_679)"/>
<path d="M27.0792 6.93301C26.8402 7.07101 23.3652 8.50001 23.3652 8.50001C23.3652 8.50001 26.3402 6.20501 26.5792 6.06701C26.6361 6.03366 26.699 6.01189 26.7644 6.00296C26.8297 5.99403 26.8962 5.99811 26.9599 6.01496C27.0237 6.03182 27.0834 6.06111 27.1358 6.10117C27.1882 6.14122 27.2321 6.19124 27.2651 6.24835C27.2981 6.30545 27.3194 6.36852 27.3279 6.43391C27.3364 6.4993 27.3319 6.56572 27.3146 6.62936C27.2974 6.69299 27.2677 6.75258 27.2273 6.8047C27.1869 6.85681 27.1366 6.90042 27.0792 6.93301Z" fill="url(#paint12_radial_940_679)"/>
<path d="M25.433 4.91998C25.295 5.15898 23 8.13398 23 8.13398C23 8.13398 24.429 4.65898 24.567 4.41998C24.6338 4.30608 24.7429 4.22321 24.8705 4.18946C24.9982 4.15571 25.134 4.17383 25.2483 4.23984C25.3627 4.30586 25.4463 4.41443 25.4809 4.54185C25.5155 4.66927 25.4983 4.8052 25.433 4.91998Z" fill="url(#paint13_radial_940_679)"/>
<path d="M23 0.5C23 0.776 22.5 2.5 22.5 2.5C22.5 2.5 22 0.776 22 0.5C22 0.367392 22.0527 0.240215 22.1464 0.146447C22.2402 0.0526784 22.3674 0 22.5 0C22.6326 0 22.7598 0.0526784 22.8536 0.146447C22.9473 0.240215 23 0.367392 23 0.5Z" fill="url(#paint14_radial_940_679)"/>
<path d="M13 25.5C13 25.776 12.5 32 12.5 32C12.5 32 12 25.776 12 25.5C12 25.3674 12.0527 25.2402 12.1464 25.1464C12.2402 25.0527 12.3674 25 12.5 25C12.6326 25 12.7598 25.0527 12.8536 25.1464C12.9473 25.2402 13 25.3674 13 25.5Z" fill="url(#paint15_radial_940_679)"/>
<path d="M13 15C13 15.276 12.5 17 12.5 17C12.5 17 12 15.276 12 15C12 14.8674 12.0527 14.7402 12.1464 14.6464C12.2402 14.5527 12.3674 14.5 12.5 14.5C12.6326 14.5 12.7598 14.5527 12.8536 14.6464C12.9473 14.7402 13 14.8674 13 15Z" fill="url(#paint16_radial_940_679)"/>
<path d="M19.5 23C19.3757 23.5131 19.2084 24.0149 19 24.5C18.7916 24.0149 18.6243 23.5131 18.5 23C18.5 22.8674 18.5527 22.7402 18.6464 22.6464C18.7402 22.5527 18.8674 22.5 19 22.5C19.1326 22.5 19.2598 22.5527 19.3536 22.6464C19.4473 22.7402 19.5 22.8674 19.5 23Z" fill="url(#paint17_radial_940_679)"/>
<path d="M17 24.5C17.5131 24.6243 18.0149 24.7916 18.5 25C18.0149 25.2084 17.5131 25.3757 17 25.5C16.8674 25.5 16.7402 25.4473 16.6464 25.3536C16.5527 25.2598 16.5 25.1326 16.5 25C16.5 24.8674 16.5527 24.7402 16.6464 24.6464C16.7402 24.5527 16.8674 24.5 17 24.5Z" fill="url(#paint18_radial_940_679)"/>
<path d="M18.5 27C18.6243 26.4869 18.7916 25.9851 19 25.5C19.2084 25.9851 19.3757 26.4869 19.5 27C19.5 27.1326 19.4473 27.2598 19.3536 27.3536C19.2598 27.4473 19.1326 27.5 19 27.5C18.8674 27.5 18.7402 27.4473 18.6464 27.3536C18.5527 27.2598 18.5 27.1326 18.5 27Z" fill="url(#paint19_radial_940_679)"/>
<path d="M21 25.5C20.4869 25.3757 19.9851 25.2084 19.5 25C19.9851 24.7916 20.4869 24.6243 21 24.5C21.1326 24.5 21.2598 24.5527 21.3536 24.6464C21.4473 24.7402 21.5 24.8674 21.5 25C21.5 25.1326 21.4473 25.2598 21.3536 25.3536C21.2598 25.4473 21.1326 25.5 21 25.5Z" fill="url(#paint20_radial_940_679)"/>
<path d="M28.5 18.5C28.3757 19.0131 28.2084 19.5149 28 20C27.7916 19.5149 27.6243 19.0131 27.5 18.5C27.5 18.3674 27.5527 18.2402 27.6464 18.1464C27.7402 18.0527 27.8674 18 28 18C28.1326 18 28.2598 18.0527 28.3536 18.1464C28.4473 18.2402 28.5 18.3674 28.5 18.5Z" fill="url(#paint21_radial_940_679)"/>
<path d="M26 20C26.5131 20.1243 27.0149 20.2916 27.5 20.5C27.0149 20.7084 26.5131 20.8757 26 21C25.8674 21 25.7402 20.9473 25.6464 20.8536C25.5527 20.7598 25.5 20.6326 25.5 20.5C25.5 20.3674 25.5527 20.2402 25.6464 20.1464C25.7402 20.0527 25.8674 20 26 20Z" fill="url(#paint22_radial_940_679)"/>
<path d="M27.5 22.5C27.6243 21.9869 27.7916 21.4851 28 21C28.2084 21.4851 28.3757 21.9869 28.5 22.5C28.5 22.6326 28.4473 22.7598 28.3536 22.8536C28.2598 22.9473 28.1326 23 28 23C27.8674 23 27.7402 22.9473 27.6464 22.8536C27.5527 22.7598 27.5 22.6326 27.5 22.5Z" fill="url(#paint23_radial_940_679)"/>
<path d="M30 21C29.4869 20.8757 28.9851 20.7084 28.5 20.5C28.9851 20.2916 29.4869 20.1243 30 20C30.1326 20 30.2598 20.0527 30.3536 20.1464C30.4473 20.2402 30.5 20.3674 30.5 20.5C30.5 20.6326 30.4473 20.7598 30.3536 20.8536C30.2598 20.9473 30.1326 21 30 21Z" fill="url(#paint24_radial_940_679)"/>
<path d="M3.5 16.5C3.37568 17.0131 3.20842 17.5149 3 18C2.79158 17.5149 2.62432 17.0131 2.5 16.5C2.5 16.3674 2.55268 16.2402 2.64645 16.1464C2.74021 16.0527 2.86739 16 3 16C3.13261 16 3.25979 16.0527 3.35355 16.1464C3.44732 16.2402 3.5 16.3674 3.5 16.5Z" fill="url(#paint25_radial_940_679)"/>
<path d="M1 18C1.51313 18.1243 2.0149 18.2916 2.5 18.5C2.0149 18.7084 1.51313 18.8757 1 19C0.867392 19 0.740215 18.9473 0.646447 18.8536C0.552678 18.7598 0.5 18.6326 0.5 18.5C0.5 18.3674 0.552678 18.2402 0.646447 18.1464C0.740215 18.0527 0.867392 18 1 18Z" fill="url(#paint26_radial_940_679)"/>
<path d="M2.5 20.5C2.62432 19.9869 2.79158 19.4851 3 19C3.20842 19.4851 3.37568 19.9869 3.5 20.5C3.5 20.6326 3.44732 20.7598 3.35355 20.8536C3.25979 20.9473 3.13261 21 3 21C2.86739 21 2.74021 20.9473 2.64645 20.8536C2.55268 20.7598 2.5 20.6326 2.5 20.5Z" fill="url(#paint27_radial_940_679)"/>
<path d="M5 19C4.48687 18.8757 3.9851 18.7084 3.5 18.5C3.9851 18.2916 4.48687 18.1243 5 18C5.13261 18 5.25979 18.0527 5.35355 18.1464C5.44732 18.2402 5.5 18.3674 5.5 18.5C5.5 18.6326 5.44732 18.7598 5.35355 18.8536C5.25979 18.9473 5.13261 19 5 19Z" fill="url(#paint28_radial_940_679)"/>
<path d="M13 0.5C12.8757 1.01313 12.7084 1.5149 12.5 2C12.2916 1.5149 12.1243 1.01313 12 0.5C12 0.367392 12.0527 0.240215 12.1464 0.146447C12.2402 0.0526784 12.3674 0 12.5 0C12.6326 0 12.7598 0.0526784 12.8536 0.146447C12.9473 0.240215 13 0.367392 13 0.5Z" fill="url(#paint29_radial_940_679)"/>
<path d="M10.5 2C11.0131 2.12432 11.5149 2.29158 12 2.5C11.5149 2.70842 11.0131 2.87568 10.5 3C10.3674 3 10.2402 2.94732 10.1464 2.85355C10.0527 2.75979 10 2.63261 10 2.5C10 2.36739 10.0527 2.24021 10.1464 2.14645C10.2402 2.05268 10.3674 2 10.5 2Z" fill="url(#paint30_radial_940_679)"/>
<path d="M12 4.5C12.1243 3.98687 12.2916 3.4851 12.5 3C12.7084 3.4851 12.8757 3.98687 13 4.5C13 4.63261 12.9473 4.75979 12.8536 4.85355C12.7598 4.94732 12.6326 5 12.5 5C12.3674 5 12.2402 4.94732 12.1464 4.85355C12.0527 4.75979 12 4.63261 12 4.5Z" fill="url(#paint31_radial_940_679)"/>
<path d="M14.5 3C13.9869 2.87568 13.4851 2.70842 13 2.5C13.4851 2.29158 13.9869 2.12432 14.5 2C14.6326 2 14.7598 2.05268 14.8536 2.14645C14.9473 2.24021 15 2.36739 15 2.5C15 2.63261 14.9473 2.75979 14.8536 2.85355C14.7598 2.94732 14.6326 3 14.5 3Z" fill="url(#paint32_radial_940_679)"/>
<path d="M7 6C6.87568 6.51313 6.70842 7.0149 6.5 7.5C6.29158 7.0149 6.12432 6.51313 6 6C6 5.86739 6.05268 5.74021 6.14645 5.64645C6.24021 5.55268 6.36739 5.5 6.5 5.5C6.63261 5.5 6.75979 5.55268 6.85355 5.64645C6.94732 5.74021 7 5.86739 7 6Z" fill="url(#paint33_radial_940_679)"/>
<path d="M5 7C5.51313 7.12432 6.0149 7.29158 6.5 7.5C6.0149 7.70842 5.51313 7.87568 5 8C4.86739 8 4.74021 7.94732 4.64645 7.85355C4.55268 7.75979 4.5 7.63261 4.5 7.5C4.5 7.36739 4.55268 7.24021 4.64645 7.14645C4.74021 7.05268 4.86739 7 5 7Z" fill="url(#paint34_radial_940_679)"/>
<path d="M6 9C6.12432 8.48687 6.29158 7.9851 6.5 7.5C6.70842 7.9851 6.87568 8.48687 7 9C7 9.13261 6.94732 9.25979 6.85355 9.35355C6.75979 9.44732 6.63261 9.5 6.5 9.5C6.36739 9.5 6.24021 9.44732 6.14645 9.35355C6.05268 9.25979 6 9.13261 6 9Z" fill="url(#paint35_radial_940_679)"/>
<path d="M8 8C7.48687 7.87568 6.9851 7.70842 6.5 7.5C6.9851 7.29158 7.48687 7.12432 8 7C8.13261 7 8.25979 7.05268 8.35355 7.14645C8.44732 7.24021 8.5 7.36739 8.5 7.5C8.5 7.63261 8.44732 7.75979 8.35355 7.85355C8.25979 7.94732 8.13261 8 8 8Z" fill="url(#paint36_radial_940_679)"/>
<path d="M7 3C7 3.276 6.5 5 6.5 5C6.5 5 6 3.276 6 3C6 2.86739 6.05268 2.74021 6.14645 2.64645C6.24021 2.55268 6.36739 2.5 6.5 2.5C6.63261 2.5 6.75979 2.55268 6.85355 2.64645C6.94732 2.74021 7 2.86739 7 3Z" fill="url(#paint37_radial_940_679)"/>
<path d="M3.67214 3.96447C3.86764 4.15997 4.73264 5.73247 4.73264 5.73247C4.73264 5.73247 3.16014 4.86697 2.96514 4.67147C2.91739 4.62535 2.8793 4.57018 2.85309 4.50917C2.82689 4.44817 2.8131 4.38256 2.81252 4.31617C2.81194 4.24978 2.82459 4.18394 2.84973 4.1225C2.87487 4.06105 2.912 4.00522 2.95895 3.95828C3.00589 3.91133 3.06172 3.8742 3.12317 3.84906C3.18462 3.82392 3.25045 3.81127 3.31684 3.81185C3.38323 3.81242 3.44884 3.82622 3.50985 3.85242C3.57085 3.87863 3.62602 3.91672 3.67214 3.96447Z" fill="url(#paint38_radial_940_679)"/>
<path d="M2 7C2.276 7 4 7.5 4 7.5C4 7.5 2.276 8 2 8C1.86739 8 1.74021 7.94732 1.64645 7.85355C1.55268 7.75979 1.5 7.63261 1.5 7.5C1.5 7.36739 1.55268 7.24021 1.64645 7.14645C1.74021 7.05268 1.86739 7 2 7Z" fill="url(#paint39_radial_940_679)"/>
<path d="M2.96457 10.3285C3.15957 10.133 4.73207 9.26801 4.73207 9.26801C4.73207 9.26801 3.86707 10.8405 3.67157 11.0355C3.57727 11.1266 3.45097 11.177 3.31987 11.1758C3.18878 11.1747 3.06337 11.1221 2.97067 11.0294C2.87796 10.9367 2.82538 10.8113 2.82424 10.6802C2.8231 10.5491 2.8735 10.4228 2.96457 10.3285Z" fill="url(#paint40_radial_940_679)"/>
<path d="M6 12C6 11.724 6.5 10 6.5 10C6.5 10 7 11.724 7 12C7 12.1326 6.94732 12.2598 6.85355 12.3536C6.75979 12.4473 6.63261 12.5 6.5 12.5C6.36739 12.5 6.24021 12.4473 6.14645 12.3536C6.05268 12.2598 6 12.1326 6 12Z" fill="url(#paint41_radial_940_679)"/>
<path d="M9.32808 11.0355C9.13258 10.8405 8.26758 9.26801 8.26758 9.26801C8.26758 9.26801 9.84008 10.133 10.0351 10.3285C10.1262 10.4228 10.1766 10.5491 10.1754 10.6802C10.1743 10.8113 10.1217 10.9367 10.029 11.0294C9.93628 11.1221 9.81088 11.1747 9.67978 11.1758C9.54868 11.177 9.42238 11.1266 9.32808 11.0355Z" fill="url(#paint42_radial_940_679)"/>
<path d="M11 8C10.724 8 9 7.5 9 7.5C9 7.5 10.724 7 11 7C11.1326 7 11.2598 7.05268 11.3536 7.14645C11.4473 7.24021 11.5 7.36739 11.5 7.5C11.5 7.63261 11.4473 7.75979 11.3536 7.85355C11.2598 7.94732 11.1326 8 11 8Z" fill="url(#paint43_radial_940_679)"/>
<path d="M10.0351 4.67147C9.84008 4.86697 8.26758 5.73247 8.26758 5.73247C8.26758 5.73247 9.13258 4.15997 9.32808 3.96447C9.3742 3.91672 9.42937 3.87863 9.49038 3.85242C9.55138 3.82622 9.61699 3.81242 9.68338 3.81185C9.74977 3.81127 9.81561 3.82392 9.87706 3.84906C9.9385 3.8742 9.99433 3.91133 10.0413 3.95828C10.0882 4.00522 10.1253 4.06105 10.1505 4.1225C10.1756 4.18394 10.1883 4.24978 10.1877 4.31617C10.1871 4.38256 10.1733 4.44817 10.1471 4.50917C10.1209 4.57018 10.0828 4.62535 10.0351 4.67147Z" fill="url(#paint44_radial_940_679)"/>
<path d="M10.6833 15.353C10.8213 15.592 11.2503 17.335 11.2503 17.335C11.2503 17.335 9.9553 16.092 9.8173 15.853C9.75204 15.7382 9.73483 15.6023 9.76942 15.4749C9.80402 15.3475 9.8876 15.2389 10.0019 15.1729C10.1163 15.1069 10.2521 15.0888 10.3798 15.1225C10.5074 15.1563 10.6165 15.2391 10.6833 15.353Z" fill="url(#paint45_radial_940_679)"/>
<path d="M8.8526 16.817C9.0916 16.955 10.3346 18.25 10.3346 18.25C10.3346 18.25 8.5916 17.821 8.3526 17.683C8.23869 17.6162 8.15583 17.5071 8.12208 17.3795C8.08833 17.2518 8.10644 17.116 8.17246 17.0016C8.23848 16.8873 8.34704 16.8037 8.47447 16.7691C8.60189 16.7345 8.73782 16.7517 8.8526 16.817Z" fill="url(#paint46_radial_940_679)"/>
<path d="M8 19C8.276 19 10 19.5 10 19.5C10 19.5 8.276 20 8 20C7.86739 20 7.74021 19.9473 7.64645 19.8536C7.55268 19.7598 7.5 19.6326 7.5 19.5C7.5 19.3674 7.55268 19.2402 7.64645 19.1464C7.74021 19.0527 7.86739 19 8 19Z" fill="url(#paint47_radial_940_679)"/>
<path d="M8.3526 21.317C8.5916 21.179 10.3346 20.75 10.3346 20.75C10.3346 20.75 9.0916 22.045 8.8526 22.183C8.73782 22.2483 8.60189 22.2655 8.47447 22.2309C8.34704 22.1963 8.23848 22.1127 8.17246 21.9983C8.10644 21.884 8.08833 21.7482 8.12208 21.6205C8.15583 21.4929 8.23869 21.3838 8.3526 21.317Z" fill="url(#paint48_radial_940_679)"/>
<path d="M9.81671 23.147C9.95471 22.908 11.2497 21.665 11.2497 21.665C11.2497 21.665 10.8207 23.408 10.6827 23.647C10.6501 23.7043 10.6065 23.7546 10.5544 23.795C10.5023 23.8354 10.4427 23.8651 10.3791 23.8824C10.3154 23.8997 10.249 23.9042 10.1836 23.8957C10.1182 23.8872 10.0551 23.8658 9.99804 23.8329C9.94094 23.7999 9.89092 23.7559 9.85086 23.7036C9.81081 23.6512 9.78151 23.5914 9.76466 23.5277C9.7478 23.4639 9.74372 23.3974 9.75266 23.3321C9.76159 23.2668 9.78336 23.2039 9.81671 23.147Z" fill="url(#paint49_radial_940_679)"/>
<path d="M12 24C12 23.724 12.5 22 12.5 22C12.5 22 13 23.724 13 24C13 24.1326 12.9473 24.2598 12.8536 24.3536C12.7598 24.4473 12.6326 24.5 12.5 24.5C12.3674 24.5 12.2402 24.4473 12.1464 24.3536C12.0527 24.2598 12 24.1326 12 24Z" fill="url(#paint50_radial_940_679)"/>
<path d="M14.317 23.647C14.179 23.408 13.75 21.665 13.75 21.665C13.75 21.665 15.045 22.908 15.183 23.147C15.2483 23.2618 15.2655 23.3977 15.2309 23.5251C15.1963 23.6525 15.1127 23.7611 14.9983 23.8271C14.884 23.8931 14.7482 23.9112 14.6205 23.8775C14.4929 23.8437 14.3838 23.7609 14.317 23.647Z" fill="url(#paint51_radial_940_679)"/>
<path d="M16.1461 22.183C15.9071 22.045 14.6641 20.75 14.6641 20.75C14.6641 20.75 16.4071 21.179 16.6461 21.317C16.7034 21.3496 16.7537 21.3932 16.7941 21.4453C16.8345 21.4974 16.8642 21.557 16.8815 21.6207C16.8987 21.6843 16.9033 21.7507 16.8948 21.8161C16.8863 21.8815 16.8649 21.9446 16.8319 22.0017C16.799 22.0588 16.755 22.1088 16.7027 22.1488C16.6503 22.1889 16.5905 22.2182 16.5267 22.2351C16.463 22.2519 16.3965 22.256 16.3312 22.247C16.2659 22.2381 16.2029 22.2163 16.1461 22.183Z" fill="url(#paint52_radial_940_679)"/>
<path d="M17 20C16.724 20 15 19.5 15 19.5C15 19.5 16.724 19 17 19C17.1326 19 17.2598 19.0527 17.3536 19.1464C17.4473 19.2402 17.5 19.3674 17.5 19.5C17.5 19.6326 17.4473 19.7598 17.3536 19.8536C17.2598 19.9473 17.1326 20 17 20Z" fill="url(#paint53_radial_940_679)"/>
<path d="M16.6461 17.683C16.4071 17.821 14.6641 18.25 14.6641 18.25C14.6641 18.25 15.9071 16.955 16.1461 16.817C16.2608 16.7517 16.3968 16.7345 16.5242 16.7691C16.6516 16.8037 16.7602 16.8873 16.8262 17.0016C16.8922 17.116 16.9103 17.2518 16.8766 17.3795C16.8428 17.5071 16.76 17.6162 16.6461 17.683Z" fill="url(#paint54_radial_940_679)"/>
<path d="M15.183 15.853C15.045 16.092 13.75 17.335 13.75 17.335C13.75 17.335 14.179 15.592 14.317 15.353C14.3496 15.2956 14.3932 15.2453 14.4453 15.2049C14.4974 15.1645 14.557 15.1348 14.6207 15.1176C14.6843 15.1003 14.7507 15.0958 14.8161 15.1043C14.8815 15.1128 14.9446 15.1341 15.0017 15.1671C15.0588 15.2001 15.1088 15.244 15.1488 15.2964C15.1889 15.3488 15.2182 15.4085 15.235 15.4723C15.2519 15.536 15.256 15.6025 15.247 15.6678C15.2381 15.7332 15.2163 15.7961 15.183 15.853Z" fill="url(#paint55_radial_940_679)"/>
<path d="M20.7827 0.660432C20.8542 0.926932 20.8172 2.72143 20.8172 2.72143C20.8172 2.72143 19.8882 1.18593 19.8172 0.921432C19.7836 0.793564 19.802 0.6576 19.8684 0.543284C19.9348 0.428968 20.0438 0.345605 20.1715 0.31143C20.2992 0.277254 20.4353 0.295049 20.5499 0.360922C20.6645 0.426794 20.7484 0.535382 20.7832 0.662932L20.7827 0.660432Z" fill="url(#paint56_radial_940_679)"/>
<path d="M18.6827 1.38892C18.8207 1.62792 19.2497 3.37092 19.2497 3.37092C19.2497 3.37092 17.9547 2.12792 17.8167 1.88892C17.7834 1.83203 17.7616 1.76911 17.7527 1.70378C17.7437 1.63845 17.7478 1.572 17.7647 1.50825C17.7815 1.4445 17.8108 1.38471 17.8509 1.33233C17.8909 1.27995 17.9409 1.23601 17.998 1.20304C18.0551 1.17007 18.1182 1.14872 18.1836 1.14022C18.249 1.13172 18.3154 1.13624 18.3791 1.15351C18.4427 1.17079 18.5023 1.20049 18.5544 1.24089C18.6065 1.28129 18.6501 1.3316 18.6827 1.38892Z" fill="url(#paint57_radial_940_679)"/>
<path d="M16.8435 2.63596C17.039 2.83146 17.9044 4.40396 17.9044 4.40396C17.9044 4.40396 16.3319 3.53846 16.1364 3.34296C16.0454 3.24866 15.995 3.12236 15.9961 2.99126C15.9973 2.86016 16.0498 2.73476 16.1425 2.64205C16.2352 2.54935 16.3607 2.49676 16.4917 2.49562C16.6228 2.49449 16.7491 2.54488 16.8435 2.63596Z" fill="url(#paint58_radial_940_679)"/>
<path d="M15.3897 4.31693C15.6287 4.45493 16.8717 5.74993 16.8717 5.74993C16.8717 5.74993 15.1287 5.32093 14.8897 5.18293C14.7758 5.11615 14.6929 5.00704 14.6592 4.87939C14.6254 4.75174 14.6436 4.61593 14.7096 4.50158C14.7756 4.38724 14.8842 4.30365 15.0116 4.26906C15.139 4.23446 15.2749 4.25167 15.3897 4.31693Z" fill="url(#paint59_radial_940_679)"/>
<path d="M14.4192 6.31695C14.6862 6.38845 16.2192 7.31695 16.2192 7.31695C16.2192 7.31695 14.4247 7.35345 14.1577 7.28195C14.0942 7.26494 14.0348 7.23561 13.9827 7.19562C13.9306 7.15564 13.8869 7.10579 13.8541 7.04891C13.8212 6.99203 13.7999 6.92925 13.7914 6.86414C13.7828 6.79903 13.7872 6.73288 13.8042 6.66945C13.8212 6.60602 13.8505 6.54656 13.8905 6.49447C13.9305 6.44238 13.9803 6.39867 14.0372 6.36585C14.0941 6.33302 14.1569 6.31172 14.222 6.30316C14.2871 6.2946 14.3532 6.29894 14.4167 6.31595L14.4192 6.31695Z" fill="url(#paint60_radial_940_679)"/>
<path d="M14 8.49994C14.276 8.49994 16 8.99994 16 8.99994C16 8.99994 14.276 9.49994 14 9.49994C13.8674 9.49994 13.7402 9.44726 13.6464 9.35349C13.5527 9.25972 13.5 9.13255 13.5 8.99994C13.5 8.86733 13.5527 8.74015 13.6464 8.64639C13.7402 8.55262 13.8674 8.49994 14 8.49994Z" fill="url(#paint61_radial_940_679)"/>
<path d="M14.161 10.7169C14.428 10.6454 16.2225 10.6824 16.2225 10.6824C16.2225 10.6824 14.687 11.6114 14.4225 11.6824C14.2944 11.7168 14.1579 11.6988 14.0431 11.6325C13.9282 11.5662 13.8444 11.457 13.81 11.3289C13.7757 11.2008 13.7936 11.0643 13.8599 10.9495C13.9262 10.8346 14.0354 10.7508 14.1635 10.7164L14.161 10.7169Z" fill="url(#paint62_radial_940_679)"/>
<path d="M14.8896 12.8169C15.1286 12.6789 16.8716 12.2499 16.8716 12.2499C16.8716 12.2499 15.6286 13.5449 15.3896 13.6829C15.3327 13.7163 15.2698 13.7381 15.2045 13.747C15.1391 13.7559 15.0727 13.7518 15.0089 13.735C14.9452 13.7181 14.8854 13.6888 14.833 13.6488C14.7806 13.6087 14.7367 13.5587 14.7037 13.5016C14.6707 13.4445 14.6494 13.3814 14.6409 13.316C14.6324 13.2507 14.6369 13.1842 14.6542 13.1206C14.6715 13.057 14.7012 12.9974 14.7416 12.9453C14.782 12.8931 14.8323 12.8495 14.8896 12.8169Z" fill="url(#paint63_radial_940_679)"/>
<path d="M16.1364 14.6569C16.3319 14.4614 17.9044 13.5964 17.9044 13.5964C17.9044 13.5964 17.039 15.1689 16.8435 15.3639C16.7491 15.455 16.6228 15.5054 16.4917 15.5043C16.3607 15.5031 16.2352 15.4505 16.1425 15.3578C16.0498 15.2651 15.9973 15.1397 15.9961 15.0086C15.995 14.8775 16.0454 14.7512 16.1364 14.6569Z" fill="url(#paint64_radial_940_679)"/>
<path d="M17.8173 16.1114C17.9553 15.8719 19.2503 14.6289 19.2503 14.6289C19.2503 14.6289 18.8213 16.3719 18.6833 16.6114C18.6165 16.7253 18.5074 16.8082 18.3798 16.8419C18.2521 16.8757 18.1163 16.8576 18.002 16.7915C17.8876 16.7255 17.804 16.617 17.7694 16.4895C17.7348 16.3621 17.752 16.2262 17.8173 16.1114Z" fill="url(#paint65_radial_940_679)"/>
<path d="M19.8164 17.0809C19.8879 16.8144 20.8164 15.2784 20.8164 15.2784C20.8164 15.2784 20.8534 17.0729 20.7819 17.3399C20.7475 17.468 20.6637 17.5773 20.5488 17.6435C20.434 17.7098 20.2975 17.7278 20.1694 17.6934C20.0413 17.6591 19.9321 17.5753 19.8658 17.4604C19.7995 17.3455 19.782 17.209 19.8164 17.0809Z" fill="url(#paint66_radial_940_679)"/>
<path d="M22 17.4999C22 17.2239 22.5 15.4999 22.5 15.4999C22.5 15.4999 23 17.2239 23 17.4999C23 17.6325 22.9473 17.7597 22.8536 17.8535C22.7598 17.9473 22.6326 17.9999 22.5 17.9999C22.3674 17.9999 22.2402 17.9473 22.1464 17.8535C22.0527 17.7597 22 17.6325 22 17.4999Z" fill="url(#paint67_radial_940_679)"/>
<path d="M24.2179 17.3399C24.1464 17.0729 24.1834 15.2784 24.1834 15.2784C24.1834 15.2784 25.1124 16.8144 25.1834 17.0809C25.2004 17.1444 25.2048 17.2105 25.1962 17.2756C25.1876 17.3407 25.1663 17.4035 25.1335 17.4604C25.1007 17.5173 25.057 17.5671 25.0049 17.6071C24.9528 17.6471 24.8933 17.6764 24.8299 17.6934C24.7665 17.7104 24.7003 17.7148 24.6352 17.7062C24.5701 17.6977 24.5073 17.6764 24.4504 17.6435C24.3936 17.6107 24.3437 17.567 24.3037 17.5149C24.2637 17.4628 24.2349 17.4034 24.2179 17.3399Z" fill="url(#paint68_radial_940_679)"/>
<path d="M26.317 16.6114C26.179 16.3719 25.75 14.6289 25.75 14.6289C25.75 14.6289 27.045 15.8719 27.183 16.1114C27.2483 16.2262 27.2655 16.3621 27.2309 16.4895C27.1963 16.617 27.1127 16.7255 26.9983 16.7915C26.884 16.8576 26.7482 16.8757 26.6205 16.8419C26.4929 16.8082 26.3838 16.7253 26.317 16.6114Z" fill="url(#paint69_radial_940_679)"/>
<path d="M28.1567 15.3639C27.9612 15.1689 27.0957 13.5964 27.0957 13.5964C27.0957 13.5964 28.6682 14.4614 28.8637 14.6569C28.9548 14.7512 29.0052 14.8775 29.004 15.0086C29.0029 15.1397 28.9503 15.2651 28.8576 15.3578C28.7649 15.4505 28.6395 15.5031 28.5084 15.5043C28.3773 15.5054 28.251 15.455 28.1567 15.3639Z" fill="url(#paint70_radial_940_679)"/>
<path d="M29.6109 13.6829C29.3719 13.5449 28.1289 12.2499 28.1289 12.2499C28.1289 12.2499 29.8719 12.6789 30.1109 12.8169C30.2248 12.8837 30.3077 12.9928 30.3414 13.1205C30.3752 13.2481 30.3571 13.3839 30.291 13.4983C30.225 13.6126 30.1165 13.6962 29.989 13.7308C29.8616 13.7654 29.7257 13.7482 29.6109 13.6829Z" fill="url(#paint71_radial_940_679)"/>
<path d="M30.5812 11.6829C30.3142 11.6114 28.7812 10.6829 28.7812 10.6829C28.7812 10.6829 30.5758 10.6459 30.8428 10.7174C30.9708 10.7518 31.0801 10.8356 31.1464 10.9504C31.2126 11.0653 31.2306 11.2018 31.1962 11.3299C31.1619 11.458 31.0781 11.5672 30.9632 11.6335C30.8483 11.6998 30.7118 11.7178 30.5837 11.6834L30.5812 11.6829Z" fill="url(#paint72_radial_940_679)"/>
<path d="M31 9.49994C30.724 9.49994 29 8.99994 29 8.99994C29 8.99994 30.724 8.49994 31 8.49994C31.1326 8.49994 31.2598 8.55262 31.3536 8.64639C31.4473 8.74015 31.5 8.86733 31.5 8.99994C31.5 9.13255 31.4473 9.25972 31.3536 9.35349C31.2598 9.44726 31.1326 9.49994 31 9.49994Z" fill="url(#paint73_radial_940_679)"/>
<path d="M30.8408 7.28296C30.5738 7.35446 28.7793 7.31796 28.7793 7.31796C28.7793 7.31796 30.3148 6.38846 30.5793 6.31796C30.6427 6.30096 30.7089 6.29661 30.774 6.30517C30.8391 6.31373 30.9019 6.33503 30.9588 6.36786C31.0156 6.40069 31.0655 6.44439 31.1055 6.49648C31.1455 6.54858 31.1748 6.60803 31.1918 6.67146C31.2088 6.73489 31.2131 6.80105 31.2046 6.86616C31.196 6.93126 31.1747 6.99405 31.1419 7.05093C31.1091 7.1078 31.0654 7.15765 31.0133 7.19764C30.9612 7.23762 30.9017 7.26696 30.8383 7.28396L30.8408 7.28296Z" fill="url(#paint74_radial_940_679)"/>
<path d="M30.1109 5.18293C29.8719 5.32093 28.1289 5.74993 28.1289 5.74993C28.1289 5.74993 29.3719 4.45493 29.6109 4.31693C29.7257 4.25167 29.8616 4.23446 29.989 4.26906C30.1165 4.30365 30.225 4.38724 30.291 4.50158C30.3571 4.61593 30.3752 4.75174 30.3414 4.87939C30.3077 5.00704 30.2248 5.11615 30.1109 5.18293Z" fill="url(#paint75_radial_940_679)"/>
<path d="M28.8637 3.34292C28.6682 3.53842 27.0957 4.40392 27.0957 4.40392C27.0957 4.40392 27.9612 2.83142 28.1567 2.63592C28.2028 2.58817 28.258 2.55007 28.319 2.52387C28.38 2.49767 28.4456 2.48387 28.512 2.4833C28.5784 2.48272 28.6442 2.49537 28.7057 2.52051C28.7671 2.54565 28.823 2.58278 28.8699 2.62972C28.9168 2.67667 28.954 2.7325 28.9791 2.79394C29.0043 2.85539 29.0169 2.92123 29.0163 2.98762C29.0158 3.05401 29.002 3.11962 28.9758 3.18062C28.9495 3.24162 28.9115 3.2968 28.8637 3.34292Z" fill="url(#paint76_radial_940_679)"/>
<path d="M27.183 1.88891C27.045 2.12791 25.75 3.37091 25.75 3.37091C25.75 3.37091 26.179 1.62791 26.317 1.38891C26.3838 1.27501 26.4929 1.19214 26.6205 1.15839C26.7482 1.12465 26.884 1.14276 26.9983 1.20878C27.1127 1.27479 27.1963 1.38336 27.2309 1.51078C27.2655 1.6382 27.2483 1.77413 27.183 1.88891Z" fill="url(#paint77_radial_940_679)"/>
<path d="M25.1834 0.918927C25.1119 1.18593 24.1834 2.71893 24.1834 2.71893C24.1834 2.71893 24.1464 0.924427 24.2179 0.657927C24.2527 0.530377 24.3365 0.421789 24.4512 0.355917C24.5658 0.290044 24.7018 0.27225 24.8295 0.306425C24.9573 0.3406 25.0662 0.423963 25.1326 0.538279C25.199 0.652595 25.2175 0.788559 25.1839 0.916427L25.1834 0.918927Z" fill="url(#paint78_radial_940_679)"/>
</g>
<defs>
<radialGradient id="paint0_radial_940_679" cx="0" cy="0" r="1" gradientUnits="userSpaceOnUse" gradientTransform="translate(23.468 31.5745) scale(15.684)">
<stop stop-color="#FCEE21"/>
<stop offset="1" stop-color="#F7931E"/>
</radialGradient>
<radialGradient id="paint1_radial_940_679" cx="0" cy="0" r="1" gradientUnits="userSpaceOnUse" gradientTransform="translate(7.032 33.0215) scale(18.767)">
<stop stop-color="#8CC63F"/>
<stop offset="1" stop-color="#009245"/>
</radialGradient>
<radialGradient id="paint2_radial_940_679" cx="0" cy="0" r="1" gradientUnits="userSpaceOnUse" gradientTransform="translate(22.4785 8.9895) scale(9.401)">
<stop stop-color="#F7931E"/>
<stop offset="1" stop-color="#FCEE21"/>
</radialGradient>
<radialGradient id="paint3_radial_940_679" cx="0" cy="0" r="1" gradientUnits="userSpaceOnUse" gradientTransform="translate(22.4782 8.98949) scale(9.401 9.401)">
<stop stop-color="#F7931E"/>
<stop offset="1" stop-color="#FCEE21"/>
</radialGradient>
<radialGradient id="paint4_radial_940_679" cx="0" cy="0" r="1" gradientUnits="userSpaceOnUse" gradientTransform="translate(22.4793 8.98951) scale(9.401)">
<stop stop-color="#F7931E"/>
<stop offset="1" stop-color="#FCEE21"/>
</radialGradient>
<radialGradient id="paint5_radial_940_679" cx="0" cy="0" r="1" gradientUnits="userSpaceOnUse" gradientTransform="translate(22.4785 8.9895) scale(9.401)">
<stop stop-color="#F7931E"/>
<stop offset="1" stop-color="#FCEE21"/>
</radialGradient>
<radialGradient id="paint6_radial_940_679" cx="0" cy="0" r="1" gradientUnits="userSpaceOnUse" gradientTransform="translate(22.4775 8.9895) scale(9.401 9.401)">
<stop stop-color="#F7931E"/>
<stop offset="1" stop-color="#FCEE21"/>
</radialGradient>
<radialGradient id="paint7_radial_940_679" cx="0" cy="0" r="1" gradientUnits="userSpaceOnUse" gradientTransform="translate(22.4788 8.98953) scale(9.401 9.401)">
<stop stop-color="#F7931E"/>
<stop offset="1" stop-color="#FCEE21"/>
</radialGradient>
<radialGradient id="paint8_radial_940_679" cx="0" cy="0" r="1" gradientUnits="userSpaceOnUse" gradientTransform="translate(22.4785 8.9895) scale(9.401)">
<stop stop-color="#F7931E"/>
<stop offset="1" stop-color="#FCEE21"/>
</radialGradient>
<radialGradient id="paint9_radial_940_679" cx="0" cy="0" r="1" gradientUnits="userSpaceOnUse" gradientTransform="translate(22.4785 8.98953) scale(9.401 9.401)">
<stop stop-color="#F7931E"/>
<stop offset="1" stop-color="#FCEE21"/>
</radialGradient>
<radialGradient id="paint10_radial_940_679" cx="0" cy="0" r="1" gradientUnits="userSpaceOnUse" gradientTransform="translate(22.4777 8.9895) scale(9.401)">
<stop stop-color="#F7931E"/>
<stop offset="1" stop-color="#FCEE21"/>
</radialGradient>
<radialGradient id="paint11_radial_940_679" cx="0" cy="0" r="1" gradientUnits="userSpaceOnUse" gradientTransform="translate(22.4785 8.9895) scale(9.401)">
<stop stop-color="#F7931E"/>
<stop offset="1" stop-color="#FCEE21"/>
</radialGradient>
<radialGradient id="paint12_radial_940_679" cx="0" cy="0" r="1" gradientUnits="userSpaceOnUse" gradientTransform="translate(22.4777 8.98951) scale(9.401)">
<stop stop-color="#F7931E"/>
<stop offset="1" stop-color="#FCEE21"/>
</radialGradient>
<radialGradient id="paint13_radial_940_679" cx="0" cy="0" r="1" gradientUnits="userSpaceOnUse" gradientTransform="translate(22.4785 8.98948) scale(9.401 9.401)">
<stop stop-color="#F7931E"/>
<stop offset="1" stop-color="#FCEE21"/>
</radialGradient>
<radialGradient id="paint14_radial_940_679" cx="0" cy="0" r="1" gradientUnits="userSpaceOnUse" gradientTransform="translate(22.4785 8.9895) scale(9.401)">
<stop stop-color="#F7931E"/>
<stop offset="1" stop-color="#FCEE21"/>
</radialGradient>
<radialGradient id="paint15_radial_940_679" cx="0" cy="0" r="1" gradientUnits="userSpaceOnUse" gradientTransform="translate(12.4045 25.383) scale(6.1285)">
<stop stop-color="#ED1C24"/>
<stop offset="1" stop-color="#F7931E"/>
</radialGradient>
<radialGradient id="paint16_radial_940_679" cx="0" cy="0" r="1" gradientUnits="userSpaceOnUse" gradientTransform="translate(12.936 19.5105) scale(13.766)">
<stop stop-color="#F7931E"/>
<stop offset="1" stop-color="#ED1C24"/>
</radialGradient>
<radialGradient id="paint17_radial_940_679" cx="0" cy="0" r="1" gradientUnits="userSpaceOnUse" gradientTransform="translate(19.0955 24.931) scale(3.4825)">
<stop stop-color="#29ABE2"/>
<stop offset="1" stop-color="#8CC63F"/>
</radialGradient>
<radialGradient id="paint18_radial_940_679" cx="0" cy="0" r="1" gradientUnits="userSpaceOnUse" gradientTransform="translate(19.0955 24.931) scale(3.4825)">
<stop stop-color="#29ABE2"/>
<stop offset="1" stop-color="#8CC63F"/>
</radialGradient>
<radialGradient id="paint19_radial_940_679" cx="0" cy="0" r="1" gradientUnits="userSpaceOnUse" gradientTransform="translate(19.0955 24.931) scale(3.4825)">
<stop stop-color="#29ABE2"/>
<stop offset="1" stop-color="#8CC63F"/>
</radialGradient>
<radialGradient id="paint20_radial_940_679" cx="0" cy="0" r="1" gradientUnits="userSpaceOnUse" gradientTransform="translate(19.0955 24.931) scale(3.4825)">
<stop stop-color="#29ABE2"/>
<stop offset="1" stop-color="#8CC63F"/>
</radialGradient>
<radialGradient id="paint21_radial_940_679" cx="0" cy="0" r="1" gradientUnits="userSpaceOnUse" gradientTransform="translate(27.936 20.399) scale(2.7235)">
<stop stop-color="#FCEE21"/>
<stop offset="1" stop-color="#8CC63F"/>
</radialGradient>
<radialGradient id="paint22_radial_940_679" cx="0" cy="0" r="1" gradientUnits="userSpaceOnUse" gradientTransform="translate(27.936 20.399) scale(2.7235)">
<stop stop-color="#FCEE21"/>
<stop offset="1" stop-color="#8CC63F"/>
</radialGradient>
<radialGradient id="paint23_radial_940_679" cx="0" cy="0" r="1" gradientUnits="userSpaceOnUse" gradientTransform="translate(27.936 20.399) scale(2.7235)">
<stop stop-color="#FCEE21"/>
<stop offset="1" stop-color="#8CC63F"/>
</radialGradient>
<radialGradient id="paint24_radial_940_679" cx="0" cy="0" r="1" gradientUnits="userSpaceOnUse" gradientTransform="translate(27.936 20.399) scale(2.7235)">
<stop stop-color="#FCEE21"/>
<stop offset="1" stop-color="#8CC63F"/>
</radialGradient>
<radialGradient id="paint25_radial_940_679" cx="0" cy="0" r="1" gradientUnits="userSpaceOnUse" gradientTransform="translate(2.6435 18.4205) scale(2.981)">
<stop stop-color="#29ABE2"/>
<stop offset="1" stop-color="#0071BC"/>
</radialGradient>
<radialGradient id="paint26_radial_940_679" cx="0" cy="0" r="1" gradientUnits="userSpaceOnUse" gradientTransform="translate(2.6435 18.4205) scale(2.981)">
<stop stop-color="#29ABE2"/>
<stop offset="1" stop-color="#0071BC"/>
</radialGradient>
<radialGradient id="paint27_radial_940_679" cx="0" cy="0" r="1" gradientUnits="userSpaceOnUse" gradientTransform="translate(2.6435 18.4205) scale(2.981)">
<stop stop-color="#29ABE2"/>
<stop offset="1" stop-color="#0071BC"/>
</radialGradient>
<radialGradient id="paint28_radial_940_679" cx="0" cy="0" r="1" gradientUnits="userSpaceOnUse" gradientTransform="translate(2.6435 18.4205) scale(2.981)">
<stop stop-color="#29ABE2"/>
<stop offset="1" stop-color="#0071BC"/>
</radialGradient>
<radialGradient id="paint29_radial_940_679" cx="0" cy="0" r="1" gradientUnits="userSpaceOnUse" gradientTransform="translate(12.3615 2.319) scale(2.548)">
<stop stop-color="#ED1E79"/>
<stop offset="0.104" stop-color="#E51B76"/>
<stop offset="1" stop-color="#9E005D"/>
</radialGradient>
<radialGradient id="paint30_radial_940_679" cx="0" cy="0" r="1" gradientUnits="userSpaceOnUse" gradientTransform="translate(12.3615 2.319) scale(2.548)">
<stop stop-color="#ED1E79"/>
<stop offset="1" stop-color="#9E005D"/>
</radialGradient>
<radialGradient id="paint31_radial_940_679" cx="0" cy="0" r="1" gradientUnits="userSpaceOnUse" gradientTransform="translate(12.3615 2.319) scale(2.548)">
<stop stop-color="#ED1E79"/>
<stop offset="1" stop-color="#9E005D"/>
</radialGradient>
<radialGradient id="paint32_radial_940_679" cx="0" cy="0" r="1" gradientUnits="userSpaceOnUse" gradientTransform="translate(12.3615 2.319) scale(2.548)">
<stop stop-color="#ED1E79"/>
<stop offset="1" stop-color="#9E005D"/>
</radialGradient>
<radialGradient id="paint33_radial_940_679" cx="0" cy="0" r="1" gradientUnits="userSpaceOnUse" gradientTransform="translate(6.5055 7.633) scale(5.6025)">
<stop stop-color="#8CC63F"/>
<stop offset="1" stop-color="#009245"/>
</radialGradient>
<radialGradient id="paint34_radial_940_679" cx="0" cy="0" r="1" gradientUnits="userSpaceOnUse" gradientTransform="translate(6.5055 7.633) scale(5.6025)">
<stop stop-color="#8CC63F"/>
<stop offset="1" stop-color="#009245"/>
</radialGradient>
<radialGradient id="paint35_radial_940_679" cx="0" cy="0" r="1" gradientUnits="userSpaceOnUse" gradientTransform="translate(6.5055 7.633) scale(5.6025)">
<stop stop-color="#8CC63F"/>
<stop offset="1" stop-color="#009245"/>
</radialGradient>
<radialGradient id="paint36_radial_940_679" cx="0" cy="0" r="1" gradientUnits="userSpaceOnUse" gradientTransform="translate(6.5055 7.633) scale(5.6025)">
<stop stop-color="#8CC63F"/>
<stop offset="1" stop-color="#009245"/>
</radialGradient>
<radialGradient id="paint37_radial_940_679" cx="0" cy="0" r="1" gradientUnits="userSpaceOnUse" gradientTransform="translate(6.5055 7.633) scale(5.6025)">
<stop stop-color="#8CC63F"/>
<stop offset="1" stop-color="#009245"/>
</radialGradient>
<radialGradient id="paint38_radial_940_679" cx="0" cy="0" r="1" gradientUnits="userSpaceOnUse" gradientTransform="translate(6.50614 7.63297) scale(5.6025)">
<stop stop-color="#8CC63F"/>
<stop offset="1" stop-color="#009245"/>
</radialGradient>
<radialGradient id="paint39_radial_940_679" cx="0" cy="0" r="1" gradientUnits="userSpaceOnUse" gradientTransform="translate(6.5055 7.633) scale(5.6025)">
<stop stop-color="#8CC63F"/>
<stop offset="1" stop-color="#009245"/>
</radialGradient>
<radialGradient id="paint40_radial_940_679" cx="0" cy="0" r="1" gradientUnits="userSpaceOnUse" gradientTransform="translate(6.50557 7.63301) scale(5.6025)">
<stop stop-color="#8CC63F"/>
<stop offset="1" stop-color="#009245"/>
</radialGradient>
<radialGradient id="paint41_radial_940_679" cx="0" cy="0" r="1" gradientUnits="userSpaceOnUse" gradientTransform="translate(6.5055 7.633) scale(5.6025)">
<stop stop-color="#8CC63F"/>
<stop offset="1" stop-color="#009245"/>
</radialGradient>
<radialGradient id="paint42_radial_940_679" cx="0" cy="0" r="1" gradientUnits="userSpaceOnUse" gradientTransform="translate(6.50508 7.63301) scale(5.6025)">
<stop stop-color="#8CC63F"/>
<stop offset="1" stop-color="#009245"/>
</radialGradient>
<radialGradient id="paint43_radial_940_679" cx="0" cy="0" r="1" gradientUnits="userSpaceOnUse" gradientTransform="translate(6.5055 7.633) scale(5.6025)">
<stop stop-color="#8CC63F"/>
<stop offset="1" stop-color="#009245"/>
</radialGradient>
<radialGradient id="paint44_radial_940_679" cx="0" cy="0" r="1" gradientUnits="userSpaceOnUse" gradientTransform="translate(6.50508 7.63297) scale(5.6025 5.6025)">
<stop stop-color="#8CC63F"/>
<stop offset="1" stop-color="#009245"/>
</radialGradient>
<radialGradient id="paint45_radial_940_679" cx="0" cy="0" r="1" gradientUnits="userSpaceOnUse" gradientTransform="translate(12.9363 19.5105) scale(13.766 13.766)">
<stop stop-color="#F7931E"/>
<stop offset="1" stop-color="#ED1C24"/>
</radialGradient>
<radialGradient id="paint46_radial_940_679" cx="0" cy="0" r="1" gradientUnits="userSpaceOnUse" gradientTransform="translate(12.9356 19.5105) scale(13.766 13.766)">
<stop stop-color="#F7931E"/>
<stop offset="1" stop-color="#ED1C24"/>
</radialGradient>
<radialGradient id="paint47_radial_940_679" cx="0" cy="0" r="1" gradientUnits="userSpaceOnUse" gradientTransform="translate(12.936 19.5105) scale(13.766)">
<stop stop-color="#F7931E"/>
<stop offset="1" stop-color="#ED1C24"/>
</radialGradient>
<radialGradient id="paint48_radial_940_679" cx="0" cy="0" r="1" gradientUnits="userSpaceOnUse" gradientTransform="translate(12.9356 19.5105) scale(13.766 13.766)">
<stop stop-color="#F7931E"/>
<stop offset="1" stop-color="#ED1C24"/>
</radialGradient>
<radialGradient id="paint49_radial_940_679" cx="0" cy="0" r="1" gradientUnits="userSpaceOnUse" gradientTransform="translate(12.9357 19.5105) scale(13.766 13.766)">
<stop stop-color="#F7931E"/>
<stop offset="1" stop-color="#ED1C24"/>
</radialGradient>
<radialGradient id="paint50_radial_940_679" cx="0" cy="0" r="1" gradientUnits="userSpaceOnUse" gradientTransform="translate(12.936 19.5105) scale(13.766)">
<stop stop-color="#F7931E"/>
<stop offset="1" stop-color="#ED1C24"/>
</radialGradient>
<radialGradient id="paint51_radial_940_679" cx="0" cy="0" r="1" gradientUnits="userSpaceOnUse" gradientTransform="translate(12.936 19.5105) scale(13.766 13.766)">
<stop stop-color="#F7931E"/>
<stop offset="1" stop-color="#ED1C24"/>
</radialGradient>
<radialGradient id="paint52_radial_940_679" cx="0" cy="0" r="1" gradientUnits="userSpaceOnUse" gradientTransform="translate(12.9351 19.5105) scale(13.766)">
<stop stop-color="#F7931E"/>
<stop offset="1" stop-color="#ED1C24"/>
</radialGradient>
<radialGradient id="paint53_radial_940_679" cx="0" cy="0" r="1" gradientUnits="userSpaceOnUse" gradientTransform="translate(12.936 19.5105) scale(13.766)">
<stop stop-color="#F7931E"/>
<stop offset="1" stop-color="#ED1C24"/>
</radialGradient>
<radialGradient id="paint54_radial_940_679" cx="0" cy="0" r="1" gradientUnits="userSpaceOnUse" gradientTransform="translate(12.9351 19.5105) scale(13.766 13.766)">
<stop stop-color="#F7931E"/>
<stop offset="1" stop-color="#ED1C24"/>
</radialGradient>
<radialGradient id="paint55_radial_940_679" cx="0" cy="0" r="1" gradientUnits="userSpaceOnUse" gradientTransform="translate(12.936 19.5105) scale(13.766 13.766)">
<stop stop-color="#F7931E"/>
<stop offset="1" stop-color="#ED1C24"/>
</radialGradient>
<radialGradient id="paint56_radial_940_679" cx="0" cy="0" r="1" gradientUnits="userSpaceOnUse" gradientTransform="translate(22.4782 8.98943) scale(9.401 9.401)">
<stop stop-color="#F7931E"/>
<stop offset="1" stop-color="#FCEE21"/>
</radialGradient>
<radialGradient id="paint57_radial_940_679" cx="0" cy="0" r="1" gradientUnits="userSpaceOnUse" gradientTransform="translate(22.4782 8.98942) scale(9.401 9.401)">
<stop stop-color="#F7931E"/>
<stop offset="1" stop-color="#FCEE21"/>
</radialGradient>
<radialGradient id="paint58_radial_940_679" cx="0" cy="0" r="1" gradientUnits="userSpaceOnUse" gradientTransform="translate(22.4789 8.98946) scale(9.401 9.401)">
<stop stop-color="#F7931E"/>
<stop offset="1" stop-color="#FCEE21"/>
</radialGradient>
<radialGradient id="paint59_radial_940_679" cx="0" cy="0" r="1" gradientUnits="userSpaceOnUse" gradientTransform="translate(22.4792 8.98943) scale(9.401 9.401)">
<stop stop-color="#F7931E"/>
<stop offset="1" stop-color="#FCEE21"/>
</radialGradient>
<radialGradient id="paint60_radial_940_679" cx="0" cy="0" r="1" gradientUnits="userSpaceOnUse" gradientTransform="translate(22.4787 8.98945) scale(9.401 9.401)">
<stop stop-color="#F7931E"/>
<stop offset="1" stop-color="#FCEE21"/>
</radialGradient>
<radialGradient id="paint61_radial_940_679" cx="0" cy="0" r="1" gradientUnits="userSpaceOnUse" gradientTransform="translate(22.4785 8.98944) scale(9.401)">
<stop stop-color="#F7931E"/>
<stop offset="1" stop-color="#FCEE21"/>
</radialGradient>
<radialGradient id="paint62_radial_940_679" cx="0" cy="0" r="1" gradientUnits="userSpaceOnUse" gradientTransform="translate(22.4795 8.98942) scale(9.401 9.401)">
<stop stop-color="#F7931E"/>
<stop offset="1" stop-color="#FCEE21"/>
</radialGradient>
<radialGradient id="paint63_radial_940_679" cx="0" cy="0" r="1" gradientUnits="userSpaceOnUse" gradientTransform="translate(22.4791 8.98944) scale(9.401)">
<stop stop-color="#F7931E"/>
<stop offset="1" stop-color="#FCEE21"/>
</radialGradient>
<radialGradient id="paint64_radial_940_679" cx="0" cy="0" r="1" gradientUnits="userSpaceOnUse" gradientTransform="translate(22.4789 8.98944) scale(9.401 9.401)">
<stop stop-color="#F7931E"/>
<stop offset="1" stop-color="#FCEE21"/>
</radialGradient>
<radialGradient id="paint65_radial_940_679" cx="0" cy="0" r="1" gradientUnits="userSpaceOnUse" gradientTransform="translate(22.4788 8.98941) scale(9.401 9.401)">
<stop stop-color="#F7931E"/>
<stop offset="1" stop-color="#FCEE21"/>
</radialGradient>
<radialGradient id="paint66_radial_940_679" cx="0" cy="0" r="1" gradientUnits="userSpaceOnUse" gradientTransform="translate(22.4779 8.98944) scale(9.40099 9.401)">
<stop stop-color="#F7931E"/>
<stop offset="1" stop-color="#FCEE21"/>
</radialGradient>
<radialGradient id="paint67_radial_940_679" cx="0" cy="0" r="1" gradientUnits="userSpaceOnUse" gradientTransform="translate(22.4785 8.98944) scale(9.401)">
<stop stop-color="#F7931E"/>
<stop offset="1" stop-color="#FCEE21"/>
</radialGradient>
<radialGradient id="paint68_radial_940_679" cx="0" cy="0" r="1" gradientUnits="userSpaceOnUse" gradientTransform="translate(22.4794 8.98944) scale(9.401 9.401)">
<stop stop-color="#F7931E"/>
<stop offset="1" stop-color="#FCEE21"/>
</radialGradient>
<radialGradient id="paint69_radial_940_679" cx="0" cy="0" r="1" gradientUnits="userSpaceOnUse" gradientTransform="translate(22.4785 8.98941) scale(9.401 9.401)">
<stop stop-color="#F7931E"/>
<stop offset="1" stop-color="#FCEE21"/>
</radialGradient>
<radialGradient id="paint70_radial_940_679" cx="0" cy="0" r="1" gradientUnits="userSpaceOnUse" gradientTransform="translate(22.4782 8.98944) scale(9.401 9.401)">
<stop stop-color="#F7931E"/>
<stop offset="1" stop-color="#FCEE21"/>
</radialGradient>
<radialGradient id="paint71_radial_940_679" cx="0" cy="0" r="1" gradientUnits="userSpaceOnUse" gradientTransform="translate(22.4784 8.98944) scale(9.401 9.401)">
<stop stop-color="#F7931E"/>
<stop offset="1" stop-color="#FCEE21"/>
</radialGradient>
<radialGradient id="paint72_radial_940_679" cx="0" cy="0" r="1" gradientUnits="userSpaceOnUse" gradientTransform="translate(22.4788 8.98941) scale(9.401 9.40101)">
<stop stop-color="#F7931E"/>
<stop offset="1" stop-color="#FCEE21"/>
</radialGradient>
<radialGradient id="paint73_radial_940_679" cx="0" cy="0" r="1" gradientUnits="userSpaceOnUse" gradientTransform="translate(22.4785 8.98944) scale(9.401)">
<stop stop-color="#F7931E"/>
<stop offset="1" stop-color="#FCEE21"/>
</radialGradient>
<radialGradient id="paint74_radial_940_679" cx="0" cy="0" r="1" gradientUnits="userSpaceOnUse" gradientTransform="translate(22.4793 8.98946) scale(9.401)">
<stop stop-color="#F7931E"/>
<stop offset="1" stop-color="#FCEE21"/>
</radialGradient>
<radialGradient id="paint75_radial_940_679" cx="0" cy="0" r="1" gradientUnits="userSpaceOnUse" gradientTransform="translate(22.4784 8.98943) scale(9.401 9.401)">
<stop stop-color="#F7931E"/>
<stop offset="1" stop-color="#FCEE21"/>
</radialGradient>
<radialGradient id="paint76_radial_940_679" cx="0" cy="0" r="1" gradientUnits="userSpaceOnUse" gradientTransform="translate(22.4782 8.98942) scale(9.40099 9.401)">
<stop stop-color="#F7931E"/>
<stop offset="1" stop-color="#FCEE21"/>
</radialGradient>
<radialGradient id="paint77_radial_940_679" cx="0" cy="0" r="1" gradientUnits="userSpaceOnUse" gradientTransform="translate(22.4785 8.98941) scale(9.401 9.401)">
<stop stop-color="#F7931E"/>
<stop offset="1" stop-color="#FCEE21"/>
</radialGradient>
<radialGradient id="paint78_radial_940_679" cx="0" cy="0" r="1" gradientUnits="userSpaceOnUse" gradientTransform="translate(22.4789 8.98943) scale(9.401 9.401)">
<stop stop-color="#F7931E"/>
<stop offset="1" stop-color="#FCEE21"/>
</radialGradient>
<clipPath id="clip0_940_679">
<rect width="32" height="32" fill="white"/>
</clipPath>
</defs>
</svg>
