<svg width="31" height="31" viewBox="0 0 31 31" fill="none" xmlns="http://www.w3.org/2000/svg">
<g clip-path="url(#clip0_940_329)">
<path d="M15.5 31C24.0604 31 31 24.0604 31 15.5C31 6.93959 24.0604 0 15.5 0C6.93959 0 0 6.93959 0 15.5C0 24.0604 6.93959 31 15.5 31Z" fill="#FFCF11"/>
<path d="M15.5 26.0957C21.3518 26.0957 26.0957 21.3518 26.0957 15.5C26.0957 9.64815 21.3518 4.9043 15.5 4.9043C9.64815 4.9043 4.9043 9.64815 4.9043 15.5C4.9043 21.3518 9.64815 26.0957 15.5 26.0957Z" fill="#FFE854"/>
<path d="M19.4519 24.8987L15.5004 23.6151L11.5489 24.8987C11.5489 24.8987 -0.463794 24.8646 1.85085 29.7124H15.5004H29.1499C31.4646 24.8646 19.4519 24.8987 19.4519 24.8987Z" fill="#0C99E6"/>
<path d="M29.1488 29.7124C28.7762 30.4783 26.0466 31.1886 20.7836 30.8035C15.5206 30.4185 10.6855 29.306 10.6855 29.306V28.4402C10.6855 28.4402 20.5269 27.4233 24.2281 27.4874C27.9293 27.5516 29.5339 28.9208 29.1488 29.7124Z" fill="#FFAEA1"/>
<path d="M24.4615 27.5682C24.4629 27.5445 24.4636 27.5197 24.4639 27.4942C24.3859 27.4916 24.308 27.4888 24.2281 27.4874C20.5269 27.4232 10.6855 28.4401 10.6855 28.4401V29.3059C10.6855 29.3059 13.4773 29.9482 17.127 30.4256C17.5148 30.3412 17.9003 30.2561 18.281 30.1706C19.8002 29.8298 21.0896 29.5178 22.0098 29.2684C22.5247 29.1289 22.9141 29.0122 23.2003 28.9115C23.5615 28.7845 24.4075 28.4868 24.4615 27.5682Z" fill="#F4958C"/>
<path d="M1.84956 29.7124C2.26019 30.459 3.92481 31.5309 9.01662 30.6965C14.1084 29.8621 23.1586 27.8565 23.18 27.4928C23.2014 27.1291 22.3452 26.4391 21.2327 26.4391C20.1202 26.4391 19.9491 26.7626 19.3072 26.7626C18.6654 26.7626 17.8524 25.7545 17.1678 25.8935C16.4832 26.0326 16.0767 27.4233 16.0767 27.4233C16.0767 27.4233 9.59423 26.9954 6.14978 27.2093C2.70533 27.4232 1.37887 28.8566 1.84956 29.7124Z" fill="#FFCFC2"/>
<path d="M4.41687 29.7125C3.94618 28.8567 5.27264 27.4233 8.71709 27.2094C9.0745 27.1871 9.46497 27.1719 9.87711 27.1624C8.53218 27.1386 7.19979 27.1441 6.14978 27.2094C2.70533 27.4233 1.37887 28.8567 1.84956 29.7125C2.2034 30.3559 3.48893 31.2408 7.09637 30.939C5.39464 30.7521 4.66905 30.171 4.41687 29.7125Z" fill="#FFAEA1"/>
<path d="M1.24414 25.2839C1.24414 25.2839 1.24414 24.4923 1.24414 24.289C1.24414 24.0857 1.54367 24.0644 1.62922 24.289C1.71477 24.5136 1.68946 25.3061 1.81443 25.5249V25.8936L1.24414 25.2839Z" fill="#F4958C"/>
<path d="M29.7558 25.2839C29.7558 25.2839 29.7558 24.4923 29.7558 24.289C29.7558 24.0857 29.4563 24.0644 29.3708 24.289C29.2852 24.5136 29.3105 25.3061 29.1855 25.5249V25.8936L29.7558 25.2839Z" fill="#F4958C"/>
<path d="M30.3467 24.7303C30.2985 24.5938 30.09 24.65 29.9295 24.8265C29.8174 24.9499 29.392 25.3395 29.1156 25.5877C28.9807 25.7089 28.7773 25.7118 28.6388 25.5948C28.4454 25.4314 28.4738 25.1249 28.6947 25.001C29.009 24.8246 29.3771 24.5843 29.4482 24.3933C29.5765 24.0483 29.2636 24.0082 29.0952 24.1285C28.9267 24.2489 26.8033 24.8345 26.8033 24.8345L23.2796 20.085C23.2796 20.085 23.0657 13.2388 22.2099 12.5328C21.3541 11.8268 16.9127 11.078 16.9127 11.078V9.5376H15.5006H14.0886V11.078C14.0886 11.078 9.64715 11.8268 8.79138 12.5328C7.93561 13.2388 7.72164 20.085 7.72164 20.085L4.19805 24.8345C4.19805 24.8345 2.07467 24.2489 1.90617 24.1285C1.73767 24.0081 1.42482 24.0483 1.55318 24.3933C1.62426 24.5843 1.99239 24.8246 2.30669 25.001C2.52744 25.1248 2.55596 25.4313 2.36257 25.5948C2.22398 25.7118 2.0206 25.7089 1.88571 25.5877C1.60943 25.3395 1.18397 24.9498 1.07183 24.8265C0.911385 24.65 0.702801 24.5938 0.654667 24.7303C0.606532 24.8667 1.32056 25.8935 1.48906 26.1262C1.65757 26.3589 2.39563 26.8403 2.85294 26.752C3.31025 26.6638 4.90409 25.7973 4.90409 25.7973C4.90409 25.7973 9.48246 22.3529 9.91035 21.1334C10.3382 19.9139 10.6806 15.7998 10.6806 15.7998H20.3208C20.3208 15.7998 20.6632 19.9139 21.0911 21.1334C21.5189 22.3529 26.0973 25.7973 26.0973 25.7973C26.0973 25.7973 27.6912 26.6638 28.1485 26.752C28.6058 26.8403 29.3439 26.3589 29.5124 26.1262C29.6808 25.8935 30.3948 24.8666 30.3467 24.7303Z" fill="#FFAEA1"/>
<path d="M14.0879 11.078C14.0879 11.078 16.2487 11.2492 16.4627 9.53766H14.0879V11.078Z" fill="#F4958C"/>
<path d="M18.2032 4.6426C18.2032 4.6426 18.353 3.52479 17.8148 2.90067C17.7341 2.80718 17.5809 2.87082 17.5907 2.99391L17.5971 3.07304C17.5971 3.07304 17.2882 2.47036 16.4932 2.23368C16.3828 2.20081 16.29 2.32226 16.3487 2.42132L16.385 2.48247C16.385 2.48247 15.9057 2.00324 14.3174 1.97012C14.2007 1.9677 14.143 2.11102 14.2282 2.1907L14.3192 2.27576C14.3191 2.27576 13.7211 2.38124 12.9288 2.86095C12.831 2.92016 12.8554 3.06862 12.9668 3.09405L13.0316 3.10889C12.725 3.46151 12.5554 3.82879 12.469 4.06541C12.4314 4.16822 12.5321 4.26739 12.6343 4.22822C12.7365 4.18904 12.391 5.35748 12.6858 6.33192L15.4991 6.96736L18.3124 6.33186C18.3124 6.33186 18.4829 5.51284 18.2032 4.6426Z" fill="#8C4F5C"/>
<path d="M14.3494 4.58628C13.5205 4.40852 12.9307 4.08314 12.6354 4.22821C12.6354 4.22821 12.3921 5.35747 12.6869 6.33191L14.4234 6.72419L14.3494 4.58628Z" fill="#7B3C47"/>
<path d="M17.6478 6.87012C17.6478 6.87012 17.9243 6.19684 18.4172 6.35317C18.9101 6.50944 18.4053 7.9685 17.4434 8.06041L17.6478 6.87012Z" fill="#FFAEA1"/>
<path d="M13.3537 6.87012C13.3537 6.87012 13.0772 6.19684 12.5843 6.35317C12.0914 6.50944 12.5962 7.9685 13.5581 8.06041L13.3537 6.87012Z" fill="#F4958C"/>
<path d="M17.7158 6.02053C17.6876 5.95187 17.6649 5.85354 17.6433 5.73995L15.5 5.11832L13.3566 5.73995C13.335 5.85354 13.3123 5.95187 13.2841 6.02053C13.1575 6.32944 12.9983 6.39234 12.9772 6.39955C12.9756 6.44787 12.9746 6.49642 12.9746 6.54547C12.9746 8.40504 14.1053 10.586 15.5 10.586C16.8947 10.586 18.0253 8.4051 18.0253 6.54547C18.0253 6.49642 18.0243 6.44787 18.0228 6.39955C18.0016 6.39234 17.8425 6.32937 17.7158 6.02053Z" fill="#FFCFC2"/>
<path d="M13.8431 6.54542C13.8431 6.19891 13.8828 5.87099 13.9558 5.56613L13.3566 5.7399C13.335 5.85349 13.3123 5.95182 13.2841 6.02048C13.1575 6.32939 12.9983 6.39229 12.9772 6.3995C12.9756 6.44782 12.9746 6.49637 12.9746 6.54542C12.9746 8.40499 14.1053 10.586 15.5 10.586C15.6481 10.586 15.7931 10.5611 15.9341 10.515C14.7465 10.1263 13.8431 8.20761 13.8431 6.54542Z" fill="#FFAEA1"/>
<path d="M15.5008 4.77725C14.6181 4.77725 14.2648 4.4974 13.9594 4.49667H13.959C13.9025 4.49655 13.8476 4.50606 13.7914 4.52858C13.5055 4.64326 13.44 5.30522 13.3574 5.73988H17.6442C17.5616 5.30522 17.4962 4.64326 17.2103 4.52858C17.154 4.506 17.0991 4.49655 17.0426 4.49667H17.0422C16.7368 4.4974 16.3836 4.77725 15.5008 4.77725Z" fill="white"/>
<path d="M15.0195 5.2586C15.0195 4.99274 15.235 4.77725 15.5008 4.77725C14.6181 4.77725 14.2648 4.4974 13.9594 4.49667H13.959C13.9025 4.49655 13.8476 4.50606 13.7914 4.52858C13.5055 4.64326 13.44 5.30522 13.3574 5.73988H15.5008C15.235 5.73994 15.0195 5.5244 15.0195 5.2586Z" fill="#EBF0F3"/>
<path d="M20.32 15.7997L19.5729 18.3532C19.4922 18.6293 19.4511 18.9156 19.4511 19.2032V24.8986H11.5485V19.2032C11.5485 18.9155 11.5075 18.6293 11.4267 18.3532L10.6797 15.7997C11.0708 15.7997 11.3875 15.483 11.3875 15.0919V11.6274C11.9972 11.4821 12.6057 11.3562 13.0901 11.2617V12.9086C13.0901 14.2395 14.1689 15.3184 15.4998 15.3184C16.8307 15.3184 17.9096 14.2395 17.9096 12.9086V11.2617C18.394 11.3562 19.0025 11.4821 19.6122 11.6274V15.0919C19.6122 15.483 19.9288 15.7997 20.32 15.7997Z" fill="#3E4A68"/>
<path d="M15.4131 18.5879C13.1467 18.5879 12.4612 18.2536 12.0499 17.6871L10.6797 15.7997L11.4268 18.3532C11.5075 18.6293 11.5485 18.9156 11.5485 19.2032V24.8987H12.8358V19.407C12.8358 19.2394 12.8133 19.0738 12.7716 18.9136C14.6861 18.8651 15.4131 18.5879 15.4131 18.5879Z" fill="#303A59"/>
</g>
<defs>
<clipPath id="clip0_940_329">
<rect width="31" height="31" fill="white"/>
</clipPath>
</defs>
</svg>
