<svg width="41" height="41" viewBox="0 0 41 41" fill="none" xmlns="http://www.w3.org/2000/svg">
<path d="M25.5798 20.2865L24.8955 19.1118H20.8152L20.2055 20.1585C19.8943 20.6927 18.5313 21.0068 18.5313 21.0068L16.5859 25.8382L17.9527 28.6999L18.5281 32.0904L22.8231 32.8912L27.1826 32.0904L27.8512 28.1503L29.2752 25.6567L27.1795 21.0068C27.1794 21.0068 25.8447 20.7414 25.5798 20.2865Z" fill="#FF7DC1"/>
<path d="M18.5286 32.0905L17.3281 33.9538L22.8511 37.2929L28.3836 33.9538L27.1831 32.0905H18.5286Z" fill="#00DA9F"/>
<path d="M18.9453 14.1447L18.946 16.5309C18.9467 18.6899 20.6974 20.4396 22.8563 20.4389C25.0153 20.4383 26.7649 18.6875 26.7643 16.5286L26.7636 14.1424C26.7629 11.9834 25.0122 10.2338 22.8533 10.2344C20.6944 10.235 18.9447 11.9857 18.9453 14.1447Z" fill="#FF9E4D"/>
<path d="M26.7646 14.1424C26.764 11.9834 25.0133 10.2338 22.8543 10.2344C22.4355 10.2345 22.0325 10.3012 21.6543 10.4232C23.225 10.93 24.3618 12.403 24.3623 14.1424L24.363 16.5286C24.3635 18.2688 23.2266 19.743 21.6551 20.2501C22.0339 20.3724 22.4378 20.4391 22.8574 20.4389C25.0164 20.4383 26.766 18.6875 26.7654 16.5285L26.7646 14.1424Z" fill="#FF8C4C"/>
<path d="M18.4238 38.7285L33.531 31.2066C34.9902 30.48 36.762 31.0777 37.483 32.5397C38.2542 34.1036 37.5044 35.9914 35.8704 36.6001L30.1554 38.7286H18.4238V38.7285Z" fill="#FF9E4D"/>
<path d="M37.4828 32.5396C37.0054 31.5715 36.067 30.9829 35.0638 30.9063C35.0692 30.917 35.0752 30.9273 35.0805 30.9381C35.8517 32.502 35.1019 34.3897 33.4678 34.9984L25.4844 37.8319L27.0688 38.7285H30.1551L35.8701 36.6C37.5043 35.9914 38.254 34.1036 37.4828 32.5396Z" fill="#FF8C4C"/>
<path d="M27.2856 38.7285L12.1785 31.2066C10.7193 30.48 8.94749 31.0777 8.22647 32.5397C7.45524 34.1036 8.20501 35.9914 9.83908 36.6001L15.5541 38.7286H27.2856V38.7285Z" fill="#FFAC65"/>
<path d="M7.46976 1.84751C6.79655 1.84751 6.09915 1.63971 5.49039 1.83406C4.85954 2.03546 4.41334 2.61594 3.88555 2.99231C3.35223 3.3726 2.65923 3.60691 2.26637 4.13046C1.87703 4.64945 1.84484 5.37864 1.6283 6.00373C1.41882 6.60832 0.986719 7.20202 0.970703 7.87403C0.986719 8.54605 1.41882 9.13975 1.6283 9.74434C1.84492 10.3694 1.87711 11.0986 2.26645 11.6176C2.65923 12.1412 3.35231 12.3755 3.88563 12.7558C4.41342 13.1321 4.85962 13.7125 5.49047 13.9139C6.09923 14.1083 6.79663 13.9005 7.46976 13.9005C8.14298 13.9005 8.84038 14.1083 9.44913 13.9139C10.08 13.7125 10.5262 13.132 11.054 12.7557C11.5873 12.3754 12.2803 12.1411 12.6732 11.6175C13.0625 11.0985 13.0947 10.3693 13.3113 9.74426C13.5208 9.13967 13.9529 8.54597 13.9689 7.87395C13.9529 7.20194 13.5208 6.60824 13.3113 6.00365C13.0947 5.37856 13.0625 4.64937 12.6732 4.13038C12.2804 3.60683 11.5873 3.37252 11.054 2.99223C10.5262 2.61586 10.08 2.03546 9.44913 1.83406C8.8403 1.63971 8.1429 1.84751 7.46976 1.84751Z" fill="#FFA400"/>
<path d="M7.47079 4.23495C5.44129 4.23495 3.79039 5.85598 3.74219 7.87395C3.79039 9.89191 5.44121 11.5129 7.47079 11.5129C9.50037 11.5129 11.1512 9.89183 11.1994 7.87395C11.1512 5.85606 9.50029 4.23495 7.47079 4.23495Z" fill="#FFD42B"/>
<path d="M40.3994 39.249H0.600586C0.268822 39.249 0 38.9802 0 38.6484C0 38.3167 0.268822 38.0479 0.600586 38.0479H40.3994C40.7312 38.0479 41 38.3167 41 38.6484C41 38.9802 40.7312 39.249 40.3994 39.249Z" fill="#00ABFF"/>
<path d="M27.1795 21.0068C27.1795 21.0068 29.7931 21.3001 30.0262 23.5685C30.05 23.7998 30.1152 24.0249 30.2264 24.2291C30.6606 25.0262 31.7329 27.1021 31.9857 28.5983C32.1128 29.3513 31.5217 30.0348 30.7581 30.0348H24.4047C24.0777 30.0348 23.7591 29.9314 23.4944 29.7392C23.0931 29.4477 22.8555 28.9816 22.8555 28.4855L22.0547 26.0015L22.8555 23.8188C22.8555 23.6481 22.9833 23.5044 23.1528 23.4845C23.2771 23.4698 23.3989 23.525 23.4696 23.6282C23.8489 24.1813 25.0207 25.9989 25.0823 27.4263C25.0929 27.6718 25.2926 27.8585 25.5378 27.8409L27.9392 27.6683C27.9391 27.6683 26.6828 27.1424 27.1795 21.0068Z" fill="#FF9E4D"/>
<path d="M18.5304 21.0068C18.5304 21.0068 15.9169 21.3001 15.6837 23.5685C15.66 23.7998 15.5948 24.0249 15.4836 24.2291C15.0494 25.0262 13.977 27.1021 13.7243 28.5983C13.5972 29.3513 14.1883 30.0348 14.9519 30.0348H21.3052C21.6323 30.0348 21.9509 29.9314 22.2156 29.7392C22.6169 29.4477 22.8545 28.9816 22.8545 28.4855V23.8187C22.8545 23.648 22.7267 23.5044 22.5572 23.4844C22.4329 23.4698 22.3111 23.5249 22.2404 23.6281C21.8611 24.1813 20.6893 25.9988 20.6277 27.4262C20.6171 27.6717 20.4173 27.8585 20.1722 27.8408L17.7707 27.6682C17.7707 27.6683 19.0271 27.1424 18.5304 21.0068Z" fill="#FFAC65"/>
</svg>
