<svg width="30" height="30" viewBox="0 0 30 30" fill="none" xmlns="http://www.w3.org/2000/svg">
<g clip-path="url(#clip0_940_376)">
<path d="M29.9995 7.25812V3.87099C29.9995 3.3365 29.5662 2.90326 29.0317 2.90326L17.9027 2.90338L17.3906 3.8792V8.22586H29.0317C29.5662 8.22586 29.9995 7.79261 29.9995 7.25812Z" fill="#DBD8DB"/>
<path d="M17.9023 6.29039V2.90338H15.9668V9.1936H29.0313C29.5658 9.1936 29.999 8.76035 29.999 8.22586V7.25813H18.87C18.3356 7.25813 17.9023 6.82489 17.9023 6.29039Z" fill="#C9C5C9"/>
<path d="M27.096 10.6452C27.096 10.0649 27.2003 9.4895 27.4041 8.94621L28.2395 6.71836C28.4432 6.17514 28.5476 5.59957 28.5476 5.01938V2.47114C28.5476 1.98908 28.2182 1.54231 27.7424 1.46491C27.6874 1.45594 27.6331 1.45166 27.5798 1.45166L26.6121 2.4194V1.98727C26.6121 1.50522 26.2827 1.05844 25.8069 0.981038C25.752 0.972073 25.6976 0.967796 25.6444 0.967796L24.6766 1.93553V1.5034C24.6766 1.02135 24.3473 0.574573 23.8714 0.497171C23.8165 0.488206 23.7622 0.488851 23.7089 0.488851L22.7412 1.45166V0.967796C22.7412 0.433011 22.3074 -0.000465828 21.7725 6.15158e-05L20.8057 2.90332H20.3218C20.1523 2.90332 19.9893 2.93239 19.838 2.98582L19.3359 4.35492V5.79311C19.3359 6.74836 19.6187 7.68229 20.1486 8.47711L20.4587 8.94235C20.9886 9.73717 21.2713 10.6711 21.2713 11.6264V12.4852H26.3109L27.096 12.0969V10.6452Z" fill="#FFE09C"/>
<path d="M21.7743 11.6264C21.7743 10.4816 21.4359 9.36239 20.8015 8.40942L20.489 7.93997C20.0651 7.303 19.8388 6.55493 19.8388 5.78975V2.98581C19.2763 3.18579 18.8711 3.7238 18.8711 4.35491V5.79309C18.8711 6.74841 19.1539 7.68227 19.6837 8.47716L19.9939 8.94239C20.5238 9.73722 20.8066 10.6711 20.8066 11.6265V13.5485H27.0969V12.0969H22.2437C21.9845 12.0969 21.7744 11.8868 21.7744 11.6276V11.6264H21.7743Z" fill="#FFD18D"/>
<path d="M21.2905 5.80653C21.5578 5.80653 21.7744 5.58985 21.7744 5.32266V6.16289e-05C21.7208 3.03513e-06 21.6671 0.00428038 21.6118 0.0133038C21.1361 0.0907062 20.8066 0.537542 20.8066 1.01953V5.32266C20.8066 5.58985 21.0233 5.80653 21.2905 5.80653Z" fill="#FFD18D"/>
<path d="M23.2261 2.89841C23.4933 2.89841 23.7099 2.68173 23.7099 2.41454V0.488861C23.176 0.489447 22.7422 0.917533 22.7422 1.45167V2.41454C22.7422 2.68179 22.9588 2.89841 23.2261 2.89841Z" fill="#FFD18D"/>
<path d="M25.1616 3.37741C25.4288 3.37741 25.6455 3.16073 25.6455 2.89355V0.967804C25.1115 0.96839 24.6777 1.39648 24.6777 1.93062V2.89349C24.6777 3.16073 24.8944 3.37741 25.1616 3.37741Z" fill="#FFD18D"/>
<path d="M27.0971 3.86127C27.3644 3.86127 27.581 3.64459 27.581 3.3774V1.45166C27.0471 1.45225 26.6133 1.88033 26.6133 2.41447V3.37734C26.6133 3.64459 26.8299 3.86127 27.0971 3.86127Z" fill="#FFD18D"/>
<path d="M4.83883 5.85938e-05L8.22607 0C8.76057 0 9.19381 0.433301 9.19381 0.967734V12.0968L8.2665 12.5457L3.87109 12.5457V0.967793C3.87109 0.433359 4.30439 5.85938e-05 4.83883 5.85938e-05Z" fill="#887F88"/>
<path d="M5.8075 12.0968H9.19457V14.0323H2.9043V0.967795C2.9043 0.433303 3.3376 6.10352e-05 3.87203 6.10352e-05H4.83977V11.1291C4.83977 11.6636 5.27307 12.0968 5.8075 12.0968Z" fill="#736572"/>
<path d="M26.1282 30H22.7412C22.2067 30 21.7734 29.5667 21.7734 29.0323L21.7942 17.3944H25.715L27.096 17.9033V29.0323C27.096 29.5667 26.6627 30 26.1282 30Z" fill="#A5E3F0"/>
<path d="M23.7098 17.9033H27.0969V15.9678H20.8066V29.0323C20.8066 29.5668 21.2399 30 21.7744 30H22.7421V18.871C22.7421 18.3365 23.1754 17.9033 23.7098 17.9033Z" fill="#7AD7EE"/>
<path d="M19.3556 27.0968C19.9358 27.0968 20.5113 27.2012 21.0546 27.4049L23.2824 28.2403C23.8256 28.444 24.4012 28.5484 24.9814 28.5484H27.5296C28.0117 28.5484 28.4585 28.219 28.5359 27.7432C28.5448 27.6882 28.5491 27.6339 28.5491 27.5807L27.5814 26.6129H28.0135C28.4956 26.6129 28.9423 26.2835 29.0197 25.8077C29.0287 25.7528 29.033 25.6985 29.033 25.6452L28.0653 24.6775H28.4974C28.9794 24.6775 29.4262 24.3481 29.5036 23.8723C29.5126 23.8173 29.5119 23.763 29.5119 23.7097L28.5491 22.742H29.033C29.5678 22.742 30.0012 22.3082 30.0007 21.7733L27.0975 20.8065V20.3227C27.0975 20.1531 27.0684 19.9901 27.015 19.8388L25.6459 19.3368H24.2077C23.2524 19.3368 22.3185 19.6195 21.5237 20.1494L21.0584 20.4595C20.2636 20.9895 19.3297 21.2722 18.3744 21.2722H17.5156V26.3118L17.904 27.0968H19.3556Z" fill="#D48C64"/>
<path d="M18.3732 21.7742C19.518 21.7742 20.6372 21.4358 21.5902 20.8014L22.0596 20.489C22.6966 20.065 23.4447 19.8387 24.2099 19.8387H27.0139C26.8139 19.2762 26.2759 18.871 25.6448 18.871H24.2066C23.2513 18.871 22.3174 19.1538 21.5225 19.6836L21.0573 19.9938C20.2625 20.5237 19.3285 20.8065 18.3732 20.8065H16.4512V27.0968H17.9028V22.2436C17.9028 21.9844 18.1129 21.7743 18.3721 21.7743H18.3732V21.7742Z" fill="#C6805D"/>
<path d="M24.1934 21.2903C24.1934 21.5576 24.41 21.7742 24.6772 21.7742H29.9998C29.9999 21.7206 29.9956 21.667 29.9866 21.6117C29.9092 21.1359 29.4623 20.8065 28.9804 20.8065H24.6773C24.41 20.8065 24.1934 21.0231 24.1934 21.2903Z" fill="#C6805D"/>
<path d="M27.1016 23.2258C27.1016 23.4931 27.3182 23.7097 27.5854 23.7097H29.5111C29.5105 23.1757 29.0824 22.7419 28.5483 22.7419H27.5854C27.3182 22.7419 27.1016 22.9586 27.1016 23.2258Z" fill="#C6805D"/>
<path d="M26.623 25.1613C26.623 25.4286 26.8397 25.6452 27.1069 25.6452H29.0326C29.032 25.1112 28.6039 24.6775 28.0698 24.6775H27.1069C26.8397 24.6774 26.623 24.8941 26.623 25.1613Z" fill="#C6805D"/>
<path d="M26.1387 27.0968C26.1387 27.364 26.3554 27.5806 26.6225 27.5806H28.5482C28.5476 27.0467 28.1196 26.6129 27.5854 26.6129H26.6225C26.3553 26.6129 26.1387 26.8295 26.1387 27.0968Z" fill="#C6805D"/>
<path d="M10.6451 2.90332C10.0649 2.90332 9.48943 2.79896 8.94615 2.59523L6.7183 1.75975C6.17508 1.55602 5.59951 1.45166 5.01932 1.45166H2.47107C1.98902 1.45166 1.54225 1.78107 1.46484 2.25686C1.45588 2.31182 1.4516 2.36613 1.4516 2.41939L2.41934 3.38713H1.98721C1.50516 3.38713 1.05838 3.71654 0.980977 4.19232C0.972012 4.24729 0.967735 4.3016 0.967735 4.35486L1.93547 5.32266H1.50334C1.02129 5.32266 0.574512 5.65201 0.49711 6.12785C0.488145 6.18281 0.48879 6.23713 0.48879 6.29039L1.4516 7.25813H0.967735C0.43295 7.25813 -0.000526863 7.6919 4.80643e-07 8.2268L2.90326 9.19359V9.67746C2.90326 9.84703 2.93232 10.01 2.98576 10.1613L4.35486 10.6634H5.79305C6.7483 10.6634 7.68223 10.3806 8.47705 9.85072L8.94229 9.54059C9.73711 9.01066 10.671 8.72795 11.6263 8.72795H12.4852V3.6883L12.0968 2.90326L10.6451 2.90332Z" fill="#FBBD80"/>
<path d="M11.627 8.22586C10.4822 8.22586 9.36297 8.5643 8.41 9.19863L7.94055 9.51111C7.30357 9.9351 6.55551 10.1613 5.79033 10.1613H2.98633C3.18631 10.7238 3.72432 11.1291 4.35543 11.1291H5.79361C6.74893 11.1291 7.68279 10.8463 8.47768 10.3164L8.94291 10.0063C9.73773 9.47637 10.6717 9.19359 11.627 9.19359H13.549V2.90332H12.0974V7.75652C12.0974 8.01574 11.8873 8.22586 11.6281 8.22586H11.627Z" fill="#F4AA73"/>
<path d="M5.80641 8.70973C5.80641 8.44248 5.58973 8.22586 5.32254 8.22586H5.93729e-07C-5.8e-05 8.27947 0.00421934 8.33309 0.0132428 8.3884C0.0906451 8.86418 0.537481 9.1936 1.01947 9.1936H5.32254C5.58979 9.1936 5.80641 8.97697 5.80641 8.70973Z" fill="#F4AA73"/>
<path d="M2.89789 6.77427C2.89789 6.50703 2.68121 6.29041 2.41402 6.29041H0.488281C0.488867 6.82437 0.916953 7.25814 1.45109 7.25814H2.41396C2.68121 7.25814 2.89789 7.04152 2.89789 6.77427Z" fill="#F4AA73"/>
<path d="M3.3783 4.83879C3.3783 4.57154 3.16162 4.35492 2.89443 4.35492H0.96875C0.969336 4.88888 1.39742 5.32265 1.93156 5.32265H2.89443C3.16168 5.32265 3.3783 5.10603 3.3783 4.83879Z" fill="#F4AA73"/>
<path d="M3.86072 2.90333C3.86072 2.63609 3.64404 2.41946 3.37686 2.41946H1.45117C1.45176 2.95343 1.87984 3.3872 2.41398 3.3872H3.37686C3.6441 3.3872 3.86072 3.17058 3.86072 2.90333Z" fill="#F4AA73"/>
<path d="M27.0974 13.0645H21.7749C21.5076 13.0645 21.291 13.2812 21.291 13.5484V16.4516H27.0974C27.3647 16.4516 27.5813 16.235 27.5813 15.9677V13.5484C27.5813 13.2812 27.3647 13.0645 27.0974 13.0645Z" fill="#CCEFFA"/>
<path d="M22.7416 15.9678C22.2071 15.9678 21.7739 15.5345 21.7739 15V13.0646H20.8061C20.5389 13.0646 20.3223 13.2812 20.3223 13.5484V16.4516C20.3223 16.7189 20.5389 16.9355 20.8061 16.9355H27.0965C27.3637 16.9355 27.5803 16.7189 27.5803 16.4516V15.9678H22.7416Z" fill="#A5E3F0"/>
<path d="M5.85937e-05 25.1614L0 21.7742C0 21.2397 0.433301 20.8065 0.967734 20.8065H12.0968L12.695 21.7086L12.695 26.1292H0.967793C0.433359 26.1292 5.85937e-05 25.6959 5.85937e-05 25.1614Z" fill="#DBF180"/>
<path d="M12.0967 24.1937V20.8066H14.0322V27.097H0.967734C0.433242 27.097 0 26.6637 0 26.1292V25.1615H11.129C11.6635 25.1614 12.0967 24.7281 12.0967 24.1937Z" fill="#B8EB7C"/>
<path d="M16.9359 26.1293L16.9358 20.8065C16.9358 20.5392 16.7192 20.3226 16.452 20.3226L14.0327 20.3228C13.7654 20.3228 13.5488 20.5395 13.5488 20.8067L13.5489 26.6134L16.452 26.6132C16.7192 26.6132 16.9359 26.3965 16.9359 26.1293Z" fill="#E9F9B6"/>
<path d="M14.0322 25.1616C14.0322 25.6961 14.4655 26.1293 14.9999 26.1293H16.9354V27.097C16.9354 27.3643 16.7188 27.5809 16.4515 27.5809H13.5483C13.2811 27.5809 13.0645 27.3643 13.0645 27.097V20.8067C13.0645 20.5395 13.2811 20.3228 13.5483 20.3228H14.0322V25.1616Z" fill="#DBF180"/>
<path d="M10.3164 21.5229L10.0063 21.0577C9.47635 20.2629 9.19363 19.329 9.19363 18.3736V17.9032L8.48283 17.4199H3.39496V19.3548C3.39496 19.9351 3.29061 20.5105 3.08687 21.0538L2.25145 23.2816C2.04771 23.8249 1.94336 24.4004 1.94336 24.9806V27.5289L2.41943 28.5434C2.95393 28.5434 3.38717 28.1151 3.38717 27.5806L4.35484 29.0327C4.88934 29.0327 5.32264 28.599 5.32264 28.0645L6.29008 29.5116C6.82469 29.5117 7.25811 29.0829 7.25811 28.5483L8.22584 29.9902C8.2791 29.9902 8.33342 29.9957 8.38838 29.9868C8.86422 29.9094 9.19357 29.4625 9.19357 28.9805V27.0968H9.67744C10.4791 27.0968 11.129 26.4469 11.129 25.6452V24.207C11.1291 23.2517 10.8463 22.3178 10.3164 21.5229Z" fill="#A46A5A"/>
<path d="M2.90277 19.3548C2.90277 19.935 2.79842 20.5105 2.59469 21.0538L1.75926 23.2817C1.55553 23.825 1.45117 24.4005 1.45117 24.9807V27.5289C1.45117 28.0631 1.85559 28.5539 2.41551 28.5469C2.4168 28.5456 2.41762 28.5448 2.41891 28.5435V24.9815C2.41891 24.517 2.50246 24.0563 2.66559 23.6214L3.50102 21.3936C3.74535 20.7421 3.87051 20.0518 3.87051 19.3559V18.871C3.87051 18.3365 4.30381 17.9032 4.83824 17.9032H9.19305V16.9355H2.90277V19.3548Z" fill="#845252"/>
<path d="M9.19313 16.9359H3.87059C3.60334 16.9359 3.38672 16.7193 3.38672 16.4521V13.5489H9.19318C9.46043 13.5489 9.67705 13.7655 9.67705 14.0327V16.4521C9.67699 16.7193 9.46037 16.9359 9.19313 16.9359Z" fill="#9E959E"/>
<path d="M5.80613 27.1021C6.07338 27.1021 6.29 27.3188 6.29 27.5859V29.5116C5.75604 29.511 5.32227 29.083 5.32227 28.5488V27.5859C5.32227 27.3188 5.53889 27.1021 5.80613 27.1021Z" fill="#845252"/>
<path d="M7.74168 27.5807C8.00893 27.5807 8.22555 27.7973 8.22555 28.0645V29.9902C7.69158 29.9896 7.25781 29.5615 7.25781 29.0274V28.0645C7.25781 27.7973 7.47443 27.5807 7.74168 27.5807Z" fill="#845252"/>
<path d="M3.87059 26.6231C4.13783 26.6231 4.35445 26.8398 4.35445 27.107V29.0327C3.82049 29.0321 3.38672 28.604 3.38672 28.0699V27.107C3.38672 26.8398 3.60334 26.6231 3.87059 26.6231Z" fill="#845252"/>
<path d="M4.83932 14.0327C4.30482 14.0327 3.87158 14.466 3.87158 15.0005V16.9359H2.90379C2.63654 16.9359 2.41992 16.7193 2.41992 16.4521V13.5489C2.41992 13.2816 2.63654 13.065 2.90379 13.065H9.19412C9.46137 13.065 9.67799 13.2816 9.67799 13.5489V14.0327H4.83932Z" fill="#887F88"/>
<path d="M16.9359 2.90333V8.22587C16.9359 8.49312 16.7193 8.70974 16.452 8.70974H13.5488V2.90333C13.5488 2.63609 13.7654 2.41946 14.0327 2.41946H16.452C16.7193 2.41946 16.9359 2.63609 16.9359 2.90333Z" fill="#ECEAEC"/>
<path d="M14.0322 7.25814C14.0322 7.79263 14.4655 8.22587 14.9999 8.22587H16.9354V9.1936C16.9354 9.46085 16.7188 9.67747 16.4515 9.67747H13.5483C13.2811 9.67747 13.0645 9.46085 13.0645 9.1936V2.90333C13.0645 2.63609 13.2811 2.41946 13.5483 2.41946H14.0322V7.25814Z" fill="#DBD8DB"/>
<path d="M10.1611 27.0078V24.6778C10.1611 24.4106 9.94447 24.1939 9.67723 24.1939C9.40998 24.1939 9.19336 24.4106 9.19336 24.6778V27.0967H9.67723C9.84779 27.0967 10.009 27.0619 10.1611 27.0078Z" fill="#845252"/>
</g>
<defs>
<clipPath id="clip0_940_376">
<rect width="30" height="30" fill="white"/>
</clipPath>
</defs>
</svg>
