<svg width="25" height="25" viewBox="0 0 25 25" fill="none" xmlns="http://www.w3.org/2000/svg">
<path d="M18.0491 10.9735C18.0491 10.9735 18.5481 14.0772 17.5247 15.9633C16.5013 17.8494 15.4066 14.9497 15.4066 14.9497L15.3691 12.9296L18.0491 10.9735Z" fill="#3C3C4F"/>
<path d="M8.32318 18.6386C8.32318 18.6386 6.8695 20.8318 6.85156 24.3465H23.2871C23.2871 24.3465 22.8205 20.7199 21.1519 18.6386H8.32318Z" fill="#EA7F50"/>
<path d="M9.49752 20.1392L9.082 21.0299C9.03751 21.1256 9.02427 21.2328 9.04416 21.3365C9.06405 21.4401 9.11606 21.5348 9.19281 21.6072C9.43301 21.8242 9.70668 22.0009 10.0033 22.1306C10.1107 22.1799 10.2321 22.1895 10.3459 22.1578C10.4598 22.1261 10.5587 22.055 10.6252 21.9573L11.1325 21.2159L9.49752 20.1392Z" fill="#3C3C4F"/>
<path d="M12.4558 21.9432L12.2205 22.7369C12.1953 22.8222 12.1976 22.9132 12.227 22.997C12.2565 23.0809 12.3116 23.1533 12.3846 23.2041C12.6117 23.3549 12.8616 23.468 13.1248 23.5392C13.2204 23.5669 13.3227 23.5598 13.4136 23.5192C13.5045 23.4786 13.5781 23.4072 13.6213 23.3175L13.9514 22.6367L12.4558 21.9432Z" fill="#3C3C4F"/>
<path d="M20.8395 19.5294C20.8395 19.5294 21.0609 19.9718 21.2844 20.5557C21.317 20.6408 21.3254 20.7332 21.3086 20.8228C21.2918 20.9124 21.2505 20.9955 21.1892 21.063C21.0918 21.17 20.9623 21.3066 20.8098 21.4543C20.7591 21.5036 20.6985 21.5414 20.6321 21.5652C20.5656 21.5891 20.4948 21.5984 20.4244 21.5925C20.3541 21.5867 20.2858 21.5659 20.2241 21.5314C20.1625 21.497 20.1089 21.4497 20.0671 21.3928L19.6172 20.7794L20.8395 19.5294Z" fill="#3C3C4F"/>
<path d="M18.8991 21.4926L19.2987 22.2479C19.3484 22.3412 19.3667 22.448 19.3509 22.5526C19.3351 22.6571 19.2861 22.7537 19.2111 22.8282C19.1006 22.9371 18.9835 23.0392 18.8606 23.1337C18.8064 23.1749 18.7442 23.2044 18.6781 23.2204C18.6119 23.2364 18.5431 23.2385 18.4761 23.2265C18.4091 23.2146 18.3453 23.1889 18.2887 23.1511C18.2321 23.1133 18.184 23.0642 18.1473 23.0068L17.7656 22.4122L18.8991 21.4926Z" fill="#3C3C4F"/>
<path d="M18.4178 15.2216C19.449 16.1899 20.4042 17.2359 21.2753 18.3505C21.3438 18.4379 21.3831 18.5446 21.3878 18.6556C21.3925 18.7666 21.3624 18.8763 21.3015 18.9692C20.7212 19.8552 18.9379 22.3258 16.5484 23.2675C16.1728 23.4124 15.76 23.4299 15.3735 23.3174C12.7488 22.5414 10.3348 21.179 8.3138 19.3332C8.19906 19.2267 8.12188 19.0859 8.09379 18.9318C8.06571 18.7778 8.08823 18.6188 8.15799 18.4786C8.5131 17.7702 8.94875 17.1052 9.4563 16.4967L18.4178 15.2216Z" fill="#F9AC5F"/>
<path d="M18.5604 17.5396L17.4506 16.5452L13.7604 15.8982C13.8698 15.452 13.9693 14.997 14.057 14.5646L11.937 14.245C11.0081 14.8748 10.1731 15.6331 9.45703 16.4972C9.60188 17.2217 9.89763 17.9076 10.325 18.5102C10.3462 18.5388 10.3731 18.5626 10.4041 18.5801C10.435 18.5976 10.4693 18.6083 10.5047 18.6116C10.5401 18.6149 10.5758 18.6107 10.6095 18.5992C10.6432 18.5877 10.674 18.5693 10.7 18.5451C11.0601 18.2021 11.3688 17.809 11.6167 17.3779C11.6311 17.3538 11.6533 17.3353 11.6796 17.3254C11.7059 17.3156 11.7347 17.3149 11.7614 17.3236C11.7881 17.3322 11.8111 17.3497 11.8266 17.3731C11.8421 17.3965 11.8492 17.4245 11.8467 17.4525C11.6961 19.1462 12.392 20.1997 12.7511 20.6222C12.7762 20.6514 12.8077 20.6745 12.8432 20.6896C12.8787 20.7047 12.9171 20.7115 12.9556 20.7094C12.9941 20.7073 13.0316 20.6964 13.0652 20.6776C13.0988 20.6587 13.1277 20.6324 13.1495 20.6007C13.7164 19.7827 13.7879 18.3308 13.7879 18.3308C13.7879 18.3308 13.2943 17.5083 13.3467 17.3522C13.6761 17.678 14.0311 17.9769 14.4082 18.246C14.5311 18.3352 14.6275 18.4558 14.6874 18.5953C14.7472 18.7348 14.7682 18.8879 14.7482 19.0383C14.5138 20.814 15.1509 21.969 15.4909 22.442C15.5142 22.4743 15.5449 22.5006 15.5804 22.5187C15.6159 22.5369 15.6552 22.5464 15.695 22.5464C15.7349 22.5465 15.7742 22.5371 15.8097 22.5191C15.8453 22.501 15.876 22.4749 15.8995 22.4426C16.6422 21.4451 16.5869 19.7929 16.5869 19.7929L16.209 18.6513C16.3967 18.6322 16.5793 18.5783 16.7473 18.4923C16.7947 18.4709 16.846 18.4595 16.8981 18.4588C16.9501 18.4582 17.0017 18.4682 17.0497 18.4885C17.0977 18.5087 17.1409 18.5386 17.1768 18.5763C17.2127 18.614 17.2404 18.6587 17.2581 18.7076C17.4404 19.1955 17.7249 19.6386 18.0926 20.0073C18.121 20.0353 18.1555 20.0562 18.1935 20.0683C18.2314 20.0804 18.2717 20.0833 18.311 20.0769C18.3503 20.0704 18.3875 20.0548 18.4196 20.0312C18.4517 20.0076 18.4777 19.9768 18.4956 19.9412C19.0251 18.9027 18.5604 17.5396 18.5604 17.5396Z" fill="#EA7F50"/>
<path d="M15.8555 17.7353C14.2118 19.8823 15.8555 22.0423 15.8555 22.0423C15.8555 22.0423 17.4993 19.8823 15.8555 17.7353Z" fill="white"/>
<path d="M13.0704 15.9633C11.4267 18.1103 13.0704 20.2702 13.0704 20.2702C13.0704 20.2702 14.714 18.1103 13.0704 15.9633Z" fill="white"/>
<path d="M12.9399 18.3304C13.1536 17.936 13.3536 17.374 13.5342 16.7476C13.4124 16.4679 13.2564 16.2044 13.0698 15.963C12.7026 16.4279 12.4624 16.9803 12.373 17.566C12.5314 17.8421 12.7216 18.0987 12.9399 18.3304Z" fill="#BEBFCE"/>
<path d="M17.6817 16.1789C16.7128 18.1646 18.379 19.6287 18.379 19.6287C18.379 19.6287 19.3459 17.6323 17.6817 16.1789Z" fill="white"/>
<path d="M13.1902 13.4934C12.7214 13.7388 12.2685 14.0134 11.834 14.3154C12.5504 15.8385 13.7034 17.1142 15.1465 17.9805C15.3753 18.1173 15.6403 18.1813 15.9063 18.1639C16.1724 18.1466 16.4268 18.0487 16.6359 17.8833C17.4984 17.2088 18.1225 16.2761 18.4173 15.2216C17.8647 14.6938 17.2808 14.1999 16.6685 13.7427L13.1902 13.4934Z" fill="#D14E4E"/>
<path d="M13.1902 13.4934C12.7214 13.7388 12.2685 14.0134 11.834 14.3154C12.2571 15.2139 12.8343 16.0314 13.5394 16.7308C13.8368 15.6956 14.0811 14.4881 14.2469 13.569L13.1902 13.4934Z" fill="#B23B3B"/>
<path d="M13.2715 10.5186V13.4245C13.2715 13.4245 13.568 14.4255 14.6434 15.2493C14.8039 15.3728 15.0005 15.44 15.203 15.4405H16.0808C16.2037 15.4416 16.3255 15.4173 16.4386 15.3692C16.5517 15.3212 16.6536 15.2503 16.7381 15.161L16.7505 15.1474C16.8996 14.9806 16.9816 14.7645 16.9807 14.5408V12.4296L13.2715 10.5186Z" fill="#F29C81"/>
<path d="M13.2715 10.5186V13.4245C13.2715 13.4245 13.4502 14.027 14.0324 14.6819C14.0755 14.4732 14.1158 14.269 14.1533 14.0728C14.1596 14.0401 14.1739 14.0095 14.1949 13.9837C14.2159 13.9579 14.2429 13.9377 14.2736 13.9249C14.3043 13.912 14.3377 13.907 14.3708 13.9102C14.4039 13.9135 14.4357 13.9248 14.4634 13.9433C14.5739 14.0164 14.6962 14.0696 14.825 14.1005C15.5314 14.2747 16.2536 14.3767 16.9806 14.4049V12.4296L13.2715 10.5186Z" fill="#D8735B"/>
<path d="M18.5909 2.45523C17.9218 2.97898 16.7802 4.40376 17.719 7.68744L18.3745 8.29251C18.3745 8.29251 20.3099 5.8667 19.1786 2.6281C19.1588 2.57165 19.1258 2.52072 19.0824 2.47951C19.039 2.43831 18.9864 2.40802 18.929 2.39113C18.8716 2.37425 18.811 2.37125 18.7522 2.3824C18.6934 2.39354 18.6381 2.41851 18.5909 2.45523Z" fill="#3C3C4F"/>
<path d="M14.1719 2.34734C14.3423 3.17741 14.7396 4.22411 15.6218 5.27911L18.2542 7.38793C18.2542 7.38793 18.3858 4.40028 16.8247 2.36764C15.669 1.34984 14.7283 1.52205 14.1719 2.34734Z" fill="#D5D6E2"/>
<path d="M14.0552 1.1226C14.0494 1.53389 14.0889 1.94457 14.1729 2.34723C14.535 2.19915 15.6705 1.82422 16.8251 2.36782C16.2513 1.60669 15.4509 1.04713 14.5391 0.769586C14.4835 0.752951 14.4249 0.749391 14.3677 0.759186C14.3105 0.76898 14.2564 0.791864 14.2096 0.826047C14.1627 0.86023 14.1244 0.904786 14.0976 0.956231C14.0709 1.00768 14.0564 1.06462 14.0552 1.1226Z" fill="#3C3C4F"/>
<path d="M10.0371 2.83866L13.7092 4.67182C14.6018 4.75028 15.2895 4.63564 15.3304 3.91145C14.8103 3.11734 13.9599 2.11145 12.6981 1.42881C12.6981 1.42881 11.1768 1.11998 10.6069 1.51064C10.037 1.90131 10.0371 2.83866 10.0371 2.83866Z" fill="#F2F2F2"/>
<path d="M15.9918 5.14844C15.8128 4.71517 15.5911 4.3008 15.3301 3.91145C15.2253 4.01748 15.0966 4.09675 14.9548 4.14257C14.813 4.18838 14.6622 4.1994 14.5153 4.17469C14.3209 4.14415 14.1368 4.06722 13.9785 3.95042C12.6742 3.01719 11.1991 2.39263 10.2028 2.03564C10.1004 2.29138 10.0443 2.56329 10.0371 2.83866C10.743 3.74403 12.0045 4.80535 14.2563 5.76212L15.9918 5.14844Z" fill="#D5D6E2"/>
<path d="M12.697 1.42913C11.7329 0.911249 10.6539 0.644516 9.55962 0.653542C9.50347 0.653399 9.44799 0.665736 9.39719 0.689661C9.34639 0.713586 9.30154 0.748501 9.26589 0.791882C9.23023 0.835262 9.20466 0.886024 9.19103 0.940496C9.17739 0.994968 9.17604 1.05179 9.18705 1.10685C9.26514 1.49891 9.47565 2.11964 10.0362 2.83862C10.2862 2.36031 11.0059 1.38465 12.697 1.42913Z" fill="#696987"/>
<path d="M10.6079 9.94595C10.6079 9.94595 9.06876 14.5257 10.6079 17.7353C10.6079 17.7353 13.1574 14.751 12.0688 9.25146L10.6079 9.94595Z" fill="#3C3C4F"/>
<path d="M12.073 8.66964C12.073 8.66964 10.7001 14.0565 12.8694 17.3224C12.8694 17.3224 14.362 13.5497 13.3678 8.20038L12.073 8.66964Z" fill="#696987"/>
<path d="M5.70485 6.19177C5.70485 6.19177 4.00904 5.16464 4.52566 3.90442C5.04227 2.64419 7.5036 2.22412 7.5036 2.22412C7.77888 2.25315 8.05167 2.3023 8.31977 2.37118C9.51779 2.67743 11.9563 3.65059 13.5771 4.84309L12.8686 6.01912L5.70485 6.19177Z" fill="#F2F2F2"/>
<path d="M5.70524 6.19177C9.5498 7.00971 13.9373 6.58434 13.9373 6.58434L14.357 5.50191C14.1135 5.26351 13.8527 5.04341 13.5768 4.84338C13.4298 5.03161 13.2423 5.18424 13.0281 5.28991C12.814 5.39558 12.5787 5.45156 12.34 5.45368C9.0951 5.23125 6.7437 5.47574 5.18164 5.78706C5.3437 5.93737 5.51894 6.07282 5.70524 6.19177Z" fill="#D5D6E2"/>
<path d="M6.09243 13.8355C5.48331 13.1195 5.33066 12.4825 5.33279 12.0189C4.175 13.3453 3.9586 14.8792 3.92243 15.5557C3.91713 15.6534 3.95011 15.7493 4.01437 15.8231C4.07863 15.8969 4.16911 15.9427 4.26662 15.9509C6.13618 16.0991 7.66426 14.8601 7.66426 14.8601C7.71613 14.8147 7.76787 14.7689 7.81948 14.7228C7.48638 14.7002 7.1614 14.6099 6.86443 14.4573C6.56746 14.3047 6.30477 14.0931 6.09243 13.8355Z" fill="#696987"/>
<path d="M7.50274 2.22509C7.30418 2.20415 7.1046 2.19433 6.90495 2.19568C4.55539 2.21428 3.16965 2.90061 2.62745 3.2398C2.54893 3.28901 2.49136 3.36549 2.46578 3.45456C2.4402 3.54362 2.44841 3.63899 2.48884 3.72237C2.79031 4.34215 3.66884 5.75178 5.56642 6.16215C5.6124 6.17195 5.6584 6.18188 5.70443 6.19193C5.26414 4.00825 6.5962 2.782 7.50274 2.22509Z" fill="#696987"/>
<path d="M11.7439 10.6298C10.7304 11.8246 9.3155 13.3895 7.81961 14.7226C7.81961 14.7226 6.2902 15.0846 5.60638 14.3504C4.92256 13.6163 5.33322 12.0189 5.33322 12.0189C5.43572 11.9012 5.57447 11.7624 5.69233 11.6489L11.7442 8.83624C12.3181 9.17536 12.1017 9.87073 11.7439 10.6298Z" fill="#F2F2F2"/>
<path d="M11.7677 10.367C11.7601 10.4468 11.752 10.5345 11.7434 10.6299C12.6782 9.52765 13.2717 8.74015 13.2717 8.74015V7.38794C9.2617 8.83963 6.0242 11.3829 5.69141 11.6489C6.93626 11.4129 9.19802 10.9002 11.2453 9.99132C11.3048 9.96483 11.3701 9.95438 11.4349 9.96101C11.4996 9.96765 11.5615 9.99114 11.6144 10.0291C11.6672 10.0671 11.7092 10.1183 11.7361 10.1776C11.763 10.2369 11.7739 10.3022 11.7677 10.367Z" fill="#D5D6E2"/>
<path d="M10.9999 9.0692C9.49304 9.7564 7.44546 10.4362 5.28245 10.4067C5.28245 10.4067 3.9184 9.57155 3.86473 8.57905C3.81105 7.58655 5.2684 6.75125 5.2684 6.75125C5.50625 6.69523 5.75963 6.64694 6.02855 6.6064C8.17127 6.28758 10.3802 6.30743 11.8647 6.38118C11.8647 6.38118 12.2681 6.81662 12.1877 7.62956C12.1072 8.4425 10.9999 9.0692 10.9999 9.0692Z" fill="#F2F2F2"/>
<path d="M11 9.06941C11.8636 8.68253 12.6913 8.22007 13.4735 7.68743L13.6499 6.51831C13.6499 6.51831 12.9514 6.43544 11.8649 6.38147C11.9191 6.80794 11.9446 7.93456 11 9.06941Z" fill="#D5D6E2"/>
<path d="M5.26915 6.75171C2.90665 7.30833 2.03952 8.58406 1.74856 9.20869C1.72718 9.25431 1.71514 9.30375 1.71318 9.3541C1.71121 9.40444 1.71935 9.45467 1.73712 9.50182C1.75488 9.54897 1.78191 9.59208 1.81661 9.62861C1.85131 9.66513 1.89298 9.69434 1.93915 9.7145C2.99407 10.1632 4.12744 10.3983 5.27378 10.4064C4.37106 8.80186 4.95025 7.34377 5.26915 6.75171Z" fill="#696987"/>
<path d="M13.3469 10.3488L12.8948 8.36765C12.8948 8.36765 12.4444 5.47713 15.3161 4.97059C18.1878 4.46404 18.2257 7.30978 18.3756 8.29279L13.3469 10.3488Z" fill="#BC655C"/>
<path d="M13.3006 10.2093C13.2232 9.77663 13.3013 9.33051 13.5212 8.94985C13.8349 8.40875 14.4484 7.73787 15.6159 7.48537C17.6993 7.03493 18.3751 8.2925 18.3751 8.2925L18.446 8.97412C18.4611 9.11869 18.5066 9.25843 18.5796 9.38412L18.8722 9.88794C18.9562 10.0326 19.0036 10.1955 19.0104 10.3626C19.0172 10.5297 18.9832 10.696 18.9113 10.847L18.6815 11.3298C18.6157 11.468 18.5815 11.6191 18.5815 11.7721V12.3089C18.5815 12.5429 18.4886 12.7673 18.3231 12.9328C18.1576 13.0983 17.9332 13.1913 17.6992 13.1913H15.2091C15.006 13.1912 14.8092 13.1211 14.6518 12.9928C14.4944 12.8645 14.386 12.6859 14.3451 12.487L14.2898 12.2186C14.2487 12.0192 14.1597 11.8328 14.0304 11.6755L13.7425 11.3254C13.5383 11.0774 13.4015 10.7808 13.3454 10.4644L13.3006 10.2093Z" fill="#F29C81"/>
<path d="M16.8388 11.615C16.7938 11.615 16.7496 11.6032 16.7105 11.5808C16.6715 11.5585 16.639 11.5262 16.6164 11.4874C16.5856 11.4315 16.5761 11.3663 16.5895 11.3039C16.6028 11.2415 16.6383 11.186 16.6893 11.1477L17.0094 10.8977C17.0494 10.8663 17.0756 10.8206 17.0825 10.7703C17.0893 10.7199 17.0763 10.6689 17.0461 10.628C16.8799 10.4043 16.6875 10.2012 16.4731 10.023C16.4195 9.98079 16.3848 9.91897 16.3768 9.85117C16.3687 9.78338 16.388 9.71516 16.4302 9.66153C16.4725 9.60791 16.5343 9.57326 16.6021 9.56521C16.6699 9.55716 16.7381 9.57638 16.7917 9.61863C16.8166 9.63819 17.4039 10.105 17.7145 10.7372C17.7411 10.7904 17.7485 10.8512 17.7355 10.9093C17.7225 10.9674 17.6898 11.0192 17.643 11.0561L16.9972 11.5602C16.952 11.5957 16.8962 11.615 16.8388 11.615Z" fill="#C45D49"/>
<path d="M15.8642 9.42683C15.8502 9.42684 15.8362 9.42551 15.8224 9.42286C15.6748 9.39652 15.5252 9.38272 15.3752 9.38161H15.3738C15.3153 9.38184 15.2591 9.35882 15.2176 9.31762C15.176 9.27642 15.1526 9.2204 15.1523 9.1619C15.1521 9.1034 15.1751 9.0472 15.2163 9.00566C15.2575 8.96413 15.3135 8.94066 15.3721 8.94043C15.551 8.94151 15.7295 8.95796 15.9056 8.98962C15.9595 8.99998 16.0075 9.03004 16.0404 9.07394C16.0733 9.11784 16.0887 9.17242 16.0835 9.22703C16.0784 9.28165 16.053 9.33237 16.0125 9.36931C15.9719 9.40626 15.919 9.42676 15.8642 9.42683Z" fill="#C45D49"/>
<path d="M17.1427 9.36766C17.0893 9.36773 17.0376 9.34838 16.9974 9.31323C16.9571 9.27807 16.931 9.22949 16.9239 9.17652C16.9167 9.12355 16.9291 9.0698 16.9586 9.02524C16.9881 8.98068 17.0328 8.94836 17.0843 8.93428C17.2402 8.89255 17.3984 8.86036 17.5581 8.83788C17.6159 8.83067 17.6742 8.84659 17.7202 8.88217C17.7663 8.91775 17.7965 8.97011 17.8041 9.02784C17.8117 9.08556 17.7963 9.14396 17.761 9.1903C17.7258 9.23665 17.6736 9.26718 17.616 9.27524C17.4762 9.29514 17.3378 9.32333 17.2014 9.35965C17.1823 9.36496 17.1626 9.36766 17.1427 9.36766Z" fill="#C45D49"/>
<path d="M14.151 7.31235C14.0936 7.31241 14.0378 7.29317 13.9927 7.25772L13.8057 7.11162C13.752 7.06956 13.7172 7.0079 13.7089 6.94019C13.7007 6.87249 13.7196 6.80427 13.7616 6.75053C13.8036 6.6968 13.8653 6.66193 13.933 6.6536C14.0006 6.64527 14.0689 6.66415 14.1227 6.7061L14.3097 6.85228C14.3519 6.88529 14.3827 6.93065 14.3979 6.98203C14.4131 7.03341 14.4119 7.08826 14.3944 7.13891C14.3769 7.18956 14.3441 7.2335 14.3004 7.26459C14.2568 7.29568 14.2046 7.31238 14.151 7.31235Z" fill="#934644"/>
<path d="M15.0708 6.83987C15.0261 6.8399 14.9822 6.82829 14.9434 6.80618C14.9045 6.78407 14.8721 6.75222 14.8493 6.71377L14.6678 6.40781C14.6503 6.37873 14.6387 6.34647 14.6337 6.31289C14.6287 6.2793 14.6304 6.24506 14.6386 6.21213C14.6469 6.1792 14.6616 6.14824 14.682 6.12102C14.7023 6.09381 14.7278 6.07088 14.757 6.05356C14.7862 6.03625 14.8185 6.02488 14.8521 6.02012C14.8858 6.01536 14.92 6.0173 14.9528 6.02583C14.9857 6.03436 15.0166 6.0493 15.0436 6.06981C15.0707 6.09032 15.0934 6.11598 15.1105 6.14531L15.292 6.45127C15.3152 6.49033 15.3276 6.53482 15.328 6.58023C15.3284 6.62564 15.3168 6.67035 15.2943 6.70982C15.2718 6.74928 15.2393 6.7821 15.2001 6.80495C15.1608 6.82779 15.1162 6.83984 15.0708 6.83987Z" fill="#934644"/>
<path d="M16.0041 6.625C15.9383 6.62493 15.8751 6.59971 15.8274 6.55451C15.7796 6.5093 15.751 6.44755 15.7474 6.38191L15.7289 6.05103C15.727 6.01728 15.7318 5.98348 15.7429 5.95157C15.7541 5.91966 15.7714 5.89026 15.794 5.86504C15.8394 5.81413 15.9033 5.78336 15.9715 5.77952C16.0396 5.77568 16.1065 5.79907 16.1574 5.84456C16.2084 5.89004 16.2391 5.95389 16.243 6.02206L16.2613 6.35294C16.2651 6.42109 16.2417 6.48795 16.1962 6.53882C16.1507 6.58969 16.0868 6.6204 16.0187 6.62419C16.0138 6.62473 16.0089 6.625 16.0041 6.625Z" fill="#934644"/>
<path d="M17 6.71565C16.9887 6.71564 16.9774 6.71491 16.9661 6.71345C16.9326 6.70906 16.9003 6.69811 16.871 6.68123C16.8417 6.66434 16.816 6.64186 16.7955 6.61505C16.7749 6.58824 16.7598 6.55764 16.751 6.52499C16.7422 6.49234 16.74 6.45829 16.7444 6.42477L16.7683 6.24308C16.7771 6.1754 16.8125 6.11402 16.8667 6.07243C16.9208 6.03085 16.9892 6.01248 17.0569 6.02135C17.1246 6.03022 17.186 6.06562 17.2276 6.11975C17.2691 6.17388 17.2875 6.24231 17.2786 6.30999L17.2548 6.49168C17.2467 6.55357 17.2164 6.61041 17.1695 6.65161C17.1226 6.69281 17.0624 6.71557 17 6.71565Z" fill="#934644"/>
<path d="M15.2162 9.94163C15.0503 10.1093 14.6512 10.5207 14.3173 10.9278C14.3002 10.9489 14.2916 10.9755 14.2932 11.0026C14.2948 11.0297 14.3065 11.0552 14.326 11.0741L14.6374 11.3774C14.6481 11.3878 14.6609 11.3959 14.6749 11.4012C14.6889 11.4065 14.7038 11.4088 14.7187 11.408C14.7336 11.4073 14.7482 11.4034 14.7616 11.3968C14.775 11.3901 14.7869 11.3807 14.7965 11.3693L15.6406 10.361C15.6578 10.3404 15.6668 10.3142 15.6658 10.2874C15.6649 10.2606 15.6541 10.2351 15.6354 10.2158L15.3713 9.94266C15.3613 9.93226 15.3493 9.92396 15.336 9.91826C15.3227 9.91257 15.3084 9.90958 15.294 9.90949C15.2795 9.90939 15.2652 9.91219 15.2518 9.91771C15.2385 9.92323 15.2263 9.93136 15.2162 9.94163Z" fill="white"/>
<path d="M18.1552 9.78397C18.2746 9.91632 18.5155 10.1895 18.782 10.5187C18.7981 10.5387 18.8068 10.5637 18.8064 10.5894C18.8061 10.6151 18.7968 10.6398 18.7802 10.6594L18.5666 10.911C18.5562 10.9232 18.5433 10.933 18.5287 10.9398C18.5141 10.9465 18.4982 10.9499 18.4821 10.9499C18.4661 10.9498 18.4502 10.9463 18.4357 10.9394C18.4211 10.9326 18.4082 10.9227 18.3979 10.9104L17.7679 10.1579C17.7504 10.137 17.7413 10.1103 17.7423 10.0831C17.7432 10.0559 17.7543 10.03 17.7732 10.0104L17.9944 9.78162C18.0048 9.77071 18.0174 9.76208 18.0313 9.75625C18.0452 9.75043 18.0602 9.74753 18.0753 9.74775C18.0904 9.74797 18.1053 9.7513 18.119 9.75754C18.1328 9.76377 18.1451 9.77277 18.1552 9.78397Z" fill="white"/>
</svg>
