<svg width="37" height="37" viewBox="0 0 37 37" fill="none" xmlns="http://www.w3.org/2000/svg">
<path d="M3.46875 20.8125H11.5625V21.9688H3.46875V20.8125Z" fill="#3CC8B4"/>
<path d="M33.5312 14.1641V13.5859H32.6641V11.5625H32.0859V13.5859H30.3516V11.5625H29.7734V13.5859H28.0391V11.5625H27.4609V13.5859H25.7266V11.5625H25.1484V13.5859H23.4141V11.5625H22.8359V13.5859H21.1016V11.5625H20.5234V13.5859H18.7891V11.5625H18.2109V13.5859H16.4766V11.5625H15.8984V13.5859H14.1641V11.5625H13.5859V13.5859H11.8516V11.5625H11.2734V13.5859H9.53906V11.5625H8.96094V13.5859H7.22656V11.5625H6.64844V13.5859H4.91406V11.5625H4.33594V13.5859H3.46875V14.1641H4.33594V15.8984H3.46875V16.4766H4.33594V18.2109H3.46875V18.7891H4.33594V20.8125H4.91406V18.7891H6.64844V20.8125H7.22656V18.7891H8.96094V20.8125H9.53906V18.7891H11.2734V20.8125H11.5625V19.6562C11.5625 19.0955 11.6677 18.5601 11.8516 18.0624V16.4766H12.8378C13.0402 16.2632 13.2622 16.0701 13.5015 15.8984H11.8516V14.1641H13.5859V15.8354C13.7692 15.7105 13.9635 15.6019 14.1641 15.5042V14.1641H15.8984V15.0457C15.9944 15.0399 16.0898 15.0312 16.1875 15.0312H16.4766V14.1641H18.2109V15.0312H18.7891V14.1641H20.5234V15.0312H20.8125C20.9108 15.0312 21.005 15.0474 21.1016 15.0555V14.1641H22.8359V15.6932C23.1377 15.9112 23.4013 16.1748 23.6193 16.4766H25.1484V18.2109H24.9253C25.2444 18.6075 25.4375 19.1093 25.4375 19.6562V20.8125H25.7266V18.7891H27.4609V20.8125H28.0391V18.7891H29.7734V20.8125H30.3516V18.7891H32.0859V20.8125H32.6641V18.7891H33.5312V18.2109H32.6641V16.4766H33.5312V15.8984H32.6641V14.1641H33.5312ZM6.64844 18.2109H4.91406V16.4766H6.64844V18.2109ZM6.64844 15.8984H4.91406V14.1641H6.64844V15.8984ZM8.96094 18.2109H7.22656V16.4766H8.96094V18.2109ZM8.96094 15.8984H7.22656V14.1641H8.96094V15.8984ZM11.2734 18.2109H9.53906V16.4766H11.2734V18.2109ZM11.2734 15.8984H9.53906V14.1641H11.2734V15.8984ZM25.1484 15.8984H23.4141V14.1641H25.1484V15.8984ZM27.4609 18.2109H25.7266V16.4766H27.4609V18.2109ZM27.4609 15.8984H25.7266V14.1641H27.4609V15.8984ZM29.7734 18.2109H28.0391V16.4766H29.7734V18.2109ZM29.7734 15.8984H28.0391V14.1641H29.7734V15.8984ZM32.0859 18.2109H30.3516V16.4766H32.0859V18.2109ZM32.0859 15.8984H30.3516V14.1641H32.0859V15.8984Z" fill="#F0F0F0"/>
<path d="M3.46875 10.4062H33.5312V11.5625H3.46875V10.4062Z" fill="#3CC8B4"/>
<path d="M3.46875 10.4062H5.78125V11.5625H3.46875V10.4062Z" fill="#1EAA96"/>
<path d="M3.46875 20.8125H5.78125V21.9688H3.46875V20.8125Z" fill="#1EAA96"/>
<path d="M18.5 13.875C17.8612 13.875 17.3438 14.3924 17.3438 15.0312H19.6562C19.6562 14.3924 19.1388 13.875 18.5 13.875Z" fill="#64C8F0"/>
<path d="M23.125 34.6875L31.9801 26.9395C32.231 26.7198 32.375 26.4024 32.375 26.0688V25.6728C32.375 24.6796 31.2049 24.1483 30.4574 24.8027L23.7789 30.6464C23.3574 31.0153 22.8163 31.2188 22.2561 31.2188H20.8125L18.5 33.5313L16.1875 31.2188H14.7439C14.1837 31.2188 13.6426 31.0153 13.2211 30.6464L6.54264 24.8027C5.79513 24.1489 4.625 24.6796 4.625 25.6734V26.0694C4.625 26.403 4.76895 26.7198 5.01986 26.9395L13.875 34.6875H23.125Z" fill="#FA6450"/>
<path d="M16.1875 31.2187V28.7079H20.8125V31.2187L18.5 33.7295L16.1875 31.2187Z" fill="#D2AA82"/>
<path d="M24.2812 23.125H23.125V19.6562C23.125 19.0174 22.6076 18.5 21.9688 18.5H15.0312C14.3924 18.5 13.875 19.0174 13.875 19.6562V23.125H12.7188C12.0799 23.125 11.5625 23.6424 11.5625 24.2812V24.7229C11.5625 25.1612 11.8099 25.5612 12.2019 25.7572L13.875 26.5938V26.792C13.875 27.4054 14.1184 27.9934 14.5526 28.427L15.5105 29.3849C15.9441 29.8185 16.5326 30.0625 17.1455 30.0625H19.8545C20.4679 30.0625 21.0559 29.8191 21.4895 29.3849L22.4474 28.427C22.881 27.9934 23.125 27.4049 23.125 26.792V26.5938L24.7981 25.7572C25.1901 25.5612 25.4375 25.1606 25.4375 24.7229V24.2812C25.4375 23.6424 24.9201 23.125 24.2812 23.125Z" fill="#F0C8A0"/>
<path d="M24.2812 24.2812C23.0042 24.2812 21.9688 23.2458 21.9688 21.9688V18.5H23.125C23.7638 18.5 24.2812 19.0174 24.2812 19.6562V24.2812Z" fill="#DC9600"/>
<path d="M20.8125 16.1875H16.1875C14.2716 16.1875 12.7188 17.7403 12.7188 19.6562V21.9688C12.7188 22.6076 13.2362 23.125 13.875 23.125H16.7824C18.6226 23.125 20.387 22.3943 21.6878 21.0929L22.4474 20.3332C22.881 19.8996 23.125 19.3111 23.125 18.6983V18.5C23.125 17.2229 22.0896 16.1875 20.8125 16.1875Z" fill="#FAB400"/>
<path d="M25.4375 20.8125H33.5312V21.9688H25.4375V20.8125Z" fill="#3CC8B4"/>
<path d="M17.3438 24.5703H15.0312C14.8717 24.5703 14.7422 24.4408 14.7422 24.2812C14.7422 24.1217 14.8717 23.9922 15.0312 23.9922H17.3438C17.5033 23.9922 17.6328 24.1217 17.6328 24.2812C17.6328 24.4408 17.5033 24.5703 17.3438 24.5703Z" fill="#BE7800"/>
<path d="M18.5001 28.0391C18.114 28.0391 17.7509 27.8888 17.478 27.6159L17.1392 27.2771C17.0265 27.1644 17.0265 26.9811 17.1392 26.8684C17.252 26.7556 17.4352 26.7556 17.548 26.8684L17.8868 27.2071C18.214 27.5344 18.7857 27.5344 19.113 27.2071L19.4517 26.8684C19.5645 26.7556 19.7477 26.7556 19.8605 26.8684C19.9732 26.9811 19.9732 27.1644 19.8605 27.2771L19.5217 27.6159C19.2494 27.8888 18.8863 28.0391 18.5001 28.0391Z" fill="#BE7800"/>
<path d="M16.7656 25.4375C17.0849 25.4375 17.3438 25.1787 17.3438 24.8594C17.3438 24.5401 17.0849 24.2812 16.7656 24.2812C16.4463 24.2812 16.1875 24.5401 16.1875 24.8594C16.1875 25.1787 16.4463 25.4375 16.7656 25.4375Z" fill="#BE7800"/>
<path d="M21.9688 24.5703H19.6562C19.4967 24.5703 19.3672 24.4408 19.3672 24.2812C19.3672 24.1217 19.4967 23.9922 19.6562 23.9922H21.9688C22.1283 23.9922 22.2578 24.1217 22.2578 24.2812C22.2578 24.4408 22.1283 24.5703 21.9688 24.5703Z" fill="#BE7800"/>
<path d="M20.2344 25.4375C20.5537 25.4375 20.8125 25.1787 20.8125 24.8594C20.8125 24.5401 20.5537 24.2812 20.2344 24.2812C19.9151 24.2812 19.6562 24.5401 19.6562 24.8594C19.6562 25.1787 19.9151 25.4375 20.2344 25.4375Z" fill="#BE7800"/>
<path d="M9.25 27.1719L6.54264 24.8027C5.79513 24.1488 4.625 24.6796 4.625 25.6734V26.0694C4.625 26.4029 4.76895 26.7198 5.01986 26.9394L9.25 30.6406V27.1719Z" fill="#F0C8A0"/>
<path d="M8.09375 26.5938H6.9375V24.8594C6.9375 24.5403 7.1965 24.2812 7.51562 24.2812C7.83475 24.2812 8.09375 24.5403 8.09375 24.8594V26.5938Z" fill="#F0C8A0"/>
<path d="M27.75 27.1719L30.4574 24.8027C31.2049 24.1488 32.375 24.6796 32.375 25.6734V26.0694C32.375 26.4029 32.231 26.7198 31.9801 26.9394L27.75 30.6406V27.1719Z" fill="#F0C8A0"/>
<path d="M28.9062 26.5938H30.0625V24.8594C30.0625 24.5403 29.8035 24.2812 29.4844 24.2812C29.1653 24.2812 28.9062 24.5403 28.9062 24.8594V26.5938Z" fill="#F0C8A0"/>
<path d="M18.5 13.875C21.0543 13.875 23.125 11.2866 23.125 8.09375C23.125 4.90085 21.0543 2.3125 18.5 2.3125C15.9457 2.3125 13.875 4.90085 13.875 8.09375C13.875 11.2866 15.9457 13.875 18.5 13.875Z" fill="#64C8F0"/>
<path d="M16.1875 8.09375C16.1875 5.40084 17.6623 3.14442 19.6562 2.50213C19.2863 2.38245 18.9001 2.3125 18.5 2.3125C15.9458 2.3125 13.875 4.90077 13.875 8.09375C13.875 11.2867 15.9458 13.875 18.5 13.875C18.9001 13.875 19.2863 13.805 19.6562 13.6854C17.6623 13.0431 16.1875 10.7867 16.1875 8.09375Z" fill="#46AAD2"/>
<path d="M33.5312 6.9375H34.6875V30.0625H33.5312V6.9375Z" fill="#008C78"/>
<path d="M2.3125 6.9375H3.46875V30.0625H2.3125V6.9375Z" fill="#008C78"/>
<path d="M5.78125 18.7891V18.2109H4.91406V16.4766H5.78125V15.8984H4.91406V14.1641H5.78125V13.5859H4.91406V11.5625H4.33594V13.5859H3.46875V14.1641H4.33594V15.8984H3.46875V16.4766H4.33594V18.2109H3.46875V18.7891H4.33594V20.8125H4.91406V18.7891H5.78125Z" fill="#D2D2D2"/>
</svg>
