<svg width="194" height="50" viewBox="0 0 194 50" fill="none" xmlns="http://www.w3.org/2000/svg">
<path d="M6.44824 20.2707V33.3514H8.56695H10.6857V20.2707V7.19H8.56695H6.44824V20.2707Z" fill="#005FC4"/>
<path d="M26.4745 13.454C25.5717 13.6935 24.1531 14.412 23.4162 15.02L22.8451 15.5174V14.5778V13.6382H20.8185H18.7919V23.4948V33.3514H20.8185H22.8451V26.9585V20.5839L23.6004 19.6075C24.0057 19.0732 24.7795 18.3547 25.2954 17.9862C27.6352 16.4202 29.8828 16.7334 30.8409 18.7784C31.2093 19.589 31.2278 19.9391 31.283 26.4979L31.3383 33.3514H33.3649H35.3731V26.2952C35.3731 20.6392 35.3178 19.0363 35.0967 18.1889C34.544 16.0701 33.5676 14.7805 31.8173 13.8777C30.9883 13.454 30.6014 13.3803 29.0169 13.3435C28.0036 13.3066 26.8614 13.3619 26.4745 13.454Z" fill="#005FC4"/>
<path d="M50.2965 13.5277C49.2279 13.8409 48.1041 14.412 47.3671 15.02L46.796 15.5174V14.5778V13.6382H44.7694H42.7428V23.4948V33.3514H44.8615H46.9802V26.8295V20.2891L48.0304 19.1653C49.3937 17.6914 50.5728 17.065 52.0835 17.065C53.4285 17.0466 54.018 17.3966 54.7181 18.631L55.1787 19.4417L55.234 26.3873L55.2892 33.3514H57.3158H59.3424L59.2871 25.7425L59.2319 18.152L58.6607 16.9545C57.887 15.3332 57.3527 14.7437 55.9709 14.0067C54.9023 13.4172 54.6628 13.3619 52.9679 13.325C51.8625 13.3066 50.7939 13.3803 50.2965 13.5277Z" fill="#005FC4"/>
<path d="M71.944 13.583C69.1436 14.5963 67.1539 16.6782 66.2143 19.626C65.5879 21.5789 65.4589 23.7528 65.8274 25.89C66.7854 31.3618 70.7833 34.199 76.6236 33.5542C78.2817 33.3515 81.3953 32.5224 81.7638 32.1724C81.9664 31.9513 81.0084 28.5614 80.732 28.5614C80.6031 28.5614 80.253 28.6903 79.9583 28.8377C79.1292 29.2615 76.4762 29.851 75.3339 29.851C73.8601 29.851 72.5151 29.3904 71.6308 28.5982C70.8386 27.8981 70.0095 26.3874 70.0095 25.6505V25.2451H76.4394H82.8876L83.0166 24.195C83.1824 22.8501 82.9981 20.4366 82.6112 19.1654C81.9296 16.844 80.3636 14.9832 78.208 13.9699C77.0289 13.4172 76.7341 13.362 74.8918 13.3067C73.3073 13.2698 72.6625 13.3435 71.944 13.583ZM76.9184 17.5257C78.1159 18.1337 78.8897 19.3312 79.0002 20.7314L79.0739 21.7447H74.5786C72.0914 21.7447 70.028 21.6894 69.9727 21.6341C69.9174 21.5789 69.9727 21.0814 70.1017 20.5103C70.4333 19.0733 71.1886 18.0784 72.4046 17.452C73.2889 16.9914 73.5837 16.9361 74.7075 16.9914C75.6656 17.0282 76.2551 17.1756 76.9184 17.5257Z" fill="#005FC4"/>
<path d="M96.7788 13.5277C95.8208 13.8409 94.5864 14.541 93.9232 15.1858L93.4073 15.6464V14.6515V13.6382H91.3807H89.3541V23.4948V33.3514H91.4544H93.5731L93.6284 27.4006C93.7021 20.5471 93.7574 20.3076 95.3418 18.6863C96.6499 17.3598 97.7184 17.1019 99.8556 17.5993C100.298 17.7098 100.335 17.6546 100.906 15.6464C101.237 14.5041 101.458 13.5277 101.403 13.4724C101.182 13.2329 97.5342 13.2882 96.7788 13.5277Z" fill="#005FC4"/>
<path d="M114.502 13.3803C113.544 13.6198 112.07 14.3199 111.352 14.8542L110.56 15.4622L109.952 14.8542C109.252 14.1541 107.815 13.6382 106.58 13.6382H105.806L105.401 15.149C104.904 17.0466 104.922 17.1387 105.456 17.1387C106.267 17.1387 106.801 17.4703 107.022 18.0783C107.17 18.4836 107.225 22.0946 107.225 29.9615V41.2736H109.252H111.278V36.7414C111.278 33.1856 111.334 32.2276 111.518 32.3013C114.355 33.5541 115.755 33.8489 117.542 33.5357C120.803 32.9645 123.493 30.2747 124.525 26.5347C125.004 24.8582 125.041 22.0394 124.635 20.2891C123.972 17.544 122.038 15.0937 119.624 13.9514C118.519 13.454 118.15 13.3619 116.621 13.325C115.663 13.3066 114.705 13.325 114.502 13.3803ZM117.247 17.1756C117.726 17.3229 118.353 17.7467 118.961 18.3547C120.287 19.6812 120.748 21.1919 120.637 23.8449C120.564 25.374 120.472 25.9083 120.048 26.8111C119.09 28.9298 117.874 29.7588 115.7 29.7588C114.134 29.7588 113.084 29.3719 111.96 28.3771L111.278 27.7875V23.4027V19.0179L112.034 18.3362C112.457 17.9678 113.139 17.5072 113.563 17.3045C114.447 16.8992 116.124 16.8439 117.247 17.1756Z" fill="#005FC4"/>
<path d="M136.426 13.6013C133.534 14.5962 131.397 17.0097 130.512 20.2891C130.07 21.8735 130.07 25.0976 130.494 26.7189C131.802 31.6748 135.689 34.1804 141.106 33.5724C143.427 33.2961 146.522 32.3196 146.394 31.8959C146.338 31.7301 146.117 30.9379 145.896 30.1272C145.675 29.3166 145.472 28.6349 145.454 28.5981C145.417 28.5612 144.643 28.7823 143.741 29.0955C139.006 30.7352 135.229 29.4271 134.584 25.9267L134.455 25.245H140.903H147.352L147.462 24.6739C147.665 23.679 147.573 21.3392 147.296 20.0311C146.615 16.807 144.662 14.4856 141.917 13.6382C140.369 13.1591 137.753 13.1407 136.426 13.6013ZM141.419 17.4703C142.746 18.1519 143.446 19.2573 143.556 20.9155L143.612 21.6524L139.061 21.7077L134.492 21.7445V21.2102C134.492 19.4784 135.855 17.6913 137.587 17.1202C138.435 16.8439 140.59 17.0465 141.419 17.4703Z" fill="#005FC4"/>
<path d="M159.364 13.6196C157.687 14.1539 156.748 14.7435 155.55 15.9594C153.597 17.9492 152.658 20.4364 152.676 23.5868C152.694 26.5714 153.542 28.9112 155.329 30.8457C156.397 32.0063 157.3 32.6143 158.922 33.1855C160.377 33.7197 163.527 33.7566 165.167 33.2776C166.696 32.817 168.023 32.2459 168.023 32.0063C168.023 31.6379 166.825 28.5611 166.696 28.5611C166.604 28.5611 166.144 28.7638 165.665 29.0033C163.767 29.9429 161.464 30.0903 159.99 29.3349C157.024 27.8242 155.918 23.0893 157.742 19.681C158.719 17.8386 160.101 17.0833 162.404 17.0833C163.472 17.0833 164.172 17.1938 164.983 17.4886C165.591 17.7281 166.199 17.9123 166.346 17.9308C166.494 17.9492 166.825 17.3412 167.212 16.2542L167.839 14.5408L167.046 14.1908C164.854 13.2143 161.39 12.9564 159.364 13.6196Z" fill="#005FC4"/>
<path d="M178.487 13.6198C175.558 14.5594 173.31 17.1755 172.518 20.6023C172.113 22.3341 172.242 25.7977 172.795 27.4927C174.213 31.9144 178.1 34.162 183.241 33.5541C185.525 33.2777 188.51 32.3197 188.399 31.8959C188.344 31.7301 188.141 30.9379 187.92 30.1273C187.699 29.3166 187.478 28.635 187.46 28.5981C187.423 28.5613 186.631 28.8008 185.673 29.1324C184.199 29.6483 183.701 29.7404 182.117 29.7404C180.551 29.7588 180.127 29.6851 179.298 29.3166C178.764 29.0771 178.045 28.5429 177.695 28.1375C177.124 27.4743 176.498 26.0925 176.498 25.4845C176.498 25.3003 177.714 25.245 182.927 25.245C188.62 25.245 189.376 25.2082 189.468 24.9503C189.67 24.416 189.578 21.1182 189.32 19.8838C189.044 18.5757 188.362 17.0834 187.589 16.0701C186.87 15.1305 185.212 14.0435 183.904 13.6382C182.375 13.1592 179.961 13.1592 178.487 13.6198ZM183.314 17.415C184.77 18.152 185.82 19.8101 185.673 21.1366L185.617 21.6524H181.104H176.59L176.534 21.1182C176.498 20.805 176.7 20.1417 177.032 19.4416C177.621 18.2625 178.469 17.4887 179.556 17.1387C180.367 16.8807 182.577 17.0281 183.314 17.415Z" fill="#005FC4"/>
<path d="M100.15 39.0258C99.5425 41.5683 99.5425 41.9736 100.132 42.1947C100.685 42.3974 101.145 42.2684 101.145 41.8815C101.145 41.7157 101.035 41.642 100.887 41.6973C100.261 41.9368 100.243 41.3656 100.777 39.2469C101.072 38.0862 101.33 37.1098 101.33 37.0729C101.33 37.0545 101.164 37.0361 100.98 37.0361C100.685 37.0361 100.556 37.3493 100.15 39.0258Z" fill="#005FC4"/>
<path d="M52.3598 37.5336C52.2124 37.8283 51.2175 41.7525 51.2175 42.0657C51.2175 42.1394 51.3649 42.1947 51.5492 42.1947C51.8255 42.1947 51.9729 41.8447 52.3229 40.3892L52.7651 38.6021L53.0415 39.8365C53.3915 41.513 53.7784 41.5315 54.8101 39.9839C55.2154 39.3759 55.6023 38.8785 55.6576 38.8785C55.7313 38.8785 55.6023 39.6338 55.3628 40.555L54.9391 42.2131L55.326 42.1579C55.6576 42.1026 55.7866 41.771 56.3024 39.7444C56.7814 37.8099 56.8367 37.3677 56.6341 37.2756C56.1735 37.0914 55.8603 37.3677 54.8838 38.8232C54.3495 39.597 53.8889 40.1681 53.8521 40.076C53.8153 39.9655 53.6863 39.3022 53.5573 38.6021C53.3731 37.5151 53.281 37.3125 52.9309 37.2572C52.6914 37.2204 52.4703 37.3309 52.3598 37.5336Z" fill="#005FC4"/>
<path d="M76.2182 37.3493C75.8865 37.6625 76.126 37.9573 76.734 37.9573C77.1209 37.9573 77.3788 38.0494 77.3788 38.1784C77.3788 38.3074 77.1762 39.2101 76.9183 40.1681C76.3656 42.2868 76.384 42.1947 76.8077 42.1947C77.1209 42.1947 77.2499 41.8631 77.6736 40.0944L78.1711 37.9757L78.9264 37.9205C79.4607 37.8836 79.7002 37.7731 79.7371 37.5336C79.7923 37.2572 79.6265 37.2204 78.0605 37.2204C77.1209 37.2204 76.2734 37.2756 76.2182 37.3493Z" fill="#005FC4"/>
<path d="M117.634 37.4414C117.598 37.5703 117.321 38.6942 117.026 39.9285C116.547 41.9736 116.529 42.1946 116.805 42.1946C117.026 42.1946 117.174 41.9183 117.34 41.2182C117.911 38.6389 118.15 38.2888 118.371 39.7259C118.427 40.2049 118.537 40.7023 118.592 40.8313C118.795 41.3472 119.348 41.0708 119.937 40.1865C120.509 39.2653 121.043 38.6942 121.043 38.9889C121.043 39.0811 120.877 39.7812 120.674 40.5365C120.232 42.2315 120.232 42.1946 120.638 42.1946C120.895 42.1946 121.08 41.7525 121.559 39.7812C121.89 38.4362 122.111 37.3124 122.075 37.2571C122.019 37.2203 121.798 37.2203 121.559 37.294C121.301 37.3492 120.803 37.9204 120.232 38.7863C119.735 39.5601 119.274 40.1312 119.219 40.0759C119.164 40.0022 118.979 39.3574 118.832 38.6389C118.592 37.4966 118.5 37.3124 118.132 37.2571C117.911 37.2203 117.69 37.3124 117.634 37.4414Z" fill="#005FC4"/>
<path d="M142.377 37.4413C142.23 37.5703 141.843 38.6941 141.53 39.9285C141.014 42.0472 141.014 42.1946 141.327 42.1946C141.567 42.1946 141.733 41.9551 141.898 41.3287C142.138 40.4628 142.156 40.4443 143.059 40.3154C144.22 40.1496 144.994 39.3942 144.994 38.4178C144.994 37.9019 144.901 37.7361 144.441 37.4966C143.796 37.165 142.783 37.1281 142.377 37.4413ZM144.22 38.1782C144.551 38.5099 144.496 38.8415 143.98 39.3389C143.704 39.6337 143.317 39.7995 142.967 39.7995C142.506 39.7995 142.414 39.7258 142.414 39.3574C142.414 39.0994 142.488 38.6941 142.599 38.4362C142.746 38.0493 142.893 37.9572 143.391 37.9572C143.722 37.9572 144.091 38.0493 144.22 38.1782Z" fill="#005FC4"/>
<path d="M59.3791 38.8783C57.9236 39.7627 57.8315 41.9182 59.2501 42.2683C59.9686 42.4525 61.2399 41.7708 61.6083 41.0155C62.4927 39.1363 61.1109 37.8098 59.3791 38.8783ZM60.8161 39.2468C61.6636 39.7074 60.9267 41.6419 59.8949 41.6419C58.8264 41.6419 58.6053 40.4996 59.4896 39.5969C60.0792 39.0073 60.2634 38.9705 60.8161 39.2468Z" fill="#005FC4"/>
<path d="M64.3719 38.7126C64.2982 38.8231 64.0587 39.6706 63.8377 40.5733C63.4139 42.213 63.4139 42.213 63.7824 42.1578C64.0772 42.1209 64.2245 41.863 64.4088 41.126C64.7588 39.7627 64.9799 39.4311 65.6063 39.3021C66.288 39.1732 66.7301 38.5099 66.1406 38.5099C65.9379 38.5099 65.551 38.6389 65.3115 38.8047C64.8878 39.081 64.8509 39.081 64.8509 38.8047C64.8509 38.4731 64.5562 38.4178 64.3719 38.7126Z" fill="#005FC4"/>
<path d="M68.4251 38.8601C67.3566 39.5233 66.896 41.2735 67.6329 41.9368C68.0014 42.2684 69.2174 42.3605 69.6411 42.1026C70.1017 41.8078 69.7701 41.5499 68.9594 41.5499C68.1856 41.5499 68.0751 41.4946 68.0198 41.1446C67.9646 40.7577 68.0382 40.7393 69.2174 40.684L70.4702 40.6287L70.5254 39.8734C70.6175 38.5837 69.6595 38.1047 68.4251 38.8601ZM69.8253 39.3391C70.2306 39.8365 69.899 40.1681 68.9963 40.1681C68.0935 40.1681 67.983 39.9839 68.5357 39.4312C68.9778 38.989 69.5121 38.9522 69.8253 39.3391Z" fill="#005FC4"/>
<path d="M81.2847 38.8232C81.0452 39.3022 80.4557 42.0289 80.5846 42.1394C80.861 42.4158 81.211 41.9368 81.4137 41.034C81.6532 39.947 82.1691 39.2469 82.7218 39.2469C82.9244 39.2469 83.1639 39.0811 83.2745 38.8784C83.4403 38.5652 83.4219 38.51 83.0902 38.51C82.8876 38.51 82.5007 38.6389 82.2612 38.8048C81.8374 39.0811 81.8006 39.0811 81.8006 38.8048C81.8006 38.4179 81.4874 38.4363 81.2847 38.8232Z" fill="#005FC4"/>
<path d="M85.3931 39.081C84.6009 39.7811 84.2324 40.8681 84.5272 41.5498C84.8036 42.1394 85.5221 42.4341 86.1301 42.1946C86.388 42.1025 86.8486 42.0657 87.1802 42.1394C87.7145 42.2499 87.7513 42.2315 87.6408 41.8077C87.5487 41.4393 87.7513 40.3154 88.1751 38.8784C88.2303 38.6389 88.0461 38.5836 87.1434 38.5652C86.1485 38.5283 85.9642 38.5836 85.3931 39.081ZM87.1065 39.2284C87.3092 39.339 87.3092 39.5416 87.1249 40.2786C86.8486 41.4577 86.6459 41.6788 85.9827 41.6051C85.301 41.5314 85.0246 41.1261 85.1905 40.4628C85.4484 39.4679 86.4617 38.8047 87.1065 39.2284Z" fill="#005FC4"/>
<path d="M90.2939 38.6941C90.0728 38.8231 90.0728 39.0995 90.2755 40.5365C90.515 42.1578 90.5334 42.213 90.9572 42.1578C91.5467 42.0841 93.5917 38.9889 93.2601 38.6573C93.1311 38.5283 92.8364 38.8231 92.2284 39.7811C91.7678 40.4996 91.3072 41.0892 91.2151 41.0892C91.123 41.0892 90.994 40.6102 90.9203 40.0206C90.7729 38.7494 90.644 38.4731 90.2939 38.6941Z" fill="#005FC4"/>
<path d="M95.7471 38.8416C95.2128 39.1732 94.5127 40.4076 94.5127 41.034C94.5127 41.2367 94.6601 41.6051 94.8627 41.8446C95.1391 42.1763 95.3786 42.2684 95.9682 42.25C96.8156 42.2131 97.092 42.1026 97.092 41.771C97.092 41.6051 96.8525 41.5683 96.3366 41.6051C95.8208 41.6604 95.526 41.6051 95.4154 41.4393C95.0654 40.8682 95.2496 40.7392 96.5024 40.684L97.7368 40.6287L97.7921 39.8733C97.8842 38.6021 96.9262 38.1047 95.7471 38.8416ZM97.0551 39.2838C97.1841 39.4127 97.2762 39.6522 97.2762 39.8365C97.2762 40.1128 97.1288 40.1681 96.484 40.1681C95.4707 40.1681 95.3233 40.0207 95.8392 39.4864C96.2814 39.0258 96.7235 38.9521 97.0551 39.2838Z" fill="#005FC4"/>
<path d="M124.341 39.2285C123.714 39.8365 123.622 40.0576 123.622 40.7392C123.622 41.6972 123.751 41.9368 124.396 42.1763C125.667 42.6553 127.123 41.4577 127.123 39.8917C127.123 39.0258 126.588 38.51 125.722 38.51C125.188 38.51 124.912 38.6574 124.341 39.2285ZM126.312 39.5233C126.828 40.3155 126.054 41.642 125.078 41.642C124.064 41.642 123.917 40.1681 124.857 39.4312C125.483 38.9337 125.944 38.9706 126.312 39.5233Z" fill="#005FC4"/>
<path d="M129.61 38.7311C129.407 39.2838 128.818 42.1026 128.873 42.1763C129.112 42.4158 129.481 41.9184 129.665 41.0709C129.923 39.9655 130.494 39.2469 131.102 39.2469C131.434 39.2469 131.728 38.9337 131.728 38.5837C131.728 38.3995 131.028 38.5284 130.697 38.7864C130.236 39.1364 130.052 39.1364 130.181 38.7864C130.255 38.6021 130.181 38.51 129.997 38.51C129.831 38.51 129.647 38.6205 129.61 38.7311Z" fill="#005FC4"/>
<path d="M133.608 38.9706C132.926 39.5417 132.613 40.2971 132.686 41.1999C132.76 42.1026 133.35 42.4527 134.418 42.2316C135.432 42.0289 135.45 41.642 134.455 41.642C133.644 41.642 133.202 41.4025 133.202 40.9604C133.202 40.7945 133.534 40.7208 134.4 40.7208C135.524 40.7208 135.616 40.684 135.782 40.2418C136.334 38.8232 134.842 37.9389 133.608 38.9706ZM135.118 39.3391C135.579 39.8181 135.284 40.1681 134.4 40.1681C133.405 40.1681 133.239 39.9471 133.866 39.4496C134.455 38.989 134.731 38.9706 135.118 39.3391Z" fill="#005FC4"/>
<path d="M147.131 38.8969C145.878 39.8917 145.712 41.9736 146.873 42.2499C147.444 42.3973 148.531 42.1578 148.641 41.863C148.678 41.7157 148.457 41.642 147.886 41.642C147.057 41.642 146.504 41.2919 146.744 40.905C146.799 40.8129 147.389 40.7208 148.015 40.7208C149.083 40.7208 149.194 40.6839 149.305 40.297C149.489 39.5969 149.434 39.2653 149.047 38.8784C148.568 38.3994 147.757 38.4178 147.131 38.8969ZM148.586 39.3574C149.047 39.818 148.826 40.076 147.886 40.1312C146.909 40.2049 146.707 39.8549 147.425 39.3574C147.941 38.989 148.218 38.989 148.586 39.3574Z" fill="#005FC4"/>
<path d="M152.105 38.8968C150.778 39.9469 150.705 42.2314 152.013 42.2314C153.376 42.213 154.279 42.0841 154.334 41.8814C154.371 41.7709 154.334 41.6235 154.242 41.5682C154.132 41.4945 154.187 40.9234 154.408 40.1312C154.592 39.3942 154.758 38.731 154.758 38.6757C154.758 38.6204 154.279 38.5652 153.671 38.5467C152.823 38.5283 152.492 38.602 152.105 38.8968ZM153.708 39.9469C153.653 41.0339 153.247 41.6419 152.547 41.6419C151.515 41.6419 151.386 40.4628 152.326 39.5232C152.639 39.21 152.952 39.0626 153.266 39.0994C153.708 39.1547 153.745 39.2284 153.708 39.9469Z" fill="#005FC4"/>
<path d="M157.89 38.7495C156.932 39.2286 156.25 40.9972 156.748 41.771C157.116 42.3606 158.774 42.4158 158.958 41.8631C158.995 41.7157 158.774 41.642 158.277 41.642C157.65 41.642 157.485 41.5683 157.356 41.2183C156.969 40.205 158.074 38.8601 159.032 39.1733C159.253 39.247 159.474 39.1917 159.566 39.0443C159.88 38.5285 158.719 38.3258 157.89 38.7495Z" fill="#005FC4"/>
<path d="M162.054 38.8969C161.095 39.6522 160.709 41.1445 161.28 41.9183C161.648 42.4342 163.601 42.3421 163.601 41.8078C163.601 41.7157 163.233 41.642 162.772 41.642C162.164 41.642 161.906 41.5498 161.777 41.2919C161.501 40.8129 161.685 40.7208 162.975 40.7208C164.006 40.7208 164.117 40.6839 164.227 40.297C164.412 39.5969 164.356 39.2653 163.97 38.8784C163.491 38.3994 162.68 38.4178 162.054 38.8969ZM163.601 39.4311C163.896 39.9838 163.675 40.1681 162.754 40.1681C161.832 40.1681 161.667 39.8365 162.348 39.3574C162.919 38.9521 163.362 38.989 163.601 39.4311Z" fill="#005FC4"/>
</svg>
