<svg width="40" height="40" viewBox="0 0 40 40" fill="none" xmlns="http://www.w3.org/2000/svg">
<path d="M24.1912 17.9806C24.0001 17.8291 23.7754 17.7253 23.533 17.6884C23.7679 17.5021 23.8759 17.1736 23.8144 16.8769C23.821 16.8484 23.8423 16.8214 23.8702 16.8112C24.1435 16.732 24.3607 16.501 24.4282 16.2259C24.4609 16.1134 24.4564 15.958 24.4315 15.8503C24.4294 15.8275 24.4462 15.7999 24.469 15.7918C24.8746 15.6727 25.1428 15.2161 25.0378 14.7988C25.0375 14.7868 25.0486 14.7676 25.0612 14.7649C25.9333 14.4835 25.7935 13.2964 25.027 13.0996C24.9433 12.6247 24.433 12.2524 23.9551 12.3847C23.8315 11.9584 23.3272 11.6818 22.9069 11.7922C22.7803 11.3113 22.192 11.0692 21.7336 11.2465C21.61 11.1334 21.4597 11.0515 21.2944 11.0206C20.7364 10.903 20.1832 11.4058 20.2456 11.9758C20.2594 12.0721 20.2648 12.0997 20.2666 12.1057C20.0017 12.2011 19.7665 12.4279 19.696 12.7114C19.6534 12.8572 19.66 13.0123 19.6873 13.1587C19.2862 13.2913 19.0228 13.7299 19.1086 14.1466C19.1086 14.1661 19.1311 14.2051 19.1137 14.2219C18.709 14.3572 18.4369 14.8195 18.556 15.2401C18.5662 15.3136 18.4666 15.3079 18.4198 15.3427C18.052 15.5254 17.9062 15.9352 17.9968 16.3174C17.9854 16.3456 17.9821 16.3618 17.9404 16.3774C17.8246 16.42 17.719 16.4896 17.6353 16.5796C17.3176 16.9006 17.3713 17.458 17.7127 17.7256L17.7103 17.734C16.9453 17.7427 16.2658 17.7502 15.7972 17.7553L13.2907 17.7682L12.664 17.7712C11.9857 17.6974 11.266 18.2074 11.1925 18.9115C11.1601 19.6432 11.1865 20.6968 11.1736 21.4342C11.1412 22.6795 11.1283 24.0667 11.8456 25.1464C12.3409 26.0044 13.1248 26.6461 14.023 27.0262C13.3381 27.0376 12.7168 27.0478 12.1972 27.0553L11.7541 27.0595C11.5948 27.046 11.3422 27.0742 11.2408 27.247C11.1211 27.3997 11.1775 27.5938 11.1634 27.7579C11.1478 28.5211 11.824 28.9126 12.5158 28.8214C13.8445 28.813 15.1771 28.8229 16.5052 28.8364L23.5975 28.9678C24.2887 28.9948 24.8524 28.333 24.7882 27.661C24.784 27.574 24.8026 27.4672 24.7798 27.382C24.739 27.1633 24.5677 26.9788 24.3529 26.9221C24.2266 26.8819 23.8342 26.9056 23.7223 26.8972C23.3041 26.8972 22.8151 26.8993 22.2778 26.9038C22.6207 26.719 22.939 26.4964 23.224 26.236C24.4333 26.3992 25.7017 26.1847 26.7382 25.5169C27.826 24.8287 28.5553 23.6611 28.7554 22.4311C29.3107 19.5628 26.839 17.8057 24.1915 17.9797L24.1912 17.9806ZM24.7804 22.2475L24.7582 19.741L24.7573 19.6447C25.7686 19.5247 26.9956 19.9465 27.2986 20.998C27.5815 22.0768 26.9455 23.3248 26.0593 23.9065C25.576 24.2419 25.0168 24.3775 24.4438 24.4645C24.7165 23.7835 24.8449 23.0308 24.7801 22.2472L24.7804 22.2475ZM20.2678 12.1057C20.2675 12.0988 20.2678 12.1027 20.2678 12.1057V12.1057ZM18.0742 16.7653C18.2944 16.7083 18.4627 16.4527 18.4237 16.2187C18.3832 16.0705 18.436 15.8977 18.5557 15.8068C18.598 15.7717 18.6547 15.7507 18.706 15.7342C18.9295 15.6511 19.066 15.4105 19.0366 15.1792C18.9919 15.0244 19.0402 14.8402 19.1833 14.7565C19.4554 14.6671 19.6774 14.4562 19.6444 14.1415C19.5904 13.9513 19.6696 13.7413 19.87 13.687C20.1088 13.606 20.2708 13.3552 20.2465 13.1044C20.2372 13.024 20.2123 12.9424 20.2396 12.8623C20.2726 12.73 20.3917 12.6637 20.5111 12.6247C20.6353 12.5665 20.7352 12.463 20.7913 12.3385C20.9239 12.0883 20.7097 11.8609 20.9257 11.6695C21.0643 11.5351 21.3223 11.59 21.3997 11.7628C21.4774 11.9383 21.7183 11.9884 21.8587 11.8558C21.9898 11.7316 22.2202 11.7625 22.3147 11.9119C22.4218 12.2194 22.6894 12.4426 23.0308 12.3679C23.1091 12.3496 23.1883 12.3529 23.2603 12.3946C23.3842 12.4525 23.401 12.5818 23.4646 12.6892C23.617 12.9412 23.9038 12.9937 24.169 12.9349C24.3613 12.9379 24.5032 13.1161 24.4705 13.3051C24.4339 13.4848 24.5935 13.657 24.7762 13.6309C24.9025 13.6153 25.0432 13.6957 25.0969 13.8202C25.1746 13.9813 25.1008 14.1895 24.9343 14.2633C24.8506 14.2924 24.754 14.3419 24.6913 14.41C24.547 14.5525 24.505 14.7796 24.5623 14.9668C24.5902 15.1612 24.4411 15.3163 24.2575 15.3733C24.0535 15.4762 23.9344 15.7177 23.9845 15.943C24.0463 16.1362 23.9416 16.348 23.7547 16.4176C23.5819 16.4767 23.4463 16.6402 23.4262 16.8238C23.41 16.9906 23.503 17.1508 23.4013 17.3059C23.35 17.4163 23.2315 17.4859 23.119 17.5309C23.0554 17.5639 23.002 17.614 22.9615 17.6731C22.765 17.6755 22.5421 17.6782 22.3039 17.6812C22.7899 16.6543 23.3146 15.6469 23.8561 14.6506C24.019 14.4265 24.0667 14.1067 23.7919 13.9381C23.677 13.8685 23.3539 13.7008 23.2369 13.6273C22.7482 13.351 22.2628 13.0687 21.7804 12.7813C21.5134 12.574 21.1687 12.67 21.0358 12.9523C20.6893 13.5154 19.9657 14.7175 19.6117 15.2929C19.3231 15.775 19.0411 16.2607 18.7651 16.75C18.706 16.8475 18.6673 17.0095 18.6922 17.1412C18.7336 17.4664 19.0267 17.5945 19.2886 17.7169C18.8707 17.7217 18.457 17.7265 18.0601 17.731C18.0994 17.6548 18.0706 17.5594 17.9923 17.5204C17.6872 17.3401 17.7436 16.8562 18.0742 16.7653ZM20.2354 17.7061C20.0233 17.5441 19.8055 17.3923 19.5823 17.2501C19.5103 17.2015 19.3393 17.1013 19.2787 17.0593C19.9135 15.919 20.6398 14.4739 21.238 13.306C21.3517 13.1194 21.3568 12.9355 21.5452 12.994C22.2568 13.3597 22.9708 13.7473 23.668 14.1403C23.8249 14.2438 23.7268 14.4013 23.6452 14.533L23.4343 14.8975C22.8892 15.8428 22.3216 16.7752 21.7195 17.6887C21.2578 17.6941 20.7532 17.7001 20.2354 17.7061ZM17.491 26.9659L16.2379 26.9827C15.016 27.0589 13.7983 26.7367 12.8866 25.9027C11.9671 25.105 11.4316 23.9032 11.4256 22.6885L11.4211 21.4354C11.4193 21.0274 11.416 19.9489 11.4142 19.5556C11.326 18.6832 11.7064 17.9719 12.6643 18.0286L13.291 18.0316C14.8972 18.0316 19.1488 18.0814 20.8102 18.1012L23.3128 18.1342C23.8303 18.1423 24.2608 18.6007 24.2422 19.1152L24.2368 19.7419C24.2026 20.5765 24.2803 22.6504 24.1336 23.4451C24.0862 23.719 24.007 23.9833 23.9053 24.2377C23.8756 24.1498 23.836 24.052 23.7889 23.9512C23.7052 23.7712 23.6023 23.5861 23.5096 23.4499C23.4169 23.3134 23.3341 23.2258 23.2909 23.2411C23.2477 23.2498 23.2195 23.2921 23.2282 23.3356C23.284 23.557 23.3623 23.7682 23.4625 23.9686C23.5126 24.0688 23.5681 24.166 23.629 24.2608C23.6803 24.3403 23.7376 24.4168 23.7967 24.4921C23.7307 24.6292 23.6548 24.7612 23.5744 24.8902C23.5456 24.8269 23.5069 24.7546 23.4595 24.6754C23.4142 24.5998 23.3671 24.5194 23.3176 24.4441C23.2384 24.3229 23.1652 24.2137 23.1295 24.1564C23.0455 24.0202 22.945 23.8963 22.8523 23.7784C22.8421 23.7652 22.8316 23.7526 22.8214 23.7397C22.7185 23.6092 22.6219 23.4973 22.5328 23.4319C22.5169 23.4202 22.4971 23.4193 22.4806 23.4271C22.4545 23.4394 22.4386 23.4625 22.4386 23.4862C22.4386 23.5084 22.4428 23.5336 22.4533 23.5585C22.5685 23.8264 22.7104 24.0808 22.8673 24.3259C22.8883 24.3589 22.9099 24.3919 22.9318 24.4246C22.9906 24.5128 23.0521 24.5995 23.116 24.685C23.1598 24.7435 23.2048 24.8011 23.251 24.8584C23.2975 24.916 23.3452 24.9727 23.3938 25.0288C23.4181 25.0459 23.4388 25.0576 23.4583 25.0675C23.3767 25.1851 23.2912 25.2994 23.1985 25.4086C23.1592 25.3393 23.1106 25.2631 23.0563 25.1848C22.9888 25.0876 22.9168 24.9853 22.846 24.8911C22.7182 24.7201 22.6066 24.5725 22.5748 24.5248C22.4575 24.3484 22.312 24.1936 22.1779 24.0355C22.1632 24.0181 22.1482 24.0007 22.1335 23.9833C22.0033 23.8309 21.8752 23.6887 21.7453 23.5744C21.7246 23.5564 21.6949 23.5534 21.6712 23.5672C21.6403 23.5852 21.6268 23.6209 21.6388 23.6506C21.6499 23.6782 21.6631 23.707 21.6796 23.7358C21.8596 24.0478 22.0594 24.3475 22.273 24.6379C22.3018 24.6769 22.3309 24.7159 22.36 24.7546C22.4392 24.859 22.5205 24.9622 22.6039 25.0639C22.6612 25.1338 22.7194 25.2028 22.7785 25.2712C22.8382 25.3402 22.8988 25.4086 22.9603 25.4761C22.9978 25.5091 23.0284 25.5334 23.0596 25.5589C22.9672 25.6576 22.8709 25.7524 22.7698 25.8424C22.7329 25.7899 22.6942 25.7359 22.6522 25.6801C22.3897 25.3306 22.0546 24.9415 22.0189 24.8788C21.8479 24.6778 21.6775 24.4759 21.5026 24.2785C21.3274 24.0808 21.1474 23.8873 20.9563 23.7028C20.9308 23.6782 20.8909 23.6734 20.86 23.6935C20.824 23.7169 20.8138 23.7649 20.8369 23.8012C21.1345 24.2395 21.451 24.6628 21.7867 25.0705C21.9544 25.2742 22.1272 25.4743 22.3045 25.6702C22.4014 25.7773 22.5031 25.8802 22.6027 25.9849C22.4659 26.0953 22.3225 26.1973 22.1734 26.2906C22.1353 26.2333 22.0915 26.1715 22.0429 26.107C21.9145 25.9369 21.7603 25.7536 21.6394 25.6105C21.5686 25.5268 21.5158 25.4608 21.493 25.4326C21.3505 25.258 21.1936 25.0951 21.0433 24.9334C21.0088 24.8965 20.9746 24.8596 20.9401 24.8236C20.8123 24.6904 20.6875 24.5662 20.5696 24.4597C20.5462 24.4387 20.5147 24.4333 20.4907 24.4453C20.4595 24.4606 20.446 24.4918 20.4568 24.5164C20.5654 24.7675 20.8174 25.0987 21.0967 25.4305C21.145 25.4878 21.1936 25.5457 21.2428 25.6027C21.3922 25.7755 21.5461 25.945 21.6991 26.1067C21.7234 26.1325 21.7477 26.158 21.7723 26.1832C21.847 26.26 21.9199 26.3326 21.9889 26.3998C21.8284 26.4895 21.6631 26.5699 21.4921 26.6383C21.4687 26.6041 21.4435 26.5684 21.415 26.5312C21.3145 26.3989 21.1879 26.2537 21.0748 26.1265C21.0217 26.0668 20.9773 26.0155 20.9479 25.9834C20.8216 25.8454 20.6905 25.711 20.5651 25.5856C20.5363 25.5568 20.5078 25.5283 20.4796 25.5007C20.3605 25.3855 20.2516 25.285 20.164 25.2139C20.1427 25.1965 20.1193 25.1902 20.1025 25.1941C20.0758 25.2007 20.0599 25.2157 20.0575 25.2289C20.0314 25.3639 20.2678 25.6738 20.5528 25.9918C20.5948 26.0386 20.6368 26.0857 20.6797 26.1322C20.8105 26.2741 20.9458 26.413 21.0748 26.5405C21.0955 26.5609 21.1156 26.581 21.136 26.6005C21.181 26.6437 21.2236 26.683 21.2641 26.7202C21.0937 26.7772 20.9203 26.8267 20.743 26.8612C20.6845 26.7928 20.6188 26.7208 20.5477 26.6473C20.3875 26.482 20.2066 26.3131 20.0566 26.1826C19.9066 26.0521 19.7878 25.9597 19.7515 25.948C19.4893 25.912 19.726 26.2276 20.0461 26.5579C20.1649 26.6806 20.2921 26.8 20.4127 26.9098C20.2807 26.9239 20.1478 26.9326 20.0137 26.9335C19.7437 26.9371 19.4695 26.941 19.1929 26.9452L17.4904 26.9683L17.491 26.9659ZM24.2032 27.499C24.2053 27.4999 24.2044 27.5503 24.205 27.5515L24.2065 27.6622C24.2632 28.0519 24.0001 28.4254 23.5972 28.4317C21.136 28.4731 15.3418 28.6057 12.9589 28.5808C12.4378 28.5571 11.7661 28.7125 11.5045 28.132C11.4085 27.9631 11.4376 27.7291 11.4328 27.5374C11.4265 27.4273 11.4742 27.3685 11.5627 27.3424C11.5378 27.3328 13.5145 27.3643 15.475 27.397C15.7288 27.4228 15.9838 27.4318 16.2379 27.4177C16.7053 27.424 17.6185 27.4363 18.4651 27.4477C18.9388 27.4558 19.2496 27.4606 19.2898 27.4606C20.23 27.4717 23.3179 27.5122 24.2035 27.4984L24.2032 27.499ZM26.4679 25.072C25.6414 25.546 24.6817 25.6963 23.7232 25.6993C23.8831 25.5007 24.0289 25.291 24.1561 25.0684C24.9325 25.0753 25.7461 24.8383 26.3704 24.3262C27.0469 23.7838 27.4519 22.9804 27.5755 22.1689C27.964 20.3254 26.3968 19.2655 24.7531 19.1587V19.1152C24.7585 18.8788 24.6922 18.6532 24.583 18.4498C26.1562 18.2578 27.9829 19.0261 28.4416 20.6455C28.9135 22.3381 27.9826 24.2464 26.4679 25.0723V25.072Z" fill="black"/>
<path d="M13.9991 18.9459C13.7069 18.9015 13.3835 18.8742 13.088 18.8511C12.6383 18.8277 12.2288 19.206 12.2087 19.6614C12.1877 20.6703 12.2039 21.6957 12.3446 22.7004C12.3635 22.8744 12.6341 22.875 12.6539 22.7004C12.794 21.7026 12.8087 20.6883 12.7925 19.6866C12.7844 19.5234 12.9281 19.3686 13.0946 19.3503L13.394 19.326C13.5956 19.302 13.7975 19.2879 13.9994 19.2549C14.0639 19.2444 14.1176 19.1937 14.1287 19.1256C14.1425 19.0401 14.0846 18.9597 13.9994 18.9459H13.9991Z" fill="black"/>
<path d="M12.7734 12.3909C13.1682 12.1491 12.6885 11.6202 12.4089 11.9883C12.1494 12.3654 12.0054 12.8157 12.0804 13.2408C12.1461 13.6581 12.3978 14.0124 12.7152 14.2689C13.2627 14.7213 13.2147 15.3921 12.8211 15.9102C12.7554 16.0029 12.7506 16.1301 12.8211 16.2282C12.9087 16.3503 13.0785 16.3782 13.2006 16.2909C13.5699 16.0263 13.7487 15.4983 13.6488 15.0444C13.5537 14.5839 13.2324 14.2335 12.8796 14.0325C12.2457 13.7097 12.1131 12.7419 12.7737 12.3912L12.7734 12.3909Z" fill="black"/>
<path d="M14.5702 12.3909C14.965 12.1491 14.4853 11.6202 14.2057 11.9883C13.9462 12.3654 13.8022 12.8157 13.8772 13.2408C13.9429 13.6581 14.1946 14.0124 14.512 14.2689C15.0595 14.7213 15.0115 15.3921 14.6179 15.9102C14.5522 16.0029 14.5474 16.1301 14.6179 16.2282C14.7055 16.3503 14.8753 16.3782 14.9974 16.2909C15.3667 16.0263 15.5455 15.4983 15.4456 15.0444C15.3505 14.5839 15.0292 14.2335 14.6764 14.0325C14.0425 13.7097 13.9099 12.7419 14.5705 12.3912L14.5702 12.3909Z" fill="black"/>
<path d="M16.3749 12.3909C16.7697 12.1491 16.29 11.6202 16.0104 11.9883C15.7509 12.3654 15.6069 12.8157 15.6819 13.2408C15.7476 13.6581 15.9993 14.0124 16.3167 14.2689C16.8642 14.7213 16.8162 15.3921 16.4226 15.9102C16.3569 16.0029 16.3521 16.1301 16.4226 16.2282C16.5102 16.3503 16.68 16.3782 16.8021 16.2909C17.1714 16.0263 17.3502 15.4983 17.2503 15.0444C17.1552 14.5839 16.8339 14.2335 16.4811 14.0325C15.8472 13.7097 15.7146 12.7419 16.3752 12.3912L16.3749 12.3909Z" fill="black"/>
</svg>
