<svg width="30" height="30" viewBox="0 0 30 30" fill="none" xmlns="http://www.w3.org/2000/svg">
<path d="M14.9961 5.00049C9.47322 5.00049 4.99609 9.47761 4.99609 15.0005C4.99609 20.5234 9.47322 25.0005 14.9961 25.0005C20.519 25.0005 24.9961 20.5234 24.9961 15.0005C24.9898 9.48024 20.5163 5.0068 14.9961 5.00049ZM14.9961 24.0005C10.0255 24.0005 5.99609 19.9711 5.99609 15.0005C5.99609 10.0299 10.0255 6.00049 14.9961 6.00049C19.9667 6.00049 23.9961 10.0299 23.9961 15.0005C23.9903 19.9687 19.9643 23.9947 14.9961 24.0005Z" fill="#4B4B4B"/>
<path d="M29.2239 3.09323C28.7653 2.9021 28.2366 3.00723 27.8859 3.35923C26.6631 4.57579 25.9778 6.23085 25.9824 7.95573V14.4982C25.9851 15.1316 26.3853 15.6951 26.9824 15.9062V25.4982C26.9824 26.3267 27.654 26.9982 28.4824 26.9982C29.3109 26.9982 29.9824 26.3267 29.9824 25.4982V4.22773C29.9834 3.7306 29.6837 3.28229 29.2239 3.09323ZM28.9824 25.4982C28.9824 25.7744 28.7586 25.9982 28.4824 25.9982C28.2063 25.9982 27.9824 25.7744 27.9824 25.4982V15.9982H28.9824V25.4982ZM28.9824 14.9982H27.4824C27.2063 14.9982 26.9824 14.7744 26.9824 14.4982V7.95573C26.9787 6.49629 27.5588 5.09598 28.5934 4.06673C28.6338 4.0236 28.6899 3.99885 28.7489 3.99823C28.7809 3.9986 28.8125 4.00523 28.8419 4.01773C28.929 4.0506 28.9854 4.13523 28.9824 4.22823V14.9982Z" fill="#4B4B4B"/>
<path d="M10.9922 11.4993C9.88763 11.4993 8.99219 12.3947 8.99219 13.4993C8.99219 14.6038 9.88763 15.4993 10.9922 15.4993C12.0968 15.4993 12.9922 14.6038 12.9922 13.4993C12.9922 12.3947 12.0968 11.4993 10.9922 11.4993ZM10.9922 14.4993C10.4399 14.4993 9.99219 14.0516 9.99219 13.4993C9.99219 12.947 10.4399 12.4993 10.9922 12.4993C11.5445 12.4993 11.9922 12.947 11.9922 13.4993C11.9922 14.0516 11.5445 14.4993 10.9922 14.4993Z" fill="#4B4B4B"/>
<path d="M15.0411 11.8353L14.1621 10.9563C14.0566 10.8513 13.9975 10.7085 13.9981 10.5598C13.9969 9.69839 13.2989 9.00039 12.4376 8.99927H10.4376C10.0239 9.00033 9.62737 9.16452 9.33405 9.45627L7.45505 11.3353C7.16143 11.6273 6.99687 12.0246 6.99805 12.4388V14.5598C6.99687 14.9739 7.16143 15.3713 7.45505 15.6633L8.33405 16.5423C8.43955 16.6472 8.49862 16.79 8.49805 16.9388C8.49918 17.8001 9.19718 18.4981 10.0586 18.4993H11.0586C11.4722 18.4982 11.8687 18.334 12.1621 18.0423L13.5411 16.6633C13.6466 16.5586 13.789 16.4997 13.9376 16.4993C14.7989 16.4981 15.4969 15.8001 15.4981 14.9388V12.9388C15.4992 12.5246 15.3347 12.1273 15.0411 11.8353ZM14.4981 14.9388C14.4978 15.2482 14.247 15.499 13.9376 15.4993C13.5239 15.5003 13.1274 15.6645 12.8341 15.9563L11.4551 17.3353C11.3496 17.4399 11.2071 17.4988 11.0586 17.4993H10.0586C9.74912 17.499 9.4983 17.2482 9.49805 16.9388C9.49924 16.5246 9.33468 16.1273 9.04105 15.8353L8.16205 14.9563C8.05655 14.8513 7.99749 14.7085 7.99805 14.5598V12.4388C7.99755 12.29 8.05655 12.1472 8.16205 12.0423L10.0411 10.1633C10.1466 10.0586 10.289 9.9997 10.4376 9.99927H12.4376C12.747 9.99952 12.9978 10.2503 12.9981 10.5598C12.9969 10.9739 13.1614 11.3713 13.4551 11.6633L14.3341 12.5423C14.4396 12.6472 14.4986 12.79 14.4981 12.9388V14.9388Z" fill="#4B4B4B"/>
<path d="M19.8358 16.1462L17.8358 14.1462C17.6405 13.9509 17.3239 13.951 17.1287 14.1463C17.035 14.24 16.9823 14.3672 16.9823 14.4997V15.4997C16.9823 15.7758 16.7584 15.9997 16.4823 15.9997C15.6539 15.9997 14.9823 16.6712 14.9823 17.4997C14.9823 17.7758 14.7584 17.9997 14.4823 17.9997C13.6539 17.9997 12.9823 18.6712 12.9823 19.4997C12.9823 19.7758 12.7584 19.9997 12.4823 19.9997H11.4823C11.2062 19.9997 10.9824 20.2236 10.9824 20.4998C10.9824 20.6323 11.0351 20.7594 11.1288 20.8532L13.1288 22.8532C13.2225 22.9469 13.3497 22.9997 13.4823 22.9997H14.4823C15.3107 22.9997 15.9823 22.3281 15.9823 21.4997C15.9823 21.2235 16.2062 20.9997 16.4823 20.9997C17.3107 20.9997 17.9823 20.3281 17.9823 19.4997C17.9823 19.2235 18.2062 18.9997 18.4823 18.9997C19.3107 18.9997 19.9823 18.3281 19.9823 17.4997V16.4997C19.9823 16.367 19.9295 16.2399 19.8358 16.1462ZM18.9823 17.4997C18.9823 17.7758 18.7584 17.9997 18.4823 17.9997C17.6539 17.9997 16.9823 18.6712 16.9823 19.4997C16.9823 19.7758 16.7584 19.9997 16.4823 19.9997C15.6539 19.9997 14.9823 20.6712 14.9823 21.4997C14.9823 21.7758 14.7584 21.9997 14.4823 21.9997H13.6893L12.6768 20.9872C13.4237 20.8895 13.9824 20.253 13.9823 19.4997C13.9823 19.2235 14.2062 18.9997 14.4823 18.9997C15.3107 18.9997 15.9823 18.3281 15.9823 17.4997C15.9823 17.2235 16.2062 16.9997 16.4823 16.9997C17.2356 16.9997 17.8721 16.4411 17.9698 15.6942L18.9823 16.7067V17.4997Z" fill="#4B4B4B"/>
<path d="M22.4374 12.2334L22.3514 12.1479L19.8514 9.64785L17.7654 7.56235C17.0177 6.81498 15.8058 6.81516 15.0584 7.56285C14.311 8.31048 14.3113 9.52248 15.0589 10.2699L15.1449 10.3554L17.6449 12.8554L19.7309 14.9409C20.4786 15.6882 21.6905 15.688 22.4379 14.9404C23.1853 14.1927 23.1851 12.9807 22.4374 12.2334ZM15.8269 8.21335C15.9906 8.07691 16.1969 8.00191 16.4099 8.00135H16.4119C16.6542 8.0021 16.8864 8.09823 17.0584 8.26885L18.2909 9.50135H15.7099C15.3865 9.11335 15.4389 8.53673 15.8269 8.21335ZM16.7049 10.5014H19.2909L20.7909 12.0014H18.2049L16.7049 10.5014ZM21.6689 14.2894C21.5052 14.4258 21.299 14.5008 21.0859 14.5014H21.0839C20.8415 14.5005 20.6093 14.4043 20.4374 14.2334L19.2049 13.0014H21.7859C22.1093 13.3894 22.0569 13.966 21.6689 14.2894Z" fill="#4B4B4B"/>
<path d="M4 2.99902V6.99902H3V2.99902H2V6.99902H1V2.99902H0V9.49902C0.0024375 10.2817 0.372813 11.0177 1 11.486V25.499C1 26.3275 1.67156 26.999 2.5 26.999C3.32844 26.999 4 26.3275 4 25.499V11.486C4.62719 11.0177 4.99756 10.2817 5 9.49902V2.99902H4ZM3 25.499C3 25.7752 2.77612 25.999 2.5 25.999C2.22388 25.999 2 25.7752 2 25.499V11.999H3V25.499ZM4 9.49902C4 10.3275 3.32844 10.999 2.5 10.999C1.67156 10.999 1 10.3275 1 9.49902V7.99902H4V9.49902Z" fill="#4B4B4B"/>
</svg>
