<svg width="30" height="30" viewBox="0 0 30 30" fill="none" xmlns="http://www.w3.org/2000/svg">
<g clip-path="url(#clip0_791_33946)">
<path d="M23.0469 12.1094H22.2656C22.0234 12.1097 21.7872 12.1849 21.5894 12.3248C21.3916 12.4647 21.2419 12.6623 21.1609 12.8906H20.2088C20.2779 12.5038 20.3126 12.1117 20.3125 11.7188V11.3281C20.6233 11.3281 20.9214 11.2047 21.1411 10.9849C21.3609 10.7651 21.4844 10.4671 21.4844 10.1562C21.4844 9.84545 21.3609 9.54738 21.1411 9.32761C20.9214 9.10784 20.6233 8.98438 20.3125 8.98438H19.9219C19.9219 8.88077 19.8807 8.78142 19.8075 8.70816C19.7342 8.6349 19.6348 8.59375 19.5312 8.59375C19.4277 8.59375 19.3283 8.6349 19.255 8.70816C19.1818 8.78142 19.1406 8.88077 19.1406 8.98438H18.3594C18.3594 8.88077 18.3182 8.78142 18.245 8.70816C18.1717 8.6349 18.0723 8.59375 17.9688 8.59375C17.8652 8.59375 17.7658 8.6349 17.6925 8.70816C17.6193 8.78142 17.5781 8.88077 17.5781 8.98438H16.7969C16.7969 8.88077 16.7557 8.78142 16.6825 8.70816C16.6092 8.6349 16.5099 8.59375 16.4062 8.59375C16.3026 8.59375 16.2033 8.6349 16.13 8.70816C16.0568 8.78142 16.0156 8.88077 16.0156 8.98438H15.2344C15.2344 8.88077 15.1932 8.78142 15.12 8.70816C15.0467 8.6349 14.9474 8.59375 14.8438 8.59375C14.7401 8.59375 14.6408 8.6349 14.5675 8.70816C14.4943 8.78142 14.4531 8.88077 14.4531 8.98438H13.6719C13.6719 8.88077 13.6307 8.78142 13.5575 8.70816C13.4842 8.6349 13.3849 8.59375 13.2812 8.59375C13.1776 8.59375 13.0783 8.6349 13.005 8.70816C12.9318 8.78142 12.8906 8.88077 12.8906 8.98438H12.1094C12.1094 8.88077 12.0682 8.78142 11.995 8.70816C11.9217 8.6349 11.8224 8.59375 11.7188 8.59375C11.6151 8.59375 11.5158 8.6349 11.4425 8.70816C11.3693 8.78142 11.3281 8.88077 11.3281 8.98438H10.5469C10.5469 8.88077 10.5057 8.78142 10.4325 8.70816C10.3592 8.6349 10.2599 8.59375 10.1562 8.59375C10.0526 8.59375 9.95329 8.6349 9.88004 8.70816C9.80678 8.78142 9.76562 8.88077 9.76562 8.98438H8.98438C8.98438 8.88077 8.94322 8.78142 8.86996 8.70816C8.79671 8.6349 8.69735 8.59375 8.59375 8.59375C8.49015 8.59375 8.39079 8.6349 8.31754 8.70816C8.24428 8.78142 8.20312 8.88077 8.20312 8.98438H7.42188C7.42188 8.88077 7.38072 8.78142 7.30746 8.70816C7.23421 8.6349 7.13485 8.59375 7.03125 8.59375C6.92765 8.59375 6.82829 8.6349 6.75504 8.70816C6.68178 8.78142 6.64062 8.88077 6.64062 8.98438H5.85938C5.85938 8.88077 5.81822 8.78142 5.74496 8.70816C5.67171 8.6349 5.57235 8.59375 5.46875 8.59375C5.36515 8.59375 5.26579 8.6349 5.19254 8.70816C5.11928 8.78142 5.07812 8.88077 5.07812 8.98438H4.6875C4.3767 8.98438 4.07863 9.10784 3.85886 9.32761C3.63909 9.54738 3.51562 9.84545 3.51562 10.1562C3.51562 10.4671 3.63909 10.7651 3.85886 10.9849C4.07863 11.2047 4.3767 11.3281 4.6875 11.3281V11.7188C4.68736 12.1117 4.72202 12.5038 4.79106 12.8906H3.83892C3.75792 12.6623 3.60828 12.4647 3.41053 12.3248C3.21278 12.185 2.97659 12.1097 2.73438 12.1094H1.95312C1.64232 12.1094 1.34425 12.2328 1.12448 12.4526C0.904715 12.6724 0.78125 12.9704 0.78125 13.2812C0.78125 13.5921 0.904715 13.8901 1.12448 14.1099C1.34425 14.3297 1.64232 14.4531 1.95312 14.4531H2.73438C2.97662 14.4528 3.21284 14.3776 3.41062 14.2377C3.6084 14.0978 3.75806 13.9002 3.83906 13.6719H4.98076C5.38814 14.9864 6.19251 16.1426 7.2834 16.9816L3.94751 23.6534C3.92409 23.6993 3.91 23.7495 3.90604 23.8009C3.90208 23.8523 3.90834 23.9039 3.92445 23.9529C3.94056 24.0019 3.9662 24.0472 3.9999 24.0862C4.0336 24.1252 4.07469 24.1572 4.1208 24.1802C4.16691 24.2033 4.21713 24.217 4.26856 24.2205C4.31999 24.2241 4.37162 24.2174 4.42046 24.201C4.46931 24.1845 4.51441 24.1585 4.55316 24.1245C4.59191 24.0905 4.62354 24.0491 4.64624 24.0028L5.90547 21.4844H12.1094V23.8281C12.1094 23.9317 12.1505 24.0311 12.2238 24.1043C12.297 24.1776 12.3964 24.2188 12.5 24.2188C12.6036 24.2188 12.703 24.1776 12.7762 24.1043C12.8495 24.0311 12.8906 23.9317 12.8906 23.8281V21.4844H19.0945L20.3538 24.0028C20.3765 24.0491 20.4081 24.0905 20.4468 24.1245C20.4856 24.1585 20.5307 24.1845 20.5795 24.201C20.6284 24.2174 20.68 24.2241 20.7314 24.2205C20.7829 24.217 20.8331 24.2033 20.8792 24.1802C20.9253 24.1572 20.9664 24.1252 21.0001 24.0862C21.0338 24.0472 21.0594 24.0019 21.0756 23.9529C21.0917 23.9039 21.0979 23.8523 21.094 23.8009C21.09 23.7495 21.0759 23.6993 21.0525 23.6534L17.7166 16.9816C18.8075 16.1426 19.6119 14.9864 20.0192 13.6719H21.1609C21.2419 13.9002 21.3916 14.0978 21.5894 14.2377C21.7872 14.3776 22.0234 14.4528 22.2656 14.4531H23.0469C23.3577 14.4531 23.6557 14.3297 23.8755 14.1099C24.0953 13.8901 24.2188 13.5921 24.2188 13.2812C24.2188 12.9704 24.0953 12.6724 23.8755 12.4526C23.6557 12.2328 23.3577 12.1094 23.0469 12.1094ZM2.73438 13.6719H1.95312C1.84952 13.6719 1.75017 13.6307 1.67691 13.5575C1.60366 13.4842 1.5625 13.3849 1.5625 13.2812C1.5625 13.1776 1.60366 13.0783 1.67691 13.005C1.75017 12.9318 1.84952 12.8906 1.95312 12.8906H2.73438C2.83798 12.8906 2.93733 12.9318 3.01059 13.005C3.08384 13.0783 3.125 13.1776 3.125 13.2812C3.125 13.3849 3.08384 13.4842 3.01059 13.5575C2.93733 13.6307 2.83798 13.6719 2.73438 13.6719ZM4.29688 10.1562C4.29699 10.0527 4.33818 9.9534 4.41142 9.88016C4.48465 9.80693 4.58394 9.76574 4.6875 9.76562H20.3125C20.4161 9.76562 20.5155 9.80678 20.5887 9.88004C20.662 9.95329 20.7031 10.0526 20.7031 10.1562C20.7031 10.2599 20.662 10.3592 20.5887 10.4325C20.5155 10.5057 20.4161 10.5469 20.3125 10.5469H4.6875C4.58394 10.5468 4.48465 10.5056 4.41142 10.4323C4.33818 10.3591 4.29699 10.2598 4.29688 10.1562ZM6.29609 20.7031L7.9352 17.425C8.96075 18.0378 10.1334 18.3607 11.3281 18.3594H12.1094V20.7031H6.29609ZM18.7039 20.7031H12.8906V18.3594H13.6719C14.8666 18.3607 16.0392 18.0378 17.0648 17.425L18.7039 20.7031ZM17.3599 16.2682L17.1462 15.8409C17.0994 15.7491 17.0182 15.6795 16.9203 15.6473C16.8224 15.6151 16.7157 15.6229 16.6235 15.669C16.5313 15.7151 16.4611 15.7957 16.4281 15.8934C16.3952 15.9911 16.4021 16.0978 16.4475 16.1903L16.7146 16.7245C15.7984 17.284 14.7454 17.5794 13.6719 17.5781H12.8906V16.0156C12.8906 15.912 12.8495 15.8127 12.7762 15.7394C12.703 15.6662 12.6036 15.625 12.5 15.625C12.3964 15.625 12.297 15.6662 12.2238 15.7394C12.1505 15.8127 12.1094 15.912 12.1094 16.0156V17.5781H11.3281C10.2546 17.5794 9.20162 17.284 8.28545 16.7245L8.55249 16.1903C8.59787 16.0978 8.60483 15.9911 8.57186 15.8934C8.53889 15.7957 8.46866 15.7151 8.37648 15.669C8.28429 15.6229 8.17761 15.6151 8.0797 15.6473C7.98179 15.6795 7.90058 15.7491 7.85376 15.8409L7.64009 16.2682C6.96192 15.7197 6.41498 15.0265 6.03929 14.2393C5.6636 13.4522 5.46866 12.591 5.46875 11.7188V11.3281H19.5312V11.7188C19.5313 12.591 19.3364 13.4522 18.9607 14.2393C18.585 15.0265 18.0381 15.7197 17.3599 16.2682ZM23.0469 13.6719H22.2656C22.162 13.6719 22.0627 13.6307 21.9894 13.5575C21.9162 13.4842 21.875 13.3849 21.875 13.2812C21.875 13.1776 21.9162 13.0783 21.9894 13.005C22.0627 12.9318 22.162 12.8906 22.2656 12.8906H23.0469C23.1505 12.8906 23.2498 12.9318 23.3231 13.005C23.3963 13.0783 23.4375 13.1776 23.4375 13.2812C23.4375 13.3849 23.3963 13.4842 23.3231 13.5575C23.2498 13.6307 23.1505 13.6719 23.0469 13.6719Z" fill="black"/>
<path d="M12.1875 1.40625C12.1875 1.28193 12.1381 1.1627 12.0502 1.07479C11.9623 0.986886 11.8431 0.9375 11.7188 0.9375C11.5944 0.9375 11.4752 0.986886 11.3873 1.07479C11.2994 1.1627 11.25 1.28193 11.25 1.40625C11.25 2.18748 10.9811 2.54607 10.6406 3C10.2671 3.49805 9.84375 4.06248 9.84375 5.15625C9.84375 6.25002 10.2671 6.81445 10.6406 7.3125C10.9811 7.76643 11.25 8.12502 11.25 8.90625C11.25 9.03057 11.2994 9.1498 11.3873 9.23771C11.4752 9.32561 11.5944 9.375 11.7188 9.375C11.8431 9.375 11.9623 9.32561 12.0502 9.23771C12.1381 9.1498 12.1875 9.03057 12.1875 8.90625C12.1875 7.81248 11.7642 7.24805 11.3906 6.75C11.0501 6.29607 10.7812 5.93748 10.7812 5.15625C10.7812 4.37502 11.0501 4.01643 11.3906 3.5625C11.7642 3.06445 12.1875 2.50002 12.1875 1.40625Z" fill="black"/>
<path d="M15.9375 1.40625C15.9375 1.28193 15.8881 1.1627 15.8002 1.07479C15.7123 0.986886 15.5931 0.9375 15.4688 0.9375C15.3444 0.9375 15.2252 0.986886 15.1373 1.07479C15.0494 1.1627 15 1.28193 15 1.40625C15 2.18748 14.7311 2.54607 14.3906 3C14.0171 3.49805 13.5938 4.06248 13.5938 5.15625C13.5938 6.25002 14.0171 6.81445 14.3906 7.3125C14.7311 7.76643 15 8.12502 15 8.90625C15 9.03057 15.0494 9.1498 15.1373 9.23771C15.2252 9.32561 15.3444 9.375 15.4688 9.375C15.5931 9.375 15.7123 9.32561 15.8002 9.23771C15.8881 9.1498 15.9375 9.03057 15.9375 8.90625C15.9375 7.81248 15.5142 7.24805 15.1406 6.75C14.8001 6.29607 14.5312 5.93748 14.5312 5.15625C14.5312 4.37502 14.8001 4.01643 15.1406 3.5625C15.5142 3.06445 15.9375 2.50002 15.9375 1.40625Z" fill="black"/>
<path d="M19.6875 1.40625C19.6875 1.28193 19.6381 1.1627 19.5502 1.07479C19.4623 0.986886 19.3431 0.9375 19.2188 0.9375C19.0944 0.9375 18.9752 0.986886 18.8873 1.07479C18.7994 1.1627 18.75 1.28193 18.75 1.40625C18.75 2.18748 18.4811 2.54607 18.1406 3C17.7671 3.49805 17.3438 4.06248 17.3438 5.15625C17.3438 6.25002 17.7671 6.81445 18.1406 7.3125C18.4811 7.76643 18.75 8.12502 18.75 8.90625C18.75 9.03057 18.7994 9.1498 18.8873 9.23771C18.9752 9.32561 19.0944 9.375 19.2188 9.375C19.3431 9.375 19.4623 9.32561 19.5502 9.23771C19.6381 9.1498 19.6875 9.03057 19.6875 8.90625C19.6875 7.81248 19.2641 7.24805 18.8906 6.75C18.5502 6.29607 18.2812 5.93748 18.2812 5.15625C18.2812 4.37502 18.5502 4.01643 18.8906 3.5625C19.2641 3.06445 19.6875 2.50002 19.6875 1.40625Z" fill="black"/>
</g>
<defs>
<clipPath id="clip0_791_33946">
<rect width="30" height="30" fill="white"/>
</clipPath>
</defs>
</svg>
