<svg width="30" height="31" viewBox="0 0 30 31" fill="none" xmlns="http://www.w3.org/2000/svg">
<path d="M10.4551 15.2676C9.66095 17.1206 9.39624 20.2529 9.52859 22.2823C9.52859 22.4588 9.70506 22.5912 9.83742 22.5912C14.7345 22.5912 19.5433 21.8412 24.308 21.3559C24.3962 21.3559 24.4845 21.2676 24.5727 21.2235C24.7051 21.0471 24.5727 20.8706 24.5286 20.7382C23.2492 17.2529 22.6757 16.5029 22.5874 16.3265C21.7933 14.8706 20.9551 13.4147 19.808 12.3118C16.3227 9.04705 12.3521 10.7676 10.4551 15.2676ZM10.1904 21.9294C10.1462 20.65 10.2345 18.9294 10.5433 17.4735L18.5286 16.7235C18.6168 16.7235 18.6609 16.7235 18.7492 16.7676C20.3815 17.8706 22.058 19.4147 23.558 20.8265C19.058 21.2676 14.6462 21.8853 10.1904 21.9294ZM22.1021 16.7676C22.6757 17.8265 23.1168 18.7971 23.5139 19.8559C22.1021 18.5765 20.6021 17.2529 19.1021 16.1941L19.058 16.15L19.1021 12.5323C20.4257 13.6353 21.2639 15.2235 22.1021 16.7676ZM18.4845 12.0912L18.3962 16.0618L10.6757 16.8118C10.808 16.3706 10.9404 15.9294 11.0727 15.5765C11.8227 13.7235 13.4109 11.65 15.4845 11.3412C16.5433 11.1647 17.6021 11.5176 18.4845 12.0912Z" fill="black"/>
<path d="M20.9999 4.7676L20.647 6.04701C20.6029 6.22348 20.6911 6.39995 20.8676 6.44407C21.044 6.48819 21.2205 6.39995 21.2646 6.22348L21.6176 4.94407C21.6617 4.7676 21.5735 4.59113 21.397 4.54701C21.2205 4.50289 21.044 4.59113 20.9999 4.7676Z" fill="black"/>
<path d="M23.6462 4.98818C23.5139 4.85583 23.2933 4.85583 23.1609 4.98818C22.7197 5.47347 22.3227 6.00289 22.058 6.57642C21.9697 6.75289 22.058 6.92936 22.1903 7.01759C22.3668 7.10583 22.5433 7.01759 22.6315 6.88524C22.8962 6.35583 23.2492 5.87053 23.6462 5.47348C23.8227 5.34112 23.7786 5.12053 23.6462 4.98818Z" fill="black"/>
<path d="M23.3382 8.38529C23.7794 8.29705 24.1765 8.12058 24.5735 7.9C24.75 7.81176 24.7941 7.59117 24.7059 7.45882C24.6176 7.28235 24.3971 7.23823 24.2647 7.32647C23.9559 7.50294 23.5588 7.63529 23.2059 7.72352C23.0294 7.76764 22.8971 7.94411 22.9412 8.12058C22.9853 8.34117 23.1618 8.42941 23.3382 8.38529Z" fill="black"/>
<path d="M0.7937 19.4146C0.97017 19.4587 1.14664 19.3705 1.19076 19.194C1.19076 19.1499 1.23488 19.1058 1.23488 19.1058C1.36723 19.547 1.10252 18.5764 2.47017 22.7675C2.82311 23.8264 3.08782 24.9293 3.57311 25.9881C3.52899 26.1205 3.48488 26.297 3.48488 26.4734C3.44076 26.6499 3.57311 26.8264 3.74958 26.8705H3.83782C3.97017 26.8705 4.14664 26.7822 4.14664 26.6058C4.14664 26.5175 4.19076 26.4293 4.23488 26.3411C12.4408 25.5028 20.6908 24.7087 28.8966 23.8705C28.9849 24.047 29.1614 24.0911 29.2937 24.047C29.4702 24.0028 29.5584 23.7822 29.4702 23.6058C27.5731 18.6646 25.0143 14.1205 21.8819 10.1499C20.1613 7.94401 17.9996 5.73813 15.2202 5.6499C15.1761 5.6499 15.1319 5.60578 15.0878 5.60578C13.3231 5.42931 11.2496 6.09107 9.57311 6.97342C5.73488 8.78225 3.30841 12.3558 1.63194 16.2822C1.32311 16.944 1.01429 17.6058 0.705465 18.2675C0.573112 18.4881 0.484876 19.0617 0.617229 19.2822C0.661347 19.3705 0.749582 19.4146 0.7937 19.4146ZM1.76429 17.9587C1.76429 17.9146 1.72017 17.9146 1.72017 17.8705C3.17605 14.1205 5.51429 10.8558 8.42605 8.51754C9.0437 8.03225 9.74958 7.63519 10.4996 7.28225C10.5878 7.45872 10.7643 7.76754 10.9849 8.03225C10.5878 8.56166 10.2349 9.13519 9.92605 9.70872C7.32311 14.2087 5.38194 19.1058 4.05841 24.2675C3.17605 21.6205 2.11723 18.8411 1.76429 17.9587ZM11.3378 7.45872C11.2055 7.28225 11.1172 7.10578 11.029 6.97342C11.4261 6.79695 11.8231 6.6646 12.2202 6.57637C11.9113 6.84107 11.6466 7.1499 11.3378 7.45872ZM21.3525 10.547C24.2202 14.2087 26.6025 18.3558 28.4555 22.8558L13.6761 24.2234C4.19076 25.1058 5.60252 25.4587 4.41135 25.3705C5.73488 19.8999 7.76429 14.694 10.4555 9.97342C10.7643 9.44401 11.0731 8.9146 11.4702 8.38519C13.9849 9.3999 17.2937 8.95872 18.8378 7.85578C19.8084 8.6499 20.6466 9.6646 21.3525 10.547ZM18.2643 7.45872C16.8966 8.34107 14.0731 8.69401 11.8672 7.8999C12.2202 7.50284 12.6172 7.10578 13.0584 6.84107C14.3819 6.04695 16.279 6.04695 18.2643 7.45872Z" fill="black"/>
</svg>
