<svg width="30" height="31" viewBox="0 0 30 31" fill="none" xmlns="http://www.w3.org/2000/svg">
<g clip-path="url(#clip0_791_34121)">
<path d="M16.5676 29.8299H9.15094V18.6805C9.15094 18.4378 8.95418 18.2411 8.71148 18.2411C8.46879 18.2411 8.27203 18.4378 8.27203 18.6805V19.5585L6.34166 22.8061C6.02063 23.3462 6.13166 24.0373 6.60568 24.4492L8.27203 25.8981V28.1024L4.20873 24.5688C3.88365 24.2861 3.8076 23.8121 4.02803 23.4416L5.59242 20.8105C5.71647 20.6018 5.64785 20.3322 5.43926 20.2082C5.23055 20.0842 4.96096 20.1527 4.83691 20.3613L3.27258 22.9923C2.83477 23.7283 2.98594 24.6702 3.63199 25.232L8.27197 29.2671V29.9764C8.27197 30.3802 8.60051 30.7088 9.0044 30.7088H16.5676C16.8104 30.7088 17.0071 30.5121 17.0071 30.2693C17.0071 30.0266 16.8104 29.8299 16.5676 29.8299ZM8.27203 24.7333L7.18225 23.7858C7.0292 23.6528 6.9934 23.4297 7.09717 23.2551L8.27203 21.2786V24.7333Z" fill="black"/>
<path d="M26.5248 18.6926L21.4573 15.7669C21.248 15.6462 21.0042 15.6141 20.771 15.6768C20.5731 15.7299 20.4034 15.8462 20.2828 16.0076C20.0286 15.9477 19.7687 15.9167 19.5059 15.9167H17.6617C17.2991 15.3665 16.8622 15.1935 16.5996 14.9988V14.5089C17.4661 14.1523 18.1345 13.5699 18.4853 12.8221C18.6069 12.563 18.6886 12.2483 18.7432 11.9241H19.4854C20.3441 11.9241 21.0428 11.2254 21.0428 10.3667C21.0428 9.78526 20.7223 9.27755 20.2489 9.01007L20.9271 5.46966C21.1548 4.28349 20.6104 3.06228 19.5727 2.43099C17.6966 1.28876 15.5545 0.709326 13.2057 0.70874C12.6655 0.70874 12.1697 0.981729 11.8797 1.43882L10.4834 3.63737C9.81282 3.62636 9.22272 3.72796 8.687 3.94733C8.16803 4.1605 7.86821 4.71591 7.97415 5.26804L8.69163 9.01013C8.21825 9.27761 7.89774 9.78532 7.89774 10.3667C7.89774 11.2255 8.59641 11.9242 9.45516 11.9242H10.1957C10.2534 12.2648 10.3377 12.572 10.4551 12.8222C10.806 13.57 11.4744 14.1524 12.3409 14.509V14.9989C12.0815 15.1912 11.6416 15.3663 11.2788 15.9167H9.41063C8.21901 15.9167 7.10075 16.553 6.49231 17.5771L5.88411 18.5995C5.76001 18.8081 5.82856 19.0778 6.03715 19.2019C6.10758 19.2438 6.18499 19.2637 6.26139 19.2637C6.41128 19.2637 6.55735 19.187 6.6395 19.0488L7.24782 18.0262C7.69876 17.2672 8.52751 16.7957 9.41063 16.7957H10.9356C10.8663 17.2205 10.9177 17.6688 11.1051 18.0896L11.7472 19.5308C11.8324 19.7224 11.9977 19.8623 12.2007 19.9147C12.4036 19.9669 12.6157 19.9245 12.7829 19.7981L14.2283 18.7049C14.3707 18.5972 14.5696 18.5973 14.7119 18.7048L16.1575 19.7982C16.2777 19.8891 16.4213 19.9365 16.5679 19.9365C16.8316 19.9365 17.08 19.7852 17.1931 19.531L17.8352 18.0896C18.0227 17.6688 18.0741 17.2205 18.0048 16.7957H19.5057C19.6074 16.7957 19.7085 16.802 19.8087 16.8142L15.8416 23.6849C15.7208 23.8941 15.6887 24.1379 15.7513 24.3715C15.8139 24.605 15.9638 24.8001 16.1729 24.9206L19.7893 27.0085V29.8298H18.6186C18.3758 29.8298 18.1791 30.0265 18.1791 30.2693C18.1791 30.512 18.3758 30.7087 18.6186 30.7087H19.9358C20.3397 30.7087 20.6682 30.3802 20.6682 29.9763V27.516L21.2404 27.8463C21.3822 27.9281 21.5372 27.9669 21.6904 27.9669C22.0033 27.9669 22.3083 27.8047 22.4761 27.5148L22.9212 26.7439C23.1454 26.8455 23.3874 26.897 23.6295 26.897C24.0589 26.897 24.4888 26.7367 24.8206 26.4148C25.4974 25.758 25.5137 24.6729 24.8568 23.996L24.638 23.7705L26.8561 19.9284C27.1049 19.4968 26.9565 18.9426 26.5248 18.6926ZM20.1638 10.3667C20.1638 10.7409 19.8594 11.0453 19.4852 11.0453H18.8337C18.8556 10.5994 18.8477 10.1519 18.8178 9.68823H19.4852C19.8594 9.68823 20.1638 9.99257 20.1638 10.3667ZM10.1053 11.0453H9.45516C9.08104 11.0453 8.77665 10.7409 8.77665 10.3667C8.77665 9.99257 9.08104 9.68823 9.45516 9.68823H10.1217C10.0925 10.1378 10.084 10.6021 10.1053 11.0453ZM10.206 8.80933H9.54809L8.83741 5.10251C8.80993 4.95925 8.88715 4.81534 9.02063 4.7605C9.49999 4.56415 10.0473 4.4871 10.6935 4.52478C10.8521 4.53415 11.0046 4.45634 11.09 4.32163L12.6218 1.90979C12.7498 1.70812 12.9681 1.58765 13.2057 1.58765C15.3909 1.58817 17.3793 2.12448 19.1156 3.18181C19.8417 3.62349 20.2228 4.47638 20.0639 5.30419L19.3924 8.80933H18.7344C18.7059 8.58585 18.6725 8.36378 18.6339 8.14599C18.5326 7.5737 18.0785 7.12657 17.5043 7.03317C15.339 6.68103 13.2291 5.76966 12.4873 4.86602C12.3462 4.69417 12.099 4.65474 11.9114 4.77433C11.8204 4.83239 11.7326 4.89696 11.65 4.96687C10.754 5.72841 10.3544 7.64829 10.206 8.80933ZM11.2508 12.4489C10.9003 11.7017 10.9526 10.1265 11.0351 9.29618C11.0353 9.29448 11.0355 9.29284 11.0357 9.29114C11.1377 8.26769 11.4662 6.46657 12.1109 5.74311C13.2776 6.8261 15.5768 7.61003 17.3632 7.90054C17.5693 7.93405 17.7322 8.09431 17.7685 8.29921C17.9641 9.40358 18.0131 10.5687 17.9229 11.4335C17.9224 11.4374 17.922 11.4412 17.9217 11.4452C17.8771 11.8653 17.7996 12.2142 17.6896 12.4488C17.1625 13.5717 15.7062 14.0259 14.4702 14.0259C13.2213 14.0259 11.7742 13.5642 11.2508 12.4489ZM12.4498 18.948L11.908 17.7318C11.6428 17.1365 11.8216 16.4444 12.341 16.0529V16.1417C12.341 16.6249 12.5517 17.0815 12.9186 17.394L13.6634 18.0302L12.4498 18.948ZM14.4703 17.5636L13.4889 16.7253C13.318 16.5797 13.2198 16.3669 13.2198 16.1417V14.7775C13.6133 14.8607 14.0324 14.9047 14.4701 14.9047C14.9079 14.9047 15.3271 14.8607 15.7206 14.7775V16.1416C15.7206 16.3669 15.6226 16.5797 15.4516 16.7256L14.4703 17.5636ZM17.0325 17.7318L16.4906 18.948L15.2773 18.0303L16.0224 17.3941C16.3891 17.081 16.5996 16.6245 16.5996 16.1417V16.0529C17.1124 16.4396 17.301 17.1293 17.0325 17.7318ZM22.7587 17.5331L24.3451 18.449L23.8744 19.2642L22.2881 18.3483L22.7587 17.5331ZM18.7698 20.6405L19.2305 20.1933C19.3284 20.0983 19.4573 20.0466 19.5938 20.0492C19.7302 20.0512 19.8575 20.1063 19.9526 20.2042L20.8169 21.0949L19.6232 22.2533L18.7589 21.3624C18.664 21.2646 18.6128 21.1356 18.6148 20.9993C18.6169 20.8629 18.6719 20.7355 18.7698 20.6405ZM21.7153 27.0749C21.7078 27.0879 21.692 27.092 21.6796 27.085L16.6122 24.1591C16.6096 24.1577 16.6031 24.1539 16.6003 24.1437C16.5976 24.1335 16.6014 24.1271 16.6028 24.1245L17.9631 21.7686C18.0111 21.8415 18.0661 21.9105 18.1282 21.9745L22.2235 26.1947L21.7153 27.0749ZM24.2086 25.7841C23.8794 26.1035 23.3518 26.0955 23.0326 25.7664L20.2354 22.884L21.4291 21.7256L24.2262 24.608C24.5455 24.9371 24.5377 25.4647 24.2086 25.7841ZM26.0949 19.4892L24.0018 23.1148L20.5834 19.5921C20.3249 19.3257 19.9782 19.1759 19.6071 19.1704C19.5576 19.1697 19.5086 19.1717 19.46 19.176L20.9835 16.5375C20.9849 16.535 20.9888 16.5283 20.9988 16.5257C21.0091 16.5228 21.0159 16.5269 21.0182 16.5282L21.9976 17.0937L21.5059 17.9453C21.2752 18.3449 21.4127 18.8577 21.8123 19.0885L23.4713 20.0464C23.6003 20.1208 23.7434 20.1589 23.8884 20.1589C24.174 20.1589 24.4573 20.0125 24.6146 19.74L25.1063 18.8885L26.0849 19.4535C26.0977 19.461 26.1021 19.4768 26.0949 19.4892Z" fill="black"/>
<path d="M13.3469 24.6316C13.6882 24.6316 13.9659 24.3539 13.9659 24.0126V22.3118C13.9659 21.9704 13.6882 21.6927 13.3469 21.6927H10.5594C10.2181 21.6927 9.94043 21.9704 9.94043 22.3118V24.0126C9.94043 24.3539 10.2181 24.6316 10.5594 24.6316H13.3469ZM10.8193 22.5716H13.087V23.7527H10.8193V22.5716Z" fill="black"/>
<path d="M13.2197 9.77637V9.65918C13.2197 9.41643 13.023 9.21973 12.7803 9.21973C12.5376 9.21973 12.3408 9.41643 12.3408 9.65918V9.77637C12.3408 10.0191 12.5376 10.2158 12.7803 10.2158C13.023 10.2158 13.2197 10.0191 13.2197 9.77637Z" fill="black"/>
<path d="M16.1602 10.2158C16.4029 10.2158 16.5996 10.0191 16.5996 9.77637V9.65918C16.5996 9.41643 16.4029 9.21973 16.1602 9.21973C15.9174 9.21973 15.7207 9.41643 15.7207 9.65918V9.77637C15.7207 10.0191 15.9175 10.2158 16.1602 10.2158Z" fill="black"/>
<path d="M13.6028 12.276C13.8861 12.4227 14.2257 12.496 14.5652 12.496C14.9048 12.496 15.2444 12.4226 15.5277 12.276C15.7433 12.1645 15.8275 11.8992 15.716 11.6838C15.6044 11.4681 15.339 11.3838 15.1238 11.4955C14.8055 11.6602 14.3253 11.6603 14.0068 11.4955C13.7913 11.384 13.5261 11.4683 13.4146 11.6838C13.3029 11.8993 13.3872 12.1645 13.6028 12.276Z" fill="black"/>
</g>
<defs>
<clipPath id="clip0_791_34121">
<rect width="30" height="30" fill="white" transform="translate(0 0.70874)"/>
</clipPath>
</defs>
</svg>
