<svg width="43" height="43" viewBox="0 0 43 43" fill="none" xmlns="http://www.w3.org/2000/svg">
<path fill-rule="evenodd" clip-rule="evenodd" d="M5.72976 30.4049L5.42238 18.2943C5.39886 17.2899 6.20091 16.4467 7.20537 16.4206C8.20982 16.3946 9.05554 17.1966 9.07906 18.2036L9.23863 24.4579C9.87187 24.1917 10.6336 24.2958 11.1761 24.7838C12.8096 26.2619 14.4423 27.7426 16.0758 29.2215C17.3851 30.4049 18.0729 31.9065 18.1183 33.6685L18.3039 41.0154L10.5454 41.2086L10.4766 38.4707C10.443 37.1925 9.94578 36.104 8.99843 35.2474L7.20789 33.6265C6.26054 32.769 5.76084 31.6831 5.72976 30.4049Z" fill="#FBBD80"/>
<path fill-rule="evenodd" clip-rule="evenodd" d="M18.2171 37.6972L18.3028 41.0154L10.5443 41.2086L10.4754 38.4707C10.4679 38.2062 10.4418 37.9517 10.3965 37.7065L18.2171 37.6972Z" fill="#E2AA73"/>
<path fill-rule="evenodd" clip-rule="evenodd" d="M19.7417 42.9462L9.03787 42.958C8.77332 42.958 8.55916 42.7438 8.55916 42.4818L8.55664 39.7389C8.55664 39.4769 8.7708 39.2627 9.03283 39.2627L19.7366 39.2509C19.9987 39.2509 20.2154 39.4651 20.2154 39.7271L20.2179 42.4701C20.217 42.7321 20.0029 42.9462 19.7417 42.9462Z" fill="#0593FC"/>
<path fill-rule="evenodd" clip-rule="evenodd" d="M9.23873 24.4579L9.22193 23.8222L9.20009 23.0084C8.58785 23.1537 8.01003 23.477 7.55736 23.9775C6.3673 25.2944 6.46724 27.3411 7.78328 28.532L11.1309 31.5605C11.3786 31.7864 11.7667 31.7654 11.9926 31.5177L12.1093 31.3892C12.3352 31.1389 12.3142 30.7509 12.0665 30.525L8.72138 27.499C7.97392 26.8229 7.91681 25.6614 8.59037 24.914C8.77681 24.7107 8.99853 24.5579 9.23873 24.4579Z" fill="#E2AA73"/>
<path fill-rule="evenodd" clip-rule="evenodd" d="M37.2734 30.4049L37.5782 18.2943C37.6043 17.2899 36.8022 16.4467 35.7978 16.4206C34.7908 16.3946 33.9476 17.1966 33.9215 18.2036L33.7645 24.4579C33.1287 24.1917 32.367 24.2958 31.827 24.7838C30.1935 26.2619 28.5583 27.7426 26.9248 29.2215C25.618 30.4049 24.9277 31.9065 24.8848 33.6685L24.6992 41.0154L32.4577 41.2086L32.5266 38.4707C32.5576 37.1925 33.0573 36.104 34.0047 35.2474L35.7952 33.6265C36.7426 32.769 37.2398 31.6831 37.2734 30.4049Z" fill="#FBBD80"/>
<path fill-rule="evenodd" clip-rule="evenodd" d="M24.7804 37.6972L24.6973 41.0154L32.4557 41.2086L32.5246 38.4707C32.5322 38.2062 32.5582 37.9517 32.6036 37.7065L24.7804 37.6972Z" fill="#E2AA73"/>
<path fill-rule="evenodd" clip-rule="evenodd" d="M23.2613 42.9462L33.9652 42.958C34.2272 42.958 34.4439 42.7438 34.4439 42.4818L34.4464 39.7389C34.4464 39.4769 34.2322 39.2627 33.9702 39.2627L23.2664 39.2509C23.0018 39.2509 22.7877 39.4651 22.7877 39.7271L22.7852 42.4701C22.7852 42.7321 22.9993 42.9462 23.2613 42.9462Z" fill="#0593FC"/>
<path fill-rule="evenodd" clip-rule="evenodd" d="M33.7648 24.4579L33.7816 23.8222L33.8009 23.0084C34.4148 23.1537 34.991 23.477 35.4437 23.9775C36.6362 25.2944 36.5338 27.3411 35.2177 28.532L31.8726 31.5605C31.6224 31.7864 31.2344 31.7654 31.011 31.5177L30.8942 31.3892C30.6683 31.1389 30.6868 30.7509 30.9371 30.525L34.2822 27.499C35.0271 26.8229 35.0867 25.6614 34.4106 24.914C34.2242 24.7107 34.0025 24.5579 33.7648 24.4579Z" fill="#E2AA73"/>
<path fill-rule="evenodd" clip-rule="evenodd" d="M18.8729 9.54986H20.556C22.7102 9.54986 24.4697 11.3068 24.4697 13.4635C24.4697 29.2072 13.2754 29.2072 13.2754 13.4635C13.2754 11.3068 15.0349 9.54986 17.1891 9.54986H18.8729Z" fill="#DAEAFA"/>
<path fill-rule="evenodd" clip-rule="evenodd" d="M24.1934 17.4755C23.8406 19.8296 23.1839 21.6487 22.3575 22.937L13.6012 17.7829C13.3938 16.5046 13.2754 15.0668 13.2754 13.4644C13.2754 12.7052 13.4946 11.998 13.8683 11.3984L24.1934 17.4755Z" fill="#70DA40"/>
<path fill-rule="evenodd" clip-rule="evenodd" d="M24.1941 17.4755C24.0824 18.2254 23.9396 18.9208 23.77 19.5608L20.1965 21.6654L13.602 17.7829C13.5113 17.2235 13.4374 16.6356 13.3828 16.0167L17.5493 13.5643L24.1941 17.4755Z" fill="#65C43A"/>
<path fill-rule="evenodd" clip-rule="evenodd" d="M12.055 3.93635H25.6915C26.5725 3.93635 27.2914 4.65525 27.2914 5.53625C27.2914 6.41473 26.5725 7.13363 25.6915 7.13363H12.055C11.174 7.13363 10.4551 6.41473 10.4551 5.53625C10.4559 4.65525 11.1748 3.93635 12.055 3.93635Z" fill="#FBBD80"/>
<path fill-rule="evenodd" clip-rule="evenodd" d="M18.8734 11.0288C22.2588 11.0288 25.0202 8.56221 25.0202 5.53625C25.0202 2.51029 22.2588 0.0419922 18.8734 0.0419922C15.488 0.0419922 12.7266 2.51113 12.7266 5.53625C12.7266 8.56221 15.488 11.0288 18.8734 11.0288Z" fill="#FBC894"/>
<path d="M20.2824 3.82465C20.2824 3.44168 20.5923 3.13178 20.9753 3.13178C21.3565 3.13178 21.6681 3.44168 21.6681 3.82465V4.6267C21.6681 5.00967 21.3565 5.31957 20.9753 5.31957C20.5923 5.31957 20.2824 5.00967 20.2824 4.6267V3.82465ZM16.0781 3.82465C16.0781 3.44168 16.388 3.13178 16.771 3.13178C17.154 3.13178 17.4639 3.44168 17.4639 3.82465V4.6267C17.4639 5.00967 17.154 5.31957 16.771 5.31957C16.388 5.31957 16.0781 5.00967 16.0781 4.6267V3.82465ZM17.6066 7.63166C17.2615 7.46957 17.1111 7.05805 17.2707 6.71287C17.4328 6.36518 17.8443 6.21568 18.192 6.37694C18.4683 6.50543 18.706 6.56254 18.9185 6.5575C19.1259 6.55246 19.3283 6.49115 19.5349 6.38869C19.8751 6.21484 20.2916 6.35258 20.4638 6.69356C20.636 7.03453 20.4999 7.44858 20.1589 7.6199C19.7734 7.81475 19.3779 7.92981 18.947 7.93652C18.5204 7.94576 18.0803 7.85254 17.6066 7.63166Z" fill="#E2AA73"/>
<path fill-rule="evenodd" clip-rule="evenodd" d="M23.8778 11.3975C24.2515 11.9972 24.4707 12.7043 24.4707 13.4635C24.4707 15.066 24.3514 16.5038 24.1448 17.782L15.3886 22.9361C14.5622 21.6478 13.9029 19.8296 13.5527 17.4746L23.8778 11.3975Z" fill="#70DA40"/>
<path fill-rule="evenodd" clip-rule="evenodd" d="M24.4704 13.3233C24.3486 14.7115 23.2518 15.8185 21.8711 15.9612C22.4237 19.3248 23.7213 22.6607 27.2083 23.8457C30.6962 22.6598 31.9954 19.3248 32.548 15.9612C31.1648 15.8185 30.0696 14.7115 29.9487 13.3233H24.4704Z" fill="#0593FC"/>
<path d="M28.7278 16.8615C28.999 16.5903 29.4374 16.5903 29.7062 16.8615C29.9774 17.1303 29.9774 17.5687 29.7062 17.84L27.2353 20.3108C26.9666 20.5795 26.5257 20.5795 26.2569 20.3108L24.7074 18.7613C24.4387 18.4925 24.4387 18.0541 24.7074 17.7829C24.9787 17.5141 25.4171 17.5141 25.6858 17.7829L26.7474 18.8419L28.7278 16.8615Z" fill="#DAEAFA"/>
<path fill-rule="evenodd" clip-rule="evenodd" d="M23.7448 18.0155C23.6566 17.7056 23.5802 17.389 23.5088 17.0723C23.4282 16.7037 23.3585 16.3316 23.2971 15.9604C23.6927 15.9201 24.0639 15.8008 24.3948 15.6177C25.2254 15.1634 25.8091 14.3151 25.8973 13.3224H24.4712C24.4687 13.33 24.4687 13.3367 24.4687 13.3443C24.3377 14.7199 23.2476 15.8201 21.8711 15.9604C21.8803 16.015 21.8904 16.0696 21.8996 16.125C22.05 17.0085 22.2541 17.8887 22.5404 18.7243C22.7764 19.4197 23.0645 20.0815 23.424 20.6929V20.6954C24.2546 22.1097 25.4547 23.2502 27.2091 23.8448C27.4594 23.7617 27.6971 23.666 27.923 23.5593C25.857 22.6002 24.6711 20.7954 23.969 18.731C23.8876 18.4967 23.8137 18.259 23.7448 18.0155Z" fill="#0584E3"/>
<path fill-rule="evenodd" clip-rule="evenodd" d="M14.1115 5.53625C14.1115 4.97943 14.2047 4.44361 14.376 3.93635C15.0781 1.87201 17.1021 0.322501 19.5663 0.0772662C19.3378 0.0537506 19.1069 0.041153 18.8734 0.041153C16.1002 0.041153 13.7571 1.68137 12.9911 3.93551C12.8198 4.44277 12.7266 4.97859 12.7266 5.53541C12.7266 6.08971 12.8198 6.62805 12.9911 7.13279C13.3934 8.31361 14.2265 9.32563 15.3267 10.0227C16.3287 10.6559 17.5523 11.0271 18.8742 11.0271C19.1077 11.0271 19.3387 11.0154 19.5671 10.9936C18.2914 10.8651 17.1315 10.3889 16.2153 9.67248C15.3603 9.00313 14.7153 8.12717 14.3777 7.13195C14.2038 6.62889 14.1115 6.09139 14.1115 5.53625Z" fill="#E2B485"/>
</svg>
