<svg width="39" height="38" viewBox="0 0 39 38" fill="none" xmlns="http://www.w3.org/2000/svg">
<g clip-path="url(#clip0_933_806)">
<path d="M12.1245 29.7196C12.1245 29.7196 11.5517 30.5611 10.3512 31.2733C10.3512 31.2733 11.2206 23.9252 5.55563 22.649C7.00705 27.9759 3.70944 29.4781 2.50739 26.6639C0.5 29.344 2.02416 31.6824 2.02416 31.6824C1.20107 31.8009 0.509648 30.9017 0.509648 30.9017C0.503414 31.0125 0.5 31.1239 0.5 31.2363C0.5 34.5007 3.14627 37.1469 6.41063 37.1469C9.675 37.1469 12.3213 34.5007 12.3213 31.2363C12.3213 30.712 12.2527 30.2036 12.1245 29.7196Z" fill="#FF7F4B"/>
<path d="M12.124 29.7196C12.124 29.7196 11.5512 30.5611 10.3507 31.2734C10.3507 31.2734 11.1294 24.6914 6.41016 22.9044V37.147C9.67452 37.147 12.3208 34.5007 12.3208 31.2363C12.3208 30.712 12.2522 30.2036 12.124 29.7196Z" fill="#FD5219"/>
<path d="M9.00464 34.5548C9.00464 35.9864 7.84408 37.1469 6.41248 37.1469C4.98087 37.1469 3.82031 35.9864 3.82031 34.5548C3.82031 33.7885 4.15281 33.0999 4.68132 32.6254C5.68357 33.9869 7.11177 31.9216 5.99871 30.4133C5.99871 30.4133 9.00464 30.79 9.00464 34.5548Z" fill="#FBDA35"/>
<path d="M6.41016 30.5128V37.1469C7.84176 37.1469 9.00232 35.9864 9.00232 34.5548C9.00232 31.6673 7.23428 30.7729 6.41016 30.5128Z" fill="#F7BA35"/>
<path d="M38.5 37.1469H22.6172V5.43167H38.5V37.1469Z" fill="#666666"/>
<path d="M38.4999 37.1469H30.5527V5.43167H38.4999V37.1469Z" fill="#4D4D4D"/>
<path d="M27.6209 3.52919V4.37173H25.1133V0.853088H27.5763V1.69555H26.0797V2.1911H27.3583V2.97411H26.0797V3.52919H27.6209Z" fill="#FF7F4B"/>
<path d="M29.0047 0.853088L29.644 1.96318L30.2833 0.853088H31.324L30.1495 2.63716L31.2844 4.37165H30.2437L29.644 3.31114L29.0443 4.37165H27.9986L29.1335 2.63716L27.959 0.853088H29.0047Z" fill="#FF7F4B"/>
<path d="M31.8125 4.37165V0.853088H32.7789V4.37165H31.8125Z" fill="#FF7F4B"/>
<path d="M36.3722 1.69555H35.3612V4.37165H34.3948V1.69555H33.3789V0.853088H36.3722V1.69555Z" fill="#FF7F4B"/>
<path d="M34.1671 21.2854L36.9223 15.4509L34.909 14.5001L32.9555 18.6369L19.3384 14.8466L17.6661 21.2012L19.8194 21.7679L20.917 17.5972L23.7157 18.3762L22.0612 24.8059V28.927L16.2754 29.5174L16.5015 31.7325L24.2877 30.938V26.5063L26.8419 27.3835L27.8953 30.1853L26.2509 36.5797L28.4073 37.1343L30.2267 30.0594L28.8629 26.432L30.3873 20.2333L34.1671 21.2854Z" fill="#F7BA35"/>
<path d="M28.4551 15.8093C30.134 15.8093 31.5 14.4434 31.5 12.7644C31.5 11.0855 30.134 9.71954 28.4551 9.71954C26.7761 9.71954 25.4102 11.0855 25.4102 12.7644C25.4102 14.4434 26.7761 15.8093 28.4551 15.8093Z" fill="#F7BA35"/>
</g>
<defs>
<clipPath id="clip0_933_806">
<rect width="38" height="38" fill="white" transform="translate(0.5)"/>
</clipPath>
</defs>
</svg>
