<svg width="37" height="37" viewBox="0 0 37 37" fill="none" xmlns="http://www.w3.org/2000/svg">
<g clip-path="url(#clip0_933_961)">
<path d="M13.7963 13.483V32.9237L7.52516 34.178L1.25398 32.9237V13.483C1.24754 12.1251 1.68831 10.8028 2.50821 9.72033L7.52516 8.46609L12.5421 9.72033C13.3562 10.8058 13.7963 12.1261 13.7963 13.483Z" fill="#E64C3C"/>
<path d="M13.7963 32.9237V35.4322C13.7963 36.1249 13.2347 36.6864 12.542 36.6864H2.50814C1.81545 36.6864 1.25391 36.1249 1.25391 35.4322V32.9237H13.7963Z" fill="#C03A2B"/>
<path d="M1.88135 5.95762C1.61585 5.95609 1.38008 5.78752 1.29274 5.53679C1.20541 5.28605 1.28544 5.00749 1.49254 4.84135L4.62813 2.33287C4.89895 2.12942 5.28239 2.17779 5.49419 2.44213C5.706 2.70646 5.66962 3.09122 5.41203 3.31118C2.03813 6.00779 2.18864 5.95762 1.88135 5.95762Z" fill="#56595E"/>
<path d="M5.01695 3.44914H0.627119C0.280771 3.44914 0 3.16837 0 2.82202C0 2.47568 0.280771 2.19491 0.627119 2.19491H5.01695C5.3633 2.19491 5.64407 2.47568 5.64407 2.82202C5.64407 3.16837 5.3633 3.44914 5.01695 3.44914Z" fill="#7F8284"/>
<path d="M18.4368 8.68558C17.8712 8.59504 17.3135 8.46085 16.7686 8.28423C15.3902 7.9437 14.4222 6.70644 14.4232 5.2866C14.4232 4.79928 14.2296 4.33191 13.885 3.98732C13.5404 3.64273 13.0731 3.44914 12.5857 3.44914H10.0334C9.68702 3.44914 9.40625 3.16837 9.40625 2.82202C9.40625 2.47568 9.68702 2.19491 10.0334 2.19491H12.5857C14.2932 2.19491 15.6774 3.57911 15.6774 5.2866C15.676 6.13005 16.2508 6.86542 17.0696 7.06762L18.5873 7.45016C18.8941 7.52704 19.0956 7.82035 19.0573 8.13431C19.0191 8.44827 18.753 8.68461 18.4368 8.68558Z" fill="#7F8C8D"/>
<path d="M36.9991 29.6627C36.9991 34.4915 32.2957 36.6864 27.5923 36.6864C22.8889 36.6864 18.1855 34.4915 18.1855 29.6627C18.1855 26.8344 18.6245 25.2102 18.9883 24.351C19.0403 24.2246 19.1683 24.1465 19.3045 24.1579C19.4407 24.1694 19.5538 24.2678 19.584 24.4012C19.791 25.3105 20.3742 26.5898 22.0361 26.5898C24.601 26.5898 23.7418 23.5169 22.8889 21.761C22.1678 20.2873 21.1455 17.5656 23.6478 15.4271C24.833 14.4175 26.4949 13.1758 27.3289 11.7585C27.382 11.6626 27.4828 11.6032 27.5923 11.6032C27.7018 11.6032 27.8027 11.6626 27.8557 11.7585C28.6898 13.1758 30.3642 14.4175 31.5369 15.4271C34.0454 17.5656 33.0169 20.2873 32.2957 21.761C31.4428 23.5169 30.5837 26.5898 33.1486 26.5898C34.8105 26.5898 35.3937 25.3356 35.6006 24.4012C35.6308 24.2678 35.7439 24.1694 35.8801 24.1579C36.0164 24.1465 36.1443 24.2246 36.1964 24.351C36.5601 25.2102 36.9991 26.8344 36.9991 29.6627Z" fill="#F29C1F"/>
<path d="M12.5417 9.72033H2.50781C3.20102 8.79216 4.13916 8.07553 5.21696 7.65084C5.47022 7.56531 5.64142 7.32865 5.64341 7.06135V4.47762C6.1012 4.99813 6.77222 4.07626 7.52476 4.07626C8.2773 4.07626 8.94832 4.99813 9.40612 4.47762V7.06135C9.40885 7.32308 9.57386 7.55559 9.82002 7.64457C10.9022 8.07072 11.8445 8.78941 12.5417 9.72033Z" fill="#C03A2B"/>
<path d="M7.52605 5.3305C8.91145 5.3305 10.0345 4.20742 10.0345 2.82202C10.0345 1.43663 8.91145 0.313549 7.52605 0.313549C6.14066 0.313549 5.01758 1.43663 5.01758 2.82202C5.01758 4.20742 6.14066 5.3305 7.52605 5.3305Z" fill="#BDC3C7"/>
<path d="M10.662 13.483H4.39079C4.04444 13.483 3.76367 13.7638 3.76367 14.1102V24.7712C3.76367 25.1175 4.04444 25.3983 4.39079 25.3983H10.662C11.0083 25.3983 11.2891 25.1175 11.2891 24.7712V14.1102C11.2891 13.7638 11.0083 13.483 10.662 13.483Z" fill="#BDC3C7"/>
<path d="M22.8774 10.799L18.7134 9.38168C18.4126 9.27774 18.2374 8.96501 18.3058 8.65423L18.6005 7.29965C18.669 6.98806 18.9605 6.77754 19.2778 6.8105L23.6676 7.27457C23.845 7.29356 24.0059 7.38719 24.11 7.53202C24.2142 7.67686 24.2517 7.85919 24.2132 8.03338L23.6927 10.3474C23.6526 10.5206 23.541 10.6686 23.3856 10.7547C23.2301 10.8407 23.0454 10.8569 22.8774 10.799Z" fill="#56595E"/>
<path d="M11.2873 28.5339H3.76188C3.41554 28.5339 3.13477 28.2531 3.13477 27.9068C3.13477 27.5604 3.41554 27.2796 3.76188 27.2796H11.2873C11.6337 27.2796 11.9144 27.5604 11.9144 27.9068C11.9144 28.2531 11.6337 28.5339 11.2873 28.5339Z" fill="#D1D4D1"/>
<path d="M27.5941 36.6864C24.8286 36.6864 23.2043 32.8359 24.0509 30.5093C24.1115 30.3433 24.2392 30.2105 24.4028 30.1437C24.5664 30.0768 24.7506 30.082 24.9101 30.1581C25.5562 30.4528 26.3132 30.3586 26.8673 29.9145C27.4215 29.4703 27.6783 28.7521 27.5314 28.0573C27.4787 27.8357 27.5502 27.603 27.7182 27.4493C27.8863 27.2956 28.1244 27.245 28.3404 27.3173C33.2758 29.0732 31.5136 36.6864 27.5941 36.6864Z" fill="#F0C419"/>
</g>
<defs>
<clipPath id="clip0_933_961">
<rect width="37" height="37" fill="white"/>
</clipPath>
</defs>
</svg>
