<svg id="Capa_1" enable-background="new 0 0 512 512" height="512" viewBox="0 0 512 512" width="512" xmlns="http://www.w3.org/2000/svg"><g><path d="m15.175 267.692h28.351c7.816 0 14.176 6.359 14.176 14.175v51.199h2c0-12.671 10.308-22.979 22.979-22.979h346.639c12.671 0 22.979 10.308 22.979 22.979h2v-51.199c0-7.816 6.359-14.175 14.176-14.175h28.351c1.341 0 2.634.2 3.864.549.2-4.056.311-8.136.311-12.241 0-116.397-81.176-213.82-190-238.784l-1.001.784v135c0 2.206-1.794 4-4 4h-266.097c-2.206 0-4-1.794-4-4v-2.442l-1-.227c-15.318 31.995-23.903 67.828-23.903 105.669 0 4.106.111 8.185.311 12.241 1.23-.349 2.523-.549 3.864-.549z" fill="#d8ecfe"/><path d="m398.228 195.947c.499-5.627.772-11.487.772-17.52 0-25.842-4.841-48.668-12.236-62.385-.854-1.584-3.153-1.584-4.008 0-7.395 13.717-12.236 36.543-12.236 62.385 0 6.034.274 11.893.772 17.52z" fill="#8bc727"/><path d="m383.771 195.947c-.5-5.625-.771-11.486-.771-17.52 0-20.493 3.052-39.07 8-52.731-1.292-3.566-2.705-6.815-4.236-9.654-.854-1.584-3.153-1.584-4.008 0-7.395 13.717-12.236 36.543-12.236 62.385 0 6.034.274 11.893.772 17.52z" fill="#81b823"/><path d="m459.537 195.947c-1.369-20.136-5.709-37.511-11.772-48.758-.854-1.585-3.153-1.585-4.008 0-6.063 11.247-10.404 28.623-11.772 48.758z" fill="#8bc727"/><path d="m442.468 195.947c1.113-16.323 4.177-30.827 8.532-41.727-1.014-2.539-2.09-4.907-3.236-7.031-.854-1.585-3.153-1.585-4.008 0-6.063 11.247-10.404 28.623-11.772 48.758z" fill="#81b823"/><path d="m402.141 102.426c0 25.842 4.841 48.668 12.236 62.385.854 1.585 3.153 1.585 4.008 0 7.395-13.717 12.236-36.543 12.236-62.385s-4.841-48.668-12.236-62.385c-.854-1.585-3.153-1.585-4.008 0-7.395 13.718-12.236 36.543-12.236 62.385z" fill="#8bc727"/><path d="m411.38 195.947h10v-37.563c.233-.571.465-1.144.691-1.734-5.273-13.783-8.549-32.977-8.549-54.223s3.276-40.44 8.549-54.223c-1.141-2.982-2.371-5.723-3.686-8.163-.854-1.584-3.154-1.584-4.008 0-7.395 13.717-12.236 36.543-12.236 62.385 0 22.154 3.564 42.072 9.239 55.954z" fill="#81b823"/><path d="m43.525 267.692c7.816 0 14.176 6.359 14.176 14.175v51.199h2c0-12.671 10.308-22.979 22.979-22.979h346.64c12.671 0 22.979 10.308 22.979 22.979h2v-51.199c0-7.816 6.359-14.175 14.176-14.175h14.719v-59.537c0-7.295-5.914-13.209-13.209-13.209h-125.045c-7.295 0-13.209 5.914-13.209 13.209 0-7.295-5.914-13.209-13.209-13.209h-125.044c-7.295 0-13.209 5.914-13.209 13.209 0-7.295-5.914-13.209-13.209-13.209h-125.044c-7.295 0-13.209 5.914-13.209 13.209v59.537z" fill="#c2bce0"/><path d="m42.016 194.947c-7.295 0-13.209 5.914-13.209 13.209v58.536h14.719c6.394 0 11.854 3.96 14.088 9.557v-68.093c0-7.295 5.914-13.209 13.209-13.209z" fill="#aca6d6"/><path d="m48.531 386.354c43.364 68.876 120.068 114.646 207.469 114.646s164.105-45.77 207.469-114.646z" fill="#fee97d"/><g><g><path d="m36.416 386.354v29.699c0 2.761 2.239 5 5 5h18.263c2.761 0 5-2.239 5-5v-29.699z" fill="#f6a96c"/><path d="m49.728 416.053v-29.699h-13.312v29.699c0 2.761 2.239 5 5 5h13.312c-2.761 0-5-2.239-5-5z" fill="#ea9b58"/><path d="m447.321 386.354v29.699c0 2.761 2.239 5 5 5h18.263c2.761 0 5-2.239 5-5v-29.699z" fill="#f6a96c"/><path d="m460.633 416.053v-29.699h-13.312v29.699c0 2.761 2.239 5 5 5h13.312c-2.762 0-5-2.239-5-5z" fill="#ea9b58"/></g><g><path d="m347.312 386.354v29.699c0 2.761 2.239 5 5 5h18.263c2.761 0 5-2.239 5-5v-29.699z" fill="#f6a96c"/><path d="m360.624 416.053v-29.699h-13.312v29.699c0 2.761 2.239 5 5 5h13.312c-2.761 0-5-2.239-5-5z" fill="#ea9b58"/><path d="m136.425 386.354v29.699c0 2.761 2.239 5 5 5h18.263c2.761 0 5-2.239 5-5v-29.699z" fill="#f6a96c"/><path d="m149.737 416.053v-29.699h-13.312v29.699c0 2.761 2.239 5 5 5h13.312c-2.762 0-5-2.239-5-5z" fill="#ea9b58"/><path d="m454.3 358.004h-1.001v-1.004l-394.598.004v1h-1.001v27.24l1.001 2.11h394.598l1.001-1.65z" fill="#aca6d6"/></g><g><path d="m205.538 224.546v-16.39c0-7.295 5.914-13.209 13.209-13.209h-25.269c-7.295 0-13.209 5.914-13.209 13.209v16.39z" fill="#aca6d6"/><g><path d="m360.538 224.546v-16.39c0-7.295 5.914-13.209 13.209-13.209h-28.807c-7.295 0-13.209 5.914-13.209 13.209v16.39z" fill="#aca6d6"/></g><g><path d="m219.106 310.087c2.521-2.615 4.078-6.165 4.078-10.084v-60.914c0-8.032-6.511-14.543-14.543-14.543h-60.914c-8.032 0-14.543 6.511-14.543 14.543v60.914c0 3.919 1.558 7.469 4.078 10.084z" fill="#fff"/><path d="m162.078 310.087c-2.521-2.615-4.078-6.165-4.078-10.084v-60.914c0-8.032 6.511-14.543 14.543-14.543h-24.815c-8.032 0-14.543 6.511-14.543 14.543v60.914c0 3.919 1.558 7.469 4.078 10.084z" fill="#eaf6ff"/><path d="m374.737 310.087c2.521-2.615 4.078-6.165 4.078-10.084v-60.914c0-8.032-6.511-14.543-14.543-14.543h-60.914c-8.032 0-14.543 6.511-14.543 14.543v60.914c0 3.919 1.558 7.469 4.078 10.084z" fill="#fff"/><path d="m317.078 310.087c-2.521-2.615-4.078-6.165-4.078-10.084v-60.914c0-8.032 6.511-14.543 14.543-14.543h-24.185c-8.032 0-14.543 6.511-14.543 14.543v60.914c0 3.919 1.558 7.469 4.078 10.084z" fill="#eaf6ff"/></g></g><path d="m57.7 358.004h396.6v-22.071l-1-2.868c0-13.243-10.736-23.979-23.979-23.979h-346.642c-13.243 0-23.979 10.736-23.979 23.979l-1 2.868z" fill="#8379c1"/><path d="m116.38 309.087h-33.7c-13.243 0-23.979 10.736-23.979 23.979l-1 2.868v22.071h34.701v-24.938c-.001-13.244 10.734-23.98 23.978-23.98z" fill="#6e61b6"/><g><path d="m58.701 387.355h-48.701c-5.523 0-10-4.477-10-10v-95.487c0-8.381 6.794-15.175 15.175-15.175h28.35c8.381 0 15.175 6.794 15.175 15.175v105.487z" fill="#978ecb"/><path d="m25.299 377.354v-95.487c0-8.381 6.794-15.175 15.175-15.175h-25.299c-8.381 0-15.175 6.794-15.175 15.175v95.487c0 5.523 4.477 10 10 10h25.299c-5.523 0-10-4.477-10-10z" fill="#8379c1"/><path d="m502 387.355h-48.701v-105.488c0-8.381 6.794-15.175 15.175-15.175h28.35c8.381 0 15.175 6.794 15.175 15.175v95.487c.001 5.523-4.476 10.001-9.999 10.001z" fill="#978ecb"/></g></g><path d="m291 13.523-1 .845v120.632c0 1.103-.897 2-2 2h-102.049c-1.103 0-2-.897-2-2v-112.178l-1-.715c-6.799 2.121-13.469 4.532-20 7.216l-1 1.483v104.194c0 1.103-.897 2-2 2h-102.048c-1.103 0-2-.897-2-2v-18.641l-1-.314c-7.55 10.827-14.251 22.28-20 34.286v2.669c0 2.761 2.239 5 5 5h266.097c2.761 0 5-2.239 5-5v-135.784c-6.566-1.506-13.243-2.73-20-3.693z" fill="#eaf6ff"/><g><g><path d="m54.903 116.045v18.955c0 1.657 1.343 3 3 3h102.048c1.657 0 3-1.343 3-3v-105.677c-43.831 18.014-81.291 48.348-108.048 86.722z" fill="#b3dafe"/></g><g><path d="m79.952 135v-49.362c-9.133 9.435-17.515 19.603-25.048 30.407v18.955c0 1.657 1.343 3 3 3h25.048c-1.657 0-3-1.343-3-3z" fill="#8ac9fe"/></g><path d="m256 11c-25.444 0-49.977 3.886-73.048 11.085v112.915c0 1.657 1.343 3 3 3h102.048c1.657 0 3-1.343 3-3v-121.5c-11.433-1.636-23.115-2.5-35-2.5z" fill="#b3dafe"/><path d="m208 135v-119.284c-8.516 1.693-16.875 3.819-25.048 6.369v112.915c0 1.657 1.343 3 3 3h25.048c-1.657 0-3-1.343-3-3z" fill="#8ac9fe"/></g><path d="m345.5 460h-179c-6.875 0-12.5-5.625-12.5-12.5 0-6.875 5.625-12.5 12.5-12.5h179c6.875 0 12.5 5.625 12.5 12.5 0 6.875-5.625 12.5-12.5 12.5z" fill="#fef0ae"/></g></svg>