<svg width="43" height="43" viewBox="0 0 43 43" fill="none" xmlns="http://www.w3.org/2000/svg">
<path d="M32.25 2.6875H37.2891C37.4746 2.6875 37.625 2.83792 37.625 3.02344V12.0938H32.25C31.879 12.0938 31.5781 11.7929 31.5781 11.4219V2.01562C31.5781 2.38667 31.879 2.6875 32.25 2.6875Z" fill="#D7322D"/>
<path d="M22.8438 29.5625H20.1562C19.043 29.5625 18.1406 28.6601 18.1406 27.5469V23.5156C18.1406 22.4024 19.043 21.5 20.1562 21.5H22.8438C23.957 21.5 24.8594 22.4024 24.8594 23.5156V27.5469C24.8594 28.6601 23.957 29.5625 22.8438 29.5625Z" fill="#FAB991"/>
<path d="M20.1562 29.5625H22.8438V30.9062H20.1562V29.5625Z" fill="#F0915A"/>
<path d="M28.2188 41.6562H14.7812V34.9375C14.7812 32.7111 16.5861 30.9062 18.8125 30.9062H24.1875C26.4139 30.9062 28.2188 32.7111 28.2188 34.9375V41.6562Z" fill="#F0E1CD"/>
<path d="M22.8438 21.5H20.1562C19.043 21.5 18.1406 22.4024 18.1406 23.5156V25.5312C18.5117 25.5312 18.8125 25.2304 18.8125 24.8594V24.1875C18.8125 23.8165 19.1133 23.5156 19.4844 23.5156H23.5156C23.8867 23.5156 24.1875 23.8165 24.1875 24.1875V24.8594C24.1875 25.2304 24.4883 25.5312 24.8594 25.5312V23.5156C24.8594 22.4024 23.957 21.5 22.8438 21.5Z" fill="#463C4B"/>
<path d="M24.8594 26.875V24.8594C25.2304 24.8594 25.5312 25.1602 25.5312 25.5312V26.2031C25.5312 26.5742 25.2304 26.875 24.8594 26.875Z" fill="#F0915A"/>
<path d="M18.1406 26.875V24.8594C17.7696 24.8594 17.4688 25.1602 17.4688 25.5312V26.2031C17.4688 26.5742 17.7696 26.875 18.1406 26.875Z" fill="#F0915A"/>
<path d="M17.1328 34.9375C17.3183 34.9375 17.4688 35.0879 17.4688 35.2734V41.6562H16.7969V35.2734C16.7969 35.0879 16.9473 34.9375 17.1328 34.9375Z" fill="#B9AF9B"/>
<path d="M25.8672 34.9375C26.0527 34.9375 26.2031 35.0879 26.2031 35.2734V41.6562H25.5312V35.2734C25.5312 35.0879 25.6817 34.9375 25.8672 34.9375Z" fill="#B9AF9B"/>
<path d="M9.40625 29.5625H6.71875C5.60554 29.5625 4.70312 28.6601 4.70312 27.5469V23.5156C4.70312 22.4024 5.60554 21.5 6.71875 21.5H9.40625C10.5195 21.5 11.4219 22.4024 11.4219 23.5156V27.5469C11.4219 28.6601 10.5195 29.5625 9.40625 29.5625Z" fill="#FAB991"/>
<path d="M14.7812 41.6562H1.34375V34.9375C1.34375 32.7111 3.14857 30.9062 5.375 30.9062H10.75C12.9764 30.9062 14.7812 32.7111 14.7812 34.9375V41.6562Z" fill="#F04B37"/>
<path d="M9.40625 21.5H6.71875C5.60554 21.5 4.70312 22.4024 4.70312 23.5156V25.5312C5.07417 25.5312 5.375 25.2304 5.375 24.8594V24.1875C5.375 23.8165 5.67583 23.5156 6.04688 23.5156H10.0781C10.4492 23.5156 10.75 23.8165 10.75 24.1875V24.8594C10.75 25.2304 11.0508 25.5312 11.4219 25.5312V23.5156C11.4219 22.4024 10.5195 21.5 9.40625 21.5Z" fill="#463C4B"/>
<path d="M11.4219 26.875V24.8594C11.7929 24.8594 12.0938 25.1602 12.0938 25.5312V26.2031C12.0938 26.5742 11.7929 26.875 11.4219 26.875Z" fill="#F0915A"/>
<path d="M4.70312 26.875V24.8594C4.33208 24.8594 4.03125 25.1602 4.03125 25.5312V26.2031C4.03125 26.5742 4.33208 26.875 4.70312 26.875Z" fill="#F0915A"/>
<path d="M9.40625 29.5625H6.71875V30.9062C6.71875 31.6484 7.32033 32.25 8.0625 32.25C8.80467 32.25 9.40625 31.6484 9.40625 30.9062V29.5625Z" fill="#F0915A"/>
<path d="M3.69531 34.9375C3.88083 34.9375 4.03125 35.0879 4.03125 35.2734V41.6562H3.35938V35.2734C3.35938 35.0879 3.50979 34.9375 3.69531 34.9375Z" fill="#D7322D"/>
<path d="M12.4297 34.9375C12.6152 34.9375 12.7656 35.0879 12.7656 35.2734V41.6562H12.0938V35.2734C12.0938 35.0879 12.2442 34.9375 12.4297 34.9375Z" fill="#D7322D"/>
<path d="M36.2812 29.5625H33.5938C32.4805 29.5625 31.5781 28.6601 31.5781 27.5469V23.5156C31.5781 22.4024 32.4805 21.5 33.5938 21.5H36.2812C37.3945 21.5 38.2969 22.4024 38.2969 23.5156V27.5469C38.2969 28.6601 37.3945 29.5625 36.2812 29.5625Z" fill="#FAB991"/>
<path d="M33.5938 29.5625H36.2812V30.9062H33.5938V29.5625Z" fill="#F0915A"/>
<path d="M41.6562 41.6562H28.2188V34.9375C28.2188 32.7111 30.0236 30.9062 32.25 30.9062H37.625C39.8514 30.9062 41.6562 32.7111 41.6562 34.9375V41.6562Z" fill="#555A6E"/>
<path d="M36.2812 21.5H33.5938C32.4805 21.5 31.5781 22.4024 31.5781 23.5156V25.5312C31.9492 25.5312 32.25 25.2304 32.25 24.8594V24.1875C32.25 23.8165 32.5508 23.5156 32.9219 23.5156H36.9531C37.3242 23.5156 37.625 23.8165 37.625 24.1875V24.8594C37.625 25.2304 37.9258 25.5312 38.2969 25.5312V23.5156C38.2969 22.4024 37.3945 21.5 36.2812 21.5Z" fill="#463C4B"/>
<path d="M38.2969 26.875V24.8594C38.6679 24.8594 38.9688 25.1602 38.9688 25.5312V26.2031C38.9688 26.5742 38.6679 26.875 38.2969 26.875Z" fill="#F0915A"/>
<path d="M31.5781 26.875V24.8594C31.2071 24.8594 30.9062 25.1602 30.9062 25.5312V26.2031C30.9062 26.5742 31.2071 26.875 31.5781 26.875Z" fill="#F0915A"/>
<path d="M30.5703 34.9375C30.7558 34.9375 30.9062 35.0879 30.9062 35.2734V41.6562H30.2344V35.2734C30.2344 35.0879 30.3848 34.9375 30.5703 34.9375Z" fill="#463C4B"/>
<path d="M39.3047 34.9375C39.4902 34.9375 39.6406 35.0879 39.6406 35.2734V41.6562H38.9688V35.2734C38.9688 35.0879 39.1192 34.9375 39.3047 34.9375Z" fill="#463C4B"/>
<path d="M4.03125 38.9688C4.89704 38.9688 5.59899 38.2669 5.59899 37.401V30.9062H5.375C4.90368 30.9062 4.45168 30.988 4.03125 31.1365V38.9688Z" fill="#463C4B"/>
<path d="M12.0931 38.9688V31.1365C11.6727 30.9879 11.2207 30.9062 10.7494 30.9062H10.5254V37.401C10.5254 38.2669 11.2273 38.9688 12.0931 38.9688Z" fill="#463C4B"/>
<path d="M9.40625 21.5H6.71875C5.60554 21.5 4.70312 22.4024 4.70312 23.5156V24.1875H11.4219V23.5156C11.4219 22.4024 10.5195 21.5 9.40625 21.5Z" fill="#F04B37"/>
<path d="M10.75 24.8594H5.375C5.00396 24.8594 4.70312 24.5585 4.70312 24.1875H11.4219C11.4219 24.5585 11.121 24.8594 10.75 24.8594Z" fill="#F0E1CD"/>
<path d="M37.625 30.9062H36.2813L30.9062 41.6562H33.5938L38.8702 31.1033C38.4779 30.9759 38.0597 30.9062 37.625 30.9062Z" fill="#B9AF9B"/>
<path d="M31.5781 23.5156H38.2969V24.8594H31.5781V23.5156Z" fill="#D7322D"/>
<path d="M37.625 20.6041H34.4896C32.8816 20.6041 31.5781 21.9076 31.5781 23.5156H38.2969V21.276C38.2969 20.905 37.996 20.6041 37.625 20.6041Z" fill="#F04B37"/>
<path d="M24.1875 38.9688H18.8125C18.4415 38.9688 18.1406 38.6679 18.1406 38.2969V35.6094C18.1406 35.2383 18.4415 34.9375 18.8125 34.9375H24.1875C24.5585 34.9375 24.8594 35.2383 24.8594 35.6094V38.2969C24.8594 38.6679 24.5585 38.9688 24.1875 38.9688Z" fill="#555A6E"/>
<path d="M21.5 38.2969C22.2421 38.2969 22.8438 37.6953 22.8438 36.9531C22.8438 36.211 22.2421 35.6094 21.5 35.6094C20.7579 35.6094 20.1562 36.211 20.1562 36.9531C20.1562 37.6953 20.7579 38.2969 21.5 38.2969Z" fill="#463C4B"/>
<path d="M21.5 37.625C21.8711 37.625 22.1719 37.3242 22.1719 36.9531C22.1719 36.5821 21.8711 36.2812 21.5 36.2812C21.1289 36.2812 20.8281 36.5821 20.8281 36.9531C20.8281 37.3242 21.1289 37.625 21.5 37.625Z" fill="#555A6E"/>
<path d="M21.8359 36.9531C22.0215 36.9531 22.1719 36.8027 22.1719 36.6172C22.1719 36.4317 22.0215 36.2812 21.8359 36.2812C21.6504 36.2812 21.5 36.4317 21.5 36.6172C21.5 36.8027 21.6504 36.9531 21.8359 36.9531Z" fill="#6E788C"/>
<path d="M23.8516 36.2812C24.0371 36.2812 24.1875 36.1308 24.1875 35.9453C24.1875 35.7598 24.0371 35.6094 23.8516 35.6094C23.666 35.6094 23.5156 35.7598 23.5156 35.9453C23.5156 36.1308 23.666 36.2812 23.8516 36.2812Z" fill="#F0E1CD"/>
<path d="M18.8125 30.9062H20.1562V34.9375H18.8125V30.9062Z" fill="#B9AF9B"/>
<path d="M22.8438 30.9062H24.1875V34.9375H22.8438V30.9062Z" fill="#B9AF9B"/>
<path d="M12.481 16.125H10.9747C10.8072 16.125 10.6408 16.1046 10.4805 16.0642C10.1209 15.974 9.75553 16.1919 9.665 16.5519C9.57446 16.9117 9.79274 17.2768 10.1527 17.3673C10.4202 17.4346 10.6967 17.4687 10.9747 17.4687H12.481C12.852 17.4687 13.1529 17.1679 13.1529 16.7969C13.1529 16.4258 12.852 16.125 12.481 16.125Z" fill="#555A6E"/>
<path d="M16.8215 16.125H14.6504C14.2793 16.125 13.9785 16.4258 13.9785 16.7969C13.9785 17.1679 14.2793 17.4688 14.6504 17.4688H16.8215C17.1925 17.4688 17.4933 17.1679 17.4933 16.7969C17.4933 16.4258 17.1925 16.125 16.8215 16.125Z" fill="#555A6E"/>
<path d="M18.687 10.732C18.9208 10.732 19.148 10.6099 19.2718 10.392C19.5576 9.88885 19.7087 9.31574 19.7087 8.7344C19.7087 8.15306 19.5576 7.57995 19.2718 7.0768C19.0885 6.75413 18.6786 6.64109 18.3557 6.82451C18.0332 7.00785 17.9201 7.41794 18.1034 7.74061C18.2745 8.04169 18.365 8.38544 18.365 8.7344C18.365 9.08335 18.2745 9.4271 18.1034 9.72818C17.9201 10.0509 18.0332 10.461 18.3557 10.6443C18.4605 10.7038 18.5745 10.732 18.687 10.732Z" fill="#555A6E"/>
<path d="M12.5571 10.75H10.9731C10.7123 10.75 10.4519 10.7801 10.1995 10.8397C9.83825 10.9249 9.61451 11.2866 9.69976 11.6478C9.77266 11.9572 10.0485 12.1656 10.3531 12.1656C10.4041 12.1656 10.456 12.1598 10.5079 12.1475C10.6594 12.1118 10.8159 12.0937 10.9731 12.0937H12.5571C12.9281 12.0937 13.2289 11.7928 13.2289 11.4218C13.2289 11.0507 12.9281 10.75 12.5571 10.75Z" fill="#555A6E"/>
<path d="M16.8162 10.6959C16.6646 10.7318 16.5077 10.75 16.3498 10.75H14.7676C14.3965 10.75 14.0957 11.0508 14.0957 11.4219C14.0957 11.7929 14.3965 12.0938 14.7676 12.0938H16.3498C16.6116 12.0938 16.8727 12.0634 17.1255 12.0036C17.4866 11.9182 17.7101 11.5563 17.6246 11.1951C17.5392 10.834 17.1773 10.6105 16.8162 10.6959Z" fill="#555A6E"/>
<path d="M8.96814 12.1995C8.64522 12.016 8.23529 12.1292 8.05204 12.4518C7.76632 12.9548 7.61523 13.5279 7.61523 14.1094C7.61523 14.6908 7.76632 15.2639 8.05204 15.767C8.17583 15.9848 8.40301 16.107 8.6369 16.107C8.74936 16.107 8.86333 16.0788 8.96814 16.0192C9.29072 15.8359 9.40377 15.4258 9.22043 15.1031C9.04935 14.8021 8.95898 14.4585 8.95898 14.1094C8.95898 13.7602 9.04935 13.4166 9.22043 13.1156C9.40377 12.7929 9.29072 12.3827 8.96814 12.1995Z" fill="#555A6E"/>
<path d="M9.00098 6.04688C9.00098 5.67583 8.70014 5.375 8.3291 5.375H6.27148C5.90044 5.375 5.59961 5.67583 5.59961 6.04688C5.59961 6.41792 5.90044 6.71875 6.27148 6.71875H8.3291C8.70014 6.71875 9.00098 6.41792 9.00098 6.04688Z" fill="#555A6E"/>
<path d="M17.1698 5.47612C16.9027 5.40901 16.6265 5.375 16.3491 5.375H14.8418C14.4708 5.375 14.1699 5.67583 14.1699 6.04688C14.1699 6.41792 14.4708 6.71875 14.8418 6.71875H16.3491C16.5163 6.71875 16.6823 6.73916 16.8424 6.77939C16.8973 6.79324 16.9524 6.79979 17.0066 6.79979C17.3073 6.79979 17.5811 6.59639 17.6577 6.29144C17.7481 5.93156 17.5297 5.56648 17.1698 5.47612Z" fill="#555A6E"/>
<path d="M12.6711 5.375H10.5C10.129 5.375 9.82812 5.67583 9.82812 6.04688C9.82812 6.41792 10.129 6.71875 10.5 6.71875H12.6711C13.0421 6.71875 13.343 6.41792 13.343 6.04688C13.343 5.67583 13.0421 5.375 12.6711 5.375Z" fill="#555A6E"/>
<path d="M21.0518 16.125H18.9941C18.6231 16.125 18.3223 16.4258 18.3223 16.7969C18.3223 17.1679 18.6231 17.4688 18.9941 17.4688H21.0518C21.4228 17.4688 21.7236 17.1679 21.7236 16.7969C21.7236 16.4258 21.4228 16.125 21.0518 16.125Z" fill="#555A6E"/>
<path d="M25.3066 16.125H23.291C22.92 16.125 22.6191 16.4258 22.6191 16.7969C22.6191 17.1679 22.92 17.4688 23.291 17.4688H25.3066C25.6777 17.4688 25.9785 17.1679 25.9785 16.7969C25.9785 16.4258 25.6777 16.125 25.3066 16.125Z" fill="#555A6E"/>
<path d="M4.03125 5.375H2.01562C1.64458 5.375 1.34375 5.67583 1.34375 6.04688C1.34375 6.41792 1.64458 6.71875 2.01562 6.71875H4.03125C4.40229 6.71875 4.70312 6.41792 4.70312 6.04688C4.70312 5.67583 4.40229 5.375 4.03125 5.375Z" fill="#555A6E"/>
<path d="M29.5625 16.125H27.5469C27.1758 16.125 26.875 16.4258 26.875 16.7969C26.875 17.1679 27.1758 17.4688 27.5469 17.4688H29.5625C29.9335 17.4688 30.2344 17.1679 30.2344 16.7969C30.2344 16.4258 29.9335 16.125 29.5625 16.125Z" fill="#555A6E"/>
<path d="M33.8184 16.125H31.8027C31.4317 16.125 31.1309 16.4258 31.1309 16.7969C31.1309 17.1679 31.4317 17.4688 31.8027 17.4688H33.8184C34.1894 17.4688 34.4902 17.1679 34.4902 16.7969C34.4902 16.4258 34.1894 16.125 33.8184 16.125Z" fill="#555A6E"/>
<path d="M30.9062 10.75H26.875C26.1328 10.75 25.5312 10.1484 25.5312 9.40625V2.6875C25.5312 1.94533 26.1328 1.34375 26.875 1.34375H30.9062C31.2773 1.34375 31.5781 1.64458 31.5781 2.01562V11.4219C31.5781 11.0508 31.2773 10.75 30.9062 10.75Z" fill="#F04B37"/>
<path d="M36.6172 17.4688H37.2891C37.4746 17.4688 37.625 17.3183 37.625 17.1328V12.0938H36.2812V17.1328C36.2812 17.3183 36.4317 17.4688 36.6172 17.4688Z" fill="#463C4B"/>
<path d="M36.6172 17.4688C36.8027 17.4688 36.9531 17.3183 36.9531 17.1328V12.7656H36.2812V17.1328C36.2812 17.3183 36.4317 17.4688 36.6172 17.4688Z" fill="#555A6E"/>
</svg>
