<svg width="45" height="45" viewBox="0 0 45 45" fill="none" xmlns="http://www.w3.org/2000/svg">
<g clip-path="url(#clip0_933_584)">
<path d="M1.98845 36.8327C1.8972 36.8327 1.80688 36.8144 1.72283 36.7788C1.63879 36.7433 1.56274 36.6912 1.49918 36.6257C1.43563 36.5603 1.38587 36.4827 1.35285 36.3976C1.31983 36.3126 1.30422 36.2217 1.30695 36.1305C1.61817 25.6462 5.11692 14.2196 9.27239 10.1166C9.33781 10.0517 9.41577 10.0008 9.50151 9.96701C9.58725 9.93324 9.67897 9.91728 9.77108 9.92012C9.86313 9.92281 9.95369 9.94411 10.0373 9.98273C10.1209 10.0214 10.1958 10.0765 10.2576 10.1449L10.9114 10.8693C11.0135 10.9824 11.0748 11.1265 11.0854 11.2785C11.0961 11.4305 11.0554 11.5817 10.9701 11.708C7.28755 17.1548 5.3159 26.087 5.69576 35.6015C5.70235 35.7668 5.64864 35.9288 5.54464 36.0574C5.44064 36.186 5.29343 36.2724 5.13045 36.3005L2.10438 36.8226C2.06609 36.8293 2.02731 36.8327 1.98845 36.8327Z" fill="#E08726"/>
<path d="M10.9119 10.8693L10.2581 10.145C10.1964 10.0766 10.1215 10.0215 10.0379 9.98283C9.95425 9.9442 9.86369 9.92291 9.77163 9.92022C9.70597 9.91855 9.64287 9.92901 9.58152 9.94483L9.96174 10.3794C10.0677 10.5005 10.13 10.6537 10.1388 10.8144C10.1475 10.975 10.1022 11.134 10.01 11.2659C6.0332 16.9567 3.80579 26.355 4.05162 36.4066C4.05232 36.4342 4.04854 36.4608 4.04617 36.4878L5.131 36.3006C5.29399 36.2725 5.44121 36.1861 5.54521 36.0575C5.64922 35.9289 5.70292 35.7669 5.69632 35.6016C5.31645 26.0871 7.28819 17.1549 10.9706 11.7081C11.056 11.5818 11.0966 11.4306 11.086 11.2786C11.0753 11.1266 11.014 10.9825 10.9119 10.8693Z" fill="#D17728"/>
<path d="M42.5441 38.3713C42.4847 38.3713 42.4256 38.3635 42.3683 38.3482L37.6116 37.0786C37.4558 37.0371 37.3198 36.9417 37.2277 36.8094C37.1356 36.6771 37.0934 36.5164 37.1086 36.356C38.244 24.3023 37.2173 17.1401 33.3203 9.92971C33.2664 9.82992 33.2382 9.71824 33.2383 9.60479C33.2384 9.49135 33.2668 9.37972 33.321 9.28004C33.3751 9.18036 33.4533 9.09576 33.5484 9.03393C33.6435 8.97209 33.7526 8.93497 33.8657 8.92592L34.9734 8.83723C35.0793 8.82855 35.1858 8.84483 35.2842 8.88476C35.3826 8.92469 35.4703 8.98717 35.5402 9.06716C41.6438 16.0207 42.9752 29.8971 43.2236 37.5992C43.2364 37.6955 43.2286 37.7935 43.2005 37.8865C43.1724 37.9796 43.1248 38.0655 43.0607 38.1387C42.9967 38.2118 42.9178 38.2704 42.8293 38.3105C42.7408 38.3507 42.6447 38.3714 42.5475 38.3714L42.5441 38.3713Z" fill="#E08726"/>
<path d="M43.2234 37.5991C42.975 29.8969 41.6438 16.0207 35.5401 9.06703C35.4702 8.98704 35.3825 8.92457 35.2841 8.88464C35.1856 8.84471 35.0792 8.82843 34.9733 8.83711L34.2031 8.89872C39.9306 16.2059 40.6504 30.0892 40.5623 37.7979C40.5642 37.8203 40.5639 37.8433 40.5637 37.8663L42.3683 38.348C42.4257 38.3633 42.4848 38.3711 42.5441 38.3711H42.5473C42.6445 38.3711 42.7405 38.3504 42.8291 38.3103C42.9176 38.2702 42.9965 38.2116 43.0605 38.1385C43.1246 38.0654 43.1722 37.9794 43.2003 37.8864C43.2284 37.7934 43.2363 37.6954 43.2234 37.5991Z" fill="#D17728"/>
<path d="M25.5047 45H0.681768C0.592229 45 0.503568 44.9824 0.420846 44.9481C0.338125 44.9139 0.262963 44.8636 0.199654 44.8003C0.136345 44.737 0.0861281 44.6618 0.0518712 44.5791C0.0176144 44.4964 -1.15372e-05 44.4077 5.66577e-09 44.3182V36.4633C4.40887e-06 36.3109 0.0510823 36.1628 0.145077 36.0428C0.239073 35.9229 0.370564 35.8378 0.518555 35.8013C4.47003 34.8267 8.17313 34.3528 11.8393 34.3528C16.9811 34.3528 21.2055 35.2828 25.2909 36.182L25.6512 36.2614C25.803 36.2948 25.9388 36.379 26.0361 36.5001C26.1335 36.6212 26.1866 36.7719 26.1866 36.9273V44.3183C26.1866 44.4991 26.1147 44.6725 25.9868 44.8003C25.859 44.9282 25.6855 45 25.5047 45Z" fill="#F2B841"/>
<path d="M45 45H0V38.4298L0.91292 38.7589C3.47704 39.6827 5.94554 40.1318 8.45965 40.1318C12.3977 40.1318 15.9227 39.0365 19.6546 37.877C23.7526 36.6036 27.9902 35.287 33.1607 35.287C36.8488 35.287 40.5716 35.9591 44.5424 37.3417L44.9999 37.501V45H45Z" fill="#FFCD58"/>
<path d="M27.3871 17.8159C27.2524 17.8159 27.1206 17.776 27.0085 17.7012C26.8964 17.6264 26.809 17.5202 26.7572 17.3957C26.6982 17.2534 25.3378 13.8724 27.9547 10.8723C29.5314 9.06503 31.3598 8.68561 32.6161 8.68561C33.5086 8.68561 34.1142 8.87624 34.1803 8.89795C34.3016 8.93776 34.4093 9.01084 34.4911 9.10886C34.5729 9.20688 34.6255 9.3259 34.643 9.45237C34.6604 9.57884 34.6421 9.70768 34.5899 9.8242C34.5377 9.94072 34.4539 10.0403 34.3479 10.1115C34.3293 10.124 32.4307 11.4143 30.8125 13.3745C29.1005 15.4483 27.9952 17.443 27.9842 17.4629C27.9254 17.5698 27.8389 17.6589 27.7339 17.721C27.6289 17.7831 27.5091 17.8159 27.3871 17.8159Z" fill="#88BE4D"/>
<path d="M43.9527 14.5146C43.7911 14.5146 43.6347 14.4572 43.5114 14.3525C43.4913 14.3355 41.4667 12.6298 38.8132 11.3932C36.1074 10.1321 33.786 9.34636 33.7629 9.33854C33.6458 9.29905 33.5417 9.22851 33.4616 9.13445C33.3815 9.04039 33.3284 8.92634 33.3081 8.80448C33.2878 8.68262 33.301 8.55754 33.3462 8.44257C33.3914 8.32761 33.467 8.22709 33.5649 8.15175C33.6309 8.10104 35.2051 6.91223 37.5683 6.91223C38.6528 6.91223 39.7339 7.1629 40.7815 7.65737C44.1183 9.23219 44.7592 12.424 44.632 13.8918C44.6172 14.0618 44.5392 14.22 44.4135 14.3353C44.2877 14.4506 44.1233 14.5146 43.9527 14.5146Z" fill="#88BE4D"/>
<path d="M34.4062 9.62191C34.2493 9.62189 34.0972 9.56779 33.9756 9.46872C33.8539 9.36965 33.7702 9.23168 33.7384 9.07805C33.7019 8.90095 32.8874 4.70584 36.6811 1.64479C38.0335 0.553359 39.5378 0 41.1518 0C43.1658 0 44.6151 0.882598 44.6759 0.920215C44.7863 0.988493 44.8749 1.08686 44.9313 1.20376C44.9877 1.32066 45.0096 1.45123 44.9943 1.58012C44.9791 1.70902 44.9274 1.83088 44.8452 1.93139C44.7631 2.0319 44.654 2.10688 44.5307 2.14752C44.5066 2.15552 42.0294 2.99092 39.291 5.03437C36.7008 6.96718 34.9747 9.31808 34.9575 9.34154C34.8942 9.4284 34.8113 9.49906 34.7154 9.54778C34.6196 9.59651 34.5137 9.62191 34.4062 9.62191Z" fill="#9FCD69"/>
<path d="M34.1656 9.67529C34.0671 9.67527 33.9697 9.65389 33.8801 9.61262C33.7906 9.57135 33.7111 9.51117 33.6471 9.43623C33.6283 9.41416 31.7338 7.20978 29.1712 5.35995C26.6024 3.50572 24.1795 2.44163 24.1554 2.43108C24.0376 2.37968 23.9367 2.29602 23.8643 2.18975C23.792 2.08348 23.7512 1.95893 23.7465 1.83046C23.7419 1.70199 23.7737 1.57483 23.8382 1.46364C23.9027 1.35244 23.9974 1.26175 24.1112 1.20202C24.1661 1.17319 25.4763 0.497925 27.325 0.497925C28.9543 0.497925 30.4798 1.00778 31.8589 2.01351C35.8164 4.89931 34.8701 8.98315 34.8278 9.15559C34.7915 9.30385 34.7066 9.43564 34.5865 9.52987C34.4665 9.6241 34.3183 9.67531 34.1656 9.67529Z" fill="#88BE4D"/>
<path d="M22.8499 12.1948C22.7481 12.1949 22.6476 12.1721 22.5558 12.1283C22.4639 12.0844 22.3831 12.0205 22.3191 11.9413C22.2552 11.8621 22.2098 11.7695 22.1864 11.6705C22.1629 11.5714 22.1619 11.4684 22.1834 11.3689C22.2236 11.1832 23.2225 6.81197 27.88 6.08265C28.305 6.01539 28.7347 5.98118 29.165 5.98035C33.049 5.98035 34.9401 8.83539 35.0187 8.95685C35.089 9.06549 35.127 9.19191 35.1281 9.32133C35.1292 9.45074 35.0935 9.5778 35.0251 9.68766C34.9567 9.79752 34.8584 9.88562 34.7417 9.94169C34.6251 9.99775 34.4949 10.0194 34.3664 10.0042C34.3584 10.0033 33.5259 9.90765 32.2758 9.90765C31.0068 9.90765 29.7767 10.0025 28.6198 10.1893C25.6148 10.6749 23.2229 12.0845 23.1991 12.0987C23.0935 12.1616 22.9728 12.1948 22.8499 12.1948Z" fill="#9FCD69"/>
<path d="M20.5605 17.8047C20.4628 17.8047 20.3661 17.7837 20.2772 17.7431C20.1882 17.7024 20.109 17.6432 20.045 17.5693C20.0263 17.5476 18.1406 15.3862 15.5037 13.6228C12.8185 11.8273 10.4659 10.6037 10.4424 10.5915C10.3327 10.5346 10.2405 10.449 10.1756 10.3438C10.1108 10.2386 10.0757 10.1178 10.0743 9.99425C10.0728 9.87069 10.1049 9.74905 10.1672 9.64234C10.2295 9.53563 10.3197 9.44785 10.428 9.3884C10.4835 9.35791 11.8093 8.64221 13.7157 8.64221C15.2846 8.64221 16.7803 9.11533 18.1612 10.0484C22.2599 12.8178 21.2337 17.2405 21.2229 17.2848C21.1931 17.4063 21.1305 17.5173 21.042 17.6056C20.9534 17.6939 20.8422 17.7561 20.7206 17.7855C20.6682 17.7983 20.6145 17.8048 20.5605 17.8047Z" fill="#88BE4D"/>
<path d="M9.84199 11.2401C9.73612 11.2401 9.6317 11.2154 9.53702 11.168C9.44233 11.1206 9.35998 11.0519 9.29647 10.9672C9.23296 10.8825 9.19005 10.7841 9.17113 10.6799C9.15221 10.5758 9.15781 10.4686 9.18747 10.367C9.23985 10.1877 10.5273 5.96667 15.471 5.0098C15.9982 4.90785 16.5225 4.85608 17.0295 4.85608C21.1034 4.85608 23.0342 8.07982 23.1144 8.2171C23.1799 8.32916 23.212 8.45757 23.2071 8.58725C23.2021 8.71693 23.1602 8.8425 23.0863 8.9492C23.0124 9.0559 22.9097 9.13931 22.79 9.18962C22.6704 9.23992 22.5389 9.25505 22.411 9.23321C22.4013 9.23154 21.3642 9.05954 19.7529 9.05954C18.565 9.05954 17.3715 9.15094 16.2054 9.33112C12.8821 9.84466 10.1682 11.1577 10.1412 11.171C10.048 11.2165 9.94567 11.2401 9.84199 11.2401Z" fill="#9FCD69"/>
<path d="M10.1176 10.7408C9.98472 10.7408 9.85471 10.702 9.74359 10.6291C9.63246 10.5562 9.54505 10.4525 9.4921 10.3306C9.48102 10.3051 8.36525 7.75679 6.53879 5.34586C4.7025 2.92175 2.78912 1.27573 2.76996 1.25947C2.67221 1.17588 2.60009 1.06635 2.56194 0.943525C2.52379 0.820698 2.52115 0.689585 2.55434 0.565324C2.58752 0.441063 2.65518 0.328722 2.74949 0.241272C2.8438 0.153821 2.96092 0.0948281 3.08733 0.0711035C3.12627 0.0638086 3.48301 0 4.04165 0C5.42144 0 8.02837 0.389707 9.98604 2.99997C12.8131 6.76951 10.7908 10.2613 10.7033 10.4082C10.6428 10.5096 10.5571 10.5936 10.4544 10.6519C10.3517 10.7102 10.2357 10.7408 10.1176 10.7408Z" fill="#88BE4D"/>
<path d="M0.682101 13.0355C0.578671 13.0356 0.476588 13.0121 0.38358 12.9668C0.290571 12.9216 0.209074 12.8558 0.145259 12.7744C0.0814428 12.693 0.0369804 12.5981 0.0152371 12.497C-0.00650618 12.3959 -0.00496057 12.2912 0.019757 12.1907C0.059923 12.0279 1.05098 8.19513 5.17815 7.66831C5.48871 7.62837 5.8015 7.60811 6.11462 7.60767C9.6734 7.60767 11.3323 10.272 11.4012 10.3854C11.4684 10.4961 11.5028 10.6235 11.5002 10.7529C11.4976 10.8823 11.4583 11.0083 11.3868 11.1162C11.3153 11.224 11.2146 11.3093 11.0964 11.362C10.9782 11.4148 10.8474 11.4328 10.7194 11.4139C10.7099 11.4126 9.71902 11.2707 8.30477 11.2707C7.419 11.2707 6.55715 11.3254 5.74311 11.4333C3.13645 11.7789 1.03525 12.9375 1.01433 12.9491C0.912784 13.0058 0.798405 13.0356 0.682101 13.0355Z" fill="#9FCD69"/>
<path d="M12.7717 21.1486C12.6814 21.1485 12.592 21.1306 12.5087 21.0957C12.4254 21.0609 12.3499 21.0099 12.2865 20.9456C12.2231 20.8813 12.173 20.8051 12.1393 20.7213C12.1056 20.6376 12.0888 20.548 12.09 20.4577C12.0903 20.4345 12.1149 18.1033 11.6399 15.3954C11.189 12.8251 10.1543 10.7291 10.1439 10.7082C10.0869 10.594 10.0632 10.4661 10.0754 10.339C10.0876 10.2119 10.1352 10.0908 10.2128 9.98951C10.2905 9.88818 10.395 9.81069 10.5145 9.76585C10.634 9.72101 10.7637 9.71063 10.8888 9.73589C11.039 9.76621 14.5786 10.5249 15.4122 14.6197C16.2219 18.5968 13.3143 20.9087 13.1901 21.0051C13.0705 21.0982 12.9232 21.1487 12.7717 21.1486Z" fill="#9FCD69"/>
<path d="M28.895 40.5647C28.7143 40.5636 28.5412 40.4921 28.4125 40.3652C28.2865 40.2374 28.2131 40.0619 28.2131 39.8828C28.2131 39.7022 28.2865 39.5266 28.4125 39.4004C28.5408 39.2729 28.7142 39.2012 28.895 39.201C29.0758 39.201 29.2512 39.2725 29.3774 39.4004C29.5053 39.5266 29.5768 39.7039 29.5768 39.8828C29.5766 40.0636 29.5049 40.237 29.3774 40.3652C29.2489 40.4924 29.0757 40.564 28.895 40.5647ZM8.13196 43.2938C7.95112 43.2935 7.77772 43.2217 7.64953 43.0942C7.52213 42.966 7.45046 42.7927 7.45011 42.6119C7.45011 42.4328 7.52332 42.2574 7.6512 42.1311C7.71419 42.0677 7.78907 42.0172 7.87156 41.9827C7.95406 41.9482 8.04254 41.9303 8.13196 41.9301C8.22166 41.9302 8.31045 41.948 8.39323 41.9825C8.47602 42.017 8.55118 42.0675 8.61439 42.1311C8.67764 42.1942 8.72782 42.2691 8.76204 42.3516C8.79626 42.4341 8.81386 42.5226 8.81382 42.6119C8.81382 42.7925 8.74228 42.9681 8.61439 43.0942C8.48818 43.222 8.31267 43.2938 8.13196 43.2938ZM42.1309 41.076C41.9501 41.0758 41.7767 41.0041 41.6484 40.8766C41.521 40.7483 41.4494 40.575 41.449 40.3942C41.449 40.2152 41.5222 40.0396 41.6484 39.9136C41.7765 39.7856 41.9498 39.7132 42.1309 39.7123C42.3119 39.7132 42.4853 39.7856 42.6133 39.9136C42.7412 40.0396 42.8127 40.2152 42.8127 40.3942C42.8127 40.575 42.7412 40.7504 42.6133 40.8766C42.4851 41.0041 42.3117 41.0758 42.1309 41.076ZM14.8649 45C14.6841 44.9995 14.5108 44.9279 14.3825 44.8006C14.2545 44.6725 14.1822 44.4992 14.1813 44.3181C14.1822 44.1371 14.2545 43.9637 14.3825 43.8357C14.5108 43.7083 14.6841 43.6366 14.8649 43.6363C15.0439 43.6363 15.2195 43.7095 15.3456 43.8357C15.4731 43.9639 15.5448 44.1373 15.545 44.3181C15.5448 44.4989 15.4731 44.6723 15.3456 44.8006C15.2178 44.9276 15.0451 44.9992 14.8649 45ZM34.6956 38.5192C34.6059 38.5191 34.5171 38.5013 34.4343 38.4667C34.3515 38.4322 34.2764 38.3817 34.2132 38.3181C34.1497 38.2551 34.0992 38.1802 34.0647 38.0977C34.0302 38.0152 34.0123 37.9268 34.0121 37.8373C34.0121 37.6567 34.0853 37.4811 34.2132 37.3549C34.2764 37.2913 34.3515 37.2408 34.4343 37.2063C34.5171 37.1717 34.6059 37.1539 34.6956 37.1538C34.8745 37.1538 35.0501 37.227 35.1763 37.3549C35.3042 37.4811 35.3758 37.6567 35.3758 37.8373C35.3758 37.9267 35.3582 38.0151 35.324 38.0976C35.2898 38.1801 35.2396 38.255 35.1763 38.3181C35.1134 38.3816 35.0385 38.432 34.956 38.4665C34.8735 38.501 34.785 38.5189 34.6956 38.5192ZM21.4138 43.1233C21.233 43.123 21.0596 43.0513 20.9314 42.9237C20.804 42.7955 20.7324 42.6222 20.732 42.4415C20.732 42.2624 20.8053 42.0869 20.9314 41.9591C21.06 41.8322 21.2332 41.7606 21.4138 41.7596C21.5928 41.7596 21.7684 41.8328 21.8962 41.9591C22.0224 42.0869 22.0957 42.2624 22.0957 42.4415C22.0953 42.6222 22.0236 42.7955 21.8962 42.9237C21.768 43.0513 21.5946 43.123 21.4138 43.1233ZM36.9916 43.2938C36.8107 43.2934 36.6373 43.2217 36.5091 43.0942C36.3818 42.9659 36.3101 42.7926 36.3097 42.6119C36.3097 42.4328 36.3831 42.2574 36.5091 42.1311C36.5723 42.0675 36.6475 42.017 36.7303 41.9825C36.8131 41.948 36.9019 41.9302 36.9916 41.9301C37.1705 41.9301 37.3461 42.0033 37.474 42.1311C37.6011 42.259 37.6727 42.4317 37.6734 42.6119C37.6731 42.7927 37.6014 42.966 37.474 43.0942C37.3458 43.2217 37.1724 43.2934 36.9916 43.2938ZM2.67404 45C2.49501 45 2.31949 44.9266 2.19161 44.8006C2.0654 44.6727 1.99219 44.4971 1.99219 44.3181C1.99219 44.1392 2.0654 43.9636 2.19161 43.8357C2.32026 43.7088 2.49338 43.6373 2.67404 43.6363C2.85475 43.6363 3.03026 43.7095 3.15647 43.8357C3.28436 43.9619 3.3559 44.1392 3.3559 44.3181C3.3559 44.4971 3.28436 44.6727 3.15647 44.8006C3.02815 44.9279 2.85482 44.9995 2.67404 45ZM28.1451 45C27.9644 44.9992 27.7912 44.9276 27.6627 44.8006C27.5365 44.6727 27.4632 44.4971 27.4632 44.3181C27.4632 44.1392 27.5365 43.9636 27.6627 43.8357C27.7913 43.7088 27.9644 43.6373 28.1451 43.6363C28.324 43.6363 28.4996 43.7095 28.6275 43.8357C28.7536 43.9636 28.827 44.1392 28.827 44.3181C28.827 44.4971 28.7536 44.6727 28.6275 44.8006C28.499 44.9276 28.3258 44.9992 28.1451 45Z" fill="#F4BA42"/>
<path d="M21.9918 32.3724C21.8651 32.3724 21.7409 32.3371 21.6331 32.2704C21.5254 32.2038 21.4383 32.1084 21.3817 31.995L19.3491 27.9214C19.2981 27.8192 19.2736 27.7057 19.2778 27.5915C19.2821 27.4772 19.315 27.3659 19.3735 27.2677C19.4321 27.1696 19.5144 27.0877 19.6128 27.0297C19.7112 26.9716 19.8227 26.9392 19.9369 26.9355C22.9809 26.8361 25.5235 26.5177 28.7903 25.2395C31.5531 24.1581 33.2566 23.0116 36.5457 20.7262C36.6659 20.6426 36.8099 20.6 36.9562 20.6046C37.1026 20.6093 37.2435 20.6609 37.3583 20.7518C37.473 20.8428 37.5554 20.9683 37.5933 21.1097C37.6312 21.2512 37.6225 21.401 37.5686 21.5372C34.9622 28.1192 28.8477 32.3724 21.9918 32.3724Z" fill="#F17B7B"/>
<path d="M21.9935 32.3724C14.8361 32.3724 8.44582 27.6611 6.09211 20.6491C6.0636 20.5642 6.0521 20.4745 6.05825 20.3852C6.0644 20.2959 6.08809 20.2086 6.12796 20.1285C6.16783 20.0483 6.2231 19.9768 6.29061 19.9179C6.35813 19.8591 6.43657 19.8142 6.52145 19.7857C6.60633 19.7572 6.696 19.7456 6.78534 19.7517C6.87468 19.7579 6.96194 19.7816 7.04212 19.8214C7.1223 19.8613 7.19384 19.9166 7.25264 19.9841C7.31144 20.0517 7.35635 20.1301 7.3848 20.2151C9.55183 26.6711 15.4227 31.0088 21.9935 31.0088C28.8057 31.0088 34.7426 26.4623 36.7671 19.6953C36.7927 19.6095 36.835 19.5296 36.8915 19.4601C36.9481 19.3907 37.0177 19.3331 37.0965 19.2906C37.1753 19.2481 37.2617 19.2215 37.3508 19.2124C37.4399 19.2033 37.5299 19.2118 37.6157 19.2375C37.7014 19.2632 37.7813 19.3055 37.8508 19.362C37.9202 19.4185 37.9778 19.4882 38.0203 19.567C38.0628 19.6458 38.0894 19.7322 38.0985 19.8213C38.1076 19.9104 38.0991 20.0003 38.0734 20.0861C37.0317 23.568 34.902 26.6957 32.0765 28.8926C29.1485 31.169 25.6618 32.3724 21.9935 32.3724Z" fill="#BCCCCB"/>
<path d="M36.8203 20.2935C36.6527 20.2935 36.4909 20.2316 36.366 20.1198C36.2411 20.0081 36.1617 19.8542 36.143 19.6876C36.1244 19.521 36.1677 19.3533 36.2648 19.2167C36.362 19.08 36.506 18.9839 36.6695 18.9468L40.5408 18.0645C40.6286 18.0433 40.7196 18.0398 40.8088 18.0541C40.8979 18.0684 40.9833 18.1002 41.06 18.1478C41.1367 18.1954 41.2032 18.2577 41.2557 18.3312C41.3081 18.4046 41.3454 18.4878 41.3655 18.5758C41.3855 18.6638 41.3879 18.7549 41.3725 18.8439C41.3571 18.9328 41.3241 19.0178 41.2756 19.0939C41.2271 19.17 41.1639 19.2357 41.0898 19.2872C41.0156 19.3387 40.932 19.375 40.8438 19.394L36.9724 20.2763C36.9225 20.2877 36.8715 20.2935 36.8203 20.2935ZM36.2597 18.5841C36.092 18.5841 35.9303 18.5222 35.8053 18.4105C35.6804 18.2987 35.601 18.1448 35.5824 17.9782C35.5637 17.8116 35.6071 17.6439 35.7042 17.5073C35.8013 17.3706 35.9454 17.2746 36.1088 17.2374L39.9803 16.3551C40.0681 16.3339 40.1592 16.3304 40.2483 16.3447C40.3374 16.359 40.4228 16.3909 40.4995 16.4384C40.5762 16.486 40.6427 16.5483 40.6952 16.6218C40.7476 16.6953 40.785 16.7784 40.805 16.8664C40.8251 16.9544 40.8274 17.0455 40.812 17.1345C40.7966 17.2234 40.7636 17.3084 40.7151 17.3845C40.6666 17.4606 40.6034 17.5263 40.5293 17.5779C40.4552 17.6294 40.3715 17.6656 40.2833 17.6846L36.4118 18.5669C36.3619 18.5784 36.3109 18.5842 36.2597 18.5841Z" fill="#8D9C9B"/>
<path d="M22.0425 27.209C15.4499 26.3465 9.83298 23.5389 6.39206 19.8451C6.12048 20.0051 5.98785 20.3381 6.09226 20.6489C8.44597 27.661 14.8363 32.3723 21.9936 32.3723C25.6621 32.3723 29.1487 31.169 32.0767 28.8925C33.1325 28.0716 34.091 27.1205 34.932 26.0698C31.2039 27.3571 26.7353 27.823 22.0425 27.209Z" fill="#DF485A"/>
<path d="M7.46982 20.8098C7.41137 20.8098 7.35204 20.8022 7.29298 20.7864L4.00007 19.9041C3.8267 19.8561 3.6793 19.7416 3.58999 19.5855C3.50068 19.4293 3.47668 19.2442 3.52323 19.0705C3.56978 18.8967 3.6831 18.7484 3.83851 18.6578C3.99392 18.5672 4.17883 18.5417 4.35295 18.5869L7.64586 19.4692C7.80572 19.5119 7.94458 19.6113 8.03658 19.7488C8.12857 19.8864 8.16742 20.0527 8.14588 20.2167C8.12433 20.3808 8.04387 20.5314 7.91949 20.6405C7.7951 20.7496 7.63528 20.8098 7.46982 20.8098ZM7.99769 19.1004C7.93924 19.1004 7.87991 19.0929 7.82085 19.077L4.52785 18.1947C4.35318 18.1479 4.20426 18.0336 4.11383 17.877C4.02341 17.7204 3.9989 17.5343 4.04569 17.3597C4.09259 17.1851 4.20688 17.0362 4.36345 16.9458C4.52002 16.8554 4.70607 16.8308 4.88073 16.8775L8.17373 17.7598C8.33359 17.8025 8.47246 17.9019 8.56445 18.0395C8.65645 18.177 8.69529 18.3433 8.67375 18.5073C8.65221 18.6714 8.57174 18.822 8.44736 18.9311C8.32297 19.0403 8.16315 19.1004 7.99769 19.1004Z" fill="#8D9C9B"/>
</g>
<defs>
<clipPath id="clip0_933_584">
<rect width="45" height="45" fill="white"/>
</clipPath>
</defs>
</svg>
