<svg width="44" height="44" viewBox="0 0 44 44" fill="none" xmlns="http://www.w3.org/2000/svg">
<g clip-path="url(#clip0_926_408)">
<path d="M8.50781 43.0986C8.0697 43.0986 7.63924 43.9667 7.21875 43.9025C3.13698 43.2795 0 39.7453 0 35.4922C0 31.239 3.13698 27.7049 7.21875 27.0818C7.63924 27.0176 8.50781 27.6115 8.50781 27.6115C8.50781 27.6115 9.37638 27.0176 9.79688 27.0818C13.8786 27.7049 17.0156 31.239 17.0156 35.4922C17.0156 39.7436 13.8811 43.2767 9.80177 43.9018C9.37973 43.9665 8.94764 43.0986 8.50781 43.0986Z" fill="#FF193D"/>
<path d="M9.79688 27.0818C9.37638 27.0176 8.50781 27.6115 8.50781 27.6115V43.0986C8.94764 43.0986 9.37973 43.9665 9.80169 43.9019C13.8811 43.2767 17.0156 39.7436 17.0156 35.4922C17.0156 31.239 13.8786 27.7049 9.79688 27.0818Z" fill="#EA0016"/>
<path d="M43.1824 43.1819C42.0917 44.2727 40.3232 44.2727 39.2325 43.1819L25.1094 29.0588L29.0592 25.1089L43.1824 39.2321C44.2731 40.3228 44.2731 42.0912 43.1824 43.1819Z" fill="#00607F"/>
<path d="M43.1788 43.1852C43.1799 43.1841 43.1811 43.1831 43.1822 43.1819C44.273 42.0912 44.273 40.3228 43.1822 39.2321L29.0591 25.1089L27.082 27.086L43.1788 43.1852Z" fill="#002C3C"/>
<path d="M7.21875 27.0819V43.9025C7.63924 43.9667 8.0697 44 8.50781 44C8.94592 44 9.37638 43.9667 9.79688 43.9025V27.0819C9.37638 27.0177 8.94592 26.9844 8.50781 26.9844C8.0697 26.9844 7.63924 27.0177 7.21875 27.0819Z" fill="#FFDE46"/>
<path d="M24.4556 31.9672C23.4654 31.9672 22.475 31.5902 21.7212 30.8363L0.377566 9.49279C-0.125855 8.98946 -0.125855 8.17322 0.377566 7.6698L7.66962 0.377746C8.17296 -0.12559 8.98919 -0.12559 9.49261 0.377746L30.8361 21.7212C32.3439 23.2291 32.3439 25.6825 30.8361 27.1902L27.1901 30.8363C26.4361 31.5902 25.4459 31.9672 24.4556 31.9672Z" fill="#FFDE46"/>
<path d="M29.011 29.0153L30.8363 27.19C32.3441 25.6822 32.3441 23.2289 30.8363 21.7209L9.49276 0.377502C8.98942 -0.125834 8.17319 -0.125834 7.66977 0.377502L4.02344 4.02383L29.011 29.0153Z" fill="#FFCD00"/>
<path d="M8.50781 26.9844V44C8.94592 44 9.37638 43.9667 9.79688 43.9025V27.0819C9.37638 27.0177 8.94592 26.9844 8.50781 26.9844Z" fill="#FFCD00"/>
</g>
<defs>
<clipPath id="clip0_926_408">
<rect width="44" height="44" fill="white"/>
</clipPath>
</defs>
</svg>
