<svg width="43" height="43" viewBox="0 0 43 43" fill="none" xmlns="http://www.w3.org/2000/svg">
<path d="M12.7656 32.8144V35.6094H9.40625V30.2344L6.36266 24.6511C5.71348 23.467 5.37377 22.1382 5.375 20.7878V13.4375C5.375 12.9029 5.58736 12.3902 5.96537 12.0122C6.34337 11.6342 6.85605 11.4219 7.39063 11.4219V18.2481C7.39304 20.3693 8.02178 22.4425 9.19797 24.2077L10.9583 26.8548C12.1345 28.62 12.7632 30.6932 12.7656 32.8144Z" fill="#FFE347"/>
<path d="M37.625 22.1719V22.958C37.6243 23.7744 37.5182 24.5874 37.3092 25.3767L36.7314 27.5469H21.5V22.1719H37.625Z" fill="#6E6E6E"/>
<path d="M33.5938 18.8125C33.5938 18.1406 34.2656 17.4688 35.6094 17.4688C36.9531 17.4688 37.625 18.1406 37.625 18.8125V22.1719H21.5V18.8125C21.5 18.1406 22.1719 17.4688 23.5156 17.4688C24.8594 17.4688 25.5312 18.1406 25.5312 18.8125V18.1406C25.5312 17.4688 26.2031 16.7969 27.5469 16.7969C28.8906 16.7969 29.5625 17.4688 29.5625 18.1406V18.8125C29.5625 18.1406 30.2344 17.4688 31.5781 17.4688C32.9219 17.4688 33.5938 18.1406 33.5938 18.8125Z" fill="#FFE347"/>
<path d="M37.625 15.4531V18.8125C37.625 18.1406 36.9531 17.4688 35.6094 17.4688C34.2656 17.4688 33.5938 18.1406 33.5938 18.8125V15.4531C33.5938 14.7812 34.2656 14.1094 35.6094 14.1094C36.9531 14.1094 37.625 14.7812 37.625 15.4531Z" fill="#6E6E6E"/>
<path d="M37.625 12.7656V15.4531C37.625 14.7812 36.9531 14.1094 35.6094 14.1094C34.2656 14.1094 33.5938 14.7812 33.5938 15.4531V12.7656C33.5937 12.231 33.8061 11.7184 34.1841 11.3404C34.5621 10.9624 35.0748 10.75 35.6094 10.75C36.144 10.75 36.6566 10.9624 37.0346 11.3404C37.4126 11.7184 37.625 12.231 37.625 12.7656Z" fill="#FFE347"/>
<path d="M36.7314 27.5469L34.9375 34.2656H21.5L18.4564 28.6823C17.8072 27.4983 17.4675 26.1694 17.4688 24.8191V17.4688C17.4688 16.9342 17.6811 16.4215 18.0591 16.0435C18.4371 15.6655 18.9498 15.4531 19.4844 15.4531C20.019 15.4531 20.5316 15.6655 20.9096 16.0435C21.2876 16.4215 21.5 16.9342 21.5 17.4688V27.5469H36.7314Z" fill="#FFE347"/>
<path d="M34.9375 39.6406V40.9844C34.9364 41.3404 34.7945 41.6816 34.5427 41.9334C34.291 42.1851 33.9498 42.3271 33.5938 42.3281H22.8438C22.4877 42.3271 22.1465 42.1851 21.8948 41.9334C21.643 41.6816 21.5011 41.3404 21.5 40.9844V39.6406H34.9375Z" fill="#6E6E6E"/>
<path d="M33.5938 40.9844H22.8438C22.4877 40.9833 22.1465 40.8414 21.8948 40.5896C21.643 40.3379 21.5011 39.9967 21.5 39.6406V40.9844C21.5011 41.3404 21.643 41.6816 21.8948 41.9334C22.1465 42.1851 22.4877 42.3271 22.8438 42.3281H33.5938C33.9498 42.3271 34.291 42.1851 34.5427 41.9334C34.7945 41.6816 34.9364 41.3404 34.9375 40.9844V39.6406C34.9364 39.9967 34.7945 40.3379 34.5427 40.5896C34.291 40.8414 33.9498 40.9833 33.5938 40.9844Z" fill="#595959"/>
<path d="M34.9375 34.2656V39.6406H21.5V38.2969V35.6094V34.2656H34.9375Z" fill="#FFE347"/>
<path d="M33.5938 15.4531V18.8125C33.5938 18.1406 32.9219 17.4688 31.5781 17.4688C30.2344 17.4688 29.5625 18.1406 29.5625 18.8125V15.4531C29.5625 14.7812 30.2344 14.1094 31.5781 14.1094C32.9219 14.1094 33.5938 14.7812 33.5938 15.4531Z" fill="#6E6E6E"/>
<path d="M33.5938 12.7656V15.4531C33.5938 14.7812 32.9219 14.1094 31.5781 14.1094C30.2344 14.1094 29.5625 14.7812 29.5625 15.4531V10.75C29.5625 10.0781 30.2344 9.40625 31.5781 9.40625C32.9219 9.40625 33.5938 10.0781 33.5938 10.75V12.7656Z" fill="#FFE347"/>
<path d="M33.5938 8.73438V10.75C33.5938 10.0781 32.9219 9.40625 31.5781 9.40625C30.2344 9.40625 29.5625 10.0781 29.5625 10.75V8.73438C29.5625 8.1998 29.7749 7.68712 30.1529 7.30911C30.5309 6.93111 31.0435 6.71875 31.5781 6.71875C32.1127 6.71875 32.6254 6.93111 33.0034 7.30911C33.3814 7.68712 33.5938 8.1998 33.5938 8.73438Z" fill="#6E6E6E"/>
<path d="M29.5625 15.4531V18.1406C29.5625 17.4688 28.8906 16.7969 27.5469 16.7969C26.2031 16.7969 25.5312 17.4688 25.5312 18.1406V14.7812C25.5312 14.1094 26.2031 13.4375 27.5469 13.4375C28.8906 13.4375 29.5625 14.1094 29.5625 14.7812V15.4531Z" fill="#6E6E6E"/>
<path d="M29.5625 10.75V14.7812C29.5625 14.1094 28.8906 13.4375 27.5469 13.4375C26.2031 13.4375 25.5312 14.1094 25.5312 14.7812V10.0781C25.5312 9.40625 26.2031 8.73438 27.5469 8.73438C28.8906 8.73438 29.5625 9.40625 29.5625 10.0781V10.75Z" fill="#FFE347"/>
<path d="M29.5625 8.73438V10.0781C29.5625 9.40625 28.8906 8.73438 27.5469 8.73438C26.2031 8.73438 25.5312 9.40625 25.5312 10.0781V6.71875C25.5312 6.18417 25.7436 5.67149 26.1216 5.29349C26.4996 4.91548 27.0123 4.70313 27.5469 4.70312C28.0815 4.70312 28.5941 4.91548 28.9721 5.29349C29.3501 5.67149 29.5625 6.18417 29.5625 6.71875V8.73438Z" fill="#6E6E6E"/>
<path d="M25.5312 18.1406V18.8125C25.5312 18.1406 24.8594 17.4688 23.5156 17.4688C22.1719 17.4688 21.5 18.1406 21.5 18.8125V15.4531C21.5 14.7812 22.1719 14.1094 23.5156 14.1094C24.8594 14.1094 25.5312 14.7812 25.5312 15.4531V18.1406Z" fill="#6E6E6E"/>
<path d="M25.5312 14.7812V15.4531C25.5312 14.7812 24.8594 14.1094 23.5156 14.1094C22.1719 14.1094 21.5 14.7812 21.5 15.4531V10.75C21.5 10.0781 22.1719 9.40625 23.5156 9.40625C24.8594 9.40625 25.5312 10.0781 25.5312 10.75V14.7812Z" fill="#FFE347"/>
<path d="M25.5312 10.0781V10.75C25.5312 10.0781 24.8594 9.40625 23.5156 9.40625C22.1719 9.40625 21.5 10.0781 21.5 10.75V8.73438C21.5 8.1998 21.7124 7.68712 22.0904 7.30911C22.4684 6.93111 22.981 6.71875 23.5156 6.71875C24.0502 6.71875 24.5629 6.93111 24.9409 7.30911C25.3189 7.68712 25.5312 8.1998 25.5312 8.73438V10.0781Z" fill="#6E6E6E"/>
<path d="M21.5 35.6094V38.2969H10.75C10.3939 38.2958 10.0528 38.1539 9.801 37.9021C9.54923 37.6504 9.40731 37.3092 9.40625 36.9531V35.6094H21.5Z" fill="#595959"/>
<path d="M17.4688 4.70312C17.4688 4.16855 17.6811 3.65587 18.0591 3.27786C18.4371 2.89986 18.9498 2.6875 19.4844 2.6875C20.019 2.6875 20.5316 2.89986 20.9096 3.27786C21.2876 3.65587 21.5 4.16855 21.5 4.70312V17.4688C21.5 16.9342 21.2876 16.4215 20.9096 16.0435C20.5316 15.6655 20.019 15.4531 19.4844 15.4531C18.9498 15.4531 18.4371 15.6655 18.0591 16.0435C17.6811 16.4215 17.4688 16.9342 17.4688 17.4688V24.8191C17.4675 26.1694 17.8072 27.4983 18.4564 28.6823L21.5 34.2656V35.6094H12.7656V32.8144C12.7632 30.6932 12.1345 28.62 10.9583 26.8548L9.19797 24.2077C8.02177 22.4425 7.39303 20.3693 7.39062 18.2481V11.4219C7.9252 11.4219 8.43788 11.6342 8.81589 12.0122C9.19389 12.3902 9.40625 12.9029 9.40625 13.4375V4.70312C9.40625 4.16855 9.61861 3.65587 9.99661 3.27786C10.3746 2.89986 10.8873 2.6875 11.4219 2.6875C11.9565 2.6875 12.4691 2.89986 12.8471 3.27786C13.2251 3.65587 13.4375 4.16855 13.4375 4.70312V2.6875C13.4375 2.15292 13.6499 1.64024 14.0279 1.26224C14.4059 0.884235 14.9185 0.671875 15.4531 0.671875C15.9877 0.671875 16.5004 0.884235 16.8784 1.26224C17.2564 1.64024 17.4688 2.15292 17.4688 2.6875V4.70312Z" fill="#595959"/>
<path d="M35.6094 22.1719H22.8438V22.8438C22.8438 23.2001 22.9853 23.5419 23.2373 23.7939C23.4893 24.0459 23.8311 24.1875 24.1875 24.1875H35.5744C35.5975 24.0124 35.6092 23.836 35.6094 23.6594V22.1719Z" fill="#848484"/>
<path d="M35.5755 24.1875C35.5528 24.3597 35.5189 24.5303 35.4741 24.6981L34.7148 27.5469H36.7305L37.3083 25.3767C37.4124 24.9858 37.4914 24.5885 37.5448 24.1875H35.5755Z" fill="#848484"/>
<path d="M35.6092 23.6594C35.609 23.836 35.5973 24.0124 35.5742 24.1875H37.5435C37.5974 23.7799 37.6245 23.3691 37.6248 22.958V22.1719H35.6092V23.6594Z" fill="#9C9C9C"/>
<path d="M35.6094 17.4688V22.1719H37.625V18.8125C37.625 18.1406 36.9531 17.4688 35.6094 17.4688Z" fill="#FFFF9C"/>
<path d="M31.5781 17.4688C31.5781 17.8251 31.7197 18.1669 31.9717 18.4189C32.2237 18.6709 32.5655 18.8125 32.9219 18.8125H33.5938C33.5938 18.1406 32.9219 17.4688 31.5781 17.4688Z" fill="#FFFF9C"/>
<path d="M24.8594 18.8125H25.5312C25.5312 18.1406 24.8594 17.4688 23.5156 17.4688C23.5156 17.8251 23.6572 18.1669 23.9092 18.4189C24.1612 18.6709 24.503 18.8125 24.8594 18.8125Z" fill="#FFFF9C"/>
<path d="M27.5469 16.7969V17.4688C27.5469 17.8251 27.6884 18.1669 27.9404 18.4189C28.1925 18.6709 28.5342 18.8125 28.8906 18.8125H29.5625V18.1406C29.5625 17.4688 28.8906 16.7969 27.5469 16.7969Z" fill="#FFFF9C"/>
<path d="M35.6094 14.1094V17.4688C36.9531 17.4688 37.625 18.1406 37.625 18.8125V15.4531C37.625 14.7812 36.9531 14.1094 35.6094 14.1094Z" fill="#9C9C9C"/>
<path d="M37.625 15.4531V12.7656C37.625 12.231 37.4126 11.7184 37.0346 11.3404C36.6566 10.9624 36.144 10.75 35.6094 10.75V14.1094C36.9531 14.1094 37.625 14.7812 37.625 15.4531Z" fill="#FFFF9C"/>
<path d="M32.9219 34.2656H34.9375L36.7314 27.5469H34.7138L32.9219 34.2656Z" fill="#FFFD78"/>
<path d="M21.322 27.4877L21.5 27.5469V17.4688C21.5 16.9342 21.2876 16.4215 20.9096 16.0435C20.5316 15.6655 20.019 15.4531 19.4844 15.4531V24.938C19.4843 25.5021 19.6618 26.0519 19.9916 26.5095C20.3214 26.9671 20.7868 27.3094 21.322 27.4877Z" fill="#FFBB05"/>
<path d="M32.9219 40.9844H33.5938C33.9498 40.9833 34.291 40.8414 34.5427 40.5896C34.7945 40.3379 34.9364 39.9967 34.9375 39.6406H32.9219V40.9844Z" fill="#9C9C9C"/>
<path d="M33.5938 40.9844H32.9219V42.3281H33.5938C33.9498 42.3271 34.291 42.1851 34.5427 41.9334C34.7945 41.6816 34.9364 41.3404 34.9375 40.9844V39.6406C34.9364 39.9967 34.7945 40.3379 34.5427 40.5896C34.291 40.8414 33.9498 40.9833 33.5938 40.9844Z" fill="#848484"/>
<path d="M22.8438 40.9844C22.4877 40.9833 22.1465 40.8414 21.8948 40.5896C21.643 40.3379 21.5011 39.9967 21.5 39.6406V40.9844C21.5011 41.3404 21.643 41.6816 21.8948 41.9334C22.1465 42.1851 22.4877 42.3271 22.8438 42.3281H32.9219V40.9844H22.8438Z" fill="#595959"/>
<path d="M32.9219 34.2656H34.9375V39.6406H32.9219V34.2656Z" fill="#FFE347"/>
<path d="M32.9219 34.2656H21.5V35.6094V38.2969V39.6406H32.9219V34.2656Z" fill="#FFCE47"/>
<path d="M33.5938 18.8125V15.4531C33.5938 14.7812 32.9219 14.1094 31.5781 14.1094V17.4688C32.9219 17.4688 33.5938 18.1406 33.5938 18.8125Z" fill="#9C9C9C"/>
<path d="M31.5781 9.40625V14.1094C32.9219 14.1094 33.5938 14.7812 33.5938 15.4531V10.75C33.5938 10.0781 32.9219 9.40625 31.5781 9.40625Z" fill="#FFFF9C"/>
<path d="M33.5938 10.75V8.73438C33.5938 8.1998 33.3814 7.68712 33.0034 7.30911C32.6254 6.93111 32.1127 6.71875 31.5781 6.71875V9.40625C32.9219 9.40625 33.5938 10.0781 33.5938 10.75Z" fill="#9C9C9C"/>
<path d="M29.5625 18.1406V14.7812C29.5625 14.1094 28.8906 13.4375 27.5469 13.4375V16.7969C28.8906 16.7969 29.5625 17.4688 29.5625 18.1406Z" fill="#9C9C9C"/>
<path d="M29.5625 14.7812V10.0781C29.5625 9.40625 28.8906 8.73438 27.5469 8.73438V13.4375C28.8906 13.4375 29.5625 14.1094 29.5625 14.7812Z" fill="#FFFF9C"/>
<path d="M29.5625 10.0781V6.71875C29.5625 6.18417 29.3501 5.67149 28.9721 5.29349C28.5941 4.91548 28.0815 4.70312 27.5469 4.70312V8.73438C28.8906 8.73438 29.5625 9.40625 29.5625 10.0781Z" fill="#9C9C9C"/>
<path d="M25.5312 18.8125V15.4531C25.5312 14.7812 24.8594 14.1094 23.5156 14.1094V17.4688C24.8594 17.4688 25.5312 18.1406 25.5312 18.8125Z" fill="#9C9C9C"/>
<path d="M25.5312 15.4531V10.75C25.5312 10.0781 24.8594 9.40625 23.5156 9.40625V14.1094C24.8594 14.1094 25.5312 14.7812 25.5312 15.4531Z" fill="#FFFF9C"/>
<path d="M25.5312 10.75V8.73438C25.5312 8.1998 25.3189 7.68712 24.9409 7.30911C24.5629 6.93111 24.0502 6.71875 23.5156 6.71875V9.40625C24.8594 9.40625 25.5312 10.0781 25.5312 10.75Z" fill="#9C9C9C"/>
<path d="M19.4844 6.71875C18.9498 6.71875 18.4371 6.93111 18.0591 7.30911C17.6811 7.68712 17.4688 8.1998 17.4688 8.73438V17.4688C17.4688 16.9342 17.6811 16.4215 18.0591 16.0435C18.4371 15.6655 18.9498 15.4531 19.4844 15.4531C20.019 15.4531 20.5316 15.6655 20.9096 16.0435C21.2876 16.4215 21.5 16.9342 21.5 17.4688V8.73438C21.5 8.1998 21.2876 7.68712 20.9096 7.30911C20.5316 6.93111 20.019 6.71875 19.4844 6.71875Z" fill="#383838"/>
<path d="M21.5 35.6094V34.2656L18.4564 28.6823C17.8072 27.4983 17.4675 26.1694 17.4688 24.8191V17.4688C17.4688 16.9342 17.2564 16.4215 16.8784 16.0435C16.5004 15.6655 15.9877 15.4531 15.4531 15.4531C14.9185 15.4531 14.4059 15.6655 14.0279 16.0435C13.6499 16.4215 13.4375 16.9342 13.4375 17.4688V24.8191C13.4375 26.168 13.7759 27.4954 14.4218 28.6797L17.4688 34.2656V38.2969H21.5V35.6094Z" fill="#383838"/>
<path d="M32.4463 30.4583C32.8772 30.0275 32.7402 29.192 32.1404 28.5922C31.5406 27.9924 30.7051 27.8554 30.2742 28.2862C29.8434 28.717 29.9804 29.5525 30.5802 30.1523C31.18 30.7522 32.0155 30.8891 32.4463 30.4583Z" fill="#F6FAFD"/>
<path d="M32.5745 32.6143C32.791 32.3978 32.7223 31.9781 32.4211 31.6769C32.1199 31.3757 31.7002 31.307 31.4837 31.5235C31.2673 31.7399 31.336 32.1596 31.6372 32.4608C31.9384 32.762 32.3581 32.8307 32.5745 32.6143Z" fill="#F6FAFD"/>
<path d="M28.8906 34.2656H22.1719C21.8008 34.2656 21.5 34.5664 21.5 34.9375C21.5 35.3086 21.8008 35.6094 22.1719 35.6094H28.8906C29.2617 35.6094 29.5625 35.3086 29.5625 34.9375C29.5625 34.5664 29.2617 34.2656 28.8906 34.2656Z" fill="#FFBB05"/>
<path d="M32.25 34.2656H30.9062C30.5352 34.2656 30.2344 34.5664 30.2344 34.9375C30.2344 35.3086 30.5352 35.6094 30.9062 35.6094H32.25C32.6211 35.6094 32.9219 35.3086 32.9219 34.9375C32.9219 34.5664 32.6211 34.2656 32.25 34.2656Z" fill="#FFBB05"/>
<path d="M30.9062 22.1719H24.1875C23.8164 22.1719 23.5156 22.4727 23.5156 22.8438C23.5156 23.2148 23.8164 23.5156 24.1875 23.5156H30.9062C31.2773 23.5156 31.5781 23.2148 31.5781 22.8438C31.5781 22.4727 31.2773 22.1719 30.9062 22.1719Z" fill="#9C9C9C"/>
<path d="M34.2656 22.1719H32.9219C32.5508 22.1719 32.25 22.4727 32.25 22.8438C32.25 23.2148 32.5508 23.5156 32.9219 23.5156H34.2656C34.6367 23.5156 34.9375 23.2148 34.9375 22.8438C34.9375 22.4727 34.6367 22.1719 34.2656 22.1719Z" fill="#9C9C9C"/>
</svg>
