<svg width="59" height="59" viewBox="0 0 59 59" fill="none" xmlns="http://www.w3.org/2000/svg">
<g clip-path="url(#clip0_926_278)">
<path d="M20.2812 0.921875H38.7188V54.3906H20.2812V0.921875Z" fill="#D6E0EB"/>
<path d="M38.7188 0.921875H58.0781V54.3906H38.7188V0.921875Z" fill="#D6E0EB"/>
<path d="M38.7188 52.5469H58.0781V54.3906H38.7188V52.5469Z" fill="#A8B7D4"/>
<path d="M38.7188 0.921875H58.0781V1.84375H38.7188V0.921875Z" fill="#EDF4FA"/>
<path d="M42.4062 4.60938H54.3906V48.8594H42.4062V4.60938Z" fill="#598EDE"/>
<path d="M54.3906 3.6875H42.4062C42.1618 3.6875 41.9273 3.78463 41.7544 3.95751C41.5815 4.1304 41.4844 4.36488 41.4844 4.60938V48.8594C41.4844 49.1039 41.5815 49.3384 41.7544 49.5112C41.9273 49.6841 42.1618 49.7812 42.4062 49.7812H54.3906C54.6351 49.7812 54.8696 49.6841 55.0425 49.5112C55.2154 49.3384 55.3125 49.1039 55.3125 48.8594V4.60938C55.3125 4.36488 55.2154 4.1304 55.0425 3.95751C54.8696 3.78463 54.6351 3.6875 54.3906 3.6875ZM54.3906 48.8594H42.4062V4.60938H54.3906V48.8594Z" fill="#393D48"/>
<path d="M47.0156 46.0938C46.5266 46.0938 46.0577 45.8995 45.7119 45.5537C45.3661 45.208 45.1719 44.739 45.1719 44.25V4.60938H42.4062V48.8594H54.3906V46.0938H47.0156Z" fill="#4C76BD"/>
<path d="M45.1719 7.375H51.625V9.21875H45.1719V7.375Z" fill="#393D48"/>
<path d="M45.1719 11.0625H51.625V12.9062H45.1719V11.0625Z" fill="#393D48"/>
<path d="M45.1719 14.75H51.625V16.5938H45.1719V14.75Z" fill="#393D48"/>
<path d="M45.1719 40.5625H51.625V42.4062H45.1719V40.5625Z" fill="#393D48"/>
<path d="M45.1719 44.25H51.625V46.0938H45.1719V44.25Z" fill="#393D48"/>
<path d="M45.1719 9.21875H51.625V10.1406H45.1719V9.21875Z" fill="#4C76BD"/>
<path d="M45.1719 12.9062H51.625V13.8281H45.1719V12.9062Z" fill="#4C76BD"/>
<path d="M45.1719 16.5938H51.625V17.5156H45.1719V16.5938Z" fill="#4C76BD"/>
<path d="M45.1719 42.4062H51.625V43.3281H45.1719V42.4062Z" fill="#4C76BD"/>
<path d="M45.1719 7.375H51.625V8.29688H45.1719V7.375Z" fill="#222430"/>
<path d="M45.1719 11.0625H51.625V11.9844H45.1719V11.0625Z" fill="#222430"/>
<path d="M45.1719 14.75H51.625V15.6719H45.1719V14.75Z" fill="#222430"/>
<path d="M45.1719 40.5625H51.625V41.4844H45.1719V40.5625Z" fill="#222430"/>
<path d="M45.1719 44.25H51.625V45.1719H45.1719V44.25Z" fill="#222430"/>
<path d="M46.0938 27.6562C46.0938 27.1471 45.681 26.7344 45.1719 26.7344C44.6627 26.7344 44.25 27.1471 44.25 27.6562V29.5C44.25 30.0091 44.6627 30.4219 45.1719 30.4219C45.681 30.4219 46.0938 30.0091 46.0938 29.5V27.6562Z" fill="#222430"/>
<path d="M44.25 23.9688H46.0938V25.8125H44.25V23.9688Z" fill="#222430"/>
<path d="M0.921875 0.921875H20.2812V54.3906H0.921875V0.921875Z" fill="#D6E0EB"/>
<path d="M0.921875 52.5469H20.2812V54.3906H0.921875V52.5469Z" fill="#A8B7D4"/>
<path d="M0.921875 0.921875H20.2812V1.84375H0.921875V0.921875Z" fill="#EDF4FA"/>
<path d="M4.60938 4.60938H16.5938V48.8594H4.60938V4.60938Z" fill="#598EDE"/>
<path d="M16.5938 3.6875H4.60938C4.36488 3.6875 4.1304 3.78463 3.95751 3.95751C3.78463 4.1304 3.6875 4.36488 3.6875 4.60938V48.8594C3.6875 49.1039 3.78463 49.3384 3.95751 49.5112C4.1304 49.6841 4.36488 49.7812 4.60938 49.7812H16.5938C16.8382 49.7812 17.0727 49.6841 17.2456 49.5112C17.4185 49.3384 17.5156 49.1039 17.5156 48.8594V4.60938C17.5156 4.36488 17.4185 4.1304 17.2456 3.95751C17.0727 3.78463 16.8382 3.6875 16.5938 3.6875ZM16.5938 48.8594H4.60938V4.60938H16.5938V48.8594Z" fill="#393D48"/>
<path d="M9.21875 46.0938C8.72976 46.0938 8.26079 45.8995 7.91502 45.5537C7.56925 45.208 7.375 44.739 7.375 44.25V4.60938H4.60938V48.8594H16.5938V46.0938H9.21875Z" fill="#4C76BD"/>
<path d="M7.375 7.375H13.8281V9.21875H7.375V7.375Z" fill="#393D48"/>
<path d="M7.375 11.0625H13.8281V12.9062H7.375V11.0625Z" fill="#393D48"/>
<path d="M7.375 14.75H13.8281V16.5938H7.375V14.75Z" fill="#393D48"/>
<path d="M7.375 40.5625H13.8281V42.4062H7.375V40.5625Z" fill="#393D48"/>
<path d="M7.375 44.25H13.8281V46.0938H7.375V44.25Z" fill="#393D48"/>
<path d="M7.375 9.21875H13.8281V10.1406H7.375V9.21875Z" fill="#4C76BD"/>
<path d="M7.375 12.9062H13.8281V13.8281H7.375V12.9062Z" fill="#4C76BD"/>
<path d="M7.375 16.5938H13.8281V17.5156H7.375V16.5938Z" fill="#4C76BD"/>
<path d="M7.375 42.4062H13.8281V43.3281H7.375V42.4062Z" fill="#4C76BD"/>
<path d="M7.375 7.375H13.8281V8.29688H7.375V7.375Z" fill="#222430"/>
<path d="M7.375 11.0625H13.8281V11.9844H7.375V11.0625Z" fill="#222430"/>
<path d="M7.375 14.75H13.8281V15.6719H7.375V14.75Z" fill="#222430"/>
<path d="M7.375 40.5625H13.8281V41.4844H7.375V40.5625Z" fill="#222430"/>
<path d="M7.375 44.25H13.8281V45.1719H7.375V44.25Z" fill="#222430"/>
<path d="M8.29688 27.6562C8.29688 27.1471 7.88414 26.7344 7.375 26.7344C6.86586 26.7344 6.45312 27.1471 6.45312 27.6562V29.5C6.45312 30.0091 6.86586 30.4219 7.375 30.4219C7.88414 30.4219 8.29688 30.0091 8.29688 29.5V27.6562Z" fill="#222430"/>
<path d="M6.45312 23.9688H8.29688V25.8125H6.45312V23.9688Z" fill="#222430"/>
<path d="M20.2812 52.5469H38.7188V54.3906H20.2812V52.5469Z" fill="#A8B7D4"/>
<path d="M21.2031 0.921875H37.7969V1.82808H21.2031V0.921875Z" fill="#EDF4FA"/>
<path d="M20.2812 1.84375H21.2031V54.3906H20.2812V1.84375Z" fill="#A8B7D4"/>
<path d="M37.7969 1.84375H38.7188V54.3906H37.7969V1.84375Z" fill="#A8B7D4"/>
<path d="M31.3438 51.625V4.60938H35.7687H35.9531V49.7812L33.1875 51.625H31.3438Z" fill="#A8B7D4"/>
<path d="M30.4219 3.6875H33.1875V49.7812H30.4219V3.6875Z" fill="#365587"/>
<path d="M33.1875 3.6875L35.9531 4.60938V48.8594L33.1875 49.7812V3.6875Z" fill="#598EDE"/>
<path d="M35.0312 44.25C34.7868 44.25 34.5523 44.1529 34.3794 43.98C34.2065 43.8071 34.1094 43.5726 34.1094 43.3281V3.99448L33.1875 3.6875V49.7812L35.9531 48.8594V43.3281C35.9531 43.5726 35.856 43.8071 35.6831 43.98C35.5102 44.1529 35.2757 44.25 35.0312 44.25Z" fill="#4C76BD"/>
<path d="M23.9688 5.53125H30.4219V12.9062H23.9688V5.53125Z" fill="#393D48"/>
<path d="M23.9688 15.6719H30.4219V28.5781H23.9688V15.6719Z" fill="#393D48"/>
<path d="M23.9688 31.3438H30.4219V48.8594H23.9688V31.3438Z" fill="#393D48"/>
<path d="M29.0391 8.29688C29.4058 8.29688 29.7575 8.44256 30.0169 8.70189C30.2762 8.96122 30.4219 9.31294 30.4219 9.67969V12.9062H27.6562V9.67969C27.6562 9.31294 27.8019 8.96122 28.0613 8.70189C28.3206 8.44256 28.6723 8.29688 29.0391 8.29688Z" fill="#FFBE4F"/>
<path d="M29.5 9.67969C29.5 9.55744 29.4514 9.4402 29.365 9.35376C29.2786 9.26731 29.1613 9.21875 29.0391 9.21875C28.9168 9.21875 28.7996 9.26731 28.7131 9.35376C28.6267 9.4402 28.5781 9.55744 28.5781 9.67969V12.9062H29.5V9.67969Z" fill="#EDF4FA"/>
<path d="M26.2734 8.29688C26.6402 8.29688 26.9919 8.44256 27.2512 8.70189C27.5106 8.96122 27.6562 9.31294 27.6562 9.67969V12.9062H24.8906V9.67969C24.8906 9.31294 25.0363 8.96122 25.2956 8.70189C25.555 8.44256 25.9067 8.29688 26.2734 8.29688Z" fill="#598EDE"/>
<path d="M26.7344 9.67969C26.7344 9.55744 26.6858 9.4402 26.5994 9.35376C26.5129 9.26731 26.3957 9.21875 26.2734 9.21875C26.1512 9.21875 26.0339 9.26731 25.9475 9.35376C25.8611 9.4402 25.8125 9.55744 25.8125 9.67969V12.9062H26.7344V9.67969Z" fill="#EDF4FA"/>
<path d="M26.7344 24.8906C26.7344 25.8686 27.1229 26.8065 27.8144 27.4981C28.506 28.1896 29.4439 28.5781 30.4219 28.5781V21.2031C29.4439 21.2031 28.506 21.5916 27.8144 22.2832C27.1229 22.9747 26.7344 23.9126 26.7344 24.8906Z" fill="#F2A142"/>
<path d="M27.7542 25.4005C27.5215 25.2832 27.3164 25.118 27.1523 24.9157C26.9881 24.7135 26.8687 24.4787 26.8019 24.2269C26.6982 24.7588 26.7141 25.307 26.8486 25.832C26.983 26.3569 27.2325 26.8453 27.5791 27.2619C27.9257 27.6784 28.3606 28.0127 28.8523 28.2403C29.344 28.468 29.8802 28.5834 30.4221 28.5782V23.7512C30.4221 24.0655 30.3417 24.3745 30.1887 24.6489C30.0357 24.9234 29.8151 25.1542 29.5478 25.3194C29.2805 25.4847 28.9754 25.5789 28.6615 25.593C28.3476 25.6072 28.0353 25.5409 27.7542 25.4005Z" fill="#BD731C"/>
<path d="M29.5 39.6406H30.4219V48.8594H26.7344V42.4062C26.7344 41.6728 27.0258 40.9693 27.5444 40.4507C28.0631 39.932 28.7665 39.6406 29.5 39.6406Z" fill="#F2A142"/>
<path d="M29.0391 35.9531C28.6723 35.9531 28.3206 36.0988 28.0613 36.3581C27.8019 36.6175 27.6562 36.9692 27.6562 37.3359V40.3588C28.1602 39.8985 28.8175 39.6425 29.5 39.6406H30.4219V37.3359C30.4219 36.9692 30.2762 36.6175 30.0169 36.3581C29.7575 36.0988 29.4058 35.9531 29.0391 35.9531Z" fill="#FFBE4F"/>
<path d="M28.3237 43.7402L27.754 42.6008C27.6896 42.4729 27.6562 42.3318 27.6562 42.1887V40.3588C27.367 40.6158 27.1353 40.9311 26.9764 41.2839C26.8175 41.6368 26.7351 42.0193 26.7344 42.4062V43.3281L27.4018 44.6621C27.4783 44.8152 27.5959 44.944 27.7415 45.034C27.8871 45.124 28.0548 45.1718 28.226 45.1719H30.4219V44.25H29.1478C28.9767 44.2499 28.8089 44.2022 28.6634 44.1121C28.5178 44.0221 28.4002 43.8933 28.3237 43.7402Z" fill="#DD933C"/>
<path d="M28.5781 46.0938H30.4219V45.1719H28.226C28.0548 45.1718 27.8871 45.124 27.7415 45.034C27.5959 44.944 27.4783 44.8152 27.4018 44.6621L26.7344 43.3281V48.8594H27.6562V47.0156C27.6562 46.7711 27.7534 46.5366 27.9263 46.3638C28.0991 46.1909 28.3336 46.0938 28.5781 46.0938Z" fill="#4C76BD"/>
<path d="M30.4219 46.0938H28.5781C28.3336 46.0938 28.0991 46.1909 27.9263 46.3638C27.7534 46.5366 27.6562 46.7711 27.6562 47.0156V48.8594H30.4219V46.0938Z" fill="#6197F2"/>
<path d="M29.0391 44.25C29.2936 44.25 29.5 44.0436 29.5 43.7891C29.5 43.5345 29.2936 43.3281 29.0391 43.3281C28.7845 43.3281 28.5781 43.5345 28.5781 43.7891C28.5781 44.0436 28.7845 44.25 29.0391 44.25Z" fill="#598EDE"/>
<path d="M28.5781 37.3359C28.5781 37.2137 28.5296 37.0964 28.4431 37.01C28.3567 36.9236 28.2394 36.875 28.1172 36.875C27.9949 36.875 27.8777 36.9236 27.7913 37.01C27.7048 37.0964 27.6562 37.2137 27.6562 37.3359V40.3588C27.9251 40.1169 28.2381 39.9291 28.5781 39.8056V37.3359Z" fill="#C56532"/>
<path d="M54.3906 54.3906H58.0781V58.0781H54.3906V54.3906Z" fill="#5C6979"/>
<path d="M36.875 54.3906H40.5625V58.0781H36.875V54.3906Z" fill="#5C6979"/>
<path d="M18.4375 54.3906H22.125V58.0781H18.4375V54.3906Z" fill="#5C6979"/>
<path d="M0.921875 54.3906H4.60938V58.0781H0.921875V54.3906Z" fill="#5C6979"/>
<path d="M58.0781 54.3906H54.3906V58.0781H56.2344V56.2344C56.2344 55.9899 56.3315 55.7554 56.5044 55.5825C56.6773 55.4096 56.9118 55.3125 57.1562 55.3125H58.0781V54.3906Z" fill="#393D48"/>
<path d="M40.5625 54.3906H36.875V58.0781H38.7188V56.2344C38.7188 55.9899 38.8159 55.7554 38.9888 55.5825C39.1616 55.4096 39.3961 55.3125 39.6406 55.3125H40.5625V54.3906Z" fill="#393D48"/>
<path d="M22.125 54.3906H18.4375V58.0781H20.2812V56.2344C20.2812 55.9899 20.3784 55.7554 20.5513 55.5825C20.7241 55.4096 20.9586 55.3125 21.2031 55.3125H22.125V54.3906Z" fill="#393D48"/>
<path d="M4.60938 54.3906H0.921875V58.0781H2.76562V56.2344C2.76562 55.9899 2.86275 55.7554 3.03564 55.5825C3.20852 55.4096 3.443 55.3125 3.6875 55.3125H4.60938V54.3906Z" fill="#393D48"/>
</g>
<defs>
<clipPath id="clip0_926_278">
<rect width="59" height="59" fill="white"/>
</clipPath>
</defs>
</svg>
