<svg width="45" height="45" viewBox="0 0 45 45" fill="none" xmlns="http://www.w3.org/2000/svg">
<g clip-path="url(#clip0_927_545)">
<path d="M42.1385 31.3726L45 28.2216V16.7784L42.9313 12.767L44.5787 8.07193C43.7778 6.20127 41.9207 4.89038 39.7571 4.89038H5.24294C2.34738 4.89038 0 7.23776 0 10.1333V34.8665C0 37.7621 2.34738 40.1095 5.24294 40.1095H39.7571C41.9207 40.1095 43.7777 38.7987 44.5786 36.9281L42.1385 31.3726Z" fill="#A8E1F6"/>
<path d="M9.44112 34.8666V10.1333C9.44112 7.23776 11.7885 4.89038 14.6841 4.89038H5.24294C2.34738 4.89038 0 7.23776 0 10.1333V34.8665C0 37.7621 2.34738 40.1095 5.24294 40.1095H14.6841C11.7885 40.1096 9.44112 37.7622 9.44112 34.8666Z" fill="#78CBED"/>
<path d="M31.6916 36.2419H7.42625C5.46488 36.2419 3.86914 34.6462 3.86914 32.6848V12.3152C3.86914 10.3539 5.46479 8.75812 7.42625 8.75812H31.6917C33.6531 8.75812 35.2488 10.3538 35.2488 12.3152V32.6848C35.2487 34.6461 33.6531 36.2419 31.6916 36.2419ZM7.42625 10.0765C6.19183 10.0765 5.1875 11.0808 5.1875 12.3152V32.6848C5.1875 33.9192 6.19183 34.9235 7.42625 34.9235H31.6917C32.9261 34.9235 33.9305 33.9192 33.9305 32.6848V12.3152C33.9305 11.0808 32.9261 10.0765 31.6917 10.0765H7.42625Z" fill="#5CB9D6"/>
<path d="M27.2395 26.9316H4.52832C4.16419 26.9316 3.86914 26.6365 3.86914 26.2724C3.86914 25.9083 4.16419 25.6132 4.52832 25.6132H27.2395C27.6037 25.6132 27.8987 25.9083 27.8987 26.2724C27.8987 26.6365 27.6037 26.9316 27.2395 26.9316Z" fill="#5CB9D6"/>
<path d="M8.1748 33.0578C7.81067 33.0578 7.51562 32.7628 7.51562 32.3987V29.426C7.51562 29.0619 7.81067 28.7668 8.1748 28.7668C8.53894 28.7668 8.83398 29.0619 8.83398 29.426V32.3987C8.83398 32.7628 8.53885 33.0578 8.1748 33.0578Z" fill="white"/>
<path d="M11.335 33.0578C10.9708 33.0578 10.6758 32.7628 10.6758 32.3987V29.426C10.6758 29.0619 10.9708 28.7668 11.335 28.7668C11.6991 28.7668 11.9941 29.0619 11.9941 29.426V32.3987C11.9941 32.7628 11.6991 33.0578 11.335 33.0578Z" fill="white"/>
<path d="M14.499 33.0578C14.1349 33.0578 13.8398 32.7628 13.8398 32.3987V29.426C13.8398 29.0619 14.1349 28.7668 14.499 28.7668C14.8632 28.7668 15.1582 29.0619 15.1582 29.426V32.3987C15.1582 32.7628 14.8632 33.0578 14.499 33.0578Z" fill="white"/>
<path d="M20.4287 33.0578C20.0646 33.0578 19.7695 32.7628 19.7695 32.3987V29.426C19.7695 29.0619 20.0646 28.7668 20.4287 28.7668C20.7928 28.7668 21.0879 29.0619 21.0879 29.426V32.3987C21.0879 32.7628 20.7928 33.0578 20.4287 33.0578Z" fill="white"/>
<path d="M23.5889 33.0578C23.2247 33.0578 22.9297 32.7628 22.9297 32.3987V29.426C22.9297 29.0619 23.2247 28.7668 23.5889 28.7668C23.953 28.7668 24.248 29.0619 24.248 29.426V32.3987C24.248 32.7628 23.953 33.0578 23.5889 33.0578Z" fill="white"/>
<path d="M27.2373 36.2419C26.8732 36.2419 26.5781 35.9468 26.5781 35.5827V9.4173C26.5781 9.05317 26.8732 8.75812 27.2373 8.75812C27.6014 8.75812 27.8965 9.05317 27.8965 9.4173V35.5826C27.8965 35.9467 27.6014 36.2419 27.2373 36.2419Z" fill="#5CB9D6"/>
<path d="M41.7691 27.2193L41.7689 27.2198L36.6997 25.6084L39.3035 21.9588L39.3041 21.9592C39.4874 20.0137 40.6483 18.3485 42.2896 17.4622L42.2894 17.4621L42.4493 12.1184L38.0877 9.82605C33.8893 12.1203 30.9561 16.4391 30.6016 21.4706L30.6017 21.4705L34.5891 26.8157L36.6998 34.3106C38.9408 35.8883 41.6508 36.8445 44.5795 36.9282C44.8505 36.2954 45.0009 35.5987 45.0009 34.8666V28.2216C45.0004 28.2216 44.9999 28.2216 44.9995 28.2216C43.8016 28.2216 42.6891 27.8509 41.7691 27.2193Z" fill="#F5FBFC"/>
<path d="M38.084 9.82559L42.2866 17.4621C43.0937 17.0262 44.0168 16.7785 44.9967 16.7785H44.9981V10.1335C44.9981 9.40152 44.8477 8.7049 44.5767 8.07208C42.229 8.13914 40.0217 8.76642 38.084 9.82559Z" fill="#FFA1AC"/>
<path d="M36.6995 34.3107L41.7688 27.2198C40.2656 26.1877 39.2775 24.4572 39.2775 22.5C39.2775 22.3175 39.2865 22.1371 39.3032 21.9589L30.6014 21.4705C30.5774 21.8106 30.5645 22.1537 30.5645 22.4999C30.5645 27.3826 32.9891 31.6984 36.6995 34.3107Z" fill="#FFA1AC"/>
<path d="M22.2981 16.3122H9.46757C8.47994 16.3122 7.67188 15.5041 7.67188 14.5165C7.67188 13.5288 8.47994 12.7208 9.46757 12.7208H22.298C23.2856 12.7208 24.0937 13.5288 24.0937 14.5165C24.0937 15.5041 23.2857 16.3122 22.2981 16.3122Z" fill="#F5FBFC"/>
<path d="M21.0068 23.0444H10.7566C9.769 23.0444 8.96094 22.2363 8.96094 21.2487C8.96094 20.2611 9.769 19.453 10.7566 19.453H21.0068C21.9944 19.453 22.8025 20.2611 22.8025 21.2487C22.8024 22.2363 21.9944 23.0444 21.0068 23.0444Z" fill="#F5FBFC"/>
<path d="M12.7873 14.5165C12.7873 13.5288 13.5954 12.7208 14.583 12.7208H9.46757C8.47994 12.7208 7.67188 13.5288 7.67188 14.5165C7.67188 15.5041 8.47994 16.3122 9.46757 16.3122H14.583C13.5954 16.3121 12.7873 15.5041 12.7873 14.5165Z" fill="#D9F5FF"/>
<path d="M14.0763 21.2487C14.0763 20.2611 14.8844 19.453 15.872 19.453H10.7566C9.769 19.453 8.96094 20.2611 8.96094 21.2487C8.96094 22.2363 9.769 23.0444 10.7566 23.0444H15.872C14.8844 23.0444 14.0763 22.2363 14.0763 21.2487Z" fill="#D9F5FF"/>
</g>
<defs>
<clipPath id="clip0_927_545">
<rect width="45" height="45" fill="white"/>
</clipPath>
</defs>
</svg>
