<svg width="62" height="62" viewBox="0 0 62 62" fill="none" xmlns="http://www.w3.org/2000/svg">
<g clip-path="url(#clip0_926_244)">
<path d="M5.63159 56.6234C7.04839 60.5105 10.548 62.7992 13.4664 61.7336L53.6453 47.1175C56.5636 46.0519 57.7746 42.0437 56.3578 38.1687C54.941 34.2937 51.4414 31.9929 48.523 33.0586L8.3562 47.6746C5.43784 48.7281 4.22691 52.7484 5.63159 56.6234Z" fill="#D37F4A"/>
<path d="M38.8594 36.5703C41.0148 38.1082 44.5387 39.1133 48.5227 39.1133C51.441 39.1133 54.1051 38.5804 56.1637 37.6844C54.65 34.0879 51.3078 32.0293 48.5227 33.0465L38.8594 36.5703Z" fill="#C46D36"/>
<path d="M35.7222 0.0363423C31.4355 1.12619 21.4816 5.19494 20.3433 19.4113C20.3433 19.4113 19.6046 18.9754 19.1081 17.2559C18.8538 16.384 17.7035 16.1902 17.1706 16.9168C7.51947 30.3461 16.5167 46.4031 29.8855 46.4031C40.7597 46.4031 48.873 36.2434 48.873 29.4379C48.873 25.127 46.8628 21.252 45.3855 18.9754C44.8769 18.2004 43.6781 18.3578 43.4238 19.2539C43.0968 20.368 42.5156 21.7363 41.4984 23.0199C41.4984 11.8914 34.7656 9.21525 37.0542 1.39259C37.2843 0.593374 36.5456 -0.169517 35.7222 0.0363423Z" fill="#FAE05A"/>
<path d="M28.6507 14.8824C26.7253 17.934 24.1581 23.8554 26.0351 32.0777C26.0351 32.0777 24.6667 32.4047 22.2085 30.5761C21.494 30.0433 20.489 30.5519 20.4647 31.4359C20.3558 35.1293 21.3003 42.5886 29.8858 46.4273C29.8858 46.4273 37.7933 43.5574 38.762 34.6328C39.646 26.5195 32.0776 23.916 30.6729 15.3062C30.5034 14.289 29.1956 14.0226 28.6507 14.8824Z" fill="#F9B041"/>
<path d="M13.4661 33.0465C10.5477 31.9808 7.04809 34.2695 5.63129 38.1566C4.21449 42.0437 5.43754 46.0519 8.34379 47.1054L48.5227 61.7336L53.645 47.6746L13.4661 33.0465Z" fill="#E4A988"/>
<path d="M19.7024 43.2789C21.1192 39.3918 24.6188 37.1031 27.5372 38.1687L13.4661 33.0465C10.5477 31.9808 7.04809 34.2695 5.63129 38.1566C4.21449 42.0437 5.43754 46.0519 8.34379 47.1054L22.4149 52.2277C19.5086 51.1742 18.2856 47.166 19.7024 43.2789Z" fill="#DD9574"/>
<path d="M33.6275 48.825C41.8497 51.816 49.6118 52.0582 52.8935 49.7332L53.6443 47.6746L18.3333 34.8145C16.8318 38.9316 23.6857 45.2043 33.6275 48.825Z" fill="#DD9574"/>
<path d="M20.8034 41.1355C22.5229 38.6168 25.2233 37.3211 27.5362 38.1688L18.333 34.8145C17.667 36.643 18.6479 38.8832 20.8034 41.1355Z" fill="#D88358"/>
<path d="M10.221 41.9711C8.47727 41.3414 6.75774 40.7844 5.11086 40.3242C4.73547 43.4363 5.98274 46.2578 8.34407 47.1176L27.162 53.9594C28.2034 51.1258 20.6109 45.7613 10.221 41.9711Z" fill="#DD9574"/>
<path d="M5.11086 40.3242C4.73547 43.4363 5.98274 46.2578 8.34407 47.1176L22.4152 52.2398C20.1749 51.4285 18.9398 48.8613 19.1335 45.9551C16.5784 44.5625 13.539 43.182 10.221 41.9832C8.47727 41.3414 6.75774 40.7844 5.11086 40.3242Z" fill="#D88358"/>
<path d="M23.1402 58.2219C20.9848 56.684 17.4609 55.679 13.477 55.679C10.5586 55.679 7.89453 56.2118 5.83594 57.1079C7.34961 60.7043 10.6918 62.7629 13.477 61.7458L23.1402 58.2219Z" fill="#C46D36"/>
<path d="M56.3902 56.613C57.8037 52.7279 56.5849 48.7181 53.668 47.6568C50.751 46.5955 47.2405 48.8847 45.827 52.7697C44.4135 56.6548 45.6322 60.6647 48.5492 61.7259C51.4662 62.7872 54.9767 60.4981 56.3902 56.613Z" fill="#FAD7A2"/>
<path d="M18.0918 3.63278C16.7235 4.55309 14.1079 6.95075 14.5922 11.7218C14.6407 12.1578 15.1129 12.4121 15.5004 12.2062C16.9657 11.4433 19.884 9.23942 19.0485 4.05661C18.9879 3.60856 18.4793 3.37849 18.0918 3.63278Z" fill="#FAE05A"/>
<path d="M44.1863 5.72775C45.5547 6.64807 48.1703 9.04572 47.6859 13.8168C47.6375 14.2528 47.1652 14.507 46.7777 14.3012C45.3125 13.5383 42.3941 11.3344 43.2297 6.15158C43.2902 5.70353 43.7988 5.47346 44.1863 5.72775Z" fill="#FAE05A"/>
<path d="M49.1511 58.234C48.7757 58.234 48.4125 57.9918 48.2914 57.6164C47.916 56.5024 47.9886 55.0977 48.473 53.7657C48.9574 52.4215 49.8171 51.3075 50.8101 50.6899C51.2339 50.4235 51.791 50.5567 52.0574 50.9926C52.3238 51.4164 52.1906 51.9735 51.7546 52.2399C51.5125 52.3852 50.689 52.9786 50.1804 54.3832C49.6718 55.7879 49.9261 56.7688 50.0109 57.0352C50.1683 57.5075 49.914 58.0282 49.4418 58.1856C49.3449 58.2098 49.248 58.234 49.1511 58.234Z" fill="#FACA81"/>
</g>
<defs>
<clipPath id="clip0_926_244">
<rect width="62" height="62" fill="white"/>
</clipPath>
</defs>
</svg>
