<svg width="55" height="55" viewBox="0 0 55 55" fill="none" xmlns="http://www.w3.org/2000/svg">
<g clip-path="url(#clip0_926_418)">
<path d="M34.9681 52.5543C34.1929 52.5543 33.4938 52.0186 33.3174 51.2306L25.2522 15.5321C25.048 14.6197 25.6221 13.7143 26.5347 13.5101C26.6592 13.4822 26.7836 13.4689 26.906 13.4689C27.6812 13.4689 28.3803 14.0046 28.5567 14.7926L36.6219 50.4911C36.8261 51.4035 36.252 52.3089 35.3394 52.5131C35.215 52.541 35.0905 52.5543 34.9681 52.5543Z" fill="#C5D3DD"/>
<path d="M23.6906 0.76648C35.7213 -1.92476 47.6842 2.65732 54.9823 11.5977L0 23.8972C2.79104 12.7 11.6599 3.45772 23.6906 0.76648Z" fill="#FE646F"/>
<path d="M50.5525 12.5888L54.9831 11.5977C47.685 2.6573 35.7221 -1.92489 23.6914 0.76646C23.6914 0.76646 37.9032 -2.76665 50.5525 12.5888Z" fill="#FD4755"/>
<path d="M23.6904 0.766453C31.626 -1.0088 40.0436 4.36648 45.6244 13.6909L9.35742 21.804C10.4313 10.9908 15.7547 2.5416 23.6904 0.766453Z" fill="#F5F8F9"/>
<path d="M23.6914 0.766452C26.4775 0.143191 30.4367 6.51578 33.8585 16.3233L21.1254 19.1716C20.0401 8.84157 20.9053 1.38971 23.6914 0.766452Z" fill="#FE646F"/>
<path d="M0 23.8972C1.54881 28.5961 9.80848 27.2131 9.35763 21.8038C6.23842 22.5016 3.11921 23.1995 0 23.8972Z" fill="#E8EDF2"/>
<path d="M45.625 13.6894C47.1738 18.3884 55.4335 17.0053 54.9826 11.5961C51.8634 12.2939 48.7442 12.9917 45.625 13.6894Z" fill="#F5F8F9"/>
<path d="M54.9826 11.5961C51.8634 12.2939 48.7442 12.9916 45.625 13.6894C45.6252 13.6902 45.6255 13.6909 45.6258 13.6917C47.2692 13.3241 48.9125 12.9564 50.556 12.5888C50.6982 14.2955 49.9729 15.6008 48.8653 16.4413C51.7338 17.0072 55.2822 15.1916 54.9826 11.5961Z" fill="#E8EDF2"/>
<path d="M9.35742 21.804C12.059 26.6099 21.2139 25.0802 21.1244 19.1717C17.202 20.0491 13.2797 20.9265 9.35742 21.804Z" fill="#FE646F"/>
<path d="M33.8535 16.3245C36.5551 21.1304 45.71 19.6007 45.6205 13.6922C41.6981 14.5696 37.7758 15.447 33.8535 16.3245Z" fill="#FE646F"/>
<path d="M21.125 19.1716C21.125 19.1716 23.1725 23.4514 28.5425 22.2061C33.9125 20.961 33.858 16.3232 33.858 16.3232L21.125 19.1716Z" fill="#E8EDF2"/>
<path d="M48.0382 49.0071C45.1179 46.4934 41.1005 45.6795 37.4322 46.8586L29.7851 49.3167L19.5812 44.3715C14.9456 42.1248 9.37299 43.3739 6.1398 47.3843L0 55H55L48.0382 49.0071Z" fill="#FDD79B"/>
<path d="M48.0379 49.0071C45.4269 46.7595 41.9389 45.8722 38.6074 46.5521C40.4285 46.9242 42.1562 47.7545 43.6113 49.0071L50.5731 55H54.9997L48.0379 49.0071Z" fill="#FCCD7F"/>
<path d="M15.1545 44.3715L27.0481 50.1216L29.7851 49.3169L19.5812 44.3716C17.3321 43.2816 14.8629 43.0168 12.5469 43.4886C13.434 43.6702 14.3099 43.9621 15.1545 44.3715Z" fill="#FCCD7F"/>
<path d="M13.3358 48.524C12.8844 48.524 12.5061 48.1449 12.5059 47.694C12.5055 47.2414 12.884 46.8648 13.3357 46.8638C13.7875 46.8627 14.1661 47.2429 14.1658 47.694C14.1654 48.1447 13.7872 48.524 13.3358 48.524Z" fill="#E9B665"/>
<path d="M9.36119 52.1095C8.90905 52.1095 8.53082 51.732 8.53125 51.2796C8.53168 50.8377 8.89219 50.4654 9.33391 50.4505C9.77627 50.4355 10.1626 50.7881 10.1896 51.2293C10.2185 51.6989 9.83138 52.1095 9.36119 52.1095Z" fill="#E9B665"/>
<path d="M42.771 52.1095C42.3092 52.1095 41.9276 51.7159 41.9418 51.2544C41.9553 50.8144 42.3287 50.448 42.771 50.4495C43.2035 50.4509 43.5728 50.7973 43.5994 51.2293C43.6283 51.6996 43.2418 52.1095 42.771 52.1095Z" fill="#E9B665"/>
</g>
<defs>
<clipPath id="clip0_926_418">
<rect width="55" height="55" fill="white"/>
</clipPath>
</defs>
</svg>
