<svg width="51" height="51" viewBox="0 0 51 51" fill="none" xmlns="http://www.w3.org/2000/svg">
<g clip-path="url(#clip0_926_487)">
<path d="M25.6883 23.5593L18.064 21.6403C17.6595 21.5385 17.296 21.315 17.0225 21L11.376 14.4956C10.6382 13.6458 10.729 12.3587 11.5789 11.6209C12.4287 10.8832 13.7159 10.974 14.4536 11.8238L19.6801 17.8443L26.683 19.6069C27.7745 19.8816 28.4366 20.9891 28.1618 22.0804C27.8877 23.1702 26.7814 23.8343 25.6883 23.5593Z" fill="#EB9B81"/>
<path d="M35.2505 29.3547L31.3383 23.3511C30.7534 22.4535 31.0068 21.2517 31.9045 20.6669C32.8019 20.0821 34.0038 20.3354 34.5886 21.2331L37.5865 25.8335L41.9963 23.8049C42.9697 23.3572 44.1215 23.7832 44.5693 24.7566C45.0171 25.7299 44.591 26.8818 43.6177 27.3295L37.6864 30.0579C36.8123 30.4599 35.7757 30.1608 35.2505 29.3547Z" fill="#80391B"/>
<path d="M42.6406 45.2995L40.2021 36.9685H31.3109C30.0249 36.9685 28.9824 35.926 28.9824 34.6401C28.9824 33.3541 30.0249 32.3116 31.3109 32.3116H41.9469C42.9809 32.3116 43.8912 32.9935 44.1816 33.986L47.1101 43.9914C47.4714 45.2255 46.7637 46.519 45.5295 46.8802C44.2994 47.2401 43.003 46.5378 42.6406 45.2995Z" fill="#55696E"/>
<path d="M35.0671 19.525H30.9235C29.0954 19.525 27.6133 21.0071 27.6133 22.8352V35.7077C27.6133 36.8326 28.5252 37.7445 29.6501 37.7445L38.3774 32.276V22.8351C38.3774 21.0071 36.8954 19.525 35.0671 19.525Z" fill="#E64937"/>
<path d="M47.6276 48.9183H37.2596C36.578 48.9183 36.0254 48.3657 36.0254 47.684C36.0254 47.0024 36.578 46.4498 37.2596 46.4498H47.6276C48.3092 46.4498 48.8618 47.0024 48.8618 47.684C48.8618 48.3657 48.3093 48.9183 47.6276 48.9183Z" fill="#46738C"/>
<path d="M39.2822 39.0358H26.9686C26.4366 39.0358 25.9646 38.695 25.797 38.1902L20.2526 21.4811C20.0379 20.8342 20.3884 20.1356 21.0353 19.921C21.6822 19.7062 22.3808 20.0567 22.5955 20.7037L27.8594 36.5672H39.282C39.9636 36.5672 40.5162 37.1198 40.5162 37.8014C40.5164 38.4832 39.9638 39.0358 39.2822 39.0358Z" fill="#3C5064"/>
<path d="M39.3137 45.0605L33.3857 41.638L39.3137 38.2155C39.6679 38.011 39.7892 37.5581 39.5847 37.2039C39.3801 36.8497 38.9273 36.7283 38.5731 36.9329L32.6451 40.3553V33.5104C32.6451 33.1014 32.3135 32.7698 31.9045 32.7698C31.4955 32.7698 31.1639 33.1014 31.1639 33.5104V40.3553L25.236 36.9329C24.8818 36.7284 24.4288 36.8497 24.2243 37.2039C24.0198 37.5581 24.1412 38.011 24.4954 38.2155L30.4233 41.638L24.4954 45.0605C24.1412 45.265 24.0198 45.7179 24.2243 46.0721C24.3615 46.3097 24.6104 46.4426 24.8664 46.4426C24.992 46.4426 25.1194 46.4106 25.236 46.3432L31.1639 42.9208V49.7657C31.1639 50.1747 31.4955 50.5063 31.9045 50.5063C32.3135 50.5063 32.6451 50.1747 32.6451 49.7657V42.9208L38.5731 46.3432C38.6897 46.4106 38.817 46.4426 38.9427 46.4426C39.1986 46.4426 39.4476 46.3098 39.5848 46.0721C39.7892 45.718 39.6679 45.265 39.3137 45.0605Z" fill="#46738C"/>
<path d="M31.9056 39.5254C30.7388 39.5254 29.793 40.4713 29.793 41.6381C29.793 42.8049 30.7389 43.7507 31.9056 43.7507C33.0724 43.7507 34.0182 42.8048 34.0182 41.6381C34.0182 40.4713 33.0724 39.5254 31.9056 39.5254Z" fill="#87AFB9"/>
<path d="M31.905 51C26.7428 51 22.543 46.8003 22.543 41.6381C22.543 36.476 26.7427 32.2761 31.905 32.2761C37.0672 32.2761 41.2669 36.4759 41.2669 41.6381C41.2669 46.8004 37.0671 51 31.905 51ZM31.905 34.7446C28.104 34.7446 25.0116 37.837 25.0116 41.638C25.0116 45.439 28.104 48.5314 31.905 48.5314C35.7059 48.5314 38.7983 45.439 38.7983 41.638C38.7983 37.837 35.7059 34.7446 31.905 34.7446Z" fill="#373C41"/>
<path d="M31.9051 34.7459C35.7054 34.7459 38.7972 37.8377 38.7972 41.638C38.7972 45.4383 35.7054 48.5301 31.9051 48.5301C28.1048 48.5301 25.0131 45.4383 25.0131 41.638C25.0131 37.8377 28.1048 34.7459 31.9051 34.7459ZM31.9051 33.6762C27.508 33.6762 23.9434 37.2408 23.9434 41.638C23.9434 46.0351 27.508 49.5998 31.9051 49.5998C36.3023 49.5998 39.8669 46.0351 39.8669 41.638C39.8669 37.2408 36.3023 33.6762 31.9051 33.6762Z" fill="#2B2F33"/>
<path d="M37.782 16.1478C38.9435 14.0699 38.2007 11.4439 36.1228 10.2824C34.045 9.12089 31.419 9.86377 30.2574 11.9417C29.0959 14.0196 29.8387 16.6456 31.9166 17.8071C33.9944 18.9686 36.6205 18.2257 37.782 16.1478Z" fill="#80391B"/>
<path d="M31.3856 35.9152L26.914 29.2625C26.4379 28.5542 26.4805 27.618 27.0189 26.9559L29.1473 24.3381L31.4006 24.5077L32.2068 26.7268L30.936 28.2898L34.6064 33.7504C35.2042 34.6398 34.9678 35.8454 34.0784 36.4432C33.1858 37.0431 31.9812 36.8014 31.3856 35.9152Z" fill="#80391B"/>
<path d="M34.4495 20.8939C33.618 20.2179 32.3959 20.3438 31.7199 21.1753L29.1484 24.3379L32.2079 26.7265L34.7309 23.6235C35.4069 22.7921 35.281 21.57 34.4495 20.8939Z" fill="#D13D2C"/>
<path d="M3.55595 50.7726C2.33075 50.2045 1.79804 48.7508 2.36611 47.5255L7.13033 37.2505L6.66924 28.5525C6.66924 28.5525 7.67131 26.1131 9.02012 26.0459C10.3684 25.9792 11.517 27.0176 11.5842 28.3665L12.045 37.6098C12.0647 38.0058 11.9879 38.4005 11.8211 38.7602L6.80301 49.5828C6.23504 50.8078 4.78124 51.3407 3.55595 50.7726Z" fill="#5F6E9B"/>
<path d="M16.5003 48.7671L15.4734 37.0035L12.3411 27.6889C11.9107 26.4088 12.5994 25.0221 13.8794 24.5916C15.1596 24.161 16.5462 24.8499 16.9767 26.13L20.2019 35.7209C20.2636 35.9045 20.3034 36.0947 20.3202 36.2877L21.3725 48.3418C21.4899 49.6872 20.4944 50.8731 19.149 50.9905C17.7976 51.1085 16.6173 50.1069 16.5003 48.7671Z" fill="#414B82"/>
<path d="M16.2825 10.6574L10.9143 10.2984C9.2517 10.1872 7.81384 11.4449 7.70267 13.1074L6.66992 28.5524L18.0589 29.3139L19.0916 13.869C19.2027 12.2064 17.945 10.7686 16.2825 10.6574Z" fill="#64AFFF"/>
<path d="M14.901 0.0101814C12.4398 -0.154373 10.3114 1.70733 10.1468 4.16847C9.98228 6.62952 11.844 8.75808 14.3051 8.92263C16.7663 9.08718 18.8947 7.22549 19.0593 4.76444C19.2238 2.30319 17.362 0.174736 14.901 0.0101814Z" fill="#FFB69E"/>
<path d="M21.5997 27.2485L14.5434 22.9074C14.1438 22.6615 13.8412 22.2852 13.6868 21.8421L12.5586 18.6032L14.2334 16.9036L16.4872 17.4916L17.2969 19.8163L23.7353 23.7773C24.6938 24.367 24.9928 25.6221 24.4031 26.5807C23.8118 27.5419 22.5558 27.8367 21.5997 27.2485Z" fill="#FFB69E"/>
<path d="M16.488 17.4915L14.7479 12.4956C14.3777 11.4328 13.2163 10.8714 12.1532 11.2415C11.0904 11.6117 10.5289 12.7733 10.8991 13.8362L12.5595 18.603L16.488 17.4915Z" fill="#4699F2"/>
</g>
<defs>
<clipPath id="clip0_926_487">
<rect width="51" height="51" fill="white"/>
</clipPath>
</defs>
</svg>
