<svg width="16" height="16" viewBox="0 0 16 16" fill="none" xmlns="http://www.w3.org/2000/svg">
<path d="M7.99707 8.97146C8.92593 8.97146 9.68156 8.31066 9.68156 7.49845V1.47299C9.68156 0.6608 8.92593 0 7.99707 0C7.0682 0 6.3125 0.6608 6.3125 1.47302V7.49848C6.3125 8.3107 7.0682 8.97146 7.99707 8.97146Z" fill="#021B32"/>
<path d="M13.6697 4.06988C13.6654 4.06579 13.661 4.06182 13.6569 4.05829C13.3388 3.78014 12.9159 3.62695 12.466 3.62695C12.0161 3.62695 11.5931 3.78011 11.275 4.05829C10.9568 4.33647 10.7816 4.70637 10.7817 5.09983C10.7817 5.48692 10.9514 5.85119 11.2599 6.12781C11.2648 6.13241 11.2698 6.13697 11.2749 6.14147C12.1496 6.90639 12.6314 7.92341 12.6314 9.00523C12.6314 11.2384 10.5537 13.0552 8 13.0552C5.44628 13.0552 3.36864 11.2384 3.36864 9.00523C3.36864 7.92338 3.85036 6.90636 4.72513 6.14147C5.38171 5.56729 5.38178 4.6329 4.72499 4.05838C4.40683 3.78029 3.98383 3.62711 3.53402 3.62711C3.08414 3.62711 2.66121 3.78029 2.34309 4.05851C0.832109 5.37983 0 7.13661 0 9.00523C0 10.8739 0.832109 12.6306 2.34313 13.952C3.85414 15.2733 5.86311 16.001 8 16.001C10.1369 16.001 12.1459 15.2733 13.6569 13.952C15.1679 12.6306 16 10.8739 16 9.00523C16 7.14217 15.1726 5.38986 13.6697 4.06988Z" fill="#021B32"/>
</svg>
